<?xml version="1.0" standalone="no"?>
 <!DOCTYPE svg PUBLIC "-//W3C//DTD SVG 1.1//EN" 
 "http://www.w3.org/Graphics/SVG/1.1/DTD/svg11.dtd"> 
<svg xmlns="http://www.w3.org/2000/svg" version="1.1" 
    width="29.7002cm" height="21.0007cm" viewBox="0 0 116930 82680 ">
<title>SVG Picture created as LDOs-F_Fab.svg date 2020/04/08 04:14:34 </title>
  <desc>Picture generated by PCBNEW </desc>
<g style="fill:#000000; fill-opacity:1;stroke:#000000; stroke-opacity:1;
stroke-linecap:round; stroke-linejoin:round; "
 transform="translate(0 0) scale(1 1)">
</g>
<g style="fill:#000000; fill-opacity:0.0; 
stroke:#000000; stroke-width:-0.000393701; stroke-opacity:1; 
stroke-linecap:round; stroke-linejoin:round;">
</g>
<g style="fill:#000000; fill-opacity:0.0; 
stroke:#000000; stroke-width:39.3701; stroke-opacity:1; 
stroke-linecap:round; stroke-linejoin:round;">
</g>
<g style="fill:#000000; fill-opacity:0.0; 
stroke:#000000; stroke-width:59.0551; stroke-opacity:1; 
stroke-linecap:round; stroke-linejoin:round;">
<rect x="69685.9" y="65357.2" width="42519.7" height="12598.4" rx="0" />
</g>
<g style="fill:#000000; fill-opacity:0.0; 
stroke:#000000; stroke-width:39.3701; stroke-opacity:1; 
stroke-linecap:round; stroke-linejoin:round;">
</g>
<g style="fill:#000000; fill-opacity:0.0; 
stroke:#000000; stroke-width:59.0551; stroke-opacity:1; 
stroke-linecap:round; stroke-linejoin:round;">
<rect x="3937.01" y="3937.01" width="109056" height="74806" rx="0" />
</g>
<g style="fill:#000000; fill-opacity:0.0; 
stroke:#000000; stroke-width:39.3701; stroke-opacity:1; 
stroke-linecap:round; stroke-linejoin:round;">
</g>
<g style="fill:#000000; fill-opacity:0.0; 
stroke:#000000; stroke-width:59.0551; stroke-opacity:1; 
stroke-linecap:round; stroke-linejoin:round;">
<rect x="4724.41" y="4724.41" width="107481" height="73231.2" rx="0" />
</g>
<g style="fill:#000000; fill-opacity:0.0; 
stroke:#000000; stroke-width:39.3701; stroke-opacity:1; 
stroke-linecap:round; stroke-linejoin:round;">
</g>
<g style="fill:#000000; fill-opacity:0.0; 
stroke:#000000; stroke-width:59.0551; stroke-opacity:1; 
stroke-linecap:round; stroke-linejoin:round;">
<path d="M23622 4724
L23622 3937
" />
</g>
<g style="fill:#000000; fill-opacity:0.0; 
stroke:#000000; stroke-width:39.3701; stroke-opacity:1; 
stroke-linecap:round; stroke-linejoin:round;">
</g>
<g style="fill:#000000; fill-opacity:0.0; 
stroke:#000000; stroke-width:59.0551; stroke-opacity:1; 
stroke-linecap:round; stroke-linejoin:round;">
<path d="M43307 4724
L43307 3937
" />
</g>
<g style="fill:#000000; fill-opacity:0.0; 
stroke:#000000; stroke-width:39.3701; stroke-opacity:1; 
stroke-linecap:round; stroke-linejoin:round;">
</g>
<g style="fill:#000000; fill-opacity:0.0; 
stroke:#000000; stroke-width:59.0551; stroke-opacity:1; 
stroke-linecap:round; stroke-linejoin:round;">
<path d="M62992 4724
L62992 3937
" />
</g>
<g style="fill:#000000; fill-opacity:0.0; 
stroke:#000000; stroke-width:39.3701; stroke-opacity:1; 
stroke-linecap:round; stroke-linejoin:round;">
</g>
<g style="fill:#000000; fill-opacity:0.0; 
stroke:#000000; stroke-width:59.0551; stroke-opacity:1; 
stroke-linecap:round; stroke-linejoin:round;">
<path d="M82677 4724
L82677 3937
" />
</g>
<g style="fill:#000000; fill-opacity:0.0; 
stroke:#000000; stroke-width:39.3701; stroke-opacity:1; 
stroke-linecap:round; stroke-linejoin:round;">
</g>
<g style="fill:#000000; fill-opacity:0.0; 
stroke:#000000; stroke-width:59.0551; stroke-opacity:1; 
stroke-linecap:round; stroke-linejoin:round;">
<path d="M102362 4724
L102362 3937
" />
</g>
<g style="fill:#000000; fill-opacity:0.0; 
stroke:#000000; stroke-width:39.3701; stroke-opacity:1; 
stroke-linecap:round; stroke-linejoin:round;">
</g>
<g style="fill:#000000; fill-opacity:0.0; 
stroke:#000000; stroke-width:59.0551; stroke-opacity:1; 
stroke-linecap:round; stroke-linejoin:round;">
<text x="13779.5" y="4586.61"
textLength="546.494" font-size="682.415" lengthAdjust="spacingAndGlyphs"
text-anchor="start" opacity="0">1</text>
<path d="M14199 4562
L13906 4562
" />
<path d="M14052 4562
L14052 4050
L14004 4123
L13955 4172
L13906 4196
" />
</g>
<g style="fill:#000000; fill-opacity:0.0; 
stroke:#000000; stroke-width:39.3701; stroke-opacity:1; 
stroke-linecap:round; stroke-linejoin:round;">
</g>
<g style="fill:#000000; fill-opacity:0.0; 
stroke:#000000; stroke-width:59.0551; stroke-opacity:1; 
stroke-linecap:round; stroke-linejoin:round;">
<text x="33464.6" y="4586.61"
textLength="546.494" font-size="682.415" lengthAdjust="spacingAndGlyphs"
text-anchor="start" opacity="0">2</text>
<path d="M33591 4099
L33615 4074
L33664 4050
L33786 4050
L33835 4074
L33859 4099
L33884 4147
L33884 4196
L33859 4269
L33567 4562
L33884 4562
" />
</g>
<g style="fill:#000000; fill-opacity:0.0; 
stroke:#000000; stroke-width:39.3701; stroke-opacity:1; 
stroke-linecap:round; stroke-linejoin:round;">
</g>
<g style="fill:#000000; fill-opacity:0.0; 
stroke:#000000; stroke-width:59.0551; stroke-opacity:1; 
stroke-linecap:round; stroke-linejoin:round;">
<text x="53149.6" y="4586.61"
textLength="546.494" font-size="682.415" lengthAdjust="spacingAndGlyphs"
text-anchor="start" opacity="0">3</text>
<path d="M53252 4050
L53569 4050
L53398 4245
L53471 4245
L53520 4269
L53544 4294
L53569 4342
L53569 4464
L53544 4513
L53520 4537
L53471 4562
L53325 4562
L53276 4537
L53252 4513
" />
</g>
<g style="fill:#000000; fill-opacity:0.0; 
stroke:#000000; stroke-width:39.3701; stroke-opacity:1; 
stroke-linecap:round; stroke-linejoin:round;">
</g>
<g style="fill:#000000; fill-opacity:0.0; 
stroke:#000000; stroke-width:59.0551; stroke-opacity:1; 
stroke-linecap:round; stroke-linejoin:round;">
<text x="72834.6" y="4586.61"
textLength="546.494" font-size="682.415" lengthAdjust="spacingAndGlyphs"
text-anchor="start" opacity="0">4</text>
<path d="M73205 4221
L73205 4562
" />
<path d="M73083 4026
L72961 4391
L73278 4391
" />
</g>
<g style="fill:#000000; fill-opacity:0.0; 
stroke:#000000; stroke-width:39.3701; stroke-opacity:1; 
stroke-linecap:round; stroke-linejoin:round;">
</g>
<g style="fill:#000000; fill-opacity:0.0; 
stroke:#000000; stroke-width:59.0551; stroke-opacity:1; 
stroke-linecap:round; stroke-linejoin:round;">
<text x="92519.7" y="4586.61"
textLength="546.494" font-size="682.415" lengthAdjust="spacingAndGlyphs"
text-anchor="start" opacity="0">5</text>
<path d="M92914 4050
L92671 4050
L92646 4294
L92671 4269
L92719 4245
L92841 4245
L92890 4269
L92914 4294
L92939 4342
L92939 4464
L92914 4513
L92890 4537
L92841 4562
L92719 4562
L92671 4537
L92646 4513
" />
</g>
<g style="fill:#000000; fill-opacity:0.0; 
stroke:#000000; stroke-width:39.3701; stroke-opacity:1; 
stroke-linecap:round; stroke-linejoin:round;">
</g>
<g style="fill:#000000; fill-opacity:0.0; 
stroke:#000000; stroke-width:59.0551; stroke-opacity:1; 
stroke-linecap:round; stroke-linejoin:round;">
<text x="112205" y="4586.61"
textLength="546.494" font-size="682.415" lengthAdjust="spacingAndGlyphs"
text-anchor="start" opacity="0">6</text>
<path d="M112575 4050
L112477 4050
L112429 4074
L112404 4099
L112356 4172
L112331 4269
L112331 4464
L112356 4513
L112380 4537
L112429 4562
L112526 4562
L112575 4537
L112599 4513
L112624 4464
L112624 4342
L112599 4294
L112575 4269
L112526 4245
L112429 4245
L112380 4269
L112356 4294
L112331 4342
" />
</g>
<g style="fill:#000000; fill-opacity:0.0; 
stroke:#000000; stroke-width:39.3701; stroke-opacity:1; 
stroke-linecap:round; stroke-linejoin:round;">
</g>
<g style="fill:#000000; fill-opacity:0.0; 
stroke:#000000; stroke-width:59.0551; stroke-opacity:1; 
stroke-linecap:round; stroke-linejoin:round;">
<path d="M23622 77955
L23622 78742
" />
</g>
<g style="fill:#000000; fill-opacity:0.0; 
stroke:#000000; stroke-width:39.3701; stroke-opacity:1; 
stroke-linecap:round; stroke-linejoin:round;">
</g>
<g style="fill:#000000; fill-opacity:0.0; 
stroke:#000000; stroke-width:59.0551; stroke-opacity:1; 
stroke-linecap:round; stroke-linejoin:round;">
<path d="M43307 77955
L43307 78742
" />
</g>
<g style="fill:#000000; fill-opacity:0.0; 
stroke:#000000; stroke-width:39.3701; stroke-opacity:1; 
stroke-linecap:round; stroke-linejoin:round;">
</g>
<g style="fill:#000000; fill-opacity:0.0; 
stroke:#000000; stroke-width:59.0551; stroke-opacity:1; 
stroke-linecap:round; stroke-linejoin:round;">
<path d="M62992 77955
L62992 78742
" />
</g>
<g style="fill:#000000; fill-opacity:0.0; 
stroke:#000000; stroke-width:39.3701; stroke-opacity:1; 
stroke-linecap:round; stroke-linejoin:round;">
</g>
<g style="fill:#000000; fill-opacity:0.0; 
stroke:#000000; stroke-width:59.0551; stroke-opacity:1; 
stroke-linecap:round; stroke-linejoin:round;">
<path d="M82677 77955
L82677 78742
" />
</g>
<g style="fill:#000000; fill-opacity:0.0; 
stroke:#000000; stroke-width:39.3701; stroke-opacity:1; 
stroke-linecap:round; stroke-linejoin:round;">
</g>
<g style="fill:#000000; fill-opacity:0.0; 
stroke:#000000; stroke-width:59.0551; stroke-opacity:1; 
stroke-linecap:round; stroke-linejoin:round;">
<path d="M102362 77955
L102362 78742
" />
</g>
<g style="fill:#000000; fill-opacity:0.0; 
stroke:#000000; stroke-width:39.3701; stroke-opacity:1; 
stroke-linecap:round; stroke-linejoin:round;">
</g>
<g style="fill:#000000; fill-opacity:0.0; 
stroke:#000000; stroke-width:59.0551; stroke-opacity:1; 
stroke-linecap:round; stroke-linejoin:round;">
<text x="13779.5" y="78605.2"
textLength="546.494" font-size="682.415" lengthAdjust="spacingAndGlyphs"
text-anchor="start" opacity="0">1</text>
<path d="M14199 78580
L13906 78580
" />
<path d="M14052 78580
L14052 78069
L14004 78142
L13955 78190
L13906 78215
" />
</g>
<g style="fill:#000000; fill-opacity:0.0; 
stroke:#000000; stroke-width:39.3701; stroke-opacity:1; 
stroke-linecap:round; stroke-linejoin:round;">
</g>
<g style="fill:#000000; fill-opacity:0.0; 
stroke:#000000; stroke-width:59.0551; stroke-opacity:1; 
stroke-linecap:round; stroke-linejoin:round;">
<text x="33464.6" y="78605.2"
textLength="546.494" font-size="682.415" lengthAdjust="spacingAndGlyphs"
text-anchor="start" opacity="0">2</text>
<path d="M33591 78117
L33615 78093
L33664 78069
L33786 78069
L33835 78093
L33859 78117
L33884 78166
L33884 78215
L33859 78288
L33567 78580
L33884 78580
" />
</g>
<g style="fill:#000000; fill-opacity:0.0; 
stroke:#000000; stroke-width:39.3701; stroke-opacity:1; 
stroke-linecap:round; stroke-linejoin:round;">
</g>
<g style="fill:#000000; fill-opacity:0.0; 
stroke:#000000; stroke-width:59.0551; stroke-opacity:1; 
stroke-linecap:round; stroke-linejoin:round;">
<text x="53149.6" y="78605.2"
textLength="546.494" font-size="682.415" lengthAdjust="spacingAndGlyphs"
text-anchor="start" opacity="0">3</text>
<path d="M53252 78069
L53569 78069
L53398 78263
L53471 78263
L53520 78288
L53544 78312
L53569 78361
L53569 78483
L53544 78532
L53520 78556
L53471 78580
L53325 78580
L53276 78556
L53252 78532
" />
</g>
<g style="fill:#000000; fill-opacity:0.0; 
stroke:#000000; stroke-width:39.3701; stroke-opacity:1; 
stroke-linecap:round; stroke-linejoin:round;">
</g>
<g style="fill:#000000; fill-opacity:0.0; 
stroke:#000000; stroke-width:59.0551; stroke-opacity:1; 
stroke-linecap:round; stroke-linejoin:round;">
<text x="72834.6" y="78605.2"
textLength="546.494" font-size="682.415" lengthAdjust="spacingAndGlyphs"
text-anchor="start" opacity="0">4</text>
<path d="M73205 78239
L73205 78580
" />
<path d="M73083 78044
L72961 78410
L73278 78410
" />
</g>
<g style="fill:#000000; fill-opacity:0.0; 
stroke:#000000; stroke-width:39.3701; stroke-opacity:1; 
stroke-linecap:round; stroke-linejoin:round;">
</g>
<g style="fill:#000000; fill-opacity:0.0; 
stroke:#000000; stroke-width:59.0551; stroke-opacity:1; 
stroke-linecap:round; stroke-linejoin:round;">
<text x="92519.7" y="78605.2"
textLength="546.494" font-size="682.415" lengthAdjust="spacingAndGlyphs"
text-anchor="start" opacity="0">5</text>
<path d="M92914 78069
L92671 78069
L92646 78312
L92671 78288
L92719 78263
L92841 78263
L92890 78288
L92914 78312
L92939 78361
L92939 78483
L92914 78532
L92890 78556
L92841 78580
L92719 78580
L92671 78556
L92646 78532
" />
</g>
<g style="fill:#000000; fill-opacity:0.0; 
stroke:#000000; stroke-width:39.3701; stroke-opacity:1; 
stroke-linecap:round; stroke-linejoin:round;">
</g>
<g style="fill:#000000; fill-opacity:0.0; 
stroke:#000000; stroke-width:59.0551; stroke-opacity:1; 
stroke-linecap:round; stroke-linejoin:round;">
<text x="112205" y="78605.2"
textLength="546.494" font-size="682.415" lengthAdjust="spacingAndGlyphs"
text-anchor="start" opacity="0">6</text>
<path d="M112575 78069
L112477 78069
L112429 78093
L112404 78117
L112356 78190
L112331 78288
L112331 78483
L112356 78532
L112380 78556
L112429 78580
L112526 78580
L112575 78556
L112599 78532
L112624 78483
L112624 78361
L112599 78312
L112575 78288
L112526 78263
L112429 78263
L112380 78288
L112356 78312
L112331 78361
" />
</g>
<g style="fill:#000000; fill-opacity:0.0; 
stroke:#000000; stroke-width:39.3701; stroke-opacity:1; 
stroke-linecap:round; stroke-linejoin:round;">
</g>
<g style="fill:#000000; fill-opacity:0.0; 
stroke:#000000; stroke-width:59.0551; stroke-opacity:1; 
stroke-linecap:round; stroke-linejoin:round;">
<path d="M3937 23622
L4724 23622
" />
</g>
<g style="fill:#000000; fill-opacity:0.0; 
stroke:#000000; stroke-width:39.3701; stroke-opacity:1; 
stroke-linecap:round; stroke-linejoin:round;">
</g>
<g style="fill:#000000; fill-opacity:0.0; 
stroke:#000000; stroke-width:59.0551; stroke-opacity:1; 
stroke-linecap:round; stroke-linejoin:round;">
<path d="M3937 43307
L4724 43307
" />
</g>
<g style="fill:#000000; fill-opacity:0.0; 
stroke:#000000; stroke-width:39.3701; stroke-opacity:1; 
stroke-linecap:round; stroke-linejoin:round;">
</g>
<g style="fill:#000000; fill-opacity:0.0; 
stroke:#000000; stroke-width:59.0551; stroke-opacity:1; 
stroke-linecap:round; stroke-linejoin:round;">
<path d="M3937 62992
L4724 62992
" />
</g>
<g style="fill:#000000; fill-opacity:0.0; 
stroke:#000000; stroke-width:39.3701; stroke-opacity:1; 
stroke-linecap:round; stroke-linejoin:round;">
</g>
<g style="fill:#000000; fill-opacity:0.0; 
stroke:#000000; stroke-width:59.0551; stroke-opacity:1; 
stroke-linecap:round; stroke-linejoin:round;">
<text x="4330.71" y="14035.4"
textLength="497.75" font-size="682.415" lengthAdjust="spacingAndGlyphs"
text-anchor="middle" opacity="0">A</text>
<path d="M4208 13864
L4452 13864
" />
<path d="M4160 14011
L4330 13499
L4501 14011
" />
</g>
<g style="fill:#000000; fill-opacity:0.0; 
stroke:#000000; stroke-width:39.3701; stroke-opacity:1; 
stroke-linecap:round; stroke-linejoin:round;">
</g>
<g style="fill:#000000; fill-opacity:0.0; 
stroke:#000000; stroke-width:59.0551; stroke-opacity:1; 
stroke-linecap:round; stroke-linejoin:round;">
<text x="4330.71" y="33720.5"
textLength="570.866" font-size="682.415" lengthAdjust="spacingAndGlyphs"
text-anchor="middle" opacity="0">B</text>
<path d="M4367 33428
L4440 33452
L4464 33476
L4489 33525
L4489 33598
L4464 33647
L4440 33671
L4391 33696
L4196 33696
L4196 33184
L4367 33184
L4416 33208
L4440 33233
L4464 33281
L4464 33330
L4440 33379
L4416 33403
L4367 33428
L4196 33428
" />
</g>
<g style="fill:#000000; fill-opacity:0.0; 
stroke:#000000; stroke-width:39.3701; stroke-opacity:1; 
stroke-linecap:round; stroke-linejoin:round;">
</g>
<g style="fill:#000000; fill-opacity:0.0; 
stroke:#000000; stroke-width:59.0551; stroke-opacity:1; 
stroke-linecap:round; stroke-linejoin:round;">
<text x="4330.71" y="53405.5"
textLength="570.866" font-size="682.415" lengthAdjust="spacingAndGlyphs"
text-anchor="middle" opacity="0">C</text>
<path d="M4489 53332
L4464 53356
L4391 53381
L4342 53381
L4269 53356
L4221 53308
L4196 53259
L4172 53161
L4172 53088
L4196 52991
L4221 52942
L4269 52893
L4342 52869
L4391 52869
L4464 52893
L4489 52918
" />
</g>
<g style="fill:#000000; fill-opacity:0.0; 
stroke:#000000; stroke-width:39.3701; stroke-opacity:1; 
stroke-linecap:round; stroke-linejoin:round;">
</g>
<g style="fill:#000000; fill-opacity:0.0; 
stroke:#000000; stroke-width:59.0551; stroke-opacity:1; 
stroke-linecap:round; stroke-linejoin:round;">
<text x="4330.71" y="73090.6"
textLength="570.866" font-size="682.415" lengthAdjust="spacingAndGlyphs"
text-anchor="middle" opacity="0">D</text>
<path d="M4196 73066
L4196 72554
L4318 72554
L4391 72578
L4440 72627
L4464 72676
L4489 72773
L4489 72846
L4464 72944
L4440 72993
L4391 73041
L4318 73066
L4196 73066
" />
</g>
<g style="fill:#000000; fill-opacity:0.0; 
stroke:#000000; stroke-width:39.3701; stroke-opacity:1; 
stroke-linecap:round; stroke-linejoin:round;">
</g>
<g style="fill:#000000; fill-opacity:0.0; 
stroke:#000000; stroke-width:59.0551; stroke-opacity:1; 
stroke-linecap:round; stroke-linejoin:round;">
<path d="M112992 23622
L112205 23622
" />
</g>
<g style="fill:#000000; fill-opacity:0.0; 
stroke:#000000; stroke-width:39.3701; stroke-opacity:1; 
stroke-linecap:round; stroke-linejoin:round;">
</g>
<g style="fill:#000000; fill-opacity:0.0; 
stroke:#000000; stroke-width:59.0551; stroke-opacity:1; 
stroke-linecap:round; stroke-linejoin:round;">
<path d="M112992 43307
L112205 43307
" />
</g>
<g style="fill:#000000; fill-opacity:0.0; 
stroke:#000000; stroke-width:39.3701; stroke-opacity:1; 
stroke-linecap:round; stroke-linejoin:round;">
</g>
<g style="fill:#000000; fill-opacity:0.0; 
stroke:#000000; stroke-width:59.0551; stroke-opacity:1; 
stroke-linecap:round; stroke-linejoin:round;">
<path d="M112992 62992
L112205 62992
" />
</g>
<g style="fill:#000000; fill-opacity:0.0; 
stroke:#000000; stroke-width:39.3701; stroke-opacity:1; 
stroke-linecap:round; stroke-linejoin:round;">
</g>
<g style="fill:#000000; fill-opacity:0.0; 
stroke:#000000; stroke-width:59.0551; stroke-opacity:1; 
stroke-linecap:round; stroke-linejoin:round;">
<text x="112599" y="14035.4"
textLength="497.75" font-size="682.415" lengthAdjust="spacingAndGlyphs"
text-anchor="middle" opacity="0">A</text>
<path d="M112477 13864
L112721 13864
" />
<path d="M112428 14011
L112599 13499
L112769 14011
" />
</g>
<g style="fill:#000000; fill-opacity:0.0; 
stroke:#000000; stroke-width:39.3701; stroke-opacity:1; 
stroke-linecap:round; stroke-linejoin:round;">
</g>
<g style="fill:#000000; fill-opacity:0.0; 
stroke:#000000; stroke-width:59.0551; stroke-opacity:1; 
stroke-linecap:round; stroke-linejoin:round;">
<text x="112599" y="33720.5"
textLength="570.866" font-size="682.415" lengthAdjust="spacingAndGlyphs"
text-anchor="middle" opacity="0">B</text>
<path d="M112635 33428
L112708 33452
L112733 33476
L112757 33525
L112757 33598
L112733 33647
L112708 33671
L112660 33696
L112465 33696
L112465 33184
L112635 33184
L112684 33208
L112708 33233
L112733 33281
L112733 33330
L112708 33379
L112684 33403
L112635 33428
L112465 33428
" />
</g>
<g style="fill:#000000; fill-opacity:0.0; 
stroke:#000000; stroke-width:39.3701; stroke-opacity:1; 
stroke-linecap:round; stroke-linejoin:round;">
</g>
<g style="fill:#000000; fill-opacity:0.0; 
stroke:#000000; stroke-width:59.0551; stroke-opacity:1; 
stroke-linecap:round; stroke-linejoin:round;">
<text x="112599" y="53405.5"
textLength="570.866" font-size="682.415" lengthAdjust="spacingAndGlyphs"
text-anchor="middle" opacity="0">C</text>
<path d="M112757 53332
L112733 53356
L112660 53381
L112611 53381
L112538 53356
L112489 53308
L112465 53259
L112440 53161
L112440 53088
L112465 52991
L112489 52942
L112538 52893
L112611 52869
L112660 52869
L112733 52893
L112757 52918
" />
</g>
<g style="fill:#000000; fill-opacity:0.0; 
stroke:#000000; stroke-width:39.3701; stroke-opacity:1; 
stroke-linecap:round; stroke-linejoin:round;">
</g>
<g style="fill:#000000; fill-opacity:0.0; 
stroke:#000000; stroke-width:59.0551; stroke-opacity:1; 
stroke-linecap:round; stroke-linejoin:round;">
<text x="112599" y="73090.6"
textLength="570.866" font-size="682.415" lengthAdjust="spacingAndGlyphs"
text-anchor="middle" opacity="0">D</text>
<path d="M112465 73066
L112465 72554
L112587 72554
L112660 72578
L112708 72627
L112733 72676
L112757 72773
L112757 72846
L112733 72944
L112708 72993
L112660 73041
L112587 73066
L112465 73066
" />
</g>
<g style="fill:#000000; fill-opacity:0.0; 
stroke:#000000; stroke-width:39.3701; stroke-opacity:1; 
stroke-linecap:round; stroke-linejoin:round;">
</g>
<g style="fill:#000000; fill-opacity:0.0; 
stroke:#000000; stroke-width:59.0551; stroke-opacity:1; 
stroke-linecap:round; stroke-linejoin:round;">
<text x="78741" y="76321.7"
textLength="2758.72" font-size="787.402" lengthAdjust="spacingAndGlyphs"
text-anchor="start" opacity="0">Date: </text>
<path d="M78911 76293
L78911 75703
L79051 75703
L79136 75731
L79192 75787
L79220 75843
L79248 75956
L79248 76040
L79220 76153
L79192 76209
L79136 76265
L79051 76293
L78911 76293
" />
<path d="M79754 76293
L79754 75984
L79726 75928
L79670 75899
L79557 75899
L79501 75928
" />
<path d="M79754 76265
L79698 76293
L79557 76293
L79501 76265
L79473 76209
L79473 76153
L79501 76096
L79557 76068
L79698 76068
L79754 76040
" />
<path d="M79951 75899
L80176 75899
" />
<path d="M80036 75703
L80036 76209
L80064 76265
L80120 76293
L80176 76293
" />
<path d="M80598 76265
L80542 76293
L80429 76293
L80373 76265
L80345 76209
L80345 75984
L80373 75928
L80429 75899
L80542 75899
L80598 75928
L80626 75984
L80626 76040
L80345 76096
" />
<path d="M80879 76237
L80907 76265
L80879 76293
L80851 76265
L80879 76237
L80879 76293
" />
<path d="M80879 75928
L80907 75956
L80879 75984
L80851 75956
L80879 75928
L80879 75984
" />
</g>
<g style="fill:#000000; fill-opacity:0.0; 
stroke:#000000; stroke-width:39.3701; stroke-opacity:1; 
stroke-linecap:round; stroke-linejoin:round;">
</g>
<g style="fill:#000000; fill-opacity:0.0; 
stroke:#000000; stroke-width:59.0551; stroke-opacity:1; 
stroke-linecap:round; stroke-linejoin:round;">
<path d="M69685 76577
L112205 76577
" />
</g>
<g style="fill:#000000; fill-opacity:0.0; 
stroke:#000000; stroke-width:39.3701; stroke-opacity:1; 
stroke-linecap:round; stroke-linejoin:round;">
</g>
<g style="fill:#000000; fill-opacity:0.0; 
stroke:#000000; stroke-width:59.0551; stroke-opacity:1; 
stroke-linecap:round; stroke-linejoin:round;">
<text x="70079.6" y="77424.1"
textLength="14429.1" font-size="787.402" lengthAdjust="spacingAndGlyphs"
text-anchor="start" opacity="0">KiCad E.D.A.  pcbnew (5.1.5)-3</text>
<path d="M70249 77395
L70249 76805
" />
<path d="M70587 77395
L70334 77058
" />
<path d="M70587 76805
L70249 77142
" />
<path d="M70840 77395
L70840 77002
" />
<path d="M70840 76805
L70812 76833
L70840 76861
L70868 76833
L70840 76805
L70840 76861
" />
<path d="M71458 77339
L71430 77367
L71346 77395
L71290 77395
L71205 77367
L71149 77311
L71121 77255
L71093 77142
L71093 77058
L71121 76946
L71149 76889
L71205 76833
L71290 76805
L71346 76805
L71430 76833
L71458 76861
" />
<path d="M71965 77395
L71965 77086
L71937 77030
L71880 77002
L71768 77002
L71712 77030
" />
<path d="M71965 77367
L71908 77395
L71768 77395
L71712 77367
L71683 77311
L71683 77255
L71712 77199
L71768 77171
L71908 77171
L71965 77142
" />
<path d="M72499 77395
L72499 76805
" />
<path d="M72499 77367
L72443 77395
L72330 77395
L72274 77367
L72246 77339
L72218 77283
L72218 77114
L72246 77058
L72274 77030
L72330 77002
L72443 77002
L72499 77030
" />
<path d="M73230 77086
L73427 77086
" />
<path d="M73511 77395
L73230 77395
L73230 76805
L73511 76805
" />
<path d="M73764 77339
L73793 77367
L73764 77395
L73736 77367
L73764 77339
L73764 77395
" />
<path d="M74046 77395
L74046 76805
L74186 76805
L74271 76833
L74327 76889
L74355 76946
L74383 77058
L74383 77142
L74355 77255
L74327 77311
L74271 77367
L74186 77395
L74046 77395
" />
<path d="M74636 77339
L74664 77367
L74636 77395
L74608 77367
L74636 77339
L74636 77395
" />
<path d="M74889 77227
L75171 77227
" />
<path d="M74833 77395
L75030 76805
L75227 77395
" />
<path d="M75424 77339
L75452 77367
L75424 77395
L75395 77367
L75424 77339
L75424 77395
" />
<path d="M76605 77002
L76605 77592
" />
<path d="M76605 77030
L76661 77002
L76773 77002
L76830 77030
L76858 77058
L76886 77114
L76886 77283
L76858 77339
L76830 77367
L76773 77395
L76661 77395
L76605 77367
" />
<path d="M77392 77367
L77336 77395
L77223 77395
L77167 77367
L77139 77339
L77111 77283
L77111 77114
L77139 77058
L77167 77030
L77223 77002
L77336 77002
L77392 77030
" />
<path d="M77645 77395
L77645 76805
" />
<path d="M77645 77030
L77701 77002
L77814 77002
L77870 77030
L77898 77058
L77926 77114
L77926 77283
L77898 77339
L77870 77367
L77814 77395
L77701 77395
L77645 77367
" />
<path d="M78180 77002
L78180 77395
" />
<path d="M78180 77058
L78208 77030
L78264 77002
L78348 77002
L78404 77030
L78433 77086
L78433 77395
" />
<path d="M78939 77367
L78883 77395
L78770 77395
L78714 77367
L78686 77311
L78686 77086
L78714 77030
L78770 77002
L78883 77002
L78939 77030
L78967 77086
L78967 77142
L78686 77199
" />
<path d="M79164 77002
L79276 77395
L79389 77114
L79501 77395
L79614 77002
" />
<path d="M80457 77620
L80429 77592
L80373 77508
L80345 77452
L80317 77367
L80289 77227
L80289 77114
L80317 76974
L80345 76889
L80373 76833
L80429 76749
L80457 76721
" />
<path d="M80964 76805
L80682 76805
L80654 77086
L80682 77058
L80739 77030
L80879 77030
L80935 77058
L80964 77086
L80992 77142
L80992 77283
L80964 77339
L80935 77367
L80879 77395
L80739 77395
L80682 77367
L80654 77339
" />
<path d="M81245 77339
L81273 77367
L81245 77395
L81217 77367
L81245 77339
L81245 77395
" />
<path d="M81835 77395
L81498 77395
" />
<path d="M81667 77395
L81667 76805
L81610 76889
L81554 76946
L81498 76974
" />
<path d="M82088 77339
L82117 77367
L82088 77395
L82060 77367
L82088 77339
L82088 77395
" />
<path d="M82651 76805
L82370 76805
L82341 77086
L82370 77058
L82426 77030
L82566 77030
L82623 77058
L82651 77086
L82679 77142
L82679 77283
L82651 77339
L82623 77367
L82566 77395
L82426 77395
L82370 77367
L82341 77339
" />
<path d="M82876 77620
L82904 77592
L82960 77508
L82988 77452
L83016 77367
L83045 77227
L83045 77114
L83016 76974
L82988 76889
L82960 76833
L82904 76749
L82876 76721
" />
<path d="M83326 77171
L83776 77171
" />
<path d="M84001 76805
L84366 76805
L84169 77030
L84254 77030
L84310 77058
L84338 77086
L84366 77142
L84366 77283
L84338 77339
L84310 77367
L84254 77395
L84085 77395
L84029 77367
L84001 77339
" />
</g>
<g style="fill:#000000; fill-opacity:0.0; 
stroke:#000000; stroke-width:39.3701; stroke-opacity:1; 
stroke-linecap:round; stroke-linejoin:round;">
</g>
<g style="fill:#000000; fill-opacity:0.0; 
stroke:#000000; stroke-width:59.0551; stroke-opacity:1; 
stroke-linecap:round; stroke-linejoin:round;">
<path d="M69685 75396
L112205 75396
" />
</g>
<g style="fill:#000000; fill-opacity:0.0; 
stroke:#000000; stroke-width:39.3701; stroke-opacity:1; 
stroke-linecap:round; stroke-linejoin:round;">
</g>
<g style="fill:#000000; fill-opacity:0.0; 
stroke:#000000; stroke-width:118.11; stroke-opacity:1; 
stroke-linecap:round; stroke-linejoin:round;">
<text x="103544" y="76321.7"
textLength="2336.9" font-size="787.402" lengthAdjust="spacingAndGlyphs"
text-anchor="start" opacity="0">Rev: </text>
<path d="M104099 76293
L103902 76012
" />
<path d="M103761 76293
L103761 75703
L103986 75703
L104042 75731
L104070 75759
L104099 75815
L104099 75899
L104070 75956
L104042 75984
L103986 76012
L103761 76012
" />
<path d="M104577 76265
L104520 76293
L104408 76293
L104352 76265
L104323 76209
L104323 75984
L104352 75928
L104408 75899
L104520 75899
L104577 75928
L104605 75984
L104605 76040
L104323 76096
" />
<path d="M104802 75899
L104942 76293
L105083 75899
" />
<path d="M105308 76237
L105336 76265
L105308 76293
L105280 76265
L105308 76237
L105308 76293
" />
<path d="M105308 75928
L105336 75956
L105308 75984
L105280 75956
L105308 75928
L105308 75984
" />
</g>
<g style="fill:#000000; fill-opacity:0.0; 
stroke:#000000; stroke-width:39.3701; stroke-opacity:1; 
stroke-linecap:round; stroke-linejoin:round;">
</g>
<g style="fill:#000000; fill-opacity:0.0; 
stroke:#000000; stroke-width:59.0551; stroke-opacity:1; 
stroke-linecap:round; stroke-linejoin:round;">
<text x="70079.6" y="76321.7"
textLength="3781.21" font-size="787.402" lengthAdjust="spacingAndGlyphs"
text-anchor="start" opacity="0">Size: A4</text>
<path d="M70221 76265
L70305 76293
L70446 76293
L70502 76265
L70530 76237
L70559 76181
L70559 76124
L70530 76068
L70502 76040
L70446 76012
L70334 75984
L70277 75956
L70249 75928
L70221 75871
L70221 75815
L70249 75759
L70277 75731
L70334 75703
L70474 75703
L70559 75731
" />
<path d="M70812 76293
L70812 75899
" />
<path d="M70812 75703
L70784 75731
L70812 75759
L70840 75731
L70812 75703
L70812 75759
" />
<path d="M71037 75899
L71346 75899
L71037 76293
L71346 76293
" />
<path d="M71796 76265
L71740 76293
L71627 76293
L71571 76265
L71543 76209
L71543 75984
L71571 75928
L71627 75899
L71740 75899
L71796 75928
L71824 75984
L71824 76040
L71543 76096
" />
<path d="M72077 76237
L72105 76265
L72077 76293
L72049 76265
L72077 76237
L72077 76293
" />
<path d="M72077 75928
L72105 75956
L72077 75984
L72049 75956
L72077 75928
L72077 75984
" />
<path d="M72780 76124
L73061 76124
" />
<path d="M72724 76293
L72921 75703
L73118 76293
" />
<path d="M73568 75899
L73568 76293
" />
<path d="M73427 75674
L73286 76096
L73652 76096
" />
</g>
<g style="fill:#000000; fill-opacity:0.0; 
stroke:#000000; stroke-width:39.3701; stroke-opacity:1; 
stroke-linecap:round; stroke-linejoin:round;">
</g>
<g style="fill:#000000; fill-opacity:0.0; 
stroke:#000000; stroke-width:59.0551; stroke-opacity:1; 
stroke-linecap:round; stroke-linejoin:round;">
<text x="103544" y="77424.1"
textLength="3349.27" font-size="787.402" lengthAdjust="spacingAndGlyphs"
text-anchor="start" opacity="0">Id: 1/1</text>
<path d="M103714 77395
L103714 76805
" />
<path d="M104248 77395
L104248 76805
" />
<path d="M104248 77367
L104192 77395
L104079 77395
L104023 77367
L103995 77339
L103967 77283
L103967 77114
L103995 77058
L104023 77030
L104079 77002
L104192 77002
L104248 77030
" />
<path d="M104529 77339
L104557 77367
L104529 77395
L104501 77367
L104529 77339
L104529 77395
" />
<path d="M104529 77030
L104557 77058
L104529 77086
L104501 77058
L104529 77030
L104529 77086
" />
<path d="M105570 77395
L105232 77395
" />
<path d="M105401 77395
L105401 76805
L105345 76889
L105289 76946
L105232 76974
" />
<path d="M106245 76777
L105739 77536
" />
<path d="M106751 77395
L106413 77395
" />
<path d="M106582 77395
L106582 76805
L106526 76889
L106470 76946
L106413 76974
" />
</g>
<g style="fill:#000000; fill-opacity:0.0; 
stroke:#000000; stroke-width:39.3701; stroke-opacity:1; 
stroke-linecap:round; stroke-linejoin:round;">
</g>
<g style="fill:#000000; fill-opacity:0.0; 
stroke:#000000; stroke-width:59.0551; stroke-opacity:1; 
stroke-linecap:round; stroke-linejoin:round;">
<path d="M69685 73821
L112205 73821
" />
</g>
<g style="fill:#000000; fill-opacity:0.0; 
stroke:#000000; stroke-width:39.3701; stroke-opacity:1; 
stroke-linecap:round; stroke-linejoin:round;">
</g>
<g style="fill:#000000; fill-opacity:0.0; 
stroke:#000000; stroke-width:157.48; stroke-opacity:1; 
stroke-linecap:round; stroke-linejoin:round;">
<text x="70079.6" y="74924.1"
textLength="3701.14" font-size="1049.87" lengthAdjust="spacingAndGlyphs"
text-anchor="start" opacity="0">Title: </text>
<path d="M70360 74099
L70810 74099
" />
<path d="M70486 74886
L70585 74099
" />
<path d="M70974 74886
L71039 74361
" />
<path d="M71072 74099
L71030 74136
L71063 74174
L71105 74136
L71072 74099
L71063 74174
" />
<path d="M71302 74361
L71602 74361
" />
<path d="M71447 74099
L71363 74774
L71391 74849
L71461 74886
L71536 74886
" />
<path d="M71911 74886
L71841 74849
L71813 74774
L71897 74099
" />
<path d="M72516 74849
L72436 74886
L72286 74886
L72216 74849
L72187 74774
L72225 74474
L72272 74399
L72352 74361
L72501 74361
L72572 74399
L72600 74474
L72591 74549
L72206 74624
" />
<path d="M72895 74811
L72928 74849
L72886 74886
L72853 74849
L72895 74811
L72886 74886
" />
<path d="M72947 74399
L72980 74436
L72937 74474
L72905 74436
L72947 74399
L72937 74474
" />
</g>
<g style="fill:#000000; fill-opacity:0.0; 
stroke:#000000; stroke-width:39.3701; stroke-opacity:1; 
stroke-linecap:round; stroke-linejoin:round;">
</g>
<g style="fill:#000000; fill-opacity:0.0; 
stroke:#000000; stroke-width:59.0551; stroke-opacity:1; 
stroke-linecap:round; stroke-linejoin:round;">
<text x="70079.6" y="73408.3"
textLength="9344.21" font-size="787.402" lengthAdjust="spacingAndGlyphs"
text-anchor="start" opacity="0">File: LDOs.kicad_pcb</text>
<path d="M70446 73070
L70249 73070
" />
<path d="M70249 73380
L70249 72789
L70530 72789
" />
<path d="M70755 73380
L70755 72986
" />
<path d="M70755 72789
L70727 72817
L70755 72845
L70784 72817
L70755 72789
L70755 72845
" />
<path d="M71121 73380
L71065 73352
L71037 73295
L71037 72789
" />
<path d="M71571 73352
L71515 73380
L71402 73380
L71346 73352
L71318 73295
L71318 73070
L71346 73014
L71402 72986
L71515 72986
L71571 73014
L71599 73070
L71599 73127
L71318 73183
" />
<path d="M71852 73323
L71880 73352
L71852 73380
L71824 73352
L71852 73323
L71852 73380
" />
<path d="M71852 73014
L71880 73042
L71852 73070
L71824 73042
L71852 73014
L71852 73070
" />
<path d="M72865 73380
L72583 73380
L72583 72789
" />
<path d="M73061 73380
L73061 72789
L73202 72789
L73286 72817
L73343 72874
L73371 72930
L73399 73042
L73399 73127
L73371 73239
L73343 73295
L73286 73352
L73202 73380
L73061 73380
" />
<path d="M73764 72789
L73877 72789
L73933 72817
L73989 72874
L74018 72986
L74018 73183
L73989 73295
L73933 73352
L73877 73380
L73764 73380
L73708 73352
L73652 73295
L73624 73183
L73624 72986
L73652 72874
L73708 72817
L73764 72789
" />
<path d="M74242 73352
L74299 73380
L74411 73380
L74467 73352
L74496 73295
L74496 73267
L74467 73211
L74411 73183
L74327 73183
L74271 73155
L74242 73099
L74242 73070
L74271 73014
L74327 72986
L74411 72986
L74467 73014
" />
<path d="M74749 73323
L74777 73352
L74749 73380
L74721 73352
L74749 73323
L74749 73380
" />
<path d="M75030 73380
L75030 72789
" />
<path d="M75086 73155
L75255 73380
" />
<path d="M75255 72986
L75030 73211
" />
<path d="M75508 73380
L75508 72986
" />
<path d="M75508 72789
L75480 72817
L75508 72845
L75536 72817
L75508 72789
L75508 72845
" />
<path d="M76042 73352
L75986 73380
L75874 73380
L75817 73352
L75789 73323
L75761 73267
L75761 73099
L75789 73042
L75817 73014
L75874 72986
L75986 72986
L76042 73014
" />
<path d="M76548 73380
L76548 73070
L76520 73014
L76464 72986
L76352 72986
L76295 73014
" />
<path d="M76548 73352
L76492 73380
L76352 73380
L76295 73352
L76267 73295
L76267 73239
L76295 73183
L76352 73155
L76492 73155
L76548 73127
" />
<path d="M77083 73380
L77083 72789
" />
<path d="M77083 73352
L77027 73380
L76914 73380
L76858 73352
L76830 73323
L76802 73267
L76802 73099
L76830 73042
L76858 73014
L76914 72986
L77027 72986
L77083 73014
" />
<path d="M77223 73436
L77673 73436
" />
<path d="M77814 72986
L77814 73577
" />
<path d="M77814 73014
L77870 72986
L77983 72986
L78039 73014
L78067 73042
L78095 73099
L78095 73267
L78067 73323
L78039 73352
L77983 73380
L77870 73380
L77814 73352
" />
<path d="M78601 73352
L78545 73380
L78433 73380
L78376 73352
L78348 73323
L78320 73267
L78320 73099
L78348 73042
L78376 73014
L78433 72986
L78545 72986
L78601 73014
" />
<path d="M78854 73380
L78854 72789
" />
<path d="M78854 73014
L78911 72986
L79023 72986
L79079 73014
L79108 73042
L79136 73099
L79136 73267
L79108 73323
L79079 73352
L79023 73380
L78911 73380
L78854 73352
" />
</g>
<g style="fill:#000000; fill-opacity:0.0; 
stroke:#000000; stroke-width:39.3701; stroke-opacity:1; 
stroke-linecap:round; stroke-linejoin:round;">
</g>
<g style="fill:#000000; fill-opacity:0.0; 
stroke:#000000; stroke-width:59.0551; stroke-opacity:1; 
stroke-linecap:round; stroke-linejoin:round;">
<path d="M69685 71459
L112205 71459
" />
</g>
<g style="fill:#000000; fill-opacity:0.0; 
stroke:#000000; stroke-width:39.3701; stroke-opacity:1; 
stroke-linecap:round; stroke-linejoin:round;">
</g>
<g style="fill:#000000; fill-opacity:0.0; 
stroke:#000000; stroke-width:59.0551; stroke-opacity:1; 
stroke-linecap:round; stroke-linejoin:round;">
<text x="70079.6" y="72345.4"
textLength="3236.78" font-size="787.402" lengthAdjust="spacingAndGlyphs"
text-anchor="start" opacity="0">Sheet: </text>
<path d="M70221 72289
L70305 72317
L70446 72317
L70502 72289
L70530 72260
L70559 72204
L70559 72148
L70530 72092
L70502 72064
L70446 72036
L70334 72007
L70277 71979
L70249 71951
L70221 71895
L70221 71839
L70249 71782
L70277 71754
L70334 71726
L70474 71726
L70559 71754
" />
<path d="M70812 72317
L70812 71726
" />
<path d="M71065 72317
L71065 72007
L71037 71951
L70980 71923
L70896 71923
L70840 71951
L70812 71979
" />
<path d="M71571 72289
L71515 72317
L71402 72317
L71346 72289
L71318 72232
L71318 72007
L71346 71951
L71402 71923
L71515 71923
L71571 71951
L71599 72007
L71599 72064
L71318 72120
" />
<path d="M72077 72289
L72021 72317
L71908 72317
L71852 72289
L71824 72232
L71824 72007
L71852 71951
L71908 71923
L72021 71923
L72077 71951
L72105 72007
L72105 72064
L71824 72120
" />
<path d="M72274 71923
L72499 71923
" />
<path d="M72358 71726
L72358 72232
L72386 72289
L72443 72317
L72499 72317
" />
<path d="M72696 72260
L72724 72289
L72696 72317
L72668 72289
L72696 72260
L72696 72317
" />
<path d="M72696 71951
L72724 71979
L72696 72007
L72668 71979
L72696 71951
L72696 72007
" />
</g>
<g style="fill:#000000; fill-opacity:0.0; 
stroke:#000000; stroke-width:39.3701; stroke-opacity:1; 
stroke-linecap:round; stroke-linejoin:round;">
</g>
<g style="fill:#000000; fill-opacity:0.0; 
stroke:#000000; stroke-width:59.0551; stroke-opacity:1; 
stroke-linecap:round; stroke-linejoin:round;">
<path d="M77559 75396
L77559 76577
" />
</g>
<g style="fill:#000000; fill-opacity:0.0; 
stroke:#000000; stroke-width:39.3701; stroke-opacity:1; 
stroke-linecap:round; stroke-linejoin:round;">
</g>
<g style="fill:#000000; fill-opacity:0.0; 
stroke:#000000; stroke-width:59.0551; stroke-opacity:1; 
stroke-linecap:round; stroke-linejoin:round;">
<path d="M102756 75396
L102756 77955
" />
</g>
<g style="fill:#848484; fill-opacity:0.0; 
stroke:#848484; stroke-width:59.0551; stroke-opacity:1; 
stroke-linecap:round; stroke-linejoin:round;">
</g>
<g style="fill:#848484; fill-opacity:0.0; 
stroke:#848484; stroke-width:39.3701; stroke-opacity:1; 
stroke-linecap:round; stroke-linejoin:round;">
<path d="M63241 29266
L63241 29069
" />
<path d="M63340 29168
L63143 29168
" />
<circle cx="62500" cy="28740.2" r="984.252" /> 
<circle cx="57381.9" cy="28740.2" r="984.252" /> 
<path d="M58221 29168
L58025 29168
" />
<path d="M58123 29266
L58123 29069
" />
<path d="M47376 28097
L47180 28097
" />
<path d="M47278 27998
L47278 28195
" />
<circle cx="46850.4" cy="28838.6" r="984.252" /> 
<path d="M52888 28097
L52691 28097
" />
<path d="M52790 27998
L52790 28195
" />
<circle cx="52362.2" cy="28838.6" r="984.252" /> 
<path d="M53354 31633
L53354 30570
" />
<path d="M53354 30570
L51307 30570
" />
<path d="M51307 30570
L51307 31633
" />
<path d="M51307 31633
L53354 31633
" />
<path d="M54330 31102
L53354 31102
" />
<path d="M50330 31102
L51307 31102
" />
<path d="M53047 31633
L53047 30570
" />
<path d="M53007 31633
L53007 30570
" />
<path d="M53086 31633
L53086 30570
" />
<path d="M47574 31633
L47574 30570
" />
<path d="M47496 31633
L47496 30570
" />
<path d="M47535 31633
L47535 30570
" />
<path d="M44818 31102
L45795 31102
" />
<path d="M48818 31102
L47842 31102
" />
<path d="M45795 31633
L47842 31633
" />
<path d="M45795 30570
L45795 31633
" />
<path d="M47842 30570
L45795 30570
" />
<path d="M47842 31633
L47842 30570
" />
<circle cx="57086.6" cy="31496.1" r="393.701" /> 
<path d="M57086 32496
L57086 31496
" />
<path d="M55586 35539
L55586 34789
" />
<path d="M55586 34789
L55836 34539
" />
<path d="M55836 34539
L57586 34539
" />
<path d="M57586 34539
L57586 35539
" />
<path d="M57586 35539
L55586 35539
" />
<path d="M44779 36433
L45779 36433
" />
<path d="M45779 36433
L45779 35334
" />
<path d="M44779 35334
L45779 35334
" />
<path d="M44779 36433
L44779 35334
" />
<path d="M46748 36433
L47748 36433
" />
<path d="M47748 36433
L47748 35334
" />
<path d="M46748 35334
L47748 35334
" />
<path d="M46748 36433
L46748 35334
" />
<path d="M48271 32984
L48271 34185
" />
<path d="M48271 32984
L44259 32984
" />
<path d="M48271 32984
L48468 32984
" />
<path d="M48468 32984
L48468 34881
" />
<path d="M48468 34881
L48271 34783
" />
<path d="M48468 37582
L48271 37484
" />
<path d="M48271 37484
L48271 37881
" />
<path d="M48468 36933
L48271 37031
" />
<path d="M48271 37031
L48271 37484
" />
<path d="M48468 36933
L48468 37582
" />
<path d="M46448 37881
L46448 37133
" />
<path d="M48051 35334
L48051 37133
" />
<path d="M46448 37881
L48051 37881
" />
<path d="M48051 37881
L48271 37881
" />
<path d="M46078 37881
L46078 37133
" />
<path d="M46078 37881
L46448 37881
" />
<path d="M44480 35334
L44480 37133
" />
<path d="M44259 37881
L44480 37881
" />
<path d="M44480 37881
L46078 37881
" />
<path d="M46448 37133
L48051 37133
" />
<path d="M46448 37133
L46448 35334
" />
<path d="M48051 37133
L48051 37881
" />
<path d="M46078 37133
L44480 37133
" />
<path d="M46078 37133
L46078 35334
" />
<path d="M44480 37133
L44480 37881
" />
<path d="M47901 36881
L47901 35633
" />
<path d="M47901 36881
L46598 36881
" />
<path d="M46598 36881
L46598 35633
" />
<path d="M45929 36881
L45929 35633
" />
<path d="M45929 36881
L44629 36881
" />
<path d="M44629 36881
L44629 35633
" />
<path d="M44629 35633
L44779 35633
" />
<path d="M45929 35633
L45779 35633
" />
<path d="M46598 35633
L46748 35633
" />
<path d="M47901 35633
L47748 35633
" />
<path d="M44259 37881
L44259 35181
" />
<path d="M44259 35181
L44259 34185
" />
<path d="M48271 34783
L48271 35181
" />
<path d="M48271 35181
L48271 37031
" />
<path d="M44259 34185
L48271 34185
" />
<path d="M44259 34185
L44259 32984
" />
<path d="M48271 34185
L48271 34783
" />
<path d="M46448 34082
L46448 33082
" />
<path d="M46448 33082
L48051 33082
" />
<path d="M48051 33082
L48051 34082
" />
<path d="M48051 34082
L46448 34082
" />
<path d="M46078 34082
L46078 33082
" />
<path d="M46078 34082
L44480 34082
" />
<path d="M44480 34082
L44480 33082
" />
<path d="M46078 33082
L44480 33082
" />
<path d="M46610 33681
L47811 33433
" />
<path d="M46661 33732
L47858 33484
" />
<path d="M44637 33681
L45842 33433
" />
<path d="M44688 33732
L45889 33484
" />
<path d="M44480 35334
L44629 35334
" />
<path d="M46078 35334
L45929 35334
" />
<path d="M45929 35334
L44629 35334
" />
<path d="M44259 35181
L44629 35181
" />
<path d="M44629 35181
L45929 35181
" />
<path d="M45929 35181
L46598 35181
" />
<path d="M48271 35181
L47901 35181
" />
<path d="M47901 35181
L46598 35181
" />
<path d="M48051 35334
L47901 35334
" />
<path d="M46448 35334
L46598 35334
" />
<path d="M46598 35334
L47901 35334
" />
<path d="M47828.9 33828.3 A270.395 270.395 0.0 0 0 47850.4 33444.9 " />
<path d="M46672.3 33792 A959.056 959.056 0.0 0 0 47846.5 33811 " />
<path d="M47849.7 33440.3 A809.158 809.158 0.0 0 0 46610.2 33464.6 " />
<path d="M46628.8 33441.5 A234.409 234.409 0.0 0 0 46685 33807.1 " />
<path d="M45860.5 33824.4 A267.485 267.485 0.0 0 0 45878 33444.9 " />
<path d="M44700.9 33795.8 A961.42 961.42 0.0 0 0 45878 33811 " />
<path d="M45881.9 33436.4 A812.227 812.227 0.0 0 0 44637.8 33464.6 " />
<path d="M44660.2 33441.5 A234.409 234.409 0.0 0 0 44716.5 33807.1 " />
<path d="M49893 35539
L49893 34789
" />
<path d="M49893 34789
L50143 34539
" />
<path d="M50143 34539
L53893 34539
" />
<path d="M53893 34539
L53893 35539
" />
<path d="M53893 35539
L49893 35539
" />
<path d="M64232 31314
L62500 31314
" />
<path d="M62500 31314
L62500 35251
" />
<path d="M62500 35251
L64232 35251
" />
<path d="M64232 35251
L64232 31314
" />
<path d="M63732 31314
L63732 35251
" />
<path d="M64232 32555
L63732 32555
" />
<path d="M64232 34011
L63732 34011
" />
<path d="M59055 35496
L59055 34736
" />
<path d="M59055 31496
L59055 32255
" />
<path d="M59547 34736
L59547 32255
" />
<path d="M58562 34736
L59547 34736
" />
<path d="M58562 32255
L58562 34736
" />
<path d="M59547 32255
L58562 32255
" />
<path d="M61515 32255
L60531 32255
" />
<path d="M60531 32255
L60531 34736
" />
<path d="M60531 34736
L61515 34736
" />
<path d="M61515 34736
L61515 32255
" />
<path d="M61023 31496
L61023 32255
" />
<path d="M61023 35496
L61023 34736
" />
<path d="M63145 25137
L63145 25637
" />
<path d="M61688 25137
L61688 25637
" />
<path d="M60448 25637
L64385 25637
" />
<path d="M64385 25137
L60448 25137
" />
<path d="M64385 26870
L64385 25137
" />
<path d="M60448 26870
L64385 26870
" />
<path d="M60448 25137
L60448 26870
" />
<path d="M55330 25137
L55330 26870
" />
<path d="M55330 26870
L59267 26870
" />
<path d="M59267 26870
L59267 25137
" />
<path d="M59267 25137
L55330 25137
" />
<path d="M55330 25637
L59267 25637
" />
<path d="M56570 25137
L56570 25637
" />
<path d="M58027 25137
L58027 25637
" />
<path d="M47397 25137
L47397 25637
" />
<path d="M45940 25137
L45940 25637
" />
<path d="M44700 25637
L48637 25637
" />
<path d="M48637 25137
L44700 25137
" />
<path d="M48637 26870
L48637 25137
" />
<path d="M44700 26870
L48637 26870
" />
<path d="M44700 25137
L44700 26870
" />
<path d="M50212 25137
L50212 26870
" />
<path d="M50212 26870
L54149 26870
" />
<path d="M54149 26870
L54149 25137
" />
<path d="M54149 25137
L50212 25137
" />
<path d="M50212 25637
L54149 25637
" />
<path d="M51452 25137
L51452 25637
" />
<path d="M52909 25137
L52909 25637
" />
<g >
</g>
<g >
</g>
<g >
</g>
<g >
</g>
<g >
</g>
<g >
</g>
<g >
</g>
<g >
</g>
<g >
</g>
<g >
</g>
<g >
</g>
<g >
</g>
<g >
</g>
<g >
</g>
<g >
</g>
<g >
</g>
<g >
</g>
<g >
</g>
<g >
</g>
<g >
</g>
<g >
</g>
</g>
<g style="fill:#848484; fill-opacity:0.0; 
stroke:#848484; stroke-width:39.3701; stroke-opacity:1; 
stroke-linecap:round; stroke-linejoin:round;">
</g>
<g style="fill:#848484; fill-opacity:0.0; 
stroke:#848484; stroke-width:59.0551; stroke-opacity:1; 
stroke-linecap:round; stroke-linejoin:round;">
<text x="62500" y="27460.6"
textLength="846.457" font-size="524.934" lengthAdjust="spacingAndGlyphs"
text-anchor="middle" opacity="0">CP</text>
<path d="M62425 27404
L62406 27423
L62350 27441
L62312 27441
L62256 27423
L62218 27385
L62200 27348
L62181 27273
L62181 27216
L62200 27141
L62218 27104
L62256 27066
L62312 27048
L62350 27048
L62406 27066
L62425 27085
" />
<path d="M62593 27441
L62593 27048
L62743 27048
L62781 27066
L62799 27085
L62818 27123
L62818 27179
L62799 27216
L62781 27235
L62743 27254
L62593 27254
" />
<text x="62500" y="28937"
textLength="845.426" font-size="524.934" lengthAdjust="spacingAndGlyphs"
text-anchor="middle" opacity="0">C1</text>
<path d="M62434 28880
L62415 28899
L62359 28918
L62321 28918
L62265 28899
L62228 28862
L62209 28824
L62190 28749
L62190 28693
L62209 28618
L62228 28580
L62265 28543
L62321 28524
L62359 28524
L62415 28543
L62434 28562
" />
<path d="M62809 28918
L62584 28918
" />
<path d="M62696 28918
L62696 28524
L62659 28580
L62621 28618
L62584 28637
" />
<text x="57381.9" y="27460.6"
textLength="864.173" font-size="524.934" lengthAdjust="spacingAndGlyphs"
text-anchor="middle" opacity="0">CP</text>
<path d="M57306 27404
L57288 27423
L57231 27441
L57194 27441
L57138 27423
L57100 27385
L57081 27348
L57063 27273
L57063 27216
L57081 27141
L57100 27104
L57138 27066
L57194 27048
L57231 27048
L57288 27066
L57306 27085
" />
<path d="M57475 27441
L57475 27048
L57625 27048
L57663 27066
L57681 27085
L57700 27123
L57700 27179
L57681 27216
L57663 27235
L57625 27254
L57475 27254
" />
<text x="57381.9" y="28937"
textLength="845.426" font-size="524.934" lengthAdjust="spacingAndGlyphs"
text-anchor="middle" opacity="0">C2</text>
<path d="M57316 28880
L57297 28899
L57241 28918
L57203 28918
L57147 28899
L57110 28862
L57091 28824
L57072 28749
L57072 28693
L57091 28618
L57110 28580
L57147 28543
L57203 28524
L57241 28524
L57297 28543
L57316 28562
" />
<path d="M57466 28562
L57485 28543
L57522 28524
L57616 28524
L57653 28543
L57672 28562
L57691 28599
L57691 28637
L57672 28693
L57447 28918
L57691 28918
" />
<g transform="rotate(-90 45374 28838.6)">
<text x="45374" y="29035.4"
textLength="864.173" font-size="524.934" lengthAdjust="spacingAndGlyphs"
text-anchor="middle" opacity="0">CP</text>
</g>
<path d="M45514 28913
L45533 28932
L45552 28988
L45552 29026
L45533 29082
L45495 29119
L45458 29138
L45383 29157
L45327 29157
L45252 29138
L45214 29119
L45177 29082
L45158 29026
L45158 28988
L45177 28932
L45195 28913
" />
<path d="M45552 28744
L45158 28744
L45158 28594
L45177 28557
L45195 28538
L45233 28519
L45289 28519
L45327 28538
L45345 28557
L45364 28594
L45364 28744
" />
<g transform="rotate(-90 46850.4 28838.6)">
<text x="46850.4" y="29035.4"
textLength="845.426" font-size="524.934" lengthAdjust="spacingAndGlyphs"
text-anchor="middle" opacity="0">C3</text>
</g>
<path d="M46991 28904
L47009 28922
L47028 28979
L47028 29016
L47009 29072
L46972 29110
L46934 29129
L46859 29147
L46803 29147
L46728 29129
L46691 29110
L46653 29072
L46634 29016
L46634 28979
L46653 28922
L46672 28904
" />
<path d="M46634 28772
L46634 28529
L46784 28660
L46784 28604
L46803 28566
L46822 28547
L46859 28529
L46953 28529
L46991 28547
L47009 28566
L47028 28604
L47028 28716
L47009 28754
L46991 28772
" />
<g transform="rotate(-90 50885.8 28838.6)">
<text x="50885.8" y="29035.4"
textLength="864.173" font-size="524.934" lengthAdjust="spacingAndGlyphs"
text-anchor="middle" opacity="0">CP</text>
</g>
<path d="M51026 28913
L51045 28932
L51063 28988
L51063 29026
L51045 29082
L51007 29119
L50970 29138
L50895 29157
L50838 29157
L50763 29138
L50726 29119
L50688 29082
L50670 29026
L50670 28988
L50688 28932
L50707 28913
" />
<path d="M51063 28744
L50670 28744
L50670 28594
L50688 28557
L50707 28538
L50745 28519
L50801 28519
L50838 28538
L50857 28557
L50876 28594
L50876 28744
" />
<g transform="rotate(-90 52362.2 28838.6)">
<text x="52362.2" y="29035.4"
textLength="845.426" font-size="524.934" lengthAdjust="spacingAndGlyphs"
text-anchor="middle" opacity="0">C4</text>
</g>
<path d="M52502 28904
L52521 28922
L52540 28979
L52540 29016
L52521 29072
L52484 29110
L52446 29129
L52371 29147
L52315 29147
L52240 29129
L52202 29110
L52165 29072
L52146 29016
L52146 28979
L52165 28922
L52184 28904
" />
<path d="M52277 28566
L52540 28566
" />
<path d="M52127 28660
L52409 28754
L52409 28510
" />
<text x="52330.7" y="30326.8"
textLength="2363.99" font-size="524.934" lengthAdjust="spacingAndGlyphs"
text-anchor="middle" opacity="0">1N4007</text>
<path d="M51487 30308
L51262 30308
" />
<path d="M51374 30308
L51374 29914
L51337 29970
L51299 30008
L51262 30026
" />
<path d="M51655 30308
L51655 29914
L51880 30308
L51880 29914
" />
<path d="M52236 30045
L52236 30308
" />
<path d="M52143 29895
L52049 30176
L52293 30176
" />
<path d="M52518 29914
L52555 29914
L52593 29933
L52611 29951
L52630 29989
L52649 30064
L52649 30158
L52630 30233
L52611 30270
L52593 30289
L52555 30308
L52518 30308
L52480 30289
L52461 30270
L52443 30233
L52424 30158
L52424 30064
L52443 29989
L52461 29951
L52480 29933
L52518 29914
" />
<path d="M52893 29914
L52930 29914
L52968 29933
L52986 29951
L53005 29989
L53024 30064
L53024 30158
L53005 30233
L52986 30270
L52968 30289
L52930 30308
L52893 30308
L52855 30289
L52836 30270
L52818 30233
L52799 30158
L52799 30064
L52818 29989
L52836 29951
L52855 29933
L52893 29914
" />
<path d="M53155 29914
L53418 29914
L53249 30308
" />
<text x="52177.2" y="31299.2"
textLength="845.426" font-size="524.934" lengthAdjust="spacingAndGlyphs"
text-anchor="middle" opacity="0">D9</text>
<path d="M51886 31280
L51886 30886
L51980 30886
L52036 30905
L52074 30943
L52092 30980
L52111 31055
L52111 31111
L52092 31186
L52074 31224
L52036 31261
L51980 31280
L51886 31280
" />
<path d="M52299 31280
L52374 31280
L52411 31261
L52430 31242
L52467 31186
L52486 31111
L52486 30961
L52467 30924
L52449 30905
L52411 30886
L52336 30886
L52299 30905
L52280 30924
L52261 30961
L52261 31055
L52280 31092
L52299 31111
L52336 31130
L52411 31130
L52449 31111
L52467 31092
L52486 31055
" />
<text x="54330.7" y="32126"
textLength="470.472" font-size="524.934" lengthAdjust="spacingAndGlyphs"
text-anchor="middle" opacity="0">K</text>
<path d="M54227 32107
L54227 31713
" />
<path d="M54452 32107
L54283 31882
" />
<path d="M54452 31713
L54227 31938
" />
<text x="46818.9" y="30326.8"
textLength="2363.99" font-size="524.934" lengthAdjust="spacingAndGlyphs"
text-anchor="middle" opacity="0">1N4007</text>
<path d="M45975 30308
L45750 30308
" />
<path d="M45862 30308
L45862 29914
L45825 29970
L45787 30008
L45750 30026
" />
<path d="M46143 30308
L46143 29914
L46368 30308
L46368 29914
" />
<path d="M46725 30045
L46725 30308
" />
<path d="M46631 29895
L46537 30176
L46781 30176
" />
<path d="M47006 29914
L47043 29914
L47081 29933
L47100 29951
L47118 29989
L47137 30064
L47137 30158
L47118 30233
L47100 30270
L47081 30289
L47043 30308
L47006 30308
L46968 30289
L46950 30270
L46931 30233
L46912 30158
L46912 30064
L46931 29989
L46950 29951
L46968 29933
L47006 29914
" />
<path d="M47381 29914
L47418 29914
L47456 29933
L47475 29951
L47493 29989
L47512 30064
L47512 30158
L47493 30233
L47475 30270
L47456 30289
L47418 30308
L47381 30308
L47343 30289
L47325 30270
L47306 30233
L47287 30158
L47287 30064
L47306 29989
L47325 29951
L47343 29933
L47381 29914
" />
<path d="M47643 29914
L47906 29914
L47737 30308
" />
<text x="48818.9" y="32126"
textLength="470.472" font-size="524.934" lengthAdjust="spacingAndGlyphs"
text-anchor="middle" opacity="0">K</text>
<path d="M48715 32107
L48715 31713
" />
<path d="M48940 32107
L48772 31882
" />
<path d="M48940 31713
L48715 31938
" />
<text x="46665.4" y="31299.2"
textLength="1220.38" font-size="524.934" lengthAdjust="spacingAndGlyphs"
text-anchor="middle" opacity="0">D10</text>
<path d="M46187 31280
L46187 30886
L46281 30886
L46337 30905
L46374 30943
L46393 30980
L46412 31055
L46412 31111
L46393 31186
L46374 31224
L46337 31261
L46281 31280
L46187 31280
" />
<path d="M46787 31280
L46562 31280
" />
<path d="M46674 31280
L46674 30886
L46637 30943
L46599 30980
L46562 30999
" />
<path d="M47030 30886
L47068 30886
L47105 30905
L47124 30924
L47143 30961
L47162 31036
L47162 31130
L47143 31205
L47124 31242
L47105 31261
L47068 31280
L47030 31280
L46993 31261
L46974 31242
L46955 31205
L46937 31130
L46937 31036
L46955 30961
L46974 30924
L46993 30905
L47030 30886
" />
<g transform="rotate(-90 58352.5 31996.1)">
<text x="58352.5" y="32192.9"
textLength="2363.99" font-size="524.934" lengthAdjust="spacingAndGlyphs"
text-anchor="middle" opacity="0">1N4148</text>
</g>
<path d="M58530 32839
L58530 33064
" />
<path d="M58530 32952
L58136 32952
L58193 32989
L58230 33027
L58249 33064
" />
<path d="M58530 32670
L58136 32670
L58530 32446
L58136 32446
" />
<path d="M58268 32089
L58530 32089
" />
<path d="M58118 32183
L58399 32277
L58399 32033
" />
<path d="M58530 31677
L58530 31902
" />
<path d="M58530 31789
L58136 31789
L58193 31827
L58230 31864
L58249 31902
" />
<path d="M58268 31339
L58530 31339
" />
<path d="M58118 31433
L58399 31527
L58399 31283
" />
<path d="M58305 31077
L58286 31114
L58268 31133
L58230 31152
L58211 31152
L58174 31133
L58155 31114
L58136 31077
L58136 31002
L58155 30964
L58174 30946
L58211 30927
L58230 30927
L58268 30946
L58286 30964
L58305 31002
L58305 31077
L58324 31114
L58343 31133
L58380 31152
L58455 31152
L58493 31133
L58511 31114
L58530 31077
L58530 31002
L58511 30964
L58493 30946
L58455 30927
L58380 30927
L58343 30946
L58324 30964
L58305 31002
" />
<g transform="rotate(-90 56170.7 31996.1)">
<text x="56170.7" y="32192.9"
textLength="1220.38" font-size="524.934" lengthAdjust="spacingAndGlyphs"
text-anchor="middle" opacity="0">D11</text>
</g>
<path d="M56348 32474
L55955 32474
L55955 32380
L55973 32324
L56011 32286
L56048 32267
L56123 32249
L56180 32249
L56255 32267
L56292 32286
L56330 32324
L56348 32380
L56348 32474
" />
<path d="M56348 31874
L56348 32099
" />
<path d="M56348 31986
L55955 31986
L56011 32024
L56048 32061
L56067 32099
" />
<path d="M56348 31499
L56348 31724
" />
<path d="M56348 31611
L55955 31611
L56011 31649
L56048 31686
L56067 31724
" />
<g transform="rotate(-90 57086.6 33204.7)">
<text x="57086.6" y="33401.6"
textLength="470.472" font-size="524.934" lengthAdjust="spacingAndGlyphs"
text-anchor="middle" opacity="0">K</text>
</g>
<path d="M57264 33307
L56871 33307
" />
<path d="M57264 33082
L57039 33251
" />
<path d="M56871 33082
L57095 33307
" />
<g transform="rotate(-90 58177.2 35039.4)">
<text x="58177.2" y="35236.2"
textLength="6057.27" font-size="524.934" lengthAdjust="spacingAndGlyphs"
text-anchor="middle" opacity="0">Conn_01x02_Female</text>
</g>
<path d="M58317 37710
L58336 37729
L58355 37785
L58355 37823
L58336 37879
L58299 37917
L58261 37935
L58186 37954
L58130 37954
L58055 37935
L58017 37917
L57980 37879
L57961 37823
L57961 37785
L57980 37729
L57999 37710
" />
<path d="M58355 37485
L58336 37523
L58317 37542
L58280 37560
L58167 37560
L58130 37542
L58111 37523
L58092 37485
L58092 37429
L58111 37392
L58130 37373
L58167 37354
L58280 37354
L58317 37373
L58336 37392
L58355 37429
L58355 37485
" />
<path d="M58092 37185
L58355 37185
" />
<path d="M58130 37185
L58111 37167
L58092 37129
L58092 37073
L58111 37035
L58149 37017
L58355 37017
" />
<path d="M58092 36829
L58355 36829
" />
<path d="M58130 36829
L58111 36811
L58092 36773
L58092 36717
L58111 36679
L58149 36661
L58355 36661
" />
<path d="M58392 36567
L58392 36267
" />
<path d="M57961 36098
L57961 36061
L57980 36023
L57999 36004
L58036 35986
L58111 35967
L58205 35967
L58280 35986
L58317 36004
L58336 36023
L58355 36061
L58355 36098
L58336 36136
L58317 36154
L58280 36173
L58205 36192
L58111 36192
L58036 36173
L57999 36154
L57980 36136
L57961 36098
" />
<path d="M58355 35592
L58355 35817
" />
<path d="M58355 35704
L57961 35704
L58017 35742
L58055 35779
L58074 35817
" />
<path d="M58355 35461
L58092 35254
" />
<path d="M58092 35461
L58355 35254
" />
<path d="M57961 35029
L57961 34992
L57980 34955
L57999 34936
L58036 34917
L58111 34898
L58205 34898
L58280 34917
L58317 34936
L58336 34955
L58355 34992
L58355 35029
L58336 35067
L58317 35086
L58280 35104
L58205 35123
L58111 35123
L58036 35104
L57999 35086
L57980 35067
L57961 35029
" />
<path d="M57999 34748
L57980 34730
L57961 34692
L57961 34598
L57980 34561
L57999 34542
L58036 34523
L58074 34523
L58130 34542
L58355 34767
L58355 34523
" />
<path d="M58392 34448
L58392 34148
" />
<path d="M58149 33923
L58149 34055
" />
<path d="M58355 34055
L57961 34055
L57961 33867
" />
<path d="M58336 33567
L58355 33605
L58355 33680
L58336 33717
L58299 33736
L58149 33736
L58111 33717
L58092 33680
L58092 33605
L58111 33567
L58149 33548
L58186 33548
L58224 33736
" />
<path d="M58355 33380
L58092 33380
" />
<path d="M58130 33380
L58111 33361
L58092 33323
L58092 33267
L58111 33230
L58149 33211
L58355 33211
" />
<path d="M58149 33211
L58111 33192
L58092 33155
L58092 33098
L58111 33061
L58149 33042
L58355 33042
" />
<path d="M58355 32686
L58149 32686
L58111 32705
L58092 32742
L58092 32817
L58111 32855
" />
<path d="M58336 32686
L58355 32724
L58355 32817
L58336 32855
L58299 32874
L58261 32874
L58224 32855
L58205 32817
L58205 32724
L58186 32686
" />
<path d="M58355 32442
L58336 32480
L58299 32499
L57961 32499
" />
<path d="M58336 32142
L58355 32180
L58355 32255
L58336 32292
L58299 32311
L58149 32311
L58111 32292
L58092 32255
L58092 32180
L58111 32142
L58149 32124
L58186 32124
L58224 32311
" />
<text x="56586.6" y="35236.2"
textLength="751.687" font-size="524.934" lengthAdjust="spacingAndGlyphs"
text-anchor="middle" opacity="0">J1</text>
<path d="M56455 34823
L56455 35104
L56436 35161
L56399 35198
L56342 35217
L56305 35217
" />
<path d="M56849 35217
L56624 35217
" />
<path d="M56736 35217
L56736 34823
L56699 34880
L56661 34917
L56624 34936
" />
<text x="46370.1" y="38681.1"
textLength="6713.44" font-size="524.934" lengthAdjust="spacingAndGlyphs"
text-anchor="middle" opacity="0">Screw_Terminal_01x02</text>
<path d="M43126 38643
L43182 38662
L43276 38662
L43314 38643
L43332 38624
L43351 38587
L43351 38549
L43332 38512
L43314 38493
L43276 38474
L43201 38456
L43164 38437
L43145 38418
L43126 38381
L43126 38343
L43145 38306
L43164 38287
L43201 38268
L43295 38268
L43351 38287
" />
<path d="M43689 38643
L43651 38662
L43576 38662
L43539 38643
L43520 38624
L43501 38587
L43501 38474
L43520 38437
L43539 38418
L43576 38399
L43651 38399
L43689 38418
" />
<path d="M43857 38662
L43857 38399
" />
<path d="M43857 38474
L43876 38437
L43895 38418
L43932 38399
L43970 38399
" />
<path d="M44251 38643
L44214 38662
L44139 38662
L44101 38643
L44082 38606
L44082 38456
L44101 38418
L44139 38399
L44214 38399
L44251 38418
L44270 38456
L44270 38493
L44082 38531
" />
<path d="M44401 38399
L44476 38662
L44551 38474
L44626 38662
L44701 38399
" />
<path d="M44757 38699
L45057 38699
" />
<path d="M45095 38268
L45320 38268
" />
<path d="M45207 38662
L45207 38268
" />
<path d="M45601 38643
L45563 38662
L45488 38662
L45451 38643
L45432 38606
L45432 38456
L45451 38418
L45488 38399
L45563 38399
L45601 38418
L45620 38456
L45620 38493
L45432 38531
" />
<path d="M45788 38662
L45788 38399
" />
<path d="M45788 38474
L45807 38437
L45826 38418
L45863 38399
L45901 38399
" />
<path d="M46032 38662
L46032 38399
" />
<path d="M46032 38437
L46051 38418
L46088 38399
L46145 38399
L46182 38418
L46201 38456
L46201 38662
" />
<path d="M46201 38456
L46220 38418
L46257 38399
L46313 38399
L46351 38418
L46370 38456
L46370 38662
" />
<path d="M46557 38662
L46557 38399
" />
<path d="M46557 38268
L46538 38287
L46557 38306
L46576 38287
L46557 38268
L46557 38306
" />
<path d="M46745 38399
L46745 38662
" />
<path d="M46745 38437
L46763 38418
L46801 38399
L46857 38399
L46895 38418
L46913 38456
L46913 38662
" />
<path d="M47269 38662
L47269 38456
L47251 38418
L47213 38399
L47138 38399
L47101 38418
" />
<path d="M47269 38643
L47232 38662
L47138 38662
L47101 38643
L47082 38606
L47082 38568
L47101 38531
L47138 38512
L47232 38512
L47269 38493
" />
<path d="M47513 38662
L47476 38643
L47457 38606
L47457 38268
" />
<path d="M47569 38699
L47869 38699
" />
<path d="M48038 38268
L48076 38268
L48113 38287
L48132 38306
L48151 38343
L48169 38418
L48169 38512
L48151 38587
L48132 38624
L48113 38643
L48076 38662
L48038 38662
L48001 38643
L47982 38624
L47963 38587
L47944 38512
L47944 38418
L47963 38343
L47982 38306
L48001 38287
L48038 38268
" />
<path d="M48544 38662
L48319 38662
" />
<path d="M48432 38662
L48432 38268
L48394 38324
L48357 38362
L48319 38381
" />
<path d="M48676 38662
L48882 38399
" />
<path d="M48676 38399
L48882 38662
" />
<path d="M49107 38268
L49144 38268
L49182 38287
L49200 38306
L49219 38343
L49238 38418
L49238 38512
L49219 38587
L49200 38624
L49182 38643
L49144 38662
L49107 38662
L49069 38643
L49050 38624
L49032 38587
L49013 38512
L49013 38418
L49032 38343
L49050 38306
L49069 38287
L49107 38268
" />
<path d="M49388 38306
L49407 38287
L49444 38268
L49538 38268
L49575 38287
L49594 38306
L49613 38343
L49613 38381
L49594 38437
L49369 38662
L49613 38662
" />
<text x="46259.8" y="34842.5"
textLength="751.687" font-size="524.934" lengthAdjust="spacingAndGlyphs"
text-anchor="middle" opacity="0">J2</text>
<path d="M46128 34430
L46128 34711
L46109 34767
L46072 34805
L46016 34823
L45978 34823
" />
<path d="M46297 34467
L46316 34448
L46353 34430
L46447 34430
L46484 34448
L46503 34467
L46522 34505
L46522 34542
L46503 34598
L46278 34823
L46522 34823
" />
<g transform="rotate(-90 54484.3 35039.4)">
<text x="54484.3" y="35236.2"
textLength="6057.27" font-size="524.934" lengthAdjust="spacingAndGlyphs"
text-anchor="middle" opacity="0">Conn_01x04_Female</text>
</g>
<path d="M54624 37710
L54643 37729
L54662 37785
L54662 37823
L54643 37879
L54606 37917
L54568 37935
L54493 37954
L54437 37954
L54362 37935
L54324 37917
L54287 37879
L54268 37823
L54268 37785
L54287 37729
L54306 37710
" />
<path d="M54662 37485
L54643 37523
L54624 37542
L54587 37560
L54474 37560
L54437 37542
L54418 37523
L54399 37485
L54399 37429
L54418 37392
L54437 37373
L54474 37354
L54587 37354
L54624 37373
L54643 37392
L54662 37429
L54662 37485
" />
<path d="M54399 37185
L54662 37185
" />
<path d="M54437 37185
L54418 37167
L54399 37129
L54399 37073
L54418 37035
L54456 37017
L54662 37017
" />
<path d="M54399 36829
L54662 36829
" />
<path d="M54437 36829
L54418 36811
L54399 36773
L54399 36717
L54418 36679
L54456 36661
L54662 36661
" />
<path d="M54699 36567
L54699 36267
" />
<path d="M54268 36098
L54268 36061
L54287 36023
L54306 36004
L54343 35986
L54418 35967
L54512 35967
L54587 35986
L54624 36004
L54643 36023
L54662 36061
L54662 36098
L54643 36136
L54624 36154
L54587 36173
L54512 36192
L54418 36192
L54343 36173
L54306 36154
L54287 36136
L54268 36098
" />
<path d="M54662 35592
L54662 35817
" />
<path d="M54662 35704
L54268 35704
L54324 35742
L54362 35779
L54381 35817
" />
<path d="M54662 35461
L54399 35254
" />
<path d="M54399 35461
L54662 35254
" />
<path d="M54268 35029
L54268 34992
L54287 34955
L54306 34936
L54343 34917
L54418 34898
L54512 34898
L54587 34917
L54624 34936
L54643 34955
L54662 34992
L54662 35029
L54643 35067
L54624 35086
L54587 35104
L54512 35123
L54418 35123
L54343 35104
L54306 35086
L54287 35067
L54268 35029
" />
<path d="M54399 34561
L54662 34561
" />
<path d="M54249 34655
L54531 34748
L54531 34505
" />
<path d="M54699 34448
L54699 34148
" />
<path d="M54456 33923
L54456 34055
" />
<path d="M54662 34055
L54268 34055
L54268 33867
" />
<path d="M54643 33567
L54662 33605
L54662 33680
L54643 33717
L54606 33736
L54456 33736
L54418 33717
L54399 33680
L54399 33605
L54418 33567
L54456 33548
L54493 33548
L54531 33736
" />
<path d="M54662 33380
L54399 33380
" />
<path d="M54437 33380
L54418 33361
L54399 33323
L54399 33267
L54418 33230
L54456 33211
L54662 33211
" />
<path d="M54456 33211
L54418 33192
L54399 33155
L54399 33098
L54418 33061
L54456 33042
L54662 33042
" />
<path d="M54662 32686
L54456 32686
L54418 32705
L54399 32742
L54399 32817
L54418 32855
" />
<path d="M54643 32686
L54662 32724
L54662 32817
L54643 32855
L54606 32874
L54568 32874
L54531 32855
L54512 32817
L54512 32724
L54493 32686
" />
<path d="M54662 32442
L54643 32480
L54606 32499
L54268 32499
" />
<path d="M54643 32142
L54662 32180
L54662 32255
L54643 32292
L54606 32311
L54456 32311
L54418 32292
L54399 32255
L54399 32180
L54418 32142
L54456 32124
L54493 32124
L54531 32311
" />
<text x="51893.7" y="35236.2"
textLength="751.687" font-size="524.934" lengthAdjust="spacingAndGlyphs"
text-anchor="middle" opacity="0">J3</text>
<path d="M51762 34823
L51762 35104
L51743 35161
L51706 35198
L51649 35217
L51612 35217
" />
<path d="M51912 34823
L52156 34823
L52024 34973
L52081 34973
L52118 34992
L52137 35011
L52156 35048
L52156 35142
L52137 35179
L52118 35198
L52081 35217
L51968 35217
L51931 35198
L51912 35179
" />
<g transform="rotate(-90 62007.9 33283.5)">
<text x="62007.9" y="33480.3"
textLength="2495.22" font-size="524.934" lengthAdjust="spacingAndGlyphs"
text-anchor="middle" opacity="0">IRF3205</text>
</g>
<path d="M62185 34398
L61792 34398
" />
<path d="M62185 33986
L61998 34117
" />
<path d="M62185 34211
L61792 34211
L61792 34061
L61811 34023
L61829 34005
L61867 33986
L61923 33986
L61961 34005
L61979 34023
L61998 34061
L61998 34211
" />
<path d="M61979 33686
L61979 33817
" />
<path d="M62185 33817
L61792 33817
L61792 33630
" />
<path d="M61792 33517
L61792 33274
L61942 33405
L61942 33349
L61961 33311
L61979 33292
L62017 33274
L62110 33274
L62148 33292
L62167 33311
L62185 33349
L62185 33461
L62167 33499
L62148 33517
" />
<path d="M61829 33124
L61811 33105
L61792 33067
L61792 32974
L61811 32936
L61829 32917
L61867 32899
L61904 32899
L61961 32917
L62185 33142
L62185 32899
" />
<path d="M61792 32655
L61792 32617
L61811 32580
L61829 32561
L61867 32542
L61942 32524
L62035 32524
L62110 32542
L62148 32561
L62167 32580
L62185 32617
L62185 32655
L62167 32692
L62148 32711
L62110 32730
L62035 32749
L61942 32749
L61867 32730
L61829 32711
L61811 32692
L61792 32655
" />
<path d="M61792 32167
L61792 32355
L61979 32374
L61961 32355
L61942 32317
L61942 32224
L61961 32186
L61979 32167
L62017 32149
L62110 32149
L62148 32167
L62167 32186
L62185 32224
L62185 32317
L62167 32355
L62148 32374
" />
<g transform="rotate(-90 64673.2 33283.5)">
<text x="64673.2" y="33480.3"
textLength="864.173" font-size="524.934" lengthAdjust="spacingAndGlyphs"
text-anchor="middle" opacity="0">Q9</text>
</g>
<path d="M64888 33320
L64870 33358
L64832 33395
L64776 33452
L64757 33489
L64757 33527
" />
<path d="M64851 33508
L64832 33545
L64795 33583
L64720 33602
L64588 33602
L64513 33583
L64476 33545
L64457 33508
L64457 33433
L64476 33395
L64513 33358
L64588 33339
L64720 33339
L64795 33358
L64832 33395
L64851 33433
L64851 33508
" />
<path d="M64851 33152
L64851 33077
L64832 33039
L64813 33020
L64757 32983
L64682 32964
L64532 32964
L64495 32983
L64476 33002
L64457 33039
L64457 33114
L64476 33152
L64495 33170
L64532 33189
L64626 33189
L64663 33170
L64682 33152
L64701 33114
L64701 33039
L64682 33002
L64663 32983
L64626 32964
" />
<g transform="rotate(-90 58122 33496.1)">
<text x="58122" y="33692.9"
textLength="1407.86" font-size="524.934" lengthAdjust="spacingAndGlyphs"
text-anchor="middle" opacity="0">2.2K</text>
</g>
<path d="M57943 34086
L57925 34067
L57906 34030
L57906 33936
L57925 33899
L57943 33880
L57981 33861
L58018 33861
L58075 33880
L58300 34105
L58300 33861
" />
<path d="M58262 33692
L58281 33674
L58300 33692
L58281 33711
L58262 33692
L58300 33692
" />
<path d="M57943 33524
L57925 33505
L57906 33467
L57906 33374
L57925 33336
L57943 33317
L57981 33299
L58018 33299
L58075 33317
L58300 33542
L58300 33299
" />
<path d="M58300 33130
L57906 33130
" />
<path d="M58300 32905
L58075 33074
" />
<path d="M57906 32905
L58131 33130
" />
<g transform="rotate(-90 59055.1 33496.1)">
<text x="59055.1" y="33692.9"
textLength="1220.38" font-size="524.934" lengthAdjust="spacingAndGlyphs"
text-anchor="middle" opacity="0">R17</text>
</g>
<path d="M59233 33749
L59045 33880
" />
<path d="M59233 33974
L58839 33974
L58839 33824
L58858 33786
L58877 33767
L58914 33749
L58970 33749
L59008 33767
L59026 33786
L59045 33824
L59045 33974
" />
<path d="M59233 33374
L59233 33599
" />
<path d="M59233 33486
L58839 33486
L58895 33524
L58933 33561
L58952 33599
" />
<path d="M58839 33242
L58839 32980
L59233 33149
" />
<g transform="rotate(-90 60090.6 33496.1)">
<text x="60090.6" y="33692.9"
textLength="1220.38" font-size="524.934" lengthAdjust="spacingAndGlyphs"
text-anchor="middle" opacity="0">10K</text>
</g>
<path d="M60268 33767
L60268 33992
" />
<path d="M60268 33880
L59874 33880
L59931 33917
L59968 33955
L59987 33992
" />
<path d="M59874 33524
L59874 33486
L59893 33449
L59912 33430
L59949 33411
L60024 33392
L60118 33392
L60193 33411
L60231 33430
L60249 33449
L60268 33486
L60268 33524
L60249 33561
L60231 33580
L60193 33599
L60118 33617
L60024 33617
L59949 33599
L59912 33580
L59893 33561
L59874 33524
" />
<path d="M60268 33224
L59874 33224
" />
<path d="M60268 32999
L60043 33167
" />
<path d="M59874 32999
L60099 33224
" />
<g transform="rotate(-90 61023.6 33496.1)">
<text x="61023.6" y="33692.9"
textLength="1220.38" font-size="524.934" lengthAdjust="spacingAndGlyphs"
text-anchor="middle" opacity="0">R18</text>
</g>
<path d="M61201 33749
L61014 33880
" />
<path d="M61201 33974
L60808 33974
L60808 33824
L60826 33786
L60845 33767
L60883 33749
L60939 33749
L60976 33767
L60995 33786
L61014 33824
L61014 33974
" />
<path d="M61201 33374
L61201 33599
" />
<path d="M61201 33486
L60808 33486
L60864 33524
L60901 33561
L60920 33599
" />
<path d="M60976 33149
L60958 33186
L60939 33205
L60901 33224
L60883 33224
L60845 33205
L60826 33186
L60808 33149
L60808 33074
L60826 33036
L60845 33017
L60883 32999
L60901 32999
L60939 33017
L60958 33036
L60976 33074
L60976 33149
L60995 33186
L61014 33205
L61051 33224
L61126 33224
L61164 33205
L61182 33186
L61201 33149
L61201 33074
L61182 33036
L61164 33017
L61126 32999
L61051 32999
L61014 33017
L60995 33036
L60976 33074
" />
<g transform="rotate(-90 62417.3 27362.2)">
<text x="62417.3" y="27559.1"
textLength="1895.29" font-size="524.934" lengthAdjust="spacingAndGlyphs"
text-anchor="middle" opacity="0">L7805</text>
</g>
<path d="M62595 27990
L62595 28177
L62201 28177
" />
<path d="M62201 27896
L62201 27634
L62595 27802
" />
<path d="M62370 27427
L62351 27465
L62332 27484
L62295 27502
L62276 27502
L62239 27484
L62220 27465
L62201 27427
L62201 27352
L62220 27315
L62239 27296
L62276 27277
L62295 27277
L62332 27296
L62351 27315
L62370 27352
L62370 27427
L62389 27465
L62407 27484
L62445 27502
L62520 27502
L62557 27484
L62576 27465
L62595 27427
L62595 27352
L62576 27315
L62557 27296
L62520 27277
L62445 27277
L62407 27296
L62389 27315
L62370 27352
" />
<path d="M62201 27034
L62201 26996
L62220 26959
L62239 26940
L62276 26921
L62351 26902
L62445 26902
L62520 26921
L62557 26940
L62576 26959
L62595 26996
L62595 27034
L62576 27071
L62557 27090
L62520 27109
L62445 27127
L62351 27127
L62276 27109
L62239 27090
L62220 27071
L62201 27034
" />
<path d="M62201 26546
L62201 26734
L62389 26752
L62370 26734
L62351 26696
L62351 26602
L62370 26565
L62389 26546
L62426 26527
L62520 26527
L62557 26546
L62576 26565
L62595 26602
L62595 26696
L62576 26734
L62557 26752
" />
<text x="62417.3" y="24893.7"
textLength="864.173" font-size="524.934" lengthAdjust="spacingAndGlyphs"
text-anchor="middle" opacity="0">U1</text>
<path d="M62117 24481
L62117 24799
L62136 24837
L62154 24856
L62192 24874
L62267 24874
L62304 24856
L62323 24837
L62342 24799
L62342 24481
" />
<path d="M62736 24874
L62511 24874
" />
<path d="M62623 24874
L62623 24481
L62586 24537
L62548 24574
L62511 24593
" />
<text x="57299.2" y="27559.1"
textLength="1895.29" font-size="524.934" lengthAdjust="spacingAndGlyphs"
text-anchor="middle" opacity="0">L7805</text>
<path d="M56671 27540
L56483 27540
L56483 27146
" />
<path d="M56764 27146
L57027 27146
L56858 27540
" />
<path d="M57233 27315
L57196 27296
L57177 27277
L57158 27240
L57158 27221
L57177 27184
L57196 27165
L57233 27146
L57308 27146
L57346 27165
L57364 27184
L57383 27221
L57383 27240
L57364 27277
L57346 27296
L57308 27315
L57233 27315
L57196 27334
L57177 27352
L57158 27390
L57158 27465
L57177 27502
L57196 27521
L57233 27540
L57308 27540
L57346 27521
L57364 27502
L57383 27465
L57383 27390
L57364 27352
L57346 27334
L57308 27315
" />
<path d="M57627 27146
L57664 27146
L57702 27165
L57721 27184
L57739 27221
L57758 27296
L57758 27390
L57739 27465
L57721 27502
L57702 27521
L57664 27540
L57627 27540
L57589 27521
L57571 27502
L57552 27465
L57533 27390
L57533 27296
L57552 27221
L57571 27184
L57589 27165
L57627 27146
" />
<path d="M58114 27146
L57927 27146
L57908 27334
L57927 27315
L57964 27296
L58058 27296
L58095 27315
L58114 27334
L58133 27371
L58133 27465
L58114 27502
L58095 27521
L58058 27540
L57964 27540
L57927 27521
L57908 27502
" />
<text x="57299.2" y="24893.7"
textLength="864.173" font-size="524.934" lengthAdjust="spacingAndGlyphs"
text-anchor="middle" opacity="0">U2</text>
<path d="M56999 24481
L56999 24799
L57017 24837
L57036 24856
L57074 24874
L57149 24874
L57186 24856
L57205 24837
L57224 24799
L57224 24481
" />
<path d="M57392 24518
L57411 24500
L57449 24481
L57542 24481
L57580 24500
L57599 24518
L57617 24556
L57617 24593
L57599 24649
L57374 24874
L57617 24874
" />
<text x="46669.3" y="27559.1"
textLength="1895.29" font-size="524.934" lengthAdjust="spacingAndGlyphs"
text-anchor="middle" opacity="0">L7812</text>
<path d="M46041 27540
L45853 27540
L45853 27146
" />
<path d="M46134 27146
L46397 27146
L46228 27540
" />
<path d="M46603 27315
L46566 27296
L46547 27277
L46528 27240
L46528 27221
L46547 27184
L46566 27165
L46603 27146
L46678 27146
L46716 27165
L46734 27184
L46753 27221
L46753 27240
L46734 27277
L46716 27296
L46678 27315
L46603 27315
L46566 27334
L46547 27352
L46528 27390
L46528 27465
L46547 27502
L46566 27521
L46603 27540
L46678 27540
L46716 27521
L46734 27502
L46753 27465
L46753 27390
L46734 27352
L46716 27334
L46678 27315
" />
<path d="M47128 27540
L46903 27540
" />
<path d="M47016 27540
L47016 27146
L46978 27202
L46941 27240
L46903 27259
" />
<path d="M47278 27184
L47297 27165
L47334 27146
L47428 27146
L47466 27165
L47484 27184
L47503 27221
L47503 27259
L47484 27315
L47259 27540
L47503 27540
" />
<text x="46669.3" y="24893.7"
textLength="864.173" font-size="524.934" lengthAdjust="spacingAndGlyphs"
text-anchor="middle" opacity="0">U3</text>
<path d="M46369 24481
L46369 24799
L46388 24837
L46406 24856
L46444 24874
L46519 24874
L46556 24856
L46575 24837
L46594 24799
L46594 24481
" />
<path d="M46744 24481
L46988 24481
L46856 24631
L46913 24631
L46950 24649
L46969 24668
L46988 24706
L46988 24799
L46969 24837
L46950 24856
L46913 24874
L46800 24874
L46763 24856
L46744 24837
" />
<text x="52181.1" y="27559.1"
textLength="1895.29" font-size="524.934" lengthAdjust="spacingAndGlyphs"
text-anchor="middle" opacity="0">L7812</text>
<path d="M51553 27540
L51365 27540
L51365 27146
" />
<path d="M51646 27146
L51909 27146
L51740 27540
" />
<path d="M52115 27315
L52077 27296
L52059 27277
L52040 27240
L52040 27221
L52059 27184
L52077 27165
L52115 27146
L52190 27146
L52227 27165
L52246 27184
L52265 27221
L52265 27240
L52246 27277
L52227 27296
L52190 27315
L52115 27315
L52077 27334
L52059 27352
L52040 27390
L52040 27465
L52059 27502
L52077 27521
L52115 27540
L52190 27540
L52227 27521
L52246 27502
L52265 27465
L52265 27390
L52246 27352
L52227 27334
L52190 27315
" />
<path d="M52640 27540
L52415 27540
" />
<path d="M52527 27540
L52527 27146
L52490 27202
L52452 27240
L52415 27259
" />
<path d="M52790 27184
L52809 27165
L52846 27146
L52940 27146
L52977 27165
L52996 27184
L53015 27221
L53015 27259
L52996 27315
L52771 27540
L53015 27540
" />
<text x="52181.1" y="24893.7"
textLength="864.173" font-size="524.934" lengthAdjust="spacingAndGlyphs"
text-anchor="middle" opacity="0">U4</text>
<path d="M51881 24481
L51881 24799
L51899 24837
L51918 24856
L51956 24874
L52031 24874
L52068 24856
L52087 24837
L52106 24799
L52106 24481
" />
<path d="M52462 24612
L52462 24874
" />
<path d="M52368 24462
L52274 24743
L52518 24743
" />
<text x="45649.6" y="24378"
textLength="4032.53" font-size="524.934" lengthAdjust="spacingAndGlyphs"
text-anchor="middle" opacity="0">MountingHole</text>
<path d="M43765 24359
L43765 23965
L43896 24246
L44027 23965
L44027 24359
" />
<path d="M44271 24359
L44234 24340
L44215 24321
L44196 24284
L44196 24171
L44215 24134
L44234 24115
L44271 24096
L44327 24096
L44365 24115
L44384 24134
L44402 24171
L44402 24284
L44384 24321
L44365 24340
L44327 24359
L44271 24359
" />
<path d="M44740 24096
L44740 24359
" />
<path d="M44571 24096
L44571 24302
L44590 24340
L44627 24359
L44684 24359
L44721 24340
L44740 24321
" />
<path d="M44927 24096
L44927 24359
" />
<path d="M44927 24134
L44946 24115
L44984 24096
L45040 24096
L45077 24115
L45096 24152
L45096 24359
" />
<path d="M45227 24096
L45377 24096
" />
<path d="M45284 23965
L45284 24302
L45302 24340
L45340 24359
L45377 24359
" />
<path d="M45508 24359
L45508 24096
" />
<path d="M45508 23965
L45490 23984
L45508 24002
L45527 23984
L45508 23965
L45508 24002
" />
<path d="M45696 24096
L45696 24359
" />
<path d="M45696 24134
L45715 24115
L45752 24096
L45808 24096
L45846 24115
L45865 24152
L45865 24359
" />
<path d="M46221 24096
L46221 24415
L46202 24452
L46183 24471
L46146 24490
L46090 24490
L46052 24471
" />
<path d="M46221 24340
L46183 24359
L46108 24359
L46071 24340
L46052 24321
L46033 24284
L46033 24171
L46052 24134
L46071 24115
L46108 24096
L46183 24096
L46221 24115
" />
<path d="M46408 24359
L46408 23965
" />
<path d="M46408 24152
L46633 24152
" />
<path d="M46633 24359
L46633 23965
" />
<path d="M46877 24359
L46840 24340
L46821 24321
L46802 24284
L46802 24171
L46821 24134
L46840 24115
L46877 24096
L46933 24096
L46971 24115
L46990 24134
L47008 24171
L47008 24284
L46990 24321
L46971 24340
L46933 24359
L46877 24359
" />
<path d="M47233 24359
L47196 24340
L47177 24302
L47177 23965
" />
<path d="M47533 24340
L47496 24359
L47421 24359
L47383 24340
L47365 24302
L47365 24152
L47383 24115
L47421 24096
L47496 24096
L47533 24115
L47552 24152
L47552 24190
L47365 24227
" />
<text x="42618.1" y="23196.9"
textLength="864.173" font-size="524.934" lengthAdjust="spacingAndGlyphs"
text-anchor="middle" opacity="0">H1</text>
<path d="M42318 23178
L42318 22784
" />
<path d="M42318 22971
L42543 22971
" />
<path d="M42543 23178
L42543 22784
" />
<path d="M42936 23178
L42711 23178
" />
<path d="M42824 23178
L42824 22784
L42786 22840
L42749 22878
L42711 22896
" />
<text x="46043.3" y="39590.6"
textLength="4032.53" font-size="524.934" lengthAdjust="spacingAndGlyphs"
text-anchor="middle" opacity="0">MountingHole</text>
<path d="M44159 39571
L44159 39178
L44290 39459
L44421 39178
L44421 39571
" />
<path d="M44665 39571
L44627 39553
L44609 39534
L44590 39496
L44590 39384
L44609 39346
L44627 39328
L44665 39309
L44721 39309
L44759 39328
L44777 39346
L44796 39384
L44796 39496
L44777 39534
L44759 39553
L44721 39571
L44665 39571
" />
<path d="M45134 39309
L45134 39571
" />
<path d="M44965 39309
L44965 39515
L44984 39553
L45021 39571
L45077 39571
L45115 39553
L45134 39534
" />
<path d="M45321 39309
L45321 39571
" />
<path d="M45321 39346
L45340 39328
L45377 39309
L45434 39309
L45471 39328
L45490 39365
L45490 39571
" />
<path d="M45621 39309
L45771 39309
" />
<path d="M45677 39178
L45677 39515
L45696 39553
L45733 39571
L45771 39571
" />
<path d="M45902 39571
L45902 39309
" />
<path d="M45902 39178
L45883 39196
L45902 39215
L45921 39196
L45902 39178
L45902 39215
" />
<path d="M46090 39309
L46090 39571
" />
<path d="M46090 39346
L46108 39328
L46146 39309
L46202 39309
L46240 39328
L46258 39365
L46258 39571
" />
<path d="M46615 39309
L46615 39628
L46596 39665
L46577 39684
L46540 39703
L46483 39703
L46446 39684
" />
<path d="M46615 39553
L46577 39571
L46502 39571
L46465 39553
L46446 39534
L46427 39496
L46427 39384
L46446 39346
L46465 39328
L46502 39309
L46577 39309
L46615 39328
" />
<path d="M46802 39571
L46802 39178
" />
<path d="M46802 39365
L47027 39365
" />
<path d="M47027 39571
L47027 39178
" />
<path d="M47271 39571
L47233 39553
L47215 39534
L47196 39496
L47196 39384
L47215 39346
L47233 39328
L47271 39309
L47327 39309
L47365 39328
L47383 39346
L47402 39384
L47402 39496
L47383 39534
L47365 39553
L47327 39571
L47271 39571
" />
<path d="M47627 39571
L47589 39553
L47571 39515
L47571 39178
" />
<path d="M47927 39553
L47889 39571
L47814 39571
L47777 39553
L47758 39515
L47758 39365
L47777 39328
L47814 39309
L47889 39309
L47927 39328
L47946 39365
L47946 39403
L47758 39440
" />
<text x="42618.1" y="39196.9"
textLength="864.173" font-size="524.934" lengthAdjust="spacingAndGlyphs"
text-anchor="middle" opacity="0">H2</text>
<path d="M42318 39178
L42318 38784
" />
<path d="M42318 38971
L42543 38971
" />
<path d="M42543 39178
L42543 38784
" />
<path d="M42711 38821
L42730 38803
L42768 38784
L42861 38784
L42899 38803
L42918 38821
L42936 38859
L42936 38896
L42918 38953
L42693 39178
L42936 39178
" />
<text x="45027.6" y="24378"
textLength="4032.53" font-size="524.934" lengthAdjust="spacingAndGlyphs"
text-anchor="middle" opacity="0">MountingHole</text>
<path d="M43143 24359
L43143 23965
L43274 24246
L43405 23965
L43405 24359
" />
<path d="M43649 24359
L43612 24340
L43593 24321
L43574 24284
L43574 24171
L43593 24134
L43612 24115
L43649 24096
L43705 24096
L43743 24115
L43762 24134
L43780 24171
L43780 24284
L43762 24321
L43743 24340
L43705 24359
L43649 24359
" />
<path d="M44118 24096
L44118 24359
" />
<path d="M43949 24096
L43949 24302
L43968 24340
L44005 24359
L44062 24359
L44099 24340
L44118 24321
" />
<path d="M44305 24096
L44305 24359
" />
<path d="M44305 24134
L44324 24115
L44362 24096
L44418 24096
L44455 24115
L44474 24152
L44474 24359
" />
<path d="M44605 24096
L44755 24096
" />
<path d="M44661 23965
L44661 24302
L44680 24340
L44718 24359
L44755 24359
" />
<path d="M44886 24359
L44886 24096
" />
<path d="M44886 23965
L44868 23984
L44886 24002
L44905 23984
L44886 23965
L44886 24002
" />
<path d="M45074 24096
L45074 24359
" />
<path d="M45074 24134
L45093 24115
L45130 24096
L45186 24096
L45224 24115
L45243 24152
L45243 24359
" />
<path d="M45599 24096
L45599 24415
L45580 24452
L45561 24471
L45524 24490
L45468 24490
L45430 24471
" />
<path d="M45599 24340
L45561 24359
L45486 24359
L45449 24340
L45430 24321
L45411 24284
L45411 24171
L45430 24134
L45449 24115
L45486 24096
L45561 24096
L45599 24115
" />
<path d="M45786 24359
L45786 23965
" />
<path d="M45786 24152
L46011 24152
" />
<path d="M46011 24359
L46011 23965
" />
<path d="M46255 24359
L46218 24340
L46199 24321
L46180 24284
L46180 24171
L46199 24134
L46218 24115
L46255 24096
L46311 24096
L46349 24115
L46368 24134
L46386 24171
L46386 24284
L46368 24321
L46349 24340
L46311 24359
L46255 24359
" />
<path d="M46611 24359
L46574 24340
L46555 24302
L46555 23965
" />
<path d="M46911 24340
L46874 24359
L46799 24359
L46761 24340
L46742 24302
L46742 24152
L46761 24115
L46799 24096
L46874 24096
L46911 24115
L46930 24152
L46930 24190
L46742 24227
" />
<text x="65618.1" y="23196.9"
textLength="864.173" font-size="524.934" lengthAdjust="spacingAndGlyphs"
text-anchor="middle" opacity="0">H3</text>
<path d="M65318 23178
L65318 22784
" />
<path d="M65318 22971
L65543 22971
" />
<path d="M65543 23178
L65543 22784
" />
<path d="M65693 22784
L65936 22784
L65805 22934
L65861 22934
L65899 22953
L65918 22971
L65936 23009
L65936 23103
L65918 23140
L65899 23159
L65861 23178
L65749 23178
L65711 23159
L65693 23140
" />
<text x="61956.7" y="38409.4"
textLength="4032.53" font-size="524.934" lengthAdjust="spacingAndGlyphs"
text-anchor="middle" opacity="0">MountingHole</text>
<path d="M60072 38390
L60072 37997
L60203 38278
L60335 37997
L60335 38390
" />
<path d="M60578 38390
L60541 38371
L60522 38353
L60503 38315
L60503 38203
L60522 38165
L60541 38146
L60578 38128
L60634 38128
L60672 38146
L60691 38165
L60709 38203
L60709 38315
L60691 38353
L60672 38371
L60634 38390
L60578 38390
" />
<path d="M61047 38128
L61047 38390
" />
<path d="M60878 38128
L60878 38334
L60897 38371
L60934 38390
L60991 38390
L61028 38371
L61047 38353
" />
<path d="M61234 38128
L61234 38390
" />
<path d="M61234 38165
L61253 38146
L61291 38128
L61347 38128
L61384 38146
L61403 38184
L61403 38390
" />
<path d="M61534 38128
L61684 38128
" />
<path d="M61591 37997
L61591 38334
L61609 38371
L61647 38390
L61684 38390
" />
<path d="M61816 38390
L61816 38128
" />
<path d="M61816 37997
L61797 38015
L61816 38034
L61834 38015
L61816 37997
L61816 38034
" />
<path d="M62003 38128
L62003 38390
" />
<path d="M62003 38165
L62022 38146
L62059 38128
L62116 38128
L62153 38146
L62172 38184
L62172 38390
" />
<path d="M62528 38128
L62528 38446
L62509 38484
L62491 38503
L62453 38521
L62397 38521
L62359 38503
" />
<path d="M62528 38371
L62491 38390
L62416 38390
L62378 38371
L62359 38353
L62341 38315
L62341 38203
L62359 38165
L62378 38146
L62416 38128
L62491 38128
L62528 38146
" />
<path d="M62715 38390
L62715 37997
" />
<path d="M62715 38184
L62940 38184
" />
<path d="M62940 38390
L62940 37997
" />
<path d="M63184 38390
L63147 38371
L63128 38353
L63109 38315
L63109 38203
L63128 38165
L63147 38146
L63184 38128
L63240 38128
L63278 38146
L63297 38165
L63315 38203
L63315 38315
L63297 38353
L63278 38371
L63240 38390
L63184 38390
" />
<path d="M63540 38390
L63503 38371
L63484 38334
L63484 37997
" />
<path d="M63840 38371
L63803 38390
L63728 38390
L63690 38371
L63672 38334
L63672 38184
L63690 38146
L63728 38128
L63803 38128
L63840 38146
L63859 38184
L63859 38221
L63672 38259
" />
<text x="65618.1" y="39196.9"
textLength="864.173" font-size="524.934" lengthAdjust="spacingAndGlyphs"
text-anchor="middle" opacity="0">H4</text>
<path d="M65318 39178
L65318 38784
" />
<path d="M65318 38971
L65543 38971
" />
<path d="M65543 39178
L65543 38784
" />
<path d="M65899 38915
L65899 39178
" />
<path d="M65805 38765
L65711 39046
L65955 39046
" />
<g >
</g>
</g>
<g style="fill:#000000; fill-opacity:0.0; 
stroke:#000000; stroke-width:59.0551; stroke-opacity:1; 
stroke-linecap:round; stroke-linejoin:round;">
</g>
<g style="fill:#C2C200; fill-opacity:0.0; 
stroke:#C2C200; stroke-width:59.0551; stroke-opacity:1; 
stroke-linecap:round; stroke-linejoin:round;">
</g>
<g style="fill:#C2C200; fill-opacity:0.0; 
stroke:#C2C200; stroke-width:39.3701; stroke-opacity:1; 
stroke-linecap:round; stroke-linejoin:round;">
<path d="M67716 20472
L67716 41338
" />
<path d="M40157 20472
L67716 20472
" />
<path d="M40157 41338
L40157 20472
" />
<path d="M67716 41338
L40157 41338
" />
<g >
</g>
<g >
</g>
<g >
</g>
<g >
</g>
<g >
</g>
<g >
</g>
<g >
</g>
<g >
</g>
<g >
</g>
<g >
</g>
<g >
</g>
<g >
</g>
<g >
</g>
<g >
</g>
<g >
</g>
<g >
</g>
<g >
</g>
<g >
</g>
<g >
</g>
<g >
</g>
<g >
</g>
<g >
</g>
</g> 
</svg>
