<?xml version="1.0" standalone="no"?>
 <!DOCTYPE svg PUBLIC "-//W3C//DTD SVG 1.1//EN" 
 "http://www.w3.org/Graphics/SVG/1.1/DTD/svg11.dtd"> 
<svg xmlns="http://www.w3.org/2000/svg" version="1.1" 
    width="29.7002cm" height="21.0007cm" viewBox="0 0 116930 82680 ">
<title>SVG Picture created as LDOs-B_Mask.svg date 2020/04/08 04:14:34 </title>
  <desc>Picture generated by PCBNEW </desc>
<g style="fill:#000000; fill-opacity:1;stroke:#000000; stroke-opacity:1;
stroke-linecap:round; stroke-linejoin:round; "
 transform="translate(0 0) scale(1 1)">
</g>
<g style="fill:#000000; fill-opacity:0.0; 
stroke:#000000; stroke-width:-0.000393701; stroke-opacity:1; 
stroke-linecap:round; stroke-linejoin:round;">
</g>
<g style="fill:#000000; fill-opacity:0.0; 
stroke:#000000; stroke-width:39.3701; stroke-opacity:1; 
stroke-linecap:round; stroke-linejoin:round;">
</g>
<g style="fill:#000000; fill-opacity:0.0; 
stroke:#000000; stroke-width:59.0551; stroke-opacity:1; 
stroke-linecap:round; stroke-linejoin:round;">
<rect x="69685.9" y="65357.2" width="42519.7" height="12598.4" rx="0" />
</g>
<g style="fill:#000000; fill-opacity:0.0; 
stroke:#000000; stroke-width:39.3701; stroke-opacity:1; 
stroke-linecap:round; stroke-linejoin:round;">
</g>
<g style="fill:#000000; fill-opacity:0.0; 
stroke:#000000; stroke-width:59.0551; stroke-opacity:1; 
stroke-linecap:round; stroke-linejoin:round;">
<rect x="3937.01" y="3937.01" width="109056" height="74806" rx="0" />
</g>
<g style="fill:#000000; fill-opacity:0.0; 
stroke:#000000; stroke-width:39.3701; stroke-opacity:1; 
stroke-linecap:round; stroke-linejoin:round;">
</g>
<g style="fill:#000000; fill-opacity:0.0; 
stroke:#000000; stroke-width:59.0551; stroke-opacity:1; 
stroke-linecap:round; stroke-linejoin:round;">
<rect x="4724.41" y="4724.41" width="107481" height="73231.2" rx="0" />
</g>
<g style="fill:#000000; fill-opacity:0.0; 
stroke:#000000; stroke-width:39.3701; stroke-opacity:1; 
stroke-linecap:round; stroke-linejoin:round;">
</g>
<g style="fill:#000000; fill-opacity:0.0; 
stroke:#000000; stroke-width:59.0551; stroke-opacity:1; 
stroke-linecap:round; stroke-linejoin:round;">
<path d="M23622 4724
L23622 3937
" />
</g>
<g style="fill:#000000; fill-opacity:0.0; 
stroke:#000000; stroke-width:39.3701; stroke-opacity:1; 
stroke-linecap:round; stroke-linejoin:round;">
</g>
<g style="fill:#000000; fill-opacity:0.0; 
stroke:#000000; stroke-width:59.0551; stroke-opacity:1; 
stroke-linecap:round; stroke-linejoin:round;">
<path d="M43307 4724
L43307 3937
" />
</g>
<g style="fill:#000000; fill-opacity:0.0; 
stroke:#000000; stroke-width:39.3701; stroke-opacity:1; 
stroke-linecap:round; stroke-linejoin:round;">
</g>
<g style="fill:#000000; fill-opacity:0.0; 
stroke:#000000; stroke-width:59.0551; stroke-opacity:1; 
stroke-linecap:round; stroke-linejoin:round;">
<path d="M62992 4724
L62992 3937
" />
</g>
<g style="fill:#000000; fill-opacity:0.0; 
stroke:#000000; stroke-width:39.3701; stroke-opacity:1; 
stroke-linecap:round; stroke-linejoin:round;">
</g>
<g style="fill:#000000; fill-opacity:0.0; 
stroke:#000000; stroke-width:59.0551; stroke-opacity:1; 
stroke-linecap:round; stroke-linejoin:round;">
<path d="M82677 4724
L82677 3937
" />
</g>
<g style="fill:#000000; fill-opacity:0.0; 
stroke:#000000; stroke-width:39.3701; stroke-opacity:1; 
stroke-linecap:round; stroke-linejoin:round;">
</g>
<g style="fill:#000000; fill-opacity:0.0; 
stroke:#000000; stroke-width:59.0551; stroke-opacity:1; 
stroke-linecap:round; stroke-linejoin:round;">
<path d="M102362 4724
L102362 3937
" />
</g>
<g style="fill:#000000; fill-opacity:0.0; 
stroke:#000000; stroke-width:39.3701; stroke-opacity:1; 
stroke-linecap:round; stroke-linejoin:round;">
</g>
<g style="fill:#000000; fill-opacity:0.0; 
stroke:#000000; stroke-width:59.0551; stroke-opacity:1; 
stroke-linecap:round; stroke-linejoin:round;">
<text x="13779.5" y="4586.61"
textLength="564.211" font-size="682.415" lengthAdjust="spacingAndGlyphs"
text-anchor="start" opacity="0">1</text>
<path d="M14199 4562
L13906 4562
" />
<path d="M14052 4562
L14052 4050
L14004 4123
L13955 4172
L13906 4196
" />
</g>
<g style="fill:#000000; fill-opacity:0.0; 
stroke:#000000; stroke-width:39.3701; stroke-opacity:1; 
stroke-linecap:round; stroke-linejoin:round;">
</g>
<g style="fill:#000000; fill-opacity:0.0; 
stroke:#000000; stroke-width:59.0551; stroke-opacity:1; 
stroke-linecap:round; stroke-linejoin:round;">
<text x="33464.6" y="4586.61"
textLength="546.494" font-size="682.415" lengthAdjust="spacingAndGlyphs"
text-anchor="start" opacity="0">2</text>
<path d="M33591 4099
L33615 4074
L33664 4050
L33786 4050
L33835 4074
L33859 4099
L33884 4147
L33884 4196
L33859 4269
L33567 4562
L33884 4562
" />
</g>
<g style="fill:#000000; fill-opacity:0.0; 
stroke:#000000; stroke-width:39.3701; stroke-opacity:1; 
stroke-linecap:round; stroke-linejoin:round;">
</g>
<g style="fill:#000000; fill-opacity:0.0; 
stroke:#000000; stroke-width:59.0551; stroke-opacity:1; 
stroke-linecap:round; stroke-linejoin:round;">
<text x="53149.6" y="4586.61"
textLength="546.494" font-size="682.415" lengthAdjust="spacingAndGlyphs"
text-anchor="start" opacity="0">3</text>
<path d="M53252 4050
L53569 4050
L53398 4245
L53471 4245
L53520 4269
L53544 4294
L53569 4342
L53569 4464
L53544 4513
L53520 4537
L53471 4562
L53325 4562
L53276 4537
L53252 4513
" />
</g>
<g style="fill:#000000; fill-opacity:0.0; 
stroke:#000000; stroke-width:39.3701; stroke-opacity:1; 
stroke-linecap:round; stroke-linejoin:round;">
</g>
<g style="fill:#000000; fill-opacity:0.0; 
stroke:#000000; stroke-width:59.0551; stroke-opacity:1; 
stroke-linecap:round; stroke-linejoin:round;">
<text x="72834.6" y="4586.61"
textLength="546.494" font-size="682.415" lengthAdjust="spacingAndGlyphs"
text-anchor="start" opacity="0">4</text>
<path d="M73205 4221
L73205 4562
" />
<path d="M73083 4026
L72961 4391
L73278 4391
" />
</g>
<g style="fill:#000000; fill-opacity:0.0; 
stroke:#000000; stroke-width:39.3701; stroke-opacity:1; 
stroke-linecap:round; stroke-linejoin:round;">
</g>
<g style="fill:#000000; fill-opacity:0.0; 
stroke:#000000; stroke-width:59.0551; stroke-opacity:1; 
stroke-linecap:round; stroke-linejoin:round;">
<text x="92519.7" y="4586.61"
textLength="546.494" font-size="682.415" lengthAdjust="spacingAndGlyphs"
text-anchor="start" opacity="0">5</text>
<path d="M92914 4050
L92671 4050
L92646 4294
L92671 4269
L92719 4245
L92841 4245
L92890 4269
L92914 4294
L92939 4342
L92939 4464
L92914 4513
L92890 4537
L92841 4562
L92719 4562
L92671 4537
L92646 4513
" />
</g>
<g style="fill:#000000; fill-opacity:0.0; 
stroke:#000000; stroke-width:39.3701; stroke-opacity:1; 
stroke-linecap:round; stroke-linejoin:round;">
</g>
<g style="fill:#000000; fill-opacity:0.0; 
stroke:#000000; stroke-width:59.0551; stroke-opacity:1; 
stroke-linecap:round; stroke-linejoin:round;">
<text x="112205" y="4586.61"
textLength="546.494" font-size="682.415" lengthAdjust="spacingAndGlyphs"
text-anchor="start" opacity="0">6</text>
<path d="M112575 4050
L112477 4050
L112429 4074
L112404 4099
L112356 4172
L112331 4269
L112331 4464
L112356 4513
L112380 4537
L112429 4562
L112526 4562
L112575 4537
L112599 4513
L112624 4464
L112624 4342
L112599 4294
L112575 4269
L112526 4245
L112429 4245
L112380 4269
L112356 4294
L112331 4342
" />
</g>
<g style="fill:#000000; fill-opacity:0.0; 
stroke:#000000; stroke-width:39.3701; stroke-opacity:1; 
stroke-linecap:round; stroke-linejoin:round;">
</g>
<g style="fill:#000000; fill-opacity:0.0; 
stroke:#000000; stroke-width:59.0551; stroke-opacity:1; 
stroke-linecap:round; stroke-linejoin:round;">
<path d="M23622 77955
L23622 78742
" />
</g>
<g style="fill:#000000; fill-opacity:0.0; 
stroke:#000000; stroke-width:39.3701; stroke-opacity:1; 
stroke-linecap:round; stroke-linejoin:round;">
</g>
<g style="fill:#000000; fill-opacity:0.0; 
stroke:#000000; stroke-width:59.0551; stroke-opacity:1; 
stroke-linecap:round; stroke-linejoin:round;">
<path d="M43307 77955
L43307 78742
" />
</g>
<g style="fill:#000000; fill-opacity:0.0; 
stroke:#000000; stroke-width:39.3701; stroke-opacity:1; 
stroke-linecap:round; stroke-linejoin:round;">
</g>
<g style="fill:#000000; fill-opacity:0.0; 
stroke:#000000; stroke-width:59.0551; stroke-opacity:1; 
stroke-linecap:round; stroke-linejoin:round;">
<path d="M62992 77955
L62992 78742
" />
</g>
<g style="fill:#000000; fill-opacity:0.0; 
stroke:#000000; stroke-width:39.3701; stroke-opacity:1; 
stroke-linecap:round; stroke-linejoin:round;">
</g>
<g style="fill:#000000; fill-opacity:0.0; 
stroke:#000000; stroke-width:59.0551; stroke-opacity:1; 
stroke-linecap:round; stroke-linejoin:round;">
<path d="M82677 77955
L82677 78742
" />
</g>
<g style="fill:#000000; fill-opacity:0.0; 
stroke:#000000; stroke-width:39.3701; stroke-opacity:1; 
stroke-linecap:round; stroke-linejoin:round;">
</g>
<g style="fill:#000000; fill-opacity:0.0; 
stroke:#000000; stroke-width:59.0551; stroke-opacity:1; 
stroke-linecap:round; stroke-linejoin:round;">
<path d="M102362 77955
L102362 78742
" />
</g>
<g style="fill:#000000; fill-opacity:0.0; 
stroke:#000000; stroke-width:39.3701; stroke-opacity:1; 
stroke-linecap:round; stroke-linejoin:round;">
</g>
<g style="fill:#000000; fill-opacity:0.0; 
stroke:#000000; stroke-width:59.0551; stroke-opacity:1; 
stroke-linecap:round; stroke-linejoin:round;">
<text x="13779.5" y="78605.2"
textLength="546.494" font-size="682.415" lengthAdjust="spacingAndGlyphs"
text-anchor="start" opacity="0">1</text>
<path d="M14199 78580
L13906 78580
" />
<path d="M14052 78580
L14052 78069
L14004 78142
L13955 78190
L13906 78215
" />
</g>
<g style="fill:#000000; fill-opacity:0.0; 
stroke:#000000; stroke-width:39.3701; stroke-opacity:1; 
stroke-linecap:round; stroke-linejoin:round;">
</g>
<g style="fill:#000000; fill-opacity:0.0; 
stroke:#000000; stroke-width:59.0551; stroke-opacity:1; 
stroke-linecap:round; stroke-linejoin:round;">
<text x="33464.6" y="78605.2"
textLength="546.494" font-size="682.415" lengthAdjust="spacingAndGlyphs"
text-anchor="start" opacity="0">2</text>
<path d="M33591 78117
L33615 78093
L33664 78069
L33786 78069
L33835 78093
L33859 78117
L33884 78166
L33884 78215
L33859 78288
L33567 78580
L33884 78580
" />
</g>
<g style="fill:#000000; fill-opacity:0.0; 
stroke:#000000; stroke-width:39.3701; stroke-opacity:1; 
stroke-linecap:round; stroke-linejoin:round;">
</g>
<g style="fill:#000000; fill-opacity:0.0; 
stroke:#000000; stroke-width:59.0551; stroke-opacity:1; 
stroke-linecap:round; stroke-linejoin:round;">
<text x="53149.6" y="78605.2"
textLength="546.494" font-size="682.415" lengthAdjust="spacingAndGlyphs"
text-anchor="start" opacity="0">3</text>
<path d="M53252 78069
L53569 78069
L53398 78263
L53471 78263
L53520 78288
L53544 78312
L53569 78361
L53569 78483
L53544 78532
L53520 78556
L53471 78580
L53325 78580
L53276 78556
L53252 78532
" />
</g>
<g style="fill:#000000; fill-opacity:0.0; 
stroke:#000000; stroke-width:39.3701; stroke-opacity:1; 
stroke-linecap:round; stroke-linejoin:round;">
</g>
<g style="fill:#000000; fill-opacity:0.0; 
stroke:#000000; stroke-width:59.0551; stroke-opacity:1; 
stroke-linecap:round; stroke-linejoin:round;">
<text x="72834.6" y="78605.2"
textLength="546.494" font-size="682.415" lengthAdjust="spacingAndGlyphs"
text-anchor="start" opacity="0">4</text>
<path d="M73205 78239
L73205 78580
" />
<path d="M73083 78044
L72961 78410
L73278 78410
" />
</g>
<g style="fill:#000000; fill-opacity:0.0; 
stroke:#000000; stroke-width:39.3701; stroke-opacity:1; 
stroke-linecap:round; stroke-linejoin:round;">
</g>
<g style="fill:#000000; fill-opacity:0.0; 
stroke:#000000; stroke-width:59.0551; stroke-opacity:1; 
stroke-linecap:round; stroke-linejoin:round;">
<text x="92519.7" y="78605.2"
textLength="546.494" font-size="682.415" lengthAdjust="spacingAndGlyphs"
text-anchor="start" opacity="0">5</text>
<path d="M92914 78069
L92671 78069
L92646 78312
L92671 78288
L92719 78263
L92841 78263
L92890 78288
L92914 78312
L92939 78361
L92939 78483
L92914 78532
L92890 78556
L92841 78580
L92719 78580
L92671 78556
L92646 78532
" />
</g>
<g style="fill:#000000; fill-opacity:0.0; 
stroke:#000000; stroke-width:39.3701; stroke-opacity:1; 
stroke-linecap:round; stroke-linejoin:round;">
</g>
<g style="fill:#000000; fill-opacity:0.0; 
stroke:#000000; stroke-width:59.0551; stroke-opacity:1; 
stroke-linecap:round; stroke-linejoin:round;">
<text x="112205" y="78605.2"
textLength="546.494" font-size="682.415" lengthAdjust="spacingAndGlyphs"
text-anchor="start" opacity="0">6</text>
<path d="M112575 78069
L112477 78069
L112429 78093
L112404 78117
L112356 78190
L112331 78288
L112331 78483
L112356 78532
L112380 78556
L112429 78580
L112526 78580
L112575 78556
L112599 78532
L112624 78483
L112624 78361
L112599 78312
L112575 78288
L112526 78263
L112429 78263
L112380 78288
L112356 78312
L112331 78361
" />
</g>
<g style="fill:#000000; fill-opacity:0.0; 
stroke:#000000; stroke-width:39.3701; stroke-opacity:1; 
stroke-linecap:round; stroke-linejoin:round;">
</g>
<g style="fill:#000000; fill-opacity:0.0; 
stroke:#000000; stroke-width:59.0551; stroke-opacity:1; 
stroke-linecap:round; stroke-linejoin:round;">
<path d="M3937 23622
L4724 23622
" />
</g>
<g style="fill:#000000; fill-opacity:0.0; 
stroke:#000000; stroke-width:39.3701; stroke-opacity:1; 
stroke-linecap:round; stroke-linejoin:round;">
</g>
<g style="fill:#000000; fill-opacity:0.0; 
stroke:#000000; stroke-width:59.0551; stroke-opacity:1; 
stroke-linecap:round; stroke-linejoin:round;">
<path d="M3937 43307
L4724 43307
" />
</g>
<g style="fill:#000000; fill-opacity:0.0; 
stroke:#000000; stroke-width:39.3701; stroke-opacity:1; 
stroke-linecap:round; stroke-linejoin:round;">
</g>
<g style="fill:#000000; fill-opacity:0.0; 
stroke:#000000; stroke-width:59.0551; stroke-opacity:1; 
stroke-linecap:round; stroke-linejoin:round;">
<path d="M3937 62992
L4724 62992
" />
</g>
<g style="fill:#000000; fill-opacity:0.0; 
stroke:#000000; stroke-width:39.3701; stroke-opacity:1; 
stroke-linecap:round; stroke-linejoin:round;">
</g>
<g style="fill:#000000; fill-opacity:0.0; 
stroke:#000000; stroke-width:59.0551; stroke-opacity:1; 
stroke-linecap:round; stroke-linejoin:round;">
<text x="4330.71" y="14035.4"
textLength="497.75" font-size="682.415" lengthAdjust="spacingAndGlyphs"
text-anchor="middle" opacity="0">A</text>
<path d="M4208 13864
L4452 13864
" />
<path d="M4160 14011
L4330 13499
L4501 14011
" />
</g>
<g style="fill:#000000; fill-opacity:0.0; 
stroke:#000000; stroke-width:39.3701; stroke-opacity:1; 
stroke-linecap:round; stroke-linejoin:round;">
</g>
<g style="fill:#000000; fill-opacity:0.0; 
stroke:#000000; stroke-width:59.0551; stroke-opacity:1; 
stroke-linecap:round; stroke-linejoin:round;">
<text x="4330.71" y="33720.5"
textLength="570.866" font-size="682.415" lengthAdjust="spacingAndGlyphs"
text-anchor="middle" opacity="0">B</text>
<path d="M4367 33428
L4440 33452
L4464 33476
L4489 33525
L4489 33598
L4464 33647
L4440 33671
L4391 33696
L4196 33696
L4196 33184
L4367 33184
L4416 33208
L4440 33233
L4464 33281
L4464 33330
L4440 33379
L4416 33403
L4367 33428
L4196 33428
" />
</g>
<g style="fill:#000000; fill-opacity:0.0; 
stroke:#000000; stroke-width:39.3701; stroke-opacity:1; 
stroke-linecap:round; stroke-linejoin:round;">
</g>
<g style="fill:#000000; fill-opacity:0.0; 
stroke:#000000; stroke-width:59.0551; stroke-opacity:1; 
stroke-linecap:round; stroke-linejoin:round;">
<text x="4330.71" y="53405.5"
textLength="570.866" font-size="682.415" lengthAdjust="spacingAndGlyphs"
text-anchor="middle" opacity="0">C</text>
<path d="M4489 53332
L4464 53356
L4391 53381
L4342 53381
L4269 53356
L4221 53308
L4196 53259
L4172 53161
L4172 53088
L4196 52991
L4221 52942
L4269 52893
L4342 52869
L4391 52869
L4464 52893
L4489 52918
" />
</g>
<g style="fill:#000000; fill-opacity:0.0; 
stroke:#000000; stroke-width:39.3701; stroke-opacity:1; 
stroke-linecap:round; stroke-linejoin:round;">
</g>
<g style="fill:#000000; fill-opacity:0.0; 
stroke:#000000; stroke-width:59.0551; stroke-opacity:1; 
stroke-linecap:round; stroke-linejoin:round;">
<text x="4330.71" y="73090.6"
textLength="570.866" font-size="682.415" lengthAdjust="spacingAndGlyphs"
text-anchor="middle" opacity="0">D</text>
<path d="M4196 73066
L4196 72554
L4318 72554
L4391 72578
L4440 72627
L4464 72676
L4489 72773
L4489 72846
L4464 72944
L4440 72993
L4391 73041
L4318 73066
L4196 73066
" />
</g>
<g style="fill:#000000; fill-opacity:0.0; 
stroke:#000000; stroke-width:39.3701; stroke-opacity:1; 
stroke-linecap:round; stroke-linejoin:round;">
</g>
<g style="fill:#000000; fill-opacity:0.0; 
stroke:#000000; stroke-width:59.0551; stroke-opacity:1; 
stroke-linecap:round; stroke-linejoin:round;">
<path d="M112992 23622
L112205 23622
" />
</g>
<g style="fill:#000000; fill-opacity:0.0; 
stroke:#000000; stroke-width:39.3701; stroke-opacity:1; 
stroke-linecap:round; stroke-linejoin:round;">
</g>
<g style="fill:#000000; fill-opacity:0.0; 
stroke:#000000; stroke-width:59.0551; stroke-opacity:1; 
stroke-linecap:round; stroke-linejoin:round;">
<path d="M112992 43307
L112205 43307
" />
</g>
<g style="fill:#000000; fill-opacity:0.0; 
stroke:#000000; stroke-width:39.3701; stroke-opacity:1; 
stroke-linecap:round; stroke-linejoin:round;">
</g>
<g style="fill:#000000; fill-opacity:0.0; 
stroke:#000000; stroke-width:59.0551; stroke-opacity:1; 
stroke-linecap:round; stroke-linejoin:round;">
<path d="M112992 62992
L112205 62992
" />
</g>
<g style="fill:#000000; fill-opacity:0.0; 
stroke:#000000; stroke-width:39.3701; stroke-opacity:1; 
stroke-linecap:round; stroke-linejoin:round;">
</g>
<g style="fill:#000000; fill-opacity:0.0; 
stroke:#000000; stroke-width:59.0551; stroke-opacity:1; 
stroke-linecap:round; stroke-linejoin:round;">
<text x="112599" y="14035.4"
textLength="497.75" font-size="682.415" lengthAdjust="spacingAndGlyphs"
text-anchor="middle" opacity="0">A</text>
<path d="M112477 13864
L112721 13864
" />
<path d="M112428 14011
L112599 13499
L112769 14011
" />
</g>
<g style="fill:#000000; fill-opacity:0.0; 
stroke:#000000; stroke-width:39.3701; stroke-opacity:1; 
stroke-linecap:round; stroke-linejoin:round;">
</g>
<g style="fill:#000000; fill-opacity:0.0; 
stroke:#000000; stroke-width:59.0551; stroke-opacity:1; 
stroke-linecap:round; stroke-linejoin:round;">
<text x="112599" y="33720.5"
textLength="570.866" font-size="682.415" lengthAdjust="spacingAndGlyphs"
text-anchor="middle" opacity="0">B</text>
<path d="M112635 33428
L112708 33452
L112733 33476
L112757 33525
L112757 33598
L112733 33647
L112708 33671
L112660 33696
L112465 33696
L112465 33184
L112635 33184
L112684 33208
L112708 33233
L112733 33281
L112733 33330
L112708 33379
L112684 33403
L112635 33428
L112465 33428
" />
</g>
<g style="fill:#000000; fill-opacity:0.0; 
stroke:#000000; stroke-width:39.3701; stroke-opacity:1; 
stroke-linecap:round; stroke-linejoin:round;">
</g>
<g style="fill:#000000; fill-opacity:0.0; 
stroke:#000000; stroke-width:59.0551; stroke-opacity:1; 
stroke-linecap:round; stroke-linejoin:round;">
<text x="112599" y="53405.5"
textLength="570.866" font-size="682.415" lengthAdjust="spacingAndGlyphs"
text-anchor="middle" opacity="0">C</text>
<path d="M112757 53332
L112733 53356
L112660 53381
L112611 53381
L112538 53356
L112489 53308
L112465 53259
L112440 53161
L112440 53088
L112465 52991
L112489 52942
L112538 52893
L112611 52869
L112660 52869
L112733 52893
L112757 52918
" />
</g>
<g style="fill:#000000; fill-opacity:0.0; 
stroke:#000000; stroke-width:39.3701; stroke-opacity:1; 
stroke-linecap:round; stroke-linejoin:round;">
</g>
<g style="fill:#000000; fill-opacity:0.0; 
stroke:#000000; stroke-width:59.0551; stroke-opacity:1; 
stroke-linecap:round; stroke-linejoin:round;">
<text x="112599" y="73090.6"
textLength="570.866" font-size="682.415" lengthAdjust="spacingAndGlyphs"
text-anchor="middle" opacity="0">D</text>
<path d="M112465 73066
L112465 72554
L112587 72554
L112660 72578
L112708 72627
L112733 72676
L112757 72773
L112757 72846
L112733 72944
L112708 72993
L112660 73041
L112587 73066
L112465 73066
" />
</g>
<g style="fill:#000000; fill-opacity:0.0; 
stroke:#000000; stroke-width:39.3701; stroke-opacity:1; 
stroke-linecap:round; stroke-linejoin:round;">
</g>
<g style="fill:#000000; fill-opacity:0.0; 
stroke:#000000; stroke-width:59.0551; stroke-opacity:1; 
stroke-linecap:round; stroke-linejoin:round;">
<text x="78741" y="76321.7"
textLength="2758.72" font-size="787.402" lengthAdjust="spacingAndGlyphs"
text-anchor="start" opacity="0">Date: </text>
<path d="M78911 76293
L78911 75703
L79051 75703
L79136 75731
L79192 75787
L79220 75843
L79248 75956
L79248 76040
L79220 76153
L79192 76209
L79136 76265
L79051 76293
L78911 76293
" />
<path d="M79754 76293
L79754 75984
L79726 75928
L79670 75899
L79557 75899
L79501 75928
" />
<path d="M79754 76265
L79698 76293
L79557 76293
L79501 76265
L79473 76209
L79473 76153
L79501 76096
L79557 76068
L79698 76068
L79754 76040
" />
<path d="M79951 75899
L80176 75899
" />
<path d="M80036 75703
L80036 76209
L80064 76265
L80120 76293
L80176 76293
" />
<path d="M80598 76265
L80542 76293
L80429 76293
L80373 76265
L80345 76209
L80345 75984
L80373 75928
L80429 75899
L80542 75899
L80598 75928
L80626 75984
L80626 76040
L80345 76096
" />
<path d="M80879 76237
L80907 76265
L80879 76293
L80851 76265
L80879 76237
L80879 76293
" />
<path d="M80879 75928
L80907 75956
L80879 75984
L80851 75956
L80879 75928
L80879 75984
" />
</g>
<g style="fill:#000000; fill-opacity:0.0; 
stroke:#000000; stroke-width:39.3701; stroke-opacity:1; 
stroke-linecap:round; stroke-linejoin:round;">
</g>
<g style="fill:#000000; fill-opacity:0.0; 
stroke:#000000; stroke-width:59.0551; stroke-opacity:1; 
stroke-linecap:round; stroke-linejoin:round;">
<path d="M69685 76577
L112205 76577
" />
</g>
<g style="fill:#000000; fill-opacity:0.0; 
stroke:#000000; stroke-width:39.3701; stroke-opacity:1; 
stroke-linecap:round; stroke-linejoin:round;">
</g>
<g style="fill:#000000; fill-opacity:0.0; 
stroke:#000000; stroke-width:59.0551; stroke-opacity:1; 
stroke-linecap:round; stroke-linejoin:round;">
<text x="70079.6" y="77424.1"
textLength="14429.1" font-size="787.402" lengthAdjust="spacingAndGlyphs"
text-anchor="start" opacity="0">KiCad E.D.A.  pcbnew (5.1.5)-3</text>
<path d="M70249 77395
L70249 76805
" />
<path d="M70587 77395
L70334 77058
" />
<path d="M70587 76805
L70249 77142
" />
<path d="M70840 77395
L70840 77002
" />
<path d="M70840 76805
L70812 76833
L70840 76861
L70868 76833
L70840 76805
L70840 76861
" />
<path d="M71458 77339
L71430 77367
L71346 77395
L71290 77395
L71205 77367
L71149 77311
L71121 77255
L71093 77142
L71093 77058
L71121 76946
L71149 76889
L71205 76833
L71290 76805
L71346 76805
L71430 76833
L71458 76861
" />
<path d="M71965 77395
L71965 77086
L71937 77030
L71880 77002
L71768 77002
L71712 77030
" />
<path d="M71965 77367
L71908 77395
L71768 77395
L71712 77367
L71683 77311
L71683 77255
L71712 77199
L71768 77171
L71908 77171
L71965 77142
" />
<path d="M72499 77395
L72499 76805
" />
<path d="M72499 77367
L72443 77395
L72330 77395
L72274 77367
L72246 77339
L72218 77283
L72218 77114
L72246 77058
L72274 77030
L72330 77002
L72443 77002
L72499 77030
" />
<path d="M73230 77086
L73427 77086
" />
<path d="M73511 77395
L73230 77395
L73230 76805
L73511 76805
" />
<path d="M73764 77339
L73793 77367
L73764 77395
L73736 77367
L73764 77339
L73764 77395
" />
<path d="M74046 77395
L74046 76805
L74186 76805
L74271 76833
L74327 76889
L74355 76946
L74383 77058
L74383 77142
L74355 77255
L74327 77311
L74271 77367
L74186 77395
L74046 77395
" />
<path d="M74636 77339
L74664 77367
L74636 77395
L74608 77367
L74636 77339
L74636 77395
" />
<path d="M74889 77227
L75171 77227
" />
<path d="M74833 77395
L75030 76805
L75227 77395
" />
<path d="M75424 77339
L75452 77367
L75424 77395
L75395 77367
L75424 77339
L75424 77395
" />
<path d="M76605 77002
L76605 77592
" />
<path d="M76605 77030
L76661 77002
L76773 77002
L76830 77030
L76858 77058
L76886 77114
L76886 77283
L76858 77339
L76830 77367
L76773 77395
L76661 77395
L76605 77367
" />
<path d="M77392 77367
L77336 77395
L77223 77395
L77167 77367
L77139 77339
L77111 77283
L77111 77114
L77139 77058
L77167 77030
L77223 77002
L77336 77002
L77392 77030
" />
<path d="M77645 77395
L77645 76805
" />
<path d="M77645 77030
L77701 77002
L77814 77002
L77870 77030
L77898 77058
L77926 77114
L77926 77283
L77898 77339
L77870 77367
L77814 77395
L77701 77395
L77645 77367
" />
<path d="M78180 77002
L78180 77395
" />
<path d="M78180 77058
L78208 77030
L78264 77002
L78348 77002
L78404 77030
L78433 77086
L78433 77395
" />
<path d="M78939 77367
L78883 77395
L78770 77395
L78714 77367
L78686 77311
L78686 77086
L78714 77030
L78770 77002
L78883 77002
L78939 77030
L78967 77086
L78967 77142
L78686 77199
" />
<path d="M79164 77002
L79276 77395
L79389 77114
L79501 77395
L79614 77002
" />
<path d="M80457 77620
L80429 77592
L80373 77508
L80345 77452
L80317 77367
L80289 77227
L80289 77114
L80317 76974
L80345 76889
L80373 76833
L80429 76749
L80457 76721
" />
<path d="M80964 76805
L80682 76805
L80654 77086
L80682 77058
L80739 77030
L80879 77030
L80935 77058
L80964 77086
L80992 77142
L80992 77283
L80964 77339
L80935 77367
L80879 77395
L80739 77395
L80682 77367
L80654 77339
" />
<path d="M81245 77339
L81273 77367
L81245 77395
L81217 77367
L81245 77339
L81245 77395
" />
<path d="M81835 77395
L81498 77395
" />
<path d="M81667 77395
L81667 76805
L81610 76889
L81554 76946
L81498 76974
" />
<path d="M82088 77339
L82117 77367
L82088 77395
L82060 77367
L82088 77339
L82088 77395
" />
<path d="M82651 76805
L82370 76805
L82341 77086
L82370 77058
L82426 77030
L82566 77030
L82623 77058
L82651 77086
L82679 77142
L82679 77283
L82651 77339
L82623 77367
L82566 77395
L82426 77395
L82370 77367
L82341 77339
" />
<path d="M82876 77620
L82904 77592
L82960 77508
L82988 77452
L83016 77367
L83045 77227
L83045 77114
L83016 76974
L82988 76889
L82960 76833
L82904 76749
L82876 76721
" />
<path d="M83326 77171
L83776 77171
" />
<path d="M84001 76805
L84366 76805
L84169 77030
L84254 77030
L84310 77058
L84338 77086
L84366 77142
L84366 77283
L84338 77339
L84310 77367
L84254 77395
L84085 77395
L84029 77367
L84001 77339
" />
</g>
<g style="fill:#000000; fill-opacity:0.0; 
stroke:#000000; stroke-width:39.3701; stroke-opacity:1; 
stroke-linecap:round; stroke-linejoin:round;">
</g>
<g style="fill:#000000; fill-opacity:0.0; 
stroke:#000000; stroke-width:59.0551; stroke-opacity:1; 
stroke-linecap:round; stroke-linejoin:round;">
<path d="M69685 75396
L112205 75396
" />
</g>
<g style="fill:#000000; fill-opacity:0.0; 
stroke:#000000; stroke-width:39.3701; stroke-opacity:1; 
stroke-linecap:round; stroke-linejoin:round;">
</g>
<g style="fill:#000000; fill-opacity:0.0; 
stroke:#000000; stroke-width:118.11; stroke-opacity:1; 
stroke-linecap:round; stroke-linejoin:round;">
<text x="103544" y="76321.7"
textLength="2336.9" font-size="787.402" lengthAdjust="spacingAndGlyphs"
text-anchor="start" opacity="0">Rev: </text>
<path d="M104099 76293
L103902 76012
" />
<path d="M103761 76293
L103761 75703
L103986 75703
L104042 75731
L104070 75759
L104099 75815
L104099 75899
L104070 75956
L104042 75984
L103986 76012
L103761 76012
" />
<path d="M104577 76265
L104520 76293
L104408 76293
L104352 76265
L104323 76209
L104323 75984
L104352 75928
L104408 75899
L104520 75899
L104577 75928
L104605 75984
L104605 76040
L104323 76096
" />
<path d="M104802 75899
L104942 76293
L105083 75899
" />
<path d="M105308 76237
L105336 76265
L105308 76293
L105280 76265
L105308 76237
L105308 76293
" />
<path d="M105308 75928
L105336 75956
L105308 75984
L105280 75956
L105308 75928
L105308 75984
" />
</g>
<g style="fill:#000000; fill-opacity:0.0; 
stroke:#000000; stroke-width:39.3701; stroke-opacity:1; 
stroke-linecap:round; stroke-linejoin:round;">
</g>
<g style="fill:#000000; fill-opacity:0.0; 
stroke:#000000; stroke-width:59.0551; stroke-opacity:1; 
stroke-linecap:round; stroke-linejoin:round;">
<text x="70079.6" y="76321.7"
textLength="3781.21" font-size="787.402" lengthAdjust="spacingAndGlyphs"
text-anchor="start" opacity="0">Size: A4</text>
<path d="M70221 76265
L70305 76293
L70446 76293
L70502 76265
L70530 76237
L70559 76181
L70559 76124
L70530 76068
L70502 76040
L70446 76012
L70334 75984
L70277 75956
L70249 75928
L70221 75871
L70221 75815
L70249 75759
L70277 75731
L70334 75703
L70474 75703
L70559 75731
" />
<path d="M70812 76293
L70812 75899
" />
<path d="M70812 75703
L70784 75731
L70812 75759
L70840 75731
L70812 75703
L70812 75759
" />
<path d="M71037 75899
L71346 75899
L71037 76293
L71346 76293
" />
<path d="M71796 76265
L71740 76293
L71627 76293
L71571 76265
L71543 76209
L71543 75984
L71571 75928
L71627 75899
L71740 75899
L71796 75928
L71824 75984
L71824 76040
L71543 76096
" />
<path d="M72077 76237
L72105 76265
L72077 76293
L72049 76265
L72077 76237
L72077 76293
" />
<path d="M72077 75928
L72105 75956
L72077 75984
L72049 75956
L72077 75928
L72077 75984
" />
<path d="M72780 76124
L73061 76124
" />
<path d="M72724 76293
L72921 75703
L73118 76293
" />
<path d="M73568 75899
L73568 76293
" />
<path d="M73427 75674
L73286 76096
L73652 76096
" />
</g>
<g style="fill:#000000; fill-opacity:0.0; 
stroke:#000000; stroke-width:39.3701; stroke-opacity:1; 
stroke-linecap:round; stroke-linejoin:round;">
</g>
<g style="fill:#000000; fill-opacity:0.0; 
stroke:#000000; stroke-width:59.0551; stroke-opacity:1; 
stroke-linecap:round; stroke-linejoin:round;">
<text x="103544" y="77424.1"
textLength="3349.27" font-size="787.402" lengthAdjust="spacingAndGlyphs"
text-anchor="start" opacity="0">Id: 1/1</text>
<path d="M103714 77395
L103714 76805
" />
<path d="M104248 77395
L104248 76805
" />
<path d="M104248 77367
L104192 77395
L104079 77395
L104023 77367
L103995 77339
L103967 77283
L103967 77114
L103995 77058
L104023 77030
L104079 77002
L104192 77002
L104248 77030
" />
<path d="M104529 77339
L104557 77367
L104529 77395
L104501 77367
L104529 77339
L104529 77395
" />
<path d="M104529 77030
L104557 77058
L104529 77086
L104501 77058
L104529 77030
L104529 77086
" />
<path d="M105570 77395
L105232 77395
" />
<path d="M105401 77395
L105401 76805
L105345 76889
L105289 76946
L105232 76974
" />
<path d="M106245 76777
L105739 77536
" />
<path d="M106751 77395
L106413 77395
" />
<path d="M106582 77395
L106582 76805
L106526 76889
L106470 76946
L106413 76974
" />
</g>
<g style="fill:#000000; fill-opacity:0.0; 
stroke:#000000; stroke-width:39.3701; stroke-opacity:1; 
stroke-linecap:round; stroke-linejoin:round;">
</g>
<g style="fill:#000000; fill-opacity:0.0; 
stroke:#000000; stroke-width:59.0551; stroke-opacity:1; 
stroke-linecap:round; stroke-linejoin:round;">
<path d="M69685 73821
L112205 73821
" />
</g>
<g style="fill:#000000; fill-opacity:0.0; 
stroke:#000000; stroke-width:39.3701; stroke-opacity:1; 
stroke-linecap:round; stroke-linejoin:round;">
</g>
<g style="fill:#000000; fill-opacity:0.0; 
stroke:#000000; stroke-width:157.48; stroke-opacity:1; 
stroke-linecap:round; stroke-linejoin:round;">
<text x="70079.6" y="74924.1"
textLength="3701.14" font-size="1049.87" lengthAdjust="spacingAndGlyphs"
text-anchor="start" opacity="0">Title: </text>
<path d="M70360 74099
L70810 74099
" />
<path d="M70486 74886
L70585 74099
" />
<path d="M70974 74886
L71039 74361
" />
<path d="M71072 74099
L71030 74136
L71063 74174
L71105 74136
L71072 74099
L71063 74174
" />
<path d="M71302 74361
L71602 74361
" />
<path d="M71447 74099
L71363 74774
L71391 74849
L71461 74886
L71536 74886
" />
<path d="M71911 74886
L71841 74849
L71813 74774
L71897 74099
" />
<path d="M72516 74849
L72436 74886
L72286 74886
L72216 74849
L72187 74774
L72225 74474
L72272 74399
L72352 74361
L72501 74361
L72572 74399
L72600 74474
L72591 74549
L72206 74624
" />
<path d="M72895 74811
L72928 74849
L72886 74886
L72853 74849
L72895 74811
L72886 74886
" />
<path d="M72947 74399
L72980 74436
L72937 74474
L72905 74436
L72947 74399
L72937 74474
" />
</g>
<g style="fill:#000000; fill-opacity:0.0; 
stroke:#000000; stroke-width:39.3701; stroke-opacity:1; 
stroke-linecap:round; stroke-linejoin:round;">
</g>
<g style="fill:#000000; fill-opacity:0.0; 
stroke:#000000; stroke-width:59.0551; stroke-opacity:1; 
stroke-linecap:round; stroke-linejoin:round;">
<text x="70079.6" y="73408.3"
textLength="9344.21" font-size="787.402" lengthAdjust="spacingAndGlyphs"
text-anchor="start" opacity="0">File: LDOs.kicad_pcb</text>
<path d="M70446 73070
L70249 73070
" />
<path d="M70249 73380
L70249 72789
L70530 72789
" />
<path d="M70755 73380
L70755 72986
" />
<path d="M70755 72789
L70727 72817
L70755 72845
L70784 72817
L70755 72789
L70755 72845
" />
<path d="M71121 73380
L71065 73352
L71037 73295
L71037 72789
" />
<path d="M71571 73352
L71515 73380
L71402 73380
L71346 73352
L71318 73295
L71318 73070
L71346 73014
L71402 72986
L71515 72986
L71571 73014
L71599 73070
L71599 73127
L71318 73183
" />
<path d="M71852 73323
L71880 73352
L71852 73380
L71824 73352
L71852 73323
L71852 73380
" />
<path d="M71852 73014
L71880 73042
L71852 73070
L71824 73042
L71852 73014
L71852 73070
" />
<path d="M72865 73380
L72583 73380
L72583 72789
" />
<path d="M73061 73380
L73061 72789
L73202 72789
L73286 72817
L73343 72874
L73371 72930
L73399 73042
L73399 73127
L73371 73239
L73343 73295
L73286 73352
L73202 73380
L73061 73380
" />
<path d="M73764 72789
L73877 72789
L73933 72817
L73989 72874
L74018 72986
L74018 73183
L73989 73295
L73933 73352
L73877 73380
L73764 73380
L73708 73352
L73652 73295
L73624 73183
L73624 72986
L73652 72874
L73708 72817
L73764 72789
" />
<path d="M74242 73352
L74299 73380
L74411 73380
L74467 73352
L74496 73295
L74496 73267
L74467 73211
L74411 73183
L74327 73183
L74271 73155
L74242 73099
L74242 73070
L74271 73014
L74327 72986
L74411 72986
L74467 73014
" />
<path d="M74749 73323
L74777 73352
L74749 73380
L74721 73352
L74749 73323
L74749 73380
" />
<path d="M75030 73380
L75030 72789
" />
<path d="M75086 73155
L75255 73380
" />
<path d="M75255 72986
L75030 73211
" />
<path d="M75508 73380
L75508 72986
" />
<path d="M75508 72789
L75480 72817
L75508 72845
L75536 72817
L75508 72789
L75508 72845
" />
<path d="M76042 73352
L75986 73380
L75874 73380
L75817 73352
L75789 73323
L75761 73267
L75761 73099
L75789 73042
L75817 73014
L75874 72986
L75986 72986
L76042 73014
" />
<path d="M76548 73380
L76548 73070
L76520 73014
L76464 72986
L76352 72986
L76295 73014
" />
<path d="M76548 73352
L76492 73380
L76352 73380
L76295 73352
L76267 73295
L76267 73239
L76295 73183
L76352 73155
L76492 73155
L76548 73127
" />
<path d="M77083 73380
L77083 72789
" />
<path d="M77083 73352
L77027 73380
L76914 73380
L76858 73352
L76830 73323
L76802 73267
L76802 73099
L76830 73042
L76858 73014
L76914 72986
L77027 72986
L77083 73014
" />
<path d="M77223 73436
L77673 73436
" />
<path d="M77814 72986
L77814 73577
" />
<path d="M77814 73014
L77870 72986
L77983 72986
L78039 73014
L78067 73042
L78095 73099
L78095 73267
L78067 73323
L78039 73352
L77983 73380
L77870 73380
L77814 73352
" />
<path d="M78601 73352
L78545 73380
L78433 73380
L78376 73352
L78348 73323
L78320 73267
L78320 73099
L78348 73042
L78376 73014
L78433 72986
L78545 72986
L78601 73014
" />
<path d="M78854 73380
L78854 72789
" />
<path d="M78854 73014
L78911 72986
L79023 72986
L79079 73014
L79108 73042
L79136 73099
L79136 73267
L79108 73323
L79079 73352
L79023 73380
L78911 73380
L78854 73352
" />
</g>
<g style="fill:#000000; fill-opacity:0.0; 
stroke:#000000; stroke-width:39.3701; stroke-opacity:1; 
stroke-linecap:round; stroke-linejoin:round;">
</g>
<g style="fill:#000000; fill-opacity:0.0; 
stroke:#000000; stroke-width:59.0551; stroke-opacity:1; 
stroke-linecap:round; stroke-linejoin:round;">
<path d="M69685 71459
L112205 71459
" />
</g>
<g style="fill:#000000; fill-opacity:0.0; 
stroke:#000000; stroke-width:39.3701; stroke-opacity:1; 
stroke-linecap:round; stroke-linejoin:round;">
</g>
<g style="fill:#000000; fill-opacity:0.0; 
stroke:#000000; stroke-width:59.0551; stroke-opacity:1; 
stroke-linecap:round; stroke-linejoin:round;">
<text x="70079.6" y="72345.4"
textLength="3236.78" font-size="787.402" lengthAdjust="spacingAndGlyphs"
text-anchor="start" opacity="0">Sheet: </text>
<path d="M70221 72289
L70305 72317
L70446 72317
L70502 72289
L70530 72260
L70559 72204
L70559 72148
L70530 72092
L70502 72064
L70446 72036
L70334 72007
L70277 71979
L70249 71951
L70221 71895
L70221 71839
L70249 71782
L70277 71754
L70334 71726
L70474 71726
L70559 71754
" />
<path d="M70812 72317
L70812 71726
" />
<path d="M71065 72317
L71065 72007
L71037 71951
L70980 71923
L70896 71923
L70840 71951
L70812 71979
" />
<path d="M71571 72289
L71515 72317
L71402 72317
L71346 72289
L71318 72232
L71318 72007
L71346 71951
L71402 71923
L71515 71923
L71571 71951
L71599 72007
L71599 72064
L71318 72120
" />
<path d="M72077 72289
L72021 72317
L71908 72317
L71852 72289
L71824 72232
L71824 72007
L71852 71951
L71908 71923
L72021 71923
L72077 71951
L72105 72007
L72105 72064
L71824 72120
" />
<path d="M72274 71923
L72499 71923
" />
<path d="M72358 71726
L72358 72232
L72386 72289
L72443 72317
L72499 72317
" />
<path d="M72696 72260
L72724 72289
L72696 72317
L72668 72289
L72696 72260
L72696 72317
" />
<path d="M72696 71951
L72724 71979
L72696 72007
L72668 71979
L72696 71951
L72696 72007
" />
</g>
<g style="fill:#000000; fill-opacity:0.0; 
stroke:#000000; stroke-width:39.3701; stroke-opacity:1; 
stroke-linecap:round; stroke-linejoin:round;">
</g>
<g style="fill:#000000; fill-opacity:0.0; 
stroke:#000000; stroke-width:59.0551; stroke-opacity:1; 
stroke-linecap:round; stroke-linejoin:round;">
<path d="M77559 75396
L77559 76577
" />
</g>
<g style="fill:#000000; fill-opacity:0.0; 
stroke:#000000; stroke-width:39.3701; stroke-opacity:1; 
stroke-linecap:round; stroke-linejoin:round;">
</g>
<g style="fill:#000000; fill-opacity:0.0; 
stroke:#000000; stroke-width:59.0551; stroke-opacity:1; 
stroke-linecap:round; stroke-linejoin:round;">
<path d="M102756 75396
L102756 77955
" />
</g>
<g style="fill:#848400; fill-opacity:0.0; 
stroke:#848400; stroke-width:59.0551; stroke-opacity:1; 
stroke-linecap:round; stroke-linejoin:round;">
</g>
<g style="fill:#848400; fill-opacity:1.0; 
stroke:#848400; stroke-width:0; stroke-opacity:1; 
stroke-linecap:round; stroke-linejoin:round;">
<path style="fill:#848400; fill-opacity:1.0; 
stroke:#848400; stroke-width:0; stroke-opacity:1; 
stroke-linecap:round; stroke-linejoin:round;fill-rule:evenodd;"
d="M 65850.4,37845
66069,37935.5
66069,37935.5
66265.7,38067
66433,38234.3
66433,38234.3
66564.5,38431
66655,38649.6
66701.2,38881.7
66701.2,39118.3
66655,39350.4
66564.5,39569
66564.5,39569
66433,39765.7
66265.7,39933
66166.7,39999.2
66069,40064.5
65850.4,40155
65618.3,40201.2
65381.7,40201.2
65149.6,40155
64931,40064.5
64833.3,39999.2
64734.3,39933
64567,39765.7
64435.5,39569
64435.5,39569
64345,39350.4
64298.8,39118.3
64298.8,38881.7
64345,38649.6
64435.5,38431
64567,38234.3
64567,38234.3
64734.3,38067
64931,37935.5
64931,37935.5
65149.6,37845
65381.7,37798.8
65618.3,37798.8
Z" /> 
<path style="fill:#848400; fill-opacity:1.0; 
stroke:#848400; stroke-width:0; stroke-opacity:1; 
stroke-linecap:round; stroke-linejoin:round;fill-rule:evenodd;"
d="M 42850.4,37845
43069,37935.5
43069,37935.5
43265.7,38067
43433,38234.3
43433,38234.3
43564.5,38431
43655,38649.6
43701.2,38881.7
43701.2,39118.3
43655,39350.4
43564.5,39569
43564.5,39569
43433,39765.7
43265.7,39933
43166.7,39999.2
43069,40064.5
42850.4,40155
42618.3,40201.2
42381.7,40201.2
42149.6,40155
41931,40064.5
41833.3,39999.2
41734.3,39933
41567,39765.7
41435.5,39569
41435.5,39569
41345,39350.4
41298.8,39118.3
41298.8,38881.7
41345,38649.6
41435.5,38431
41567,38234.3
41567,38234.3
41734.3,38067
41931,37935.5
41931,37935.5
42149.6,37845
42381.7,37798.8
42618.3,37798.8
Z" /> 
<path style="fill:#848400; fill-opacity:1.0; 
stroke:#848400; stroke-width:0; stroke-opacity:1; 
stroke-linecap:round; stroke-linejoin:round;fill-rule:evenodd;"
d="M 47324.4,34639.4
47401.7,34662.8
47472.9,34700.9
47489.1,34714.2
47535.3,34752.1
47586.5,34814.5
47624.6,34885.7
47624.6,34885.7
47648,34963
47653.9,35023.2
47653.9,35843
47648,35903.2
47624.6,35980.4
47624.6,35980.4
47586.5,36051.6
47535.3,36114
47472.9,36165.3
47401.7,36203.3
47401.7,36203.3
47324.4,36226.7
47244.1,36234.7
47163.8,36226.7
47086.5,36203.3
47086.5,36203.3
47015.3,36165.3
46952.9,36114
46901.7,36051.6
46863.6,35980.4
46863.6,35980.4
46840.2,35903.2
46834.3,35843
46834.3,35023.2
46840.2,34963
46863.6,34885.7
46901.7,34814.5
46915,34798.3
46952.9,34752.1
47015.3,34700.9
47086.5,34662.8
47086.5,34662.8
47163.8,34639.4
47244.1,34631.5
Z" /> 
<path style="fill:#848400; fill-opacity:1.0; 
stroke:#848400; stroke-width:0; stroke-opacity:1; 
stroke-linecap:round; stroke-linejoin:round;fill-rule:evenodd;"
d="M 45685.4,36232.7
44865.7,36232.7
44865.7,34633.5
45685.4,34633.5
Z" /> 
<path style="fill:#848400; fill-opacity:1.0; 
stroke:#848400; stroke-width:0; stroke-opacity:1; 
stroke-linecap:round; stroke-linejoin:round;fill-rule:evenodd;"
d="M 61121.3,35173.9
61182.3,35199.2
61237.2,35235.8
61283.9,35282.5
61320.5,35337.4
61345.8,35398.3
61358.7,35463.1
61358.7,35529.1
61345.8,35593.8
61320.5,35654.8
61283.9,35709.6
61237.2,35756.3
61182.3,35793
61121.3,35818.2
61056.6,35831.1
60990.6,35831.1
60925.9,35818.2
60864.9,35793
60810,35756.3
60763.4,35709.6
60726.7,35654.8
60701.5,35593.8
60688.6,35529.1
60688.6,35463.1
60701.5,35398.3
60726.7,35337.4
60763.4,35282.5
60810,35235.8
60864.9,35199.2
60925.9,35173.9
60990.6,35161
61056.6,35161
Z" /> 
<path style="fill:#848400; fill-opacity:1.0; 
stroke:#848400; stroke-width:0; stroke-opacity:1; 
stroke-linecap:round; stroke-linejoin:round;fill-rule:evenodd;"
d="M 59152.8,35173.9
59213.8,35199.2
59268.7,35235.8
59315.4,35282.5
59352,35337.4
59377.3,35398.3
59390.2,35463.1
59390.2,35529.1
59377.3,35593.8
59352,35654.8
59315.4,35709.6
59268.7,35756.3
59213.8,35793
59152.8,35818.2
59088.1,35831.1
59022.1,35831.1
58957.4,35818.2
58896.4,35793
58841.5,35756.3
58794.9,35709.6
58758.2,35654.8
58733,35593.8
58720.1,35529.1
58720.1,35463.1
58733,35398.3
58758.2,35337.4
58794.9,35282.5
58841.5,35235.8
58896.4,35199.2
58957.4,35173.9
59022.1,35161
59088.1,35161
Z" /> 
<path style="fill:#848400; fill-opacity:1.0; 
stroke:#848400; stroke-width:0; stroke-opacity:1; 
stroke-linecap:round; stroke-linejoin:round;fill-rule:evenodd;"
d="M 52438.4,34686.6
52497.2,34698.3
52561.7,34725
52619.8,34763.8
52669.2,34813.2
52708.1,34871.3
52734.8,34935.9
52748.4,35004.4
52748.4,35074.3
52734.8,35142.8
52708.1,35207.4
52669.2,35265.5
52619.8,35314.9
52561.7,35353.7
52497.2,35380.5
52438.4,35392.2
52428.6,35394.1
52358.8,35394.1
52349,35392.2
52290.2,35380.5
52225.7,35353.7
52167.6,35314.9
52118.2,35265.5
52079.3,35207.4
52052.6,35142.8
52039,35074.3
52039,35004.4
52052.6,34935.9
52079.3,34871.3
52118.2,34813.2
52167.6,34763.8
52225.7,34725
52290.2,34698.3
52349,34686.6
52358.8,34684.6
52428.6,34684.6
Z" /> 
<path style="fill:#848400; fill-opacity:1.0; 
stroke:#848400; stroke-width:0; stroke-opacity:1; 
stroke-linecap:round; stroke-linejoin:round;fill-rule:evenodd;"
d="M 51438.4,34686.6
51497.2,34698.3
51561.7,34725
51619.8,34763.8
51669.2,34813.2
51708.1,34871.3
51734.8,34935.9
51748.4,35004.4
51748.4,35074.3
51734.8,35142.8
51708.1,35207.4
51669.2,35265.5
51619.8,35314.9
51561.7,35353.7
51497.2,35380.5
51438.4,35392.2
51428.6,35394.1
51358.8,35394.1
51349,35392.2
51290.2,35380.5
51225.7,35353.7
51167.6,35314.9
51118.2,35265.5
51079.3,35207.4
51052.6,35142.8
51039,35074.3
51039,35004.4
51052.6,34935.9
51079.3,34871.3
51118.2,34813.2
51167.6,34763.8
51225.7,34725
51290.2,34698.3
51349,34686.6
51358.8,34684.6
51428.6,34684.6
Z" /> 
<path style="fill:#848400; fill-opacity:1.0; 
stroke:#848400; stroke-width:0; stroke-opacity:1; 
stroke-linecap:round; stroke-linejoin:round;fill-rule:evenodd;"
d="M 53438.4,34686.6
53497.2,34698.3
53561.7,34725
53619.8,34763.8
53669.2,34813.2
53708.1,34871.3
53734.8,34935.9
53748.4,35004.4
53748.4,35074.3
53734.8,35142.8
53708.1,35207.4
53669.2,35265.5
53619.8,35314.9
53561.7,35353.7
53497.2,35380.5
53438.4,35392.2
53428.6,35394.1
53358.8,35394.1
53349,35392.2
53290.2,35380.5
53225.7,35353.7
53167.6,35314.9
53118.2,35265.5
53079.3,35207.4
53052.6,35142.8
53039,35074.3
53039,35004.4
53052.6,34935.9
53079.3,34871.3
53118.2,34813.2
53167.6,34763.8
53225.7,34725
53290.2,34698.3
53349,34686.6
53358.8,34684.6
53428.6,34684.6
Z" /> 
<path style="fill:#848400; fill-opacity:1.0; 
stroke:#848400; stroke-width:0; stroke-opacity:1; 
stroke-linecap:round; stroke-linejoin:round;fill-rule:evenodd;"
d="M 56441.3,35394.1
55731.9,35394.1
55731.9,34684.6
56441.3,34684.6
Z" /> 
<path style="fill:#848400; fill-opacity:1.0; 
stroke:#848400; stroke-width:0; stroke-opacity:1; 
stroke-linecap:round; stroke-linejoin:round;fill-rule:evenodd;"
d="M 57131.3,34686.6
57190.1,34698.3
57254.6,34725
57312.7,34763.8
57362.1,34813.2
57401,34871.3
57427.7,34935.9
57441.3,35004.4
57441.3,35074.3
57427.7,35142.8
57401,35207.4
57362.1,35265.5
57312.7,35314.9
57254.6,35353.7
57190.1,35380.5
57131.3,35392.2
57121.6,35394.1
57051.7,35394.1
57041.9,35392.2
56983.1,35380.5
56918.6,35353.7
56860.5,35314.9
56811.1,35265.5
56772.3,35207.4
56745.5,35142.8
56731.9,35074.3
56731.9,35004.4
56745.5,34935.9
56772.3,34871.3
56811.1,34813.2
56860.5,34763.8
56918.6,34725
56983.1,34698.3
57041.9,34686.6
57051.7,34684.6
57121.6,34684.6
Z" /> 
<path style="fill:#848400; fill-opacity:1.0; 
stroke:#848400; stroke-width:0; stroke-opacity:1; 
stroke-linecap:round; stroke-linejoin:round;fill-rule:evenodd;"
d="M 50748.4,35394.1
50039,35394.1
50039,34684.6
50748.4,34684.6
Z" /> 
<path style="fill:#848400; fill-opacity:1.0; 
stroke:#848400; stroke-width:0; stroke-opacity:1; 
stroke-linecap:round; stroke-linejoin:round;fill-rule:evenodd;"
d="M 63049.6,33890.3
63088.3,33894.1
63162.7,33916.7
63231.4,33953.4
63291.5,34002.8
63340.9,34062.9
63377.6,34131.5
63400.2,34206
63407.8,34283.5
63400.2,34360.9
63377.6,34435.4
63340.9,34504
63291.5,34564.2
63231.4,34613.6
63162.7,34650.2
63088.3,34672.8
63049.6,34676.6
63030.2,34678.5
62954,34678.5
62934.7,34676.6
62896,34672.8
62821.5,34650.2
62752.9,34613.6
62692.7,34564.2
62643.3,34504
62606.7,34435.4
62584.1,34360.9
62576.4,34283.5
62584.1,34206
62606.7,34131.5
62643.3,34062.9
62692.7,34002.8
62752.9,33953.4
62821.5,33916.7
62896,33894.1
62934.7,33890.3
62954,33888.4
63030.2,33888.4
Z" /> 
<path style="fill:#848400; fill-opacity:1.0; 
stroke:#848400; stroke-width:0; stroke-opacity:1; 
stroke-linecap:round; stroke-linejoin:round;fill-rule:evenodd;"
d="M 63049.6,32890.3
63088.3,32894.1
63162.7,32916.7
63231.4,32953.4
63291.5,33002.8
63340.9,33062.9
63377.6,33131.5
63400.2,33206
63407.8,33283.5
63400.2,33360.9
63377.6,33435.4
63340.9,33504
63291.5,33564.2
63231.4,33613.6
63162.7,33650.2
63088.3,33672.8
63049.6,33676.6
63030.2,33678.5
62954,33678.5
62934.7,33676.6
62896,33672.8
62821.5,33650.2
62752.9,33613.6
62692.7,33564.2
62643.3,33504
62606.7,33435.4
62584.1,33360.9
62576.4,33283.5
62584.1,33206
62606.7,33131.5
62643.3,33062.9
62692.7,33002.8
62752.9,32953.4
62821.5,32916.7
62896,32894.1
62934.7,32890.3
62954,32888.4
63030.2,32888.4
Z" /> 
<path style="fill:#848400; fill-opacity:1.0; 
stroke:#848400; stroke-width:0; stroke-opacity:1; 
stroke-linecap:round; stroke-linejoin:round;fill-rule:evenodd;"
d="M 57421.7,32831.1
56751.6,32831.1
56751.6,32161
57421.7,32161
Z" /> 
<path style="fill:#848400; fill-opacity:1.0; 
stroke:#848400; stroke-width:0; stroke-opacity:1; 
stroke-linecap:round; stroke-linejoin:round;fill-rule:evenodd;"
d="M 63405.9,32678.5
62578.3,32678.5
62578.3,31888.4
63405.9,31888.4
Z" /> 
<path style="fill:#848400; fill-opacity:1.0; 
stroke:#848400; stroke-width:0; stroke-opacity:1; 
stroke-linecap:round; stroke-linejoin:round;fill-rule:evenodd;"
d="M 57184.3,31173.9
57245.3,31199.2
57300.2,31235.8
57346.9,31282.5
57383.5,31337.4
57408.8,31398.3
57421.7,31463.1
57421.7,31529.1
57408.8,31593.8
57383.5,31654.8
57346.9,31709.6
57300.2,31756.3
57245.3,31793
57184.3,31818.2
57119.6,31831.1
57053.6,31831.1
56988.9,31818.2
56927.9,31793
56873,31756.3
56826.4,31709.6
56789.7,31654.8
56764.4,31593.8
56751.6,31529.1
56751.6,31463.1
56764.4,31398.3
56789.7,31337.4
56826.4,31282.5
56873,31235.8
56927.9,31199.2
56988.9,31173.9
57053.6,31161
57119.6,31161
Z" /> 
<path style="fill:#848400; fill-opacity:1.0; 
stroke:#848400; stroke-width:0; stroke-opacity:1; 
stroke-linecap:round; stroke-linejoin:round;fill-rule:evenodd;"
d="M 61121.3,31173.9
61182.3,31199.2
61237.2,31235.8
61283.9,31282.5
61320.5,31337.4
61345.8,31398.3
61358.7,31463.1
61358.7,31529.1
61345.8,31593.8
61320.5,31654.8
61283.9,31709.6
61237.2,31756.3
61182.3,31793
61121.3,31818.2
61056.6,31831.1
60990.6,31831.1
60925.9,31818.2
60864.9,31793
60810,31756.3
60763.4,31709.6
60726.7,31654.8
60701.5,31593.8
60688.6,31529.1
60688.6,31463.1
60701.5,31398.3
60726.7,31337.4
60763.4,31282.5
60810,31235.8
60864.9,31199.2
60925.9,31173.9
60990.6,31161
61056.6,31161
Z" /> 
<path style="fill:#848400; fill-opacity:1.0; 
stroke:#848400; stroke-width:0; stroke-opacity:1; 
stroke-linecap:round; stroke-linejoin:round;fill-rule:evenodd;"
d="M 59152.8,31173.9
59213.8,31199.2
59268.7,31235.8
59315.4,31282.5
59352,31337.4
59377.3,31398.3
59390.2,31463.1
59390.2,31529.1
59377.3,31593.8
59352,31654.8
59315.4,31709.6
59268.7,31756.3
59213.8,31793
59152.8,31818.2
59088.1,31831.1
59022.1,31831.1
58957.4,31818.2
58896.4,31793
58841.5,31756.3
58794.9,31709.6
58758.2,31654.8
58733,31593.8
58720.1,31529.1
58720.1,31463.1
58733,31398.3
58758.2,31337.4
58794.9,31282.5
58841.5,31235.8
58896.4,31199.2
58957.4,31173.9
59022.1,31161
59088.1,31161
Z" /> 
<path style="fill:#848400; fill-opacity:1.0; 
stroke:#848400; stroke-width:0; stroke-opacity:1; 
stroke-linecap:round; stroke-linejoin:round;fill-rule:evenodd;"
d="M 44907.3,30657.9
44951.1,30666.6
45033.5,30700.8
45107.8,30750.4
45170.9,30813.5
45220.5,30887.7
45254.6,30970.2
45272,31057.7
45272,31147
45254.6,31234.5
45220.5,31317
45170.9,31391.2
45107.8,31454.3
45033.5,31503.9
44951.1,31538.1
44907.3,31546.8
44863.5,31555.5
44774.3,31555.5
44730.5,31546.8
44686.7,31538.1
44604.3,31503.9
44530,31454.3
44466.9,31391.2
44417.3,31317
44383.2,31234.5
44365.7,31147
44365.7,31057.7
44383.2,30970.2
44417.3,30887.7
44466.9,30813.5
44530,30750.4
44604.3,30700.8
44686.7,30666.6
44730.5,30657.9
44774.3,30649.2
44863.5,30649.2
Z" /> 
<path style="fill:#848400; fill-opacity:1.0; 
stroke:#848400; stroke-width:0; stroke-opacity:1; 
stroke-linecap:round; stroke-linejoin:round;fill-rule:evenodd;"
d="M 49272,31555.5
48365.7,31555.5
48365.7,30649.2
49272,30649.2
Z" /> 
<path style="fill:#848400; fill-opacity:1.0; 
stroke:#848400; stroke-width:0; stroke-opacity:1; 
stroke-linecap:round; stroke-linejoin:round;fill-rule:evenodd;"
d="M 54783.9,31555.5
53877.6,31555.5
53877.6,30649.2
54783.9,30649.2
Z" /> 
<path style="fill:#848400; fill-opacity:1.0; 
stroke:#848400; stroke-width:0; stroke-opacity:1; 
stroke-linecap:round; stroke-linejoin:round;fill-rule:evenodd;"
d="M 50419.1,30657.9
50462.9,30666.6
50545.4,30700.8
50619.6,30750.4
50682.7,30813.5
50732.3,30887.7
50766.4,30970.2
50783.9,31057.7
50783.9,31147
50766.4,31234.5
50732.3,31317
50682.7,31391.2
50619.6,31454.3
50545.4,31503.9
50462.9,31538.1
50419.1,31546.8
50375.3,31555.5
50286.1,31555.5
50242.3,31546.8
50198.5,31538.1
50116.1,31503.9
50041.8,31454.3
49978.7,31391.2
49929.1,31317
49895,31234.5
49877.6,31147
49877.6,31057.7
49895,30970.2
49929.1,30887.7
49978.7,30813.5
50041.8,30750.4
50116.1,30700.8
50198.5,30666.6
50242.3,30657.9
50286.1,30649.2
50375.3,30649.2
Z" /> 
<path style="fill:#848400; fill-opacity:1.0; 
stroke:#848400; stroke-width:0; stroke-opacity:1; 
stroke-linecap:round; stroke-linejoin:round;fill-rule:evenodd;"
d="M 52459.9,29008.5
52520.9,29033.8
52575.8,29070.5
52622.4,29117.1
52659.1,29172
52684.4,29233
52697.2,29297.7
52697.2,29363.7
52684.4,29428.4
52659.1,29489.4
52622.4,29544.3
52575.8,29591
52520.9,29627.6
52459.9,29652.9
52395.2,29665.7
52329.2,29665.7
52264.5,29652.9
52203.5,29627.6
52148.6,29591
52102,29544.3
52065.3,29489.4
52040,29428.4
52027.2,29363.7
52027.2,29297.7
52040,29233
52065.3,29172
52102,29117.1
52148.6,29070.5
52203.5,29033.8
52264.5,29008.5
52329.2,28995.7
52395.2,28995.7
Z" /> 
<path style="fill:#848400; fill-opacity:1.0; 
stroke:#848400; stroke-width:0; stroke-opacity:1; 
stroke-linecap:round; stroke-linejoin:round;fill-rule:evenodd;"
d="M 46948.1,29008.5
47009.1,29033.8
47064,29070.5
47110.6,29117.1
47147.3,29172
47172.6,29233
47185.4,29297.7
47185.4,29363.7
47172.6,29428.4
47147.3,29489.4
47110.6,29544.3
47064,29591
47009.1,29627.6
46948.1,29652.9
46883.4,29665.7
46817.4,29665.7
46752.7,29652.9
46691.7,29627.6
46636.8,29591
46590.2,29544.3
46553.5,29489.4
46528.2,29428.4
46515.4,29363.7
46515.4,29297.7
46528.2,29233
46553.5,29172
46590.2,29117.1
46636.8,29070.5
46691.7,29033.8
46752.7,29008.5
46817.4,28995.7
46883.4,28995.7
Z" /> 
<path style="fill:#848400; fill-opacity:1.0; 
stroke:#848400; stroke-width:0; stroke-opacity:1; 
stroke-linecap:round; stroke-linejoin:round;fill-rule:evenodd;"
d="M 58209.1,29075.2
57539,29075.2
57539,28405.1
58209.1,28405.1
Z" /> 
<path style="fill:#848400; fill-opacity:1.0; 
stroke:#848400; stroke-width:0; stroke-opacity:1; 
stroke-linecap:round; stroke-linejoin:round;fill-rule:evenodd;"
d="M 56987.5,28418
57048.5,28443.2
57103.3,28479.9
57150,28526.6
57186.7,28581.5
57211.9,28642.4
57224.8,28707.2
57224.8,28773.2
57211.9,28837.9
57186.7,28898.9
57150,28953.7
57103.3,29000.4
57048.5,29037.1
56987.5,29062.3
56922.8,29075.2
56856.8,29075.2
56792,29062.3
56731.1,29037.1
56676.2,29000.4
56629.5,28953.7
56592.9,28898.9
56567.6,28837.9
56554.7,28773.2
56554.7,28707.2
56567.6,28642.4
56592.9,28581.5
56629.5,28526.6
56676.2,28479.9
56731.1,28443.2
56792,28418
56856.8,28405.1
56922.8,28405.1
Z" /> 
<path style="fill:#848400; fill-opacity:1.0; 
stroke:#848400; stroke-width:0; stroke-opacity:1; 
stroke-linecap:round; stroke-linejoin:round;fill-rule:evenodd;"
d="M 63327.2,29075.2
62657.1,29075.2
62657.1,28405.1
63327.2,28405.1
Z" /> 
<path style="fill:#848400; fill-opacity:1.0; 
stroke:#848400; stroke-width:0; stroke-opacity:1; 
stroke-linecap:round; stroke-linejoin:round;fill-rule:evenodd;"
d="M 62105.6,28418
62166.6,28443.2
62221.4,28479.9
62268.1,28526.6
62304.8,28581.5
62330,28642.4
62342.9,28707.2
62342.9,28773.2
62330,28837.9
62304.8,28898.9
62268.1,28953.7
62221.4,29000.4
62166.6,29037.1
62105.6,29062.3
62040.9,29075.2
61974.9,29075.2
61910.1,29062.3
61849.2,29037.1
61794.3,29000.4
61747.6,28953.7
61711,28898.9
61685.7,28837.9
61672.8,28773.2
61672.8,28707.2
61685.7,28642.4
61711,28581.5
61747.6,28526.6
61794.3,28479.9
61849.2,28443.2
61910.1,28418
61974.9,28405.1
62040.9,28405.1
Z" /> 
<path style="fill:#848400; fill-opacity:1.0; 
stroke:#848400; stroke-width:0; stroke-opacity:1; 
stroke-linecap:round; stroke-linejoin:round;fill-rule:evenodd;"
d="M 47185.4,28681.5
46515.4,28681.5
46515.4,28011.4
47185.4,28011.4
Z" /> 
<path style="fill:#848400; fill-opacity:1.0; 
stroke:#848400; stroke-width:0; stroke-opacity:1; 
stroke-linecap:round; stroke-linejoin:round;fill-rule:evenodd;"
d="M 52697.2,28681.5
52027.2,28681.5
52027.2,28011.4
52697.2,28011.4
Z" /> 
<path style="fill:#848400; fill-opacity:1.0; 
stroke:#848400; stroke-width:0; stroke-opacity:1; 
stroke-linecap:round; stroke-linejoin:round;fill-rule:evenodd;"
d="M 53258.6,25969.9
53333,25992.5
53333,25992.5
53369.4,26011.9
53401.7,26029.2
53461.8,26078.5
53511.2,26138.7
53547.9,26207.3
53570.5,26281.8
53576.2,26339.8
53576.2,26416.1
53570.5,26474.1
53547.9,26548.6
53547.9,26548.6
53528.4,26585
53511.2,26617.2
53461.8,26677.4
53401.7,26726.7
53333,26763.4
53258.6,26786
53181.1,26793.6
53103.7,26786
53029.2,26763.4
52960.5,26726.7
52900.4,26677.4
52851,26617.2
52814.3,26548.6
52791.7,26474.1
52786,26416.1
52786,26339.8
52791.7,26281.8
52814.3,26207.3
52814.3,26207.3
52833.8,26170.9
52851,26138.7
52900.4,26078.5
52960.5,26029.2
53029.2,25992.5
53103.7,25969.9
53181.1,25962.3
Z" /> 
<path style="fill:#848400; fill-opacity:1.0; 
stroke:#848400; stroke-width:0; stroke-opacity:1; 
stroke-linecap:round; stroke-linejoin:round;fill-rule:evenodd;"
d="M 57376.7,25969.9
57451.1,25992.5
57451.1,25992.5
57487.5,26011.9
57519.8,26029.2
57579.9,26078.5
57629.3,26138.7
57666,26207.3
57688.6,26281.8
57694.3,26339.8
57694.3,26416.1
57688.6,26474.1
57666,26548.6
57666,26548.6
57646.5,26585
57629.3,26617.2
57579.9,26677.4
57519.8,26726.7
57451.1,26763.4
57376.7,26786
57299.2,26793.6
57221.8,26786
57147.3,26763.4
57078.7,26726.7
57018.5,26677.4
56969.1,26617.2
56932.4,26548.6
56909.9,26474.1
56904.1,26416.1
56904.1,26339.8
56909.9,26281.8
56932.4,26207.3
56932.4,26207.3
56951.9,26170.9
56969.1,26138.7
57018.5,26078.5
57078.7,26029.2
57147.3,25992.5
57221.8,25969.9
57299.2,25962.3
Z" /> 
<path style="fill:#848400; fill-opacity:1.0; 
stroke:#848400; stroke-width:0; stroke-opacity:1; 
stroke-linecap:round; stroke-linejoin:round;fill-rule:evenodd;"
d="M 58376.7,25969.9
58451.1,25992.5
58451.1,25992.5
58487.5,26011.9
58519.8,26029.2
58579.9,26078.5
58629.3,26138.7
58666,26207.3
58688.6,26281.8
58694.3,26339.8
58694.3,26416.1
58688.6,26474.1
58666,26548.6
58666,26548.6
58646.5,26585
58629.3,26617.2
58579.9,26677.4
58519.8,26726.7
58451.1,26763.4
58376.7,26786
58299.2,26793.6
58221.8,26786
58147.3,26763.4
58078.7,26726.7
58018.5,26677.4
57969.1,26617.2
57932.4,26548.6
57909.9,26474.1
57904.1,26416.1
57904.1,26339.8
57909.9,26281.8
57932.4,26207.3
57932.4,26207.3
57951.9,26170.9
57969.1,26138.7
58018.5,26078.5
58078.7,26029.2
58147.3,25992.5
58221.8,25969.9
58299.2,25962.3
Z" /> 
<path style="fill:#848400; fill-opacity:1.0; 
stroke:#848400; stroke-width:0; stroke-opacity:1; 
stroke-linecap:round; stroke-linejoin:round;fill-rule:evenodd;"
d="M 47746.7,25969.9
47821.2,25992.5
47821.2,25992.5
47857.6,26011.9
47889.8,26029.2
47950,26078.5
47999.4,26138.7
48036.1,26207.3
48058.7,26281.8
48064.4,26339.8
48064.4,26416.1
48058.7,26474.1
48036.1,26548.6
48036.1,26548.6
48016.6,26585
47999.4,26617.2
47950,26677.4
47889.8,26726.7
47821.2,26763.4
47746.7,26786
47669.3,26793.6
47591.8,26786
47517.4,26763.4
47448.7,26726.7
47388.6,26677.4
47339.2,26617.2
47302.5,26548.6
47279.9,26474.1
47274.2,26416.1
47274.2,26339.8
47279.9,26281.8
47302.5,26207.3
47302.5,26207.3
47322,26170.9
47339.2,26138.7
47388.6,26078.5
47448.7,26029.2
47517.4,25992.5
47591.8,25969.9
47669.3,25962.3
Z" /> 
<path style="fill:#848400; fill-opacity:1.0; 
stroke:#848400; stroke-width:0; stroke-opacity:1; 
stroke-linecap:round; stroke-linejoin:round;fill-rule:evenodd;"
d="M 46746.7,25969.9
46821.2,25992.5
46821.2,25992.5
46857.6,26011.9
46889.8,26029.2
46950,26078.5
46999.4,26138.7
47036.1,26207.3
47058.7,26281.8
47064.4,26339.8
47064.4,26416.1
47058.7,26474.1
47036.1,26548.6
47036.1,26548.6
47016.6,26585
46999.4,26617.2
46950,26677.4
46889.8,26726.7
46821.2,26763.4
46746.7,26786
46669.3,26793.6
46591.8,26786
46517.4,26763.4
46448.7,26726.7
46388.6,26677.4
46339.2,26617.2
46302.5,26548.6
46279.9,26474.1
46274.2,26416.1
46274.2,26339.8
46279.9,26281.8
46302.5,26207.3
46302.5,26207.3
46322,26170.9
46339.2,26138.7
46388.6,26078.5
46448.7,26029.2
46517.4,25992.5
46591.8,25969.9
46669.3,25962.3
Z" /> 
<path style="fill:#848400; fill-opacity:1.0; 
stroke:#848400; stroke-width:0; stroke-opacity:1; 
stroke-linecap:round; stroke-linejoin:round;fill-rule:evenodd;"
d="M 52258.6,25969.9
52333,25992.5
52333,25992.5
52369.4,26011.9
52401.7,26029.2
52461.8,26078.5
52511.2,26138.7
52547.9,26207.3
52570.5,26281.8
52576.2,26339.8
52576.2,26416.1
52570.5,26474.1
52547.9,26548.6
52547.9,26548.6
52528.4,26585
52511.2,26617.2
52461.8,26677.4
52401.7,26726.7
52333,26763.4
52258.6,26786
52181.1,26793.6
52103.7,26786
52029.2,26763.4
51960.5,26726.7
51900.4,26677.4
51851,26617.2
51814.3,26548.6
51791.7,26474.1
51786,26416.1
51786,26339.8
51791.7,26281.8
51814.3,26207.3
51814.3,26207.3
51833.8,26170.9
51851,26138.7
51900.4,26078.5
51960.5,26029.2
52029.2,25992.5
52103.7,25969.9
52181.1,25962.3
Z" /> 
<path style="fill:#848400; fill-opacity:1.0; 
stroke:#848400; stroke-width:0; stroke-opacity:1; 
stroke-linecap:round; stroke-linejoin:round;fill-rule:evenodd;"
d="M 63494.8,25969.9
63569.2,25992.5
63569.2,25992.5
63605.6,26011.9
63637.9,26029.2
63698,26078.5
63747.4,26138.7
63784.1,26207.3
63806.7,26281.8
63812.4,26339.8
63812.4,26416.1
63806.7,26474.1
63784.1,26548.6
63784.1,26548.6
63764.6,26585
63747.4,26617.2
63698,26677.4
63637.9,26726.7
63569.2,26763.4
63494.8,26786
63417.3,26793.6
63339.9,26786
63265.4,26763.4
63196.8,26726.7
63136.6,26677.4
63087.2,26617.2
63050.6,26548.6
63028,26474.1
63022.2,26416.1
63022.2,26339.8
63028,26281.8
63050.6,26207.3
63050.6,26207.3
63070,26170.9
63087.2,26138.7
63136.6,26078.5
63196.8,26029.2
63265.4,25992.5
63339.9,25969.9
63417.3,25962.3
Z" /> 
<path style="fill:#848400; fill-opacity:1.0; 
stroke:#848400; stroke-width:0; stroke-opacity:1; 
stroke-linecap:round; stroke-linejoin:round;fill-rule:evenodd;"
d="M 62494.8,25969.9
62569.2,25992.5
62569.2,25992.5
62605.6,26011.9
62637.9,26029.2
62698,26078.5
62747.4,26138.7
62784.1,26207.3
62806.7,26281.8
62812.4,26339.8
62812.4,26416.1
62806.7,26474.1
62784.1,26548.6
62784.1,26548.6
62764.6,26585
62747.4,26617.2
62698,26677.4
62637.9,26726.7
62569.2,26763.4
62494.8,26786
62417.3,26793.6
62339.9,26786
62265.4,26763.4
62196.8,26726.7
62136.6,26677.4
62087.2,26617.2
62050.6,26548.6
62028,26474.1
62022.2,26416.1
62022.2,26339.8
62028,26281.8
62050.6,26207.3
62050.6,26207.3
62070,26170.9
62087.2,26138.7
62136.6,26078.5
62196.8,26029.2
62265.4,25992.5
62339.9,25969.9
62417.3,25962.3
Z" /> 
<path style="fill:#848400; fill-opacity:1.0; 
stroke:#848400; stroke-width:0; stroke-opacity:1; 
stroke-linecap:round; stroke-linejoin:round;fill-rule:evenodd;"
d="M 56694.3,26791.7
55904.1,26791.7
55904.1,25964.2
56694.3,25964.2
Z" /> 
<path style="fill:#848400; fill-opacity:1.0; 
stroke:#848400; stroke-width:0; stroke-opacity:1; 
stroke-linecap:round; stroke-linejoin:round;fill-rule:evenodd;"
d="M 61812.4,26791.7
61022.2,26791.7
61022.2,25964.2
61812.4,25964.2
Z" /> 
<path style="fill:#848400; fill-opacity:1.0; 
stroke:#848400; stroke-width:0; stroke-opacity:1; 
stroke-linecap:round; stroke-linejoin:round;fill-rule:evenodd;"
d="M 46064.4,26791.7
45274.2,26791.7
45274.2,25964.2
46064.4,25964.2
Z" /> 
<path style="fill:#848400; fill-opacity:1.0; 
stroke:#848400; stroke-width:0; stroke-opacity:1; 
stroke-linecap:round; stroke-linejoin:round;fill-rule:evenodd;"
d="M 51576.2,26791.7
50786,26791.7
50786,25964.2
51576.2,25964.2
Z" /> 
<path style="fill:#848400; fill-opacity:1.0; 
stroke:#848400; stroke-width:0; stroke-opacity:1; 
stroke-linecap:round; stroke-linejoin:round;fill-rule:evenodd;"
d="M 42850.4,21845
43069,21935.5
43069,21935.5
43265.7,22067
43433,22234.3
43433,22234.3
43564.5,22431
43655,22649.6
43701.2,22881.7
43701.2,23118.3
43655,23350.4
43564.5,23569
43564.5,23569
43433,23765.7
43265.7,23933
43166.7,23999.2
43069,24064.5
42850.4,24155
42618.3,24201.2
42381.7,24201.2
42149.6,24155
41931,24064.5
41833.3,23999.2
41734.3,23933
41567,23765.7
41435.5,23569
41435.5,23569
41345,23350.4
41298.8,23118.3
41298.8,22881.7
41345,22649.6
41435.5,22431
41567,22234.3
41567,22234.3
41734.3,22067
41931,21935.5
41931,21935.5
42149.6,21845
42381.7,21798.8
42618.3,21798.8
Z" /> 
<path style="fill:#848400; fill-opacity:1.0; 
stroke:#848400; stroke-width:0; stroke-opacity:1; 
stroke-linecap:round; stroke-linejoin:round;fill-rule:evenodd;"
d="M 65850.4,21845
66069,21935.5
66069,21935.5
66265.7,22067
66433,22234.3
66433,22234.3
66564.5,22431
66655,22649.6
66701.2,22881.7
66701.2,23118.3
66655,23350.4
66564.5,23569
66564.5,23569
66433,23765.7
66265.7,23933
66166.7,23999.2
66069,24064.5
65850.4,24155
65618.3,24201.2
65381.7,24201.2
65149.6,24155
64931,24064.5
64833.3,23999.2
64734.3,23933
64567,23765.7
64435.5,23569
64435.5,23569
64345,23350.4
64298.8,23118.3
64298.8,22881.7
64345,22649.6
64435.5,22431
64567,22234.3
64567,22234.3
64734.3,22067
64931,21935.5
64931,21935.5
65149.6,21845
65381.7,21798.8
65618.3,21798.8
Z" /> 
</g>
<g style="fill:#000000; fill-opacity:1.0; 
stroke:#000000; stroke-width:0; stroke-opacity:1; 
stroke-linecap:round; stroke-linejoin:round;">
</g>
<g style="fill:#C2C200; fill-opacity:1.0; 
stroke:#C2C200; stroke-width:0; stroke-opacity:1; 
stroke-linecap:round; stroke-linejoin:round;">
</g>
<g style="fill:#C2C200; fill-opacity:1.0; 
stroke:#C2C200; stroke-width:39.3701; stroke-opacity:1; 
stroke-linecap:round; stroke-linejoin:round;">
</g>
<g style="fill:#C2C200; fill-opacity:0.0; 
stroke:#C2C200; stroke-width:39.3701; stroke-opacity:1; 
stroke-linecap:round; stroke-linejoin:round;">
<path d="M67716 20472
L67716 41338
" />
<path d="M40157 20472
L67716 20472
" />
<path d="M40157 41338
L40157 20472
" />
<path d="M67716 41338
L40157 41338
" />
<g >
</g>
<g >
</g>
<g >
</g>
<g >
</g>
<g >
</g>
<g >
</g>
<g >
</g>
<g >
</g>
<g >
</g>
<g >
</g>
<g >
</g>
<g >
</g>
<g >
</g>
<g >
</g>
<g >
</g>
<g >
</g>
<g >
</g>
<g >
</g>
<g >
</g>
<g >
</g>
<g >
</g>
<g >
</g>
</g> 
</svg>
