<?xml version="1.0" standalone="no"?>
 <!DOCTYPE svg PUBLIC "-//W3C//DTD SVG 1.1//EN" 
 "http://www.w3.org/Graphics/SVG/1.1/DTD/svg11.dtd"> 
<svg xmlns="http://www.w3.org/2000/svg" version="1.1" 
    width="29.7002cm" height="21.0007cm" viewBox="0 0 116930 82680 ">
<title>SVG Picture created as LDOs-F_SilkS.svg date 2020/04/08 04:14:34 </title>
  <desc>Picture generated by PCBNEW </desc>
<g style="fill:#000000; fill-opacity:1;stroke:#000000; stroke-opacity:1;
stroke-linecap:round; stroke-linejoin:round; "
 transform="translate(0 0) scale(1 1)">
</g>
<g style="fill:#000000; fill-opacity:0.0; 
stroke:#000000; stroke-width:-0.000393701; stroke-opacity:1; 
stroke-linecap:round; stroke-linejoin:round;">
</g>
<g style="fill:#000000; fill-opacity:0.0; 
stroke:#000000; stroke-width:39.3701; stroke-opacity:1; 
stroke-linecap:round; stroke-linejoin:round;">
</g>
<g style="fill:#000000; fill-opacity:0.0; 
stroke:#000000; stroke-width:59.0551; stroke-opacity:1; 
stroke-linecap:round; stroke-linejoin:round;">
<rect x="69685.9" y="65357.2" width="42519.7" height="12598.4" rx="0" />
</g>
<g style="fill:#000000; fill-opacity:0.0; 
stroke:#000000; stroke-width:39.3701; stroke-opacity:1; 
stroke-linecap:round; stroke-linejoin:round;">
</g>
<g style="fill:#000000; fill-opacity:0.0; 
stroke:#000000; stroke-width:59.0551; stroke-opacity:1; 
stroke-linecap:round; stroke-linejoin:round;">
<rect x="3937.01" y="3937.01" width="109056" height="74806" rx="0" />
</g>
<g style="fill:#000000; fill-opacity:0.0; 
stroke:#000000; stroke-width:39.3701; stroke-opacity:1; 
stroke-linecap:round; stroke-linejoin:round;">
</g>
<g style="fill:#000000; fill-opacity:0.0; 
stroke:#000000; stroke-width:59.0551; stroke-opacity:1; 
stroke-linecap:round; stroke-linejoin:round;">
<rect x="4724.41" y="4724.41" width="107481" height="73231.2" rx="0" />
</g>
<g style="fill:#000000; fill-opacity:0.0; 
stroke:#000000; stroke-width:39.3701; stroke-opacity:1; 
stroke-linecap:round; stroke-linejoin:round;">
</g>
<g style="fill:#000000; fill-opacity:0.0; 
stroke:#000000; stroke-width:59.0551; stroke-opacity:1; 
stroke-linecap:round; stroke-linejoin:round;">
<path d="M23622 4724
L23622 3937
" />
</g>
<g style="fill:#000000; fill-opacity:0.0; 
stroke:#000000; stroke-width:39.3701; stroke-opacity:1; 
stroke-linecap:round; stroke-linejoin:round;">
</g>
<g style="fill:#000000; fill-opacity:0.0; 
stroke:#000000; stroke-width:59.0551; stroke-opacity:1; 
stroke-linecap:round; stroke-linejoin:round;">
<path d="M43307 4724
L43307 3937
" />
</g>
<g style="fill:#000000; fill-opacity:0.0; 
stroke:#000000; stroke-width:39.3701; stroke-opacity:1; 
stroke-linecap:round; stroke-linejoin:round;">
</g>
<g style="fill:#000000; fill-opacity:0.0; 
stroke:#000000; stroke-width:59.0551; stroke-opacity:1; 
stroke-linecap:round; stroke-linejoin:round;">
<path d="M62992 4724
L62992 3937
" />
</g>
<g style="fill:#000000; fill-opacity:0.0; 
stroke:#000000; stroke-width:39.3701; stroke-opacity:1; 
stroke-linecap:round; stroke-linejoin:round;">
</g>
<g style="fill:#000000; fill-opacity:0.0; 
stroke:#000000; stroke-width:59.0551; stroke-opacity:1; 
stroke-linecap:round; stroke-linejoin:round;">
<path d="M82677 4724
L82677 3937
" />
</g>
<g style="fill:#000000; fill-opacity:0.0; 
stroke:#000000; stroke-width:39.3701; stroke-opacity:1; 
stroke-linecap:round; stroke-linejoin:round;">
</g>
<g style="fill:#000000; fill-opacity:0.0; 
stroke:#000000; stroke-width:59.0551; stroke-opacity:1; 
stroke-linecap:round; stroke-linejoin:round;">
<path d="M102362 4724
L102362 3937
" />
</g>
<g style="fill:#000000; fill-opacity:0.0; 
stroke:#000000; stroke-width:39.3701; stroke-opacity:1; 
stroke-linecap:round; stroke-linejoin:round;">
</g>
<g style="fill:#000000; fill-opacity:0.0; 
stroke:#000000; stroke-width:59.0551; stroke-opacity:1; 
stroke-linecap:round; stroke-linejoin:round;">
<text x="13779.5" y="4586.61"
textLength="546.494" font-size="682.415" lengthAdjust="spacingAndGlyphs"
text-anchor="start" opacity="0">1</text>
<path d="M14199 4562
L13906 4562
" />
<path d="M14052 4562
L14052 4050
L14004 4123
L13955 4172
L13906 4196
" />
</g>
<g style="fill:#000000; fill-opacity:0.0; 
stroke:#000000; stroke-width:39.3701; stroke-opacity:1; 
stroke-linecap:round; stroke-linejoin:round;">
</g>
<g style="fill:#000000; fill-opacity:0.0; 
stroke:#000000; stroke-width:59.0551; stroke-opacity:1; 
stroke-linecap:round; stroke-linejoin:round;">
<text x="33464.6" y="4586.61"
textLength="546.494" font-size="682.415" lengthAdjust="spacingAndGlyphs"
text-anchor="start" opacity="0">2</text>
<path d="M33591 4099
L33615 4074
L33664 4050
L33786 4050
L33835 4074
L33859 4099
L33884 4147
L33884 4196
L33859 4269
L33567 4562
L33884 4562
" />
</g>
<g style="fill:#000000; fill-opacity:0.0; 
stroke:#000000; stroke-width:39.3701; stroke-opacity:1; 
stroke-linecap:round; stroke-linejoin:round;">
</g>
<g style="fill:#000000; fill-opacity:0.0; 
stroke:#000000; stroke-width:59.0551; stroke-opacity:1; 
stroke-linecap:round; stroke-linejoin:round;">
<text x="53149.6" y="4586.61"
textLength="546.494" font-size="682.415" lengthAdjust="spacingAndGlyphs"
text-anchor="start" opacity="0">3</text>
<path d="M53252 4050
L53569 4050
L53398 4245
L53471 4245
L53520 4269
L53544 4294
L53569 4342
L53569 4464
L53544 4513
L53520 4537
L53471 4562
L53325 4562
L53276 4537
L53252 4513
" />
</g>
<g style="fill:#000000; fill-opacity:0.0; 
stroke:#000000; stroke-width:39.3701; stroke-opacity:1; 
stroke-linecap:round; stroke-linejoin:round;">
</g>
<g style="fill:#000000; fill-opacity:0.0; 
stroke:#000000; stroke-width:59.0551; stroke-opacity:1; 
stroke-linecap:round; stroke-linejoin:round;">
<text x="72834.6" y="4586.61"
textLength="546.494" font-size="682.415" lengthAdjust="spacingAndGlyphs"
text-anchor="start" opacity="0">4</text>
<path d="M73205 4221
L73205 4562
" />
<path d="M73083 4026
L72961 4391
L73278 4391
" />
</g>
<g style="fill:#000000; fill-opacity:0.0; 
stroke:#000000; stroke-width:39.3701; stroke-opacity:1; 
stroke-linecap:round; stroke-linejoin:round;">
</g>
<g style="fill:#000000; fill-opacity:0.0; 
stroke:#000000; stroke-width:59.0551; stroke-opacity:1; 
stroke-linecap:round; stroke-linejoin:round;">
<text x="92519.7" y="4586.61"
textLength="546.494" font-size="682.415" lengthAdjust="spacingAndGlyphs"
text-anchor="start" opacity="0">5</text>
<path d="M92914 4050
L92671 4050
L92646 4294
L92671 4269
L92719 4245
L92841 4245
L92890 4269
L92914 4294
L92939 4342
L92939 4464
L92914 4513
L92890 4537
L92841 4562
L92719 4562
L92671 4537
L92646 4513
" />
</g>
<g style="fill:#000000; fill-opacity:0.0; 
stroke:#000000; stroke-width:39.3701; stroke-opacity:1; 
stroke-linecap:round; stroke-linejoin:round;">
</g>
<g style="fill:#000000; fill-opacity:0.0; 
stroke:#000000; stroke-width:59.0551; stroke-opacity:1; 
stroke-linecap:round; stroke-linejoin:round;">
<text x="112205" y="4586.61"
textLength="546.494" font-size="682.415" lengthAdjust="spacingAndGlyphs"
text-anchor="start" opacity="0">6</text>
<path d="M112575 4050
L112477 4050
L112429 4074
L112404 4099
L112356 4172
L112331 4269
L112331 4464
L112356 4513
L112380 4537
L112429 4562
L112526 4562
L112575 4537
L112599 4513
L112624 4464
L112624 4342
L112599 4294
L112575 4269
L112526 4245
L112429 4245
L112380 4269
L112356 4294
L112331 4342
" />
</g>
<g style="fill:#000000; fill-opacity:0.0; 
stroke:#000000; stroke-width:39.3701; stroke-opacity:1; 
stroke-linecap:round; stroke-linejoin:round;">
</g>
<g style="fill:#000000; fill-opacity:0.0; 
stroke:#000000; stroke-width:59.0551; stroke-opacity:1; 
stroke-linecap:round; stroke-linejoin:round;">
<path d="M23622 77955
L23622 78742
" />
</g>
<g style="fill:#000000; fill-opacity:0.0; 
stroke:#000000; stroke-width:39.3701; stroke-opacity:1; 
stroke-linecap:round; stroke-linejoin:round;">
</g>
<g style="fill:#000000; fill-opacity:0.0; 
stroke:#000000; stroke-width:59.0551; stroke-opacity:1; 
stroke-linecap:round; stroke-linejoin:round;">
<path d="M43307 77955
L43307 78742
" />
</g>
<g style="fill:#000000; fill-opacity:0.0; 
stroke:#000000; stroke-width:39.3701; stroke-opacity:1; 
stroke-linecap:round; stroke-linejoin:round;">
</g>
<g style="fill:#000000; fill-opacity:0.0; 
stroke:#000000; stroke-width:59.0551; stroke-opacity:1; 
stroke-linecap:round; stroke-linejoin:round;">
<path d="M62992 77955
L62992 78742
" />
</g>
<g style="fill:#000000; fill-opacity:0.0; 
stroke:#000000; stroke-width:39.3701; stroke-opacity:1; 
stroke-linecap:round; stroke-linejoin:round;">
</g>
<g style="fill:#000000; fill-opacity:0.0; 
stroke:#000000; stroke-width:59.0551; stroke-opacity:1; 
stroke-linecap:round; stroke-linejoin:round;">
<path d="M82677 77955
L82677 78742
" />
</g>
<g style="fill:#000000; fill-opacity:0.0; 
stroke:#000000; stroke-width:39.3701; stroke-opacity:1; 
stroke-linecap:round; stroke-linejoin:round;">
</g>
<g style="fill:#000000; fill-opacity:0.0; 
stroke:#000000; stroke-width:59.0551; stroke-opacity:1; 
stroke-linecap:round; stroke-linejoin:round;">
<path d="M102362 77955
L102362 78742
" />
</g>
<g style="fill:#000000; fill-opacity:0.0; 
stroke:#000000; stroke-width:39.3701; stroke-opacity:1; 
stroke-linecap:round; stroke-linejoin:round;">
</g>
<g style="fill:#000000; fill-opacity:0.0; 
stroke:#000000; stroke-width:59.0551; stroke-opacity:1; 
stroke-linecap:round; stroke-linejoin:round;">
<text x="13779.5" y="78605.2"
textLength="546.494" font-size="682.415" lengthAdjust="spacingAndGlyphs"
text-anchor="start" opacity="0">1</text>
<path d="M14199 78580
L13906 78580
" />
<path d="M14052 78580
L14052 78069
L14004 78142
L13955 78190
L13906 78215
" />
</g>
<g style="fill:#000000; fill-opacity:0.0; 
stroke:#000000; stroke-width:39.3701; stroke-opacity:1; 
stroke-linecap:round; stroke-linejoin:round;">
</g>
<g style="fill:#000000; fill-opacity:0.0; 
stroke:#000000; stroke-width:59.0551; stroke-opacity:1; 
stroke-linecap:round; stroke-linejoin:round;">
<text x="33464.6" y="78605.2"
textLength="546.494" font-size="682.415" lengthAdjust="spacingAndGlyphs"
text-anchor="start" opacity="0">2</text>
<path d="M33591 78117
L33615 78093
L33664 78069
L33786 78069
L33835 78093
L33859 78117
L33884 78166
L33884 78215
L33859 78288
L33567 78580
L33884 78580
" />
</g>
<g style="fill:#000000; fill-opacity:0.0; 
stroke:#000000; stroke-width:39.3701; stroke-opacity:1; 
stroke-linecap:round; stroke-linejoin:round;">
</g>
<g style="fill:#000000; fill-opacity:0.0; 
stroke:#000000; stroke-width:59.0551; stroke-opacity:1; 
stroke-linecap:round; stroke-linejoin:round;">
<text x="53149.6" y="78605.2"
textLength="546.494" font-size="682.415" lengthAdjust="spacingAndGlyphs"
text-anchor="start" opacity="0">3</text>
<path d="M53252 78069
L53569 78069
L53398 78263
L53471 78263
L53520 78288
L53544 78312
L53569 78361
L53569 78483
L53544 78532
L53520 78556
L53471 78580
L53325 78580
L53276 78556
L53252 78532
" />
</g>
<g style="fill:#000000; fill-opacity:0.0; 
stroke:#000000; stroke-width:39.3701; stroke-opacity:1; 
stroke-linecap:round; stroke-linejoin:round;">
</g>
<g style="fill:#000000; fill-opacity:0.0; 
stroke:#000000; stroke-width:59.0551; stroke-opacity:1; 
stroke-linecap:round; stroke-linejoin:round;">
<text x="72834.6" y="78605.2"
textLength="546.494" font-size="682.415" lengthAdjust="spacingAndGlyphs"
text-anchor="start" opacity="0">4</text>
<path d="M73205 78239
L73205 78580
" />
<path d="M73083 78044
L72961 78410
L73278 78410
" />
</g>
<g style="fill:#000000; fill-opacity:0.0; 
stroke:#000000; stroke-width:39.3701; stroke-opacity:1; 
stroke-linecap:round; stroke-linejoin:round;">
</g>
<g style="fill:#000000; fill-opacity:0.0; 
stroke:#000000; stroke-width:59.0551; stroke-opacity:1; 
stroke-linecap:round; stroke-linejoin:round;">
<text x="92519.7" y="78605.2"
textLength="546.494" font-size="682.415" lengthAdjust="spacingAndGlyphs"
text-anchor="start" opacity="0">5</text>
<path d="M92914 78069
L92671 78069
L92646 78312
L92671 78288
L92719 78263
L92841 78263
L92890 78288
L92914 78312
L92939 78361
L92939 78483
L92914 78532
L92890 78556
L92841 78580
L92719 78580
L92671 78556
L92646 78532
" />
</g>
<g style="fill:#000000; fill-opacity:0.0; 
stroke:#000000; stroke-width:39.3701; stroke-opacity:1; 
stroke-linecap:round; stroke-linejoin:round;">
</g>
<g style="fill:#000000; fill-opacity:0.0; 
stroke:#000000; stroke-width:59.0551; stroke-opacity:1; 
stroke-linecap:round; stroke-linejoin:round;">
<text x="112205" y="78605.2"
textLength="546.494" font-size="682.415" lengthAdjust="spacingAndGlyphs"
text-anchor="start" opacity="0">6</text>
<path d="M112575 78069
L112477 78069
L112429 78093
L112404 78117
L112356 78190
L112331 78288
L112331 78483
L112356 78532
L112380 78556
L112429 78580
L112526 78580
L112575 78556
L112599 78532
L112624 78483
L112624 78361
L112599 78312
L112575 78288
L112526 78263
L112429 78263
L112380 78288
L112356 78312
L112331 78361
" />
</g>
<g style="fill:#000000; fill-opacity:0.0; 
stroke:#000000; stroke-width:39.3701; stroke-opacity:1; 
stroke-linecap:round; stroke-linejoin:round;">
</g>
<g style="fill:#000000; fill-opacity:0.0; 
stroke:#000000; stroke-width:59.0551; stroke-opacity:1; 
stroke-linecap:round; stroke-linejoin:round;">
<path d="M3937 23622
L4724 23622
" />
</g>
<g style="fill:#000000; fill-opacity:0.0; 
stroke:#000000; stroke-width:39.3701; stroke-opacity:1; 
stroke-linecap:round; stroke-linejoin:round;">
</g>
<g style="fill:#000000; fill-opacity:0.0; 
stroke:#000000; stroke-width:59.0551; stroke-opacity:1; 
stroke-linecap:round; stroke-linejoin:round;">
<path d="M3937 43307
L4724 43307
" />
</g>
<g style="fill:#000000; fill-opacity:0.0; 
stroke:#000000; stroke-width:39.3701; stroke-opacity:1; 
stroke-linecap:round; stroke-linejoin:round;">
</g>
<g style="fill:#000000; fill-opacity:0.0; 
stroke:#000000; stroke-width:59.0551; stroke-opacity:1; 
stroke-linecap:round; stroke-linejoin:round;">
<path d="M3937 62992
L4724 62992
" />
</g>
<g style="fill:#000000; fill-opacity:0.0; 
stroke:#000000; stroke-width:39.3701; stroke-opacity:1; 
stroke-linecap:round; stroke-linejoin:round;">
</g>
<g style="fill:#000000; fill-opacity:0.0; 
stroke:#000000; stroke-width:59.0551; stroke-opacity:1; 
stroke-linecap:round; stroke-linejoin:round;">
<text x="4330.71" y="14035.4"
textLength="497.75" font-size="682.415" lengthAdjust="spacingAndGlyphs"
text-anchor="middle" opacity="0">A</text>
<path d="M4208 13864
L4452 13864
" />
<path d="M4160 14011
L4330 13499
L4501 14011
" />
</g>
<g style="fill:#000000; fill-opacity:0.0; 
stroke:#000000; stroke-width:39.3701; stroke-opacity:1; 
stroke-linecap:round; stroke-linejoin:round;">
</g>
<g style="fill:#000000; fill-opacity:0.0; 
stroke:#000000; stroke-width:59.0551; stroke-opacity:1; 
stroke-linecap:round; stroke-linejoin:round;">
<text x="4330.71" y="33720.5"
textLength="570.866" font-size="682.415" lengthAdjust="spacingAndGlyphs"
text-anchor="middle" opacity="0">B</text>
<path d="M4367 33428
L4440 33452
L4464 33476
L4489 33525
L4489 33598
L4464 33647
L4440 33671
L4391 33696
L4196 33696
L4196 33184
L4367 33184
L4416 33208
L4440 33233
L4464 33281
L4464 33330
L4440 33379
L4416 33403
L4367 33428
L4196 33428
" />
</g>
<g style="fill:#000000; fill-opacity:0.0; 
stroke:#000000; stroke-width:39.3701; stroke-opacity:1; 
stroke-linecap:round; stroke-linejoin:round;">
</g>
<g style="fill:#000000; fill-opacity:0.0; 
stroke:#000000; stroke-width:59.0551; stroke-opacity:1; 
stroke-linecap:round; stroke-linejoin:round;">
<text x="4330.71" y="53405.5"
textLength="570.866" font-size="682.415" lengthAdjust="spacingAndGlyphs"
text-anchor="middle" opacity="0">C</text>
<path d="M4489 53332
L4464 53356
L4391 53381
L4342 53381
L4269 53356
L4221 53308
L4196 53259
L4172 53161
L4172 53088
L4196 52991
L4221 52942
L4269 52893
L4342 52869
L4391 52869
L4464 52893
L4489 52918
" />
</g>
<g style="fill:#000000; fill-opacity:0.0; 
stroke:#000000; stroke-width:39.3701; stroke-opacity:1; 
stroke-linecap:round; stroke-linejoin:round;">
</g>
<g style="fill:#000000; fill-opacity:0.0; 
stroke:#000000; stroke-width:59.0551; stroke-opacity:1; 
stroke-linecap:round; stroke-linejoin:round;">
<text x="4330.71" y="73090.6"
textLength="570.866" font-size="682.415" lengthAdjust="spacingAndGlyphs"
text-anchor="middle" opacity="0">D</text>
<path d="M4196 73066
L4196 72554
L4318 72554
L4391 72578
L4440 72627
L4464 72676
L4489 72773
L4489 72846
L4464 72944
L4440 72993
L4391 73041
L4318 73066
L4196 73066
" />
</g>
<g style="fill:#000000; fill-opacity:0.0; 
stroke:#000000; stroke-width:39.3701; stroke-opacity:1; 
stroke-linecap:round; stroke-linejoin:round;">
</g>
<g style="fill:#000000; fill-opacity:0.0; 
stroke:#000000; stroke-width:59.0551; stroke-opacity:1; 
stroke-linecap:round; stroke-linejoin:round;">
<path d="M112992 23622
L112205 23622
" />
</g>
<g style="fill:#000000; fill-opacity:0.0; 
stroke:#000000; stroke-width:39.3701; stroke-opacity:1; 
stroke-linecap:round; stroke-linejoin:round;">
</g>
<g style="fill:#000000; fill-opacity:0.0; 
stroke:#000000; stroke-width:59.0551; stroke-opacity:1; 
stroke-linecap:round; stroke-linejoin:round;">
<path d="M112992 43307
L112205 43307
" />
</g>
<g style="fill:#000000; fill-opacity:0.0; 
stroke:#000000; stroke-width:39.3701; stroke-opacity:1; 
stroke-linecap:round; stroke-linejoin:round;">
</g>
<g style="fill:#000000; fill-opacity:0.0; 
stroke:#000000; stroke-width:59.0551; stroke-opacity:1; 
stroke-linecap:round; stroke-linejoin:round;">
<path d="M112992 62992
L112205 62992
" />
</g>
<g style="fill:#000000; fill-opacity:0.0; 
stroke:#000000; stroke-width:39.3701; stroke-opacity:1; 
stroke-linecap:round; stroke-linejoin:round;">
</g>
<g style="fill:#000000; fill-opacity:0.0; 
stroke:#000000; stroke-width:59.0551; stroke-opacity:1; 
stroke-linecap:round; stroke-linejoin:round;">
<text x="112599" y="14035.4"
textLength="497.75" font-size="682.415" lengthAdjust="spacingAndGlyphs"
text-anchor="middle" opacity="0">A</text>
<path d="M112477 13864
L112721 13864
" />
<path d="M112428 14011
L112599 13499
L112769 14011
" />
</g>
<g style="fill:#000000; fill-opacity:0.0; 
stroke:#000000; stroke-width:39.3701; stroke-opacity:1; 
stroke-linecap:round; stroke-linejoin:round;">
</g>
<g style="fill:#000000; fill-opacity:0.0; 
stroke:#000000; stroke-width:59.0551; stroke-opacity:1; 
stroke-linecap:round; stroke-linejoin:round;">
<text x="112599" y="33720.5"
textLength="570.866" font-size="682.415" lengthAdjust="spacingAndGlyphs"
text-anchor="middle" opacity="0">B</text>
<path d="M112635 33428
L112708 33452
L112733 33476
L112757 33525
L112757 33598
L112733 33647
L112708 33671
L112660 33696
L112465 33696
L112465 33184
L112635 33184
L112684 33208
L112708 33233
L112733 33281
L112733 33330
L112708 33379
L112684 33403
L112635 33428
L112465 33428
" />
</g>
<g style="fill:#000000; fill-opacity:0.0; 
stroke:#000000; stroke-width:39.3701; stroke-opacity:1; 
stroke-linecap:round; stroke-linejoin:round;">
</g>
<g style="fill:#000000; fill-opacity:0.0; 
stroke:#000000; stroke-width:59.0551; stroke-opacity:1; 
stroke-linecap:round; stroke-linejoin:round;">
<text x="112599" y="53405.5"
textLength="570.866" font-size="682.415" lengthAdjust="spacingAndGlyphs"
text-anchor="middle" opacity="0">C</text>
<path d="M112757 53332
L112733 53356
L112660 53381
L112611 53381
L112538 53356
L112489 53308
L112465 53259
L112440 53161
L112440 53088
L112465 52991
L112489 52942
L112538 52893
L112611 52869
L112660 52869
L112733 52893
L112757 52918
" />
</g>
<g style="fill:#000000; fill-opacity:0.0; 
stroke:#000000; stroke-width:39.3701; stroke-opacity:1; 
stroke-linecap:round; stroke-linejoin:round;">
</g>
<g style="fill:#000000; fill-opacity:0.0; 
stroke:#000000; stroke-width:59.0551; stroke-opacity:1; 
stroke-linecap:round; stroke-linejoin:round;">
<text x="112599" y="73090.6"
textLength="570.866" font-size="682.415" lengthAdjust="spacingAndGlyphs"
text-anchor="middle" opacity="0">D</text>
<path d="M112465 73066
L112465 72554
L112587 72554
L112660 72578
L112708 72627
L112733 72676
L112757 72773
L112757 72846
L112733 72944
L112708 72993
L112660 73041
L112587 73066
L112465 73066
" />
</g>
<g style="fill:#000000; fill-opacity:0.0; 
stroke:#000000; stroke-width:39.3701; stroke-opacity:1; 
stroke-linecap:round; stroke-linejoin:round;">
</g>
<g style="fill:#000000; fill-opacity:0.0; 
stroke:#000000; stroke-width:59.0551; stroke-opacity:1; 
stroke-linecap:round; stroke-linejoin:round;">
<text x="78741" y="76321.7"
textLength="2758.72" font-size="787.402" lengthAdjust="spacingAndGlyphs"
text-anchor="start" opacity="0">Date: </text>
<path d="M78911 76293
L78911 75703
L79051 75703
L79136 75731
L79192 75787
L79220 75843
L79248 75956
L79248 76040
L79220 76153
L79192 76209
L79136 76265
L79051 76293
L78911 76293
" />
<path d="M79754 76293
L79754 75984
L79726 75928
L79670 75899
L79557 75899
L79501 75928
" />
<path d="M79754 76265
L79698 76293
L79557 76293
L79501 76265
L79473 76209
L79473 76153
L79501 76096
L79557 76068
L79698 76068
L79754 76040
" />
<path d="M79951 75899
L80176 75899
" />
<path d="M80036 75703
L80036 76209
L80064 76265
L80120 76293
L80176 76293
" />
<path d="M80598 76265
L80542 76293
L80429 76293
L80373 76265
L80345 76209
L80345 75984
L80373 75928
L80429 75899
L80542 75899
L80598 75928
L80626 75984
L80626 76040
L80345 76096
" />
<path d="M80879 76237
L80907 76265
L80879 76293
L80851 76265
L80879 76237
L80879 76293
" />
<path d="M80879 75928
L80907 75956
L80879 75984
L80851 75956
L80879 75928
L80879 75984
" />
</g>
<g style="fill:#000000; fill-opacity:0.0; 
stroke:#000000; stroke-width:39.3701; stroke-opacity:1; 
stroke-linecap:round; stroke-linejoin:round;">
</g>
<g style="fill:#000000; fill-opacity:0.0; 
stroke:#000000; stroke-width:59.0551; stroke-opacity:1; 
stroke-linecap:round; stroke-linejoin:round;">
<path d="M69685 76577
L112205 76577
" />
</g>
<g style="fill:#000000; fill-opacity:0.0; 
stroke:#000000; stroke-width:39.3701; stroke-opacity:1; 
stroke-linecap:round; stroke-linejoin:round;">
</g>
<g style="fill:#000000; fill-opacity:0.0; 
stroke:#000000; stroke-width:59.0551; stroke-opacity:1; 
stroke-linecap:round; stroke-linejoin:round;">
<text x="70079.6" y="77424.1"
textLength="14429.1" font-size="787.402" lengthAdjust="spacingAndGlyphs"
text-anchor="start" opacity="0">KiCad E.D.A.  pcbnew (5.1.5)-3</text>
<path d="M70249 77395
L70249 76805
" />
<path d="M70587 77395
L70334 77058
" />
<path d="M70587 76805
L70249 77142
" />
<path d="M70840 77395
L70840 77002
" />
<path d="M70840 76805
L70812 76833
L70840 76861
L70868 76833
L70840 76805
L70840 76861
" />
<path d="M71458 77339
L71430 77367
L71346 77395
L71290 77395
L71205 77367
L71149 77311
L71121 77255
L71093 77142
L71093 77058
L71121 76946
L71149 76889
L71205 76833
L71290 76805
L71346 76805
L71430 76833
L71458 76861
" />
<path d="M71965 77395
L71965 77086
L71937 77030
L71880 77002
L71768 77002
L71712 77030
" />
<path d="M71965 77367
L71908 77395
L71768 77395
L71712 77367
L71683 77311
L71683 77255
L71712 77199
L71768 77171
L71908 77171
L71965 77142
" />
<path d="M72499 77395
L72499 76805
" />
<path d="M72499 77367
L72443 77395
L72330 77395
L72274 77367
L72246 77339
L72218 77283
L72218 77114
L72246 77058
L72274 77030
L72330 77002
L72443 77002
L72499 77030
" />
<path d="M73230 77086
L73427 77086
" />
<path d="M73511 77395
L73230 77395
L73230 76805
L73511 76805
" />
<path d="M73764 77339
L73793 77367
L73764 77395
L73736 77367
L73764 77339
L73764 77395
" />
<path d="M74046 77395
L74046 76805
L74186 76805
L74271 76833
L74327 76889
L74355 76946
L74383 77058
L74383 77142
L74355 77255
L74327 77311
L74271 77367
L74186 77395
L74046 77395
" />
<path d="M74636 77339
L74664 77367
L74636 77395
L74608 77367
L74636 77339
L74636 77395
" />
<path d="M74889 77227
L75171 77227
" />
<path d="M74833 77395
L75030 76805
L75227 77395
" />
<path d="M75424 77339
L75452 77367
L75424 77395
L75395 77367
L75424 77339
L75424 77395
" />
<path d="M76605 77002
L76605 77592
" />
<path d="M76605 77030
L76661 77002
L76773 77002
L76830 77030
L76858 77058
L76886 77114
L76886 77283
L76858 77339
L76830 77367
L76773 77395
L76661 77395
L76605 77367
" />
<path d="M77392 77367
L77336 77395
L77223 77395
L77167 77367
L77139 77339
L77111 77283
L77111 77114
L77139 77058
L77167 77030
L77223 77002
L77336 77002
L77392 77030
" />
<path d="M77645 77395
L77645 76805
" />
<path d="M77645 77030
L77701 77002
L77814 77002
L77870 77030
L77898 77058
L77926 77114
L77926 77283
L77898 77339
L77870 77367
L77814 77395
L77701 77395
L77645 77367
" />
<path d="M78180 77002
L78180 77395
" />
<path d="M78180 77058
L78208 77030
L78264 77002
L78348 77002
L78404 77030
L78433 77086
L78433 77395
" />
<path d="M78939 77367
L78883 77395
L78770 77395
L78714 77367
L78686 77311
L78686 77086
L78714 77030
L78770 77002
L78883 77002
L78939 77030
L78967 77086
L78967 77142
L78686 77199
" />
<path d="M79164 77002
L79276 77395
L79389 77114
L79501 77395
L79614 77002
" />
<path d="M80457 77620
L80429 77592
L80373 77508
L80345 77452
L80317 77367
L80289 77227
L80289 77114
L80317 76974
L80345 76889
L80373 76833
L80429 76749
L80457 76721
" />
<path d="M80964 76805
L80682 76805
L80654 77086
L80682 77058
L80739 77030
L80879 77030
L80935 77058
L80964 77086
L80992 77142
L80992 77283
L80964 77339
L80935 77367
L80879 77395
L80739 77395
L80682 77367
L80654 77339
" />
<path d="M81245 77339
L81273 77367
L81245 77395
L81217 77367
L81245 77339
L81245 77395
" />
<path d="M81835 77395
L81498 77395
" />
<path d="M81667 77395
L81667 76805
L81610 76889
L81554 76946
L81498 76974
" />
<path d="M82088 77339
L82117 77367
L82088 77395
L82060 77367
L82088 77339
L82088 77395
" />
<path d="M82651 76805
L82370 76805
L82341 77086
L82370 77058
L82426 77030
L82566 77030
L82623 77058
L82651 77086
L82679 77142
L82679 77283
L82651 77339
L82623 77367
L82566 77395
L82426 77395
L82370 77367
L82341 77339
" />
<path d="M82876 77620
L82904 77592
L82960 77508
L82988 77452
L83016 77367
L83045 77227
L83045 77114
L83016 76974
L82988 76889
L82960 76833
L82904 76749
L82876 76721
" />
<path d="M83326 77171
L83776 77171
" />
<path d="M84001 76805
L84366 76805
L84169 77030
L84254 77030
L84310 77058
L84338 77086
L84366 77142
L84366 77283
L84338 77339
L84310 77367
L84254 77395
L84085 77395
L84029 77367
L84001 77339
" />
</g>
<g style="fill:#000000; fill-opacity:0.0; 
stroke:#000000; stroke-width:39.3701; stroke-opacity:1; 
stroke-linecap:round; stroke-linejoin:round;">
</g>
<g style="fill:#000000; fill-opacity:0.0; 
stroke:#000000; stroke-width:59.0551; stroke-opacity:1; 
stroke-linecap:round; stroke-linejoin:round;">
<path d="M69685 75396
L112205 75396
" />
</g>
<g style="fill:#000000; fill-opacity:0.0; 
stroke:#000000; stroke-width:39.3701; stroke-opacity:1; 
stroke-linecap:round; stroke-linejoin:round;">
</g>
<g style="fill:#000000; fill-opacity:0.0; 
stroke:#000000; stroke-width:118.11; stroke-opacity:1; 
stroke-linecap:round; stroke-linejoin:round;">
<text x="103544" y="76321.7"
textLength="2336.9" font-size="787.402" lengthAdjust="spacingAndGlyphs"
text-anchor="start" opacity="0">Rev: </text>
<path d="M104099 76293
L103902 76012
" />
<path d="M103761 76293
L103761 75703
L103986 75703
L104042 75731
L104070 75759
L104099 75815
L104099 75899
L104070 75956
L104042 75984
L103986 76012
L103761 76012
" />
<path d="M104577 76265
L104520 76293
L104408 76293
L104352 76265
L104323 76209
L104323 75984
L104352 75928
L104408 75899
L104520 75899
L104577 75928
L104605 75984
L104605 76040
L104323 76096
" />
<path d="M104802 75899
L104942 76293
L105083 75899
" />
<path d="M105308 76237
L105336 76265
L105308 76293
L105280 76265
L105308 76237
L105308 76293
" />
<path d="M105308 75928
L105336 75956
L105308 75984
L105280 75956
L105308 75928
L105308 75984
" />
</g>
<g style="fill:#000000; fill-opacity:0.0; 
stroke:#000000; stroke-width:39.3701; stroke-opacity:1; 
stroke-linecap:round; stroke-linejoin:round;">
</g>
<g style="fill:#000000; fill-opacity:0.0; 
stroke:#000000; stroke-width:59.0551; stroke-opacity:1; 
stroke-linecap:round; stroke-linejoin:round;">
<text x="70079.6" y="76321.7"
textLength="3781.21" font-size="787.402" lengthAdjust="spacingAndGlyphs"
text-anchor="start" opacity="0">Size: A4</text>
<path d="M70221 76265
L70305 76293
L70446 76293
L70502 76265
L70530 76237
L70559 76181
L70559 76124
L70530 76068
L70502 76040
L70446 76012
L70334 75984
L70277 75956
L70249 75928
L70221 75871
L70221 75815
L70249 75759
L70277 75731
L70334 75703
L70474 75703
L70559 75731
" />
<path d="M70812 76293
L70812 75899
" />
<path d="M70812 75703
L70784 75731
L70812 75759
L70840 75731
L70812 75703
L70812 75759
" />
<path d="M71037 75899
L71346 75899
L71037 76293
L71346 76293
" />
<path d="M71796 76265
L71740 76293
L71627 76293
L71571 76265
L71543 76209
L71543 75984
L71571 75928
L71627 75899
L71740 75899
L71796 75928
L71824 75984
L71824 76040
L71543 76096
" />
<path d="M72077 76237
L72105 76265
L72077 76293
L72049 76265
L72077 76237
L72077 76293
" />
<path d="M72077 75928
L72105 75956
L72077 75984
L72049 75956
L72077 75928
L72077 75984
" />
<path d="M72780 76124
L73061 76124
" />
<path d="M72724 76293
L72921 75703
L73118 76293
" />
<path d="M73568 75899
L73568 76293
" />
<path d="M73427 75674
L73286 76096
L73652 76096
" />
</g>
<g style="fill:#000000; fill-opacity:0.0; 
stroke:#000000; stroke-width:39.3701; stroke-opacity:1; 
stroke-linecap:round; stroke-linejoin:round;">
</g>
<g style="fill:#000000; fill-opacity:0.0; 
stroke:#000000; stroke-width:59.0551; stroke-opacity:1; 
stroke-linecap:round; stroke-linejoin:round;">
<text x="103544" y="77424.1"
textLength="3349.27" font-size="787.402" lengthAdjust="spacingAndGlyphs"
text-anchor="start" opacity="0">Id: 1/1</text>
<path d="M103714 77395
L103714 76805
" />
<path d="M104248 77395
L104248 76805
" />
<path d="M104248 77367
L104192 77395
L104079 77395
L104023 77367
L103995 77339
L103967 77283
L103967 77114
L103995 77058
L104023 77030
L104079 77002
L104192 77002
L104248 77030
" />
<path d="M104529 77339
L104557 77367
L104529 77395
L104501 77367
L104529 77339
L104529 77395
" />
<path d="M104529 77030
L104557 77058
L104529 77086
L104501 77058
L104529 77030
L104529 77086
" />
<path d="M105570 77395
L105232 77395
" />
<path d="M105401 77395
L105401 76805
L105345 76889
L105289 76946
L105232 76974
" />
<path d="M106245 76777
L105739 77536
" />
<path d="M106751 77395
L106413 77395
" />
<path d="M106582 77395
L106582 76805
L106526 76889
L106470 76946
L106413 76974
" />
</g>
<g style="fill:#000000; fill-opacity:0.0; 
stroke:#000000; stroke-width:39.3701; stroke-opacity:1; 
stroke-linecap:round; stroke-linejoin:round;">
</g>
<g style="fill:#000000; fill-opacity:0.0; 
stroke:#000000; stroke-width:59.0551; stroke-opacity:1; 
stroke-linecap:round; stroke-linejoin:round;">
<path d="M69685 73821
L112205 73821
" />
</g>
<g style="fill:#000000; fill-opacity:0.0; 
stroke:#000000; stroke-width:39.3701; stroke-opacity:1; 
stroke-linecap:round; stroke-linejoin:round;">
</g>
<g style="fill:#000000; fill-opacity:0.0; 
stroke:#000000; stroke-width:157.48; stroke-opacity:1; 
stroke-linecap:round; stroke-linejoin:round;">
<text x="70079.6" y="74924.1"
textLength="3701.14" font-size="1049.87" lengthAdjust="spacingAndGlyphs"
text-anchor="start" opacity="0">Title: </text>
<path d="M70360 74099
L70810 74099
" />
<path d="M70486 74886
L70585 74099
" />
<path d="M70974 74886
L71039 74361
" />
<path d="M71072 74099
L71030 74136
L71063 74174
L71105 74136
L71072 74099
L71063 74174
" />
<path d="M71302 74361
L71602 74361
" />
<path d="M71447 74099
L71363 74774
L71391 74849
L71461 74886
L71536 74886
" />
<path d="M71911 74886
L71841 74849
L71813 74774
L71897 74099
" />
<path d="M72516 74849
L72436 74886
L72286 74886
L72216 74849
L72187 74774
L72225 74474
L72272 74399
L72352 74361
L72501 74361
L72572 74399
L72600 74474
L72591 74549
L72206 74624
" />
<path d="M72895 74811
L72928 74849
L72886 74886
L72853 74849
L72895 74811
L72886 74886
" />
<path d="M72947 74399
L72980 74436
L72937 74474
L72905 74436
L72947 74399
L72937 74474
" />
</g>
<g style="fill:#000000; fill-opacity:0.0; 
stroke:#000000; stroke-width:39.3701; stroke-opacity:1; 
stroke-linecap:round; stroke-linejoin:round;">
</g>
<g style="fill:#000000; fill-opacity:0.0; 
stroke:#000000; stroke-width:59.0551; stroke-opacity:1; 
stroke-linecap:round; stroke-linejoin:round;">
<text x="70079.6" y="73408.3"
textLength="9344.21" font-size="787.402" lengthAdjust="spacingAndGlyphs"
text-anchor="start" opacity="0">File: LDOs.kicad_pcb</text>
<path d="M70446 73070
L70249 73070
" />
<path d="M70249 73380
L70249 72789
L70530 72789
" />
<path d="M70755 73380
L70755 72986
" />
<path d="M70755 72789
L70727 72817
L70755 72845
L70784 72817
L70755 72789
L70755 72845
" />
<path d="M71121 73380
L71065 73352
L71037 73295
L71037 72789
" />
<path d="M71571 73352
L71515 73380
L71402 73380
L71346 73352
L71318 73295
L71318 73070
L71346 73014
L71402 72986
L71515 72986
L71571 73014
L71599 73070
L71599 73127
L71318 73183
" />
<path d="M71852 73323
L71880 73352
L71852 73380
L71824 73352
L71852 73323
L71852 73380
" />
<path d="M71852 73014
L71880 73042
L71852 73070
L71824 73042
L71852 73014
L71852 73070
" />
<path d="M72865 73380
L72583 73380
L72583 72789
" />
<path d="M73061 73380
L73061 72789
L73202 72789
L73286 72817
L73343 72874
L73371 72930
L73399 73042
L73399 73127
L73371 73239
L73343 73295
L73286 73352
L73202 73380
L73061 73380
" />
<path d="M73764 72789
L73877 72789
L73933 72817
L73989 72874
L74018 72986
L74018 73183
L73989 73295
L73933 73352
L73877 73380
L73764 73380
L73708 73352
L73652 73295
L73624 73183
L73624 72986
L73652 72874
L73708 72817
L73764 72789
" />
<path d="M74242 73352
L74299 73380
L74411 73380
L74467 73352
L74496 73295
L74496 73267
L74467 73211
L74411 73183
L74327 73183
L74271 73155
L74242 73099
L74242 73070
L74271 73014
L74327 72986
L74411 72986
L74467 73014
" />
<path d="M74749 73323
L74777 73352
L74749 73380
L74721 73352
L74749 73323
L74749 73380
" />
<path d="M75030 73380
L75030 72789
" />
<path d="M75086 73155
L75255 73380
" />
<path d="M75255 72986
L75030 73211
" />
<path d="M75508 73380
L75508 72986
" />
<path d="M75508 72789
L75480 72817
L75508 72845
L75536 72817
L75508 72789
L75508 72845
" />
<path d="M76042 73352
L75986 73380
L75874 73380
L75817 73352
L75789 73323
L75761 73267
L75761 73099
L75789 73042
L75817 73014
L75874 72986
L75986 72986
L76042 73014
" />
<path d="M76548 73380
L76548 73070
L76520 73014
L76464 72986
L76352 72986
L76295 73014
" />
<path d="M76548 73352
L76492 73380
L76352 73380
L76295 73352
L76267 73295
L76267 73239
L76295 73183
L76352 73155
L76492 73155
L76548 73127
" />
<path d="M77083 73380
L77083 72789
" />
<path d="M77083 73352
L77027 73380
L76914 73380
L76858 73352
L76830 73323
L76802 73267
L76802 73099
L76830 73042
L76858 73014
L76914 72986
L77027 72986
L77083 73014
" />
<path d="M77223 73436
L77673 73436
" />
<path d="M77814 72986
L77814 73577
" />
<path d="M77814 73014
L77870 72986
L77983 72986
L78039 73014
L78067 73042
L78095 73099
L78095 73267
L78067 73323
L78039 73352
L77983 73380
L77870 73380
L77814 73352
" />
<path d="M78601 73352
L78545 73380
L78433 73380
L78376 73352
L78348 73323
L78320 73267
L78320 73099
L78348 73042
L78376 73014
L78433 72986
L78545 72986
L78601 73014
" />
<path d="M78854 73380
L78854 72789
" />
<path d="M78854 73014
L78911 72986
L79023 72986
L79079 73014
L79108 73042
L79136 73099
L79136 73267
L79108 73323
L79079 73352
L79023 73380
L78911 73380
L78854 73352
" />
</g>
<g style="fill:#000000; fill-opacity:0.0; 
stroke:#000000; stroke-width:39.3701; stroke-opacity:1; 
stroke-linecap:round; stroke-linejoin:round;">
</g>
<g style="fill:#000000; fill-opacity:0.0; 
stroke:#000000; stroke-width:59.0551; stroke-opacity:1; 
stroke-linecap:round; stroke-linejoin:round;">
<path d="M69685 71459
L112205 71459
" />
</g>
<g style="fill:#000000; fill-opacity:0.0; 
stroke:#000000; stroke-width:39.3701; stroke-opacity:1; 
stroke-linecap:round; stroke-linejoin:round;">
</g>
<g style="fill:#000000; fill-opacity:0.0; 
stroke:#000000; stroke-width:59.0551; stroke-opacity:1; 
stroke-linecap:round; stroke-linejoin:round;">
<text x="70079.6" y="72345.4"
textLength="3236.78" font-size="787.402" lengthAdjust="spacingAndGlyphs"
text-anchor="start" opacity="0">Sheet: </text>
<path d="M70221 72289
L70305 72317
L70446 72317
L70502 72289
L70530 72260
L70559 72204
L70559 72148
L70530 72092
L70502 72064
L70446 72036
L70334 72007
L70277 71979
L70249 71951
L70221 71895
L70221 71839
L70249 71782
L70277 71754
L70334 71726
L70474 71726
L70559 71754
" />
<path d="M70812 72317
L70812 71726
" />
<path d="M71065 72317
L71065 72007
L71037 71951
L70980 71923
L70896 71923
L70840 71951
L70812 71979
" />
<path d="M71571 72289
L71515 72317
L71402 72317
L71346 72289
L71318 72232
L71318 72007
L71346 71951
L71402 71923
L71515 71923
L71571 71951
L71599 72007
L71599 72064
L71318 72120
" />
<path d="M72077 72289
L72021 72317
L71908 72317
L71852 72289
L71824 72232
L71824 72007
L71852 71951
L71908 71923
L72021 71923
L72077 71951
L72105 72007
L72105 72064
L71824 72120
" />
<path d="M72274 71923
L72499 71923
" />
<path d="M72358 71726
L72358 72232
L72386 72289
L72443 72317
L72499 72317
" />
<path d="M72696 72260
L72724 72289
L72696 72317
L72668 72289
L72696 72260
L72696 72317
" />
<path d="M72696 71951
L72724 71979
L72696 72007
L72668 71979
L72696 71951
L72696 72007
" />
</g>
<g style="fill:#000000; fill-opacity:0.0; 
stroke:#000000; stroke-width:39.3701; stroke-opacity:1; 
stroke-linecap:round; stroke-linejoin:round;">
</g>
<g style="fill:#000000; fill-opacity:0.0; 
stroke:#000000; stroke-width:59.0551; stroke-opacity:1; 
stroke-linecap:round; stroke-linejoin:round;">
<path d="M77559 75396
L77559 76577
" />
</g>
<g style="fill:#000000; fill-opacity:0.0; 
stroke:#000000; stroke-width:39.3701; stroke-opacity:1; 
stroke-linecap:round; stroke-linejoin:round;">
</g>
<g style="fill:#000000; fill-opacity:0.0; 
stroke:#000000; stroke-width:59.0551; stroke-opacity:1; 
stroke-linecap:round; stroke-linejoin:round;">
<path d="M102756 75396
L102756 77955
" />
</g>
<g style="fill:#008484; fill-opacity:0.0; 
stroke:#008484; stroke-width:59.0551; stroke-opacity:1; 
stroke-linecap:round; stroke-linejoin:round;">
<g transform="rotate(-270 70000 30905.5)">
<text x="70000" y="31102.4"
textLength="3471.13" font-size="524.934" lengthAdjust="spacingAndGlyphs"
text-anchor="middle" opacity="0">53.000 mm</text>
</g>
<path d="M70215 29480
L70215 29293
L70028 29274
L70046 29293
L70065 29330
L70065 29424
L70046 29461
L70028 29480
L69990 29499
L69896 29499
L69859 29480
L69840 29461
L69821 29424
L69821 29330
L69840 29293
L69859 29274
" />
<path d="M70215 29630
L70215 29874
L70065 29743
L70065 29799
L70046 29836
L70028 29855
L69990 29874
L69896 29874
L69859 29855
L69840 29836
L69821 29799
L69821 29686
L69840 29649
L69859 29630
" />
<path d="M69859 30043
L69840 30061
L69821 30043
L69840 30024
L69859 30043
L69821 30043
" />
<path d="M70215 30305
L70215 30343
L70196 30380
L70178 30399
L70140 30418
L70065 30436
L69971 30436
L69896 30418
L69859 30399
L69840 30380
L69821 30343
L69821 30305
L69840 30268
L69859 30249
L69896 30230
L69971 30211
L70065 30211
L70140 30230
L70178 30249
L70196 30268
L70215 30305
" />
<path d="M70215 30680
L70215 30718
L70196 30755
L70178 30774
L70140 30793
L70065 30811
L69971 30811
L69896 30793
L69859 30774
L69840 30755
L69821 30718
L69821 30680
L69840 30643
L69859 30624
L69896 30605
L69971 30586
L70065 30586
L70140 30605
L70178 30624
L70196 30643
L70215 30680
" />
<path d="M70215 31055
L70215 31092
L70196 31130
L70178 31149
L70140 31167
L70065 31186
L69971 31186
L69896 31167
L69859 31149
L69840 31130
L69821 31092
L69821 31055
L69840 31017
L69859 30999
L69896 30980
L69971 30961
L70065 30961
L70140 30980
L70178 30999
L70196 31017
L70215 31055
" />
<path d="M69821 31655
L70084 31655
" />
<path d="M70046 31655
L70065 31674
L70084 31711
L70084 31767
L70065 31805
L70028 31824
L69821 31824
" />
<path d="M70028 31824
L70065 31842
L70084 31880
L70084 31936
L70065 31974
L70028 31992
L69821 31992
" />
<path d="M69821 32180
L70084 32180
" />
<path d="M70046 32180
L70065 32199
L70084 32236
L70084 32292
L70065 32330
L70028 32349
L69821 32349
" />
<path d="M70028 32349
L70065 32367
L70084 32405
L70084 32461
L70065 32499
L70028 32517
L69821 32517
" />
</g>
<g style="fill:#008484; fill-opacity:0.0; 
stroke:#008484; stroke-width:47.2441; stroke-opacity:1; 
stroke-linecap:round; stroke-linejoin:round;">
<path d="M69500 20472
L69500 41338
" />
<path d="M67716 20472
L69730 20472
" />
<path d="M67716 41338
L69730 41338
" />
<path d="M69500 41338
L69269 40895
" />
<path d="M69500 41338
L69730 40895
" />
<path d="M69500 20472
L69269 20915
" />
<path d="M69500 20472
L69730 20915
" />
</g>
<g style="fill:#008484; fill-opacity:0.0; 
stroke:#008484; stroke-width:59.0551; stroke-opacity:1; 
stroke-linecap:round; stroke-linejoin:round;">
<text x="53937" y="18696.9"
textLength="3488.85" font-size="524.934" lengthAdjust="spacingAndGlyphs"
text-anchor="middle" opacity="0">70.000 mm</text>
<path d="M52287 18284
L52549 18284
L52380 18678
" />
<path d="M52774 18284
L52812 18284
L52849 18303
L52868 18321
L52887 18359
L52905 18434
L52905 18528
L52887 18603
L52868 18640
L52849 18659
L52812 18678
L52774 18678
L52737 18659
L52718 18640
L52699 18603
L52680 18528
L52680 18434
L52699 18359
L52718 18321
L52737 18303
L52774 18284
" />
<path d="M53074 18640
L53093 18659
L53074 18678
L53055 18659
L53074 18640
L53074 18678
" />
<path d="M53337 18284
L53374 18284
L53412 18303
L53430 18321
L53449 18359
L53468 18434
L53468 18528
L53449 18603
L53430 18640
L53412 18659
L53374 18678
L53337 18678
L53299 18659
L53280 18640
L53262 18603
L53243 18528
L53243 18434
L53262 18359
L53280 18321
L53299 18303
L53337 18284
" />
<path d="M53712 18284
L53749 18284
L53787 18303
L53805 18321
L53824 18359
L53843 18434
L53843 18528
L53824 18603
L53805 18640
L53787 18659
L53749 18678
L53712 18678
L53674 18659
L53655 18640
L53637 18603
L53618 18528
L53618 18434
L53637 18359
L53655 18321
L53674 18303
L53712 18284
" />
<path d="M54086 18284
L54124 18284
L54161 18303
L54180 18321
L54199 18359
L54218 18434
L54218 18528
L54199 18603
L54180 18640
L54161 18659
L54124 18678
L54086 18678
L54049 18659
L54030 18640
L54011 18603
L53993 18528
L53993 18434
L54011 18359
L54030 18321
L54049 18303
L54086 18284
" />
<path d="M54686 18678
L54686 18415
" />
<path d="M54686 18453
L54705 18434
L54743 18415
L54799 18415
L54836 18434
L54855 18471
L54855 18678
" />
<path d="M54855 18471
L54874 18434
L54911 18415
L54968 18415
L55005 18434
L55024 18471
L55024 18678
" />
<path d="M55211 18678
L55211 18415
" />
<path d="M55211 18453
L55230 18434
L55268 18415
L55324 18415
L55361 18434
L55380 18471
L55380 18678
" />
<path d="M55380 18471
L55399 18434
L55436 18415
L55493 18415
L55530 18434
L55549 18471
L55549 18678
" />
</g>
<g style="fill:#008484; fill-opacity:0.0; 
stroke:#008484; stroke-width:47.2441; stroke-opacity:1; 
stroke-linecap:round; stroke-linejoin:round;">
<path d="M40157 19000
L67716 19000
" />
<path d="M40157 20472
L40157 18769
" />
<path d="M67716 20472
L67716 18769
" />
<path d="M67716 19000
L67273 19230
" />
<path d="M67716 19000
L67273 18769
" />
<path d="M40157 19000
L40600 19230
" />
<path d="M40157 19000
L40600 18769
" />
<path d="M63505 29419
L63505 29222
" />
<path d="M63604 29320
L63407 29320
" />
<path d="M61475 28851
L61475 28628
" />
<path d="M61491 28944
L61491 28536
" />
<path d="M61507 29006
L61507 28473
" />
<path d="M61523 29057
L61523 28423
" />
<path d="M61538 29100
L61538 28379
" />
<path d="M61554 29138
L61554 28342
" />
<path d="M61570 29172
L61570 28307
" />
<path d="M61586 29203
L61586 28276
" />
<path d="M61601 28330
L61601 28247
" />
<path d="M61601 29232
L61601 29149
" />
<path d="M61617 28330
L61617 28220
" />
<path d="M61617 29259
L61617 29149
" />
<path d="M61633 28330
L61633 28195
" />
<path d="M61633 29284
L61633 29149
" />
<path d="M61649 28330
L61649 28172
" />
<path d="M61649 29308
L61649 29149
" />
<path d="M61664 28330
L61664 28149
" />
<path d="M61664 29330
L61664 29149
" />
<path d="M61680 28330
L61680 28128
" />
<path d="M61680 29351
L61680 29149
" />
<path d="M61696 28330
L61696 28108
" />
<path d="M61696 29372
L61696 29149
" />
<path d="M61712 28330
L61712 28089
" />
<path d="M61712 29390
L61712 29149
" />
<path d="M61727 28330
L61727 28071
" />
<path d="M61727 29409
L61727 29149
" />
<path d="M61743 28330
L61743 28053
" />
<path d="M61743 29426
L61743 29149
" />
<path d="M61759 28330
L61759 28037
" />
<path d="M61759 29442
L61759 29149
" />
<path d="M61775 28330
L61775 28021
" />
<path d="M61775 29459
L61775 29149
" />
<path d="M61790 28330
L61790 28006
" />
<path d="M61790 29474
L61790 29149
" />
<path d="M61806 28330
L61806 27991
" />
<path d="M61806 29488
L61806 29149
" />
<path d="M61822 28330
L61822 27977
" />
<path d="M61822 29502
L61822 29149
" />
<path d="M61838 28330
L61838 27964
" />
<path d="M61838 29516
L61838 29149
" />
<path d="M61853 28330
L61853 27951
" />
<path d="M61853 29529
L61853 29149
" />
<path d="M61869 28330
L61869 27938
" />
<path d="M61869 29541
L61869 29149
" />
<path d="M61885 28330
L61885 27927
" />
<path d="M61885 29553
L61885 29149
" />
<path d="M61901 28330
L61901 27915
" />
<path d="M61901 29564
L61901 29149
" />
<path d="M61916 28330
L61916 27904
" />
<path d="M61916 29575
L61916 29149
" />
<path d="M61932 28330
L61932 27894
" />
<path d="M61932 29586
L61932 29149
" />
<path d="M61948 28330
L61948 27883
" />
<path d="M61948 29596
L61948 29149
" />
<path d="M61964 28330
L61964 27874
" />
<path d="M61964 29606
L61964 29149
" />
<path d="M61979 28330
L61979 27864
" />
<path d="M61979 29615
L61979 29149
" />
<path d="M61995 28330
L61995 27855
" />
<path d="M61995 29624
L61995 29149
" />
<path d="M62011 28330
L62011 27847
" />
<path d="M62011 29633
L62011 29149
" />
<path d="M62027 28330
L62027 27838
" />
<path d="M62027 29641
L62027 29149
" />
<path d="M62042 28330
L62042 27830
" />
<path d="M62042 29649
L62042 29149
" />
<path d="M62058 28330
L62058 27823
" />
<path d="M62058 29657
L62058 29149
" />
<path d="M62074 28330
L62074 27815
" />
<path d="M62074 29664
L62074 29149
" />
<path d="M62090 28330
L62090 27809
" />
<path d="M62090 29671
L62090 29149
" />
<path d="M62105 28330
L62105 27802
" />
<path d="M62105 29677
L62105 29149
" />
<path d="M62121 28330
L62121 27796
" />
<path d="M62121 29684
L62121 29149
" />
<path d="M62137 28330
L62137 27789
" />
<path d="M62137 29690
L62137 29149
" />
<path d="M62153 28330
L62153 27784
" />
<path d="M62153 29696
L62153 29149
" />
<path d="M62168 28330
L62168 27778
" />
<path d="M62168 29701
L62168 29149
" />
<path d="M62184 28330
L62184 27773
" />
<path d="M62184 29706
L62184 29149
" />
<path d="M62200 28330
L62200 27768
" />
<path d="M62200 29711
L62200 29149
" />
<path d="M62216 28330
L62216 27763
" />
<path d="M62216 29716
L62216 29149
" />
<path d="M62232 28330
L62232 27759
" />
<path d="M62232 29720
L62232 29149
" />
<path d="M62248 28330
L62248 27755
" />
<path d="M62248 29724
L62248 29149
" />
<path d="M62263 28330
L62263 27751
" />
<path d="M62263 29728
L62263 29149
" />
<path d="M62279 28330
L62279 27748
" />
<path d="M62279 29732
L62279 29149
" />
<path d="M62295 28330
L62295 27744
" />
<path d="M62295 29735
L62295 29149
" />
<path d="M62311 28330
L62311 27741
" />
<path d="M62311 29738
L62311 29149
" />
<path d="M62326 28330
L62326 27738
" />
<path d="M62326 29741
L62326 29149
" />
<path d="M62342 28330
L62342 27736
" />
<path d="M62342 29744
L62342 29149
" />
<path d="M62358 28330
L62358 27733
" />
<path d="M62358 29746
L62358 29149
" />
<path d="M62374 28330
L62374 27731
" />
<path d="M62374 29748
L62374 29149
" />
<path d="M62389 28330
L62389 27730
" />
<path d="M62389 29750
L62389 29149
" />
<path d="M62405 28330
L62405 27728
" />
<path d="M62405 29751
L62405 29149
" />
<path d="M62421 29753
L62421 27727
" />
<path d="M62437 29754
L62437 27725
" />
<path d="M62452 29755
L62452 27725
" />
<path d="M62468 29755
L62468 27724
" />
<path d="M62484 29755
L62484 27724
" />
<path d="M62500 29755
L62500 27724
" />
<circle cx="62500" cy="28740.2" r="1031.5" /> 
<circle cx="57381.9" cy="28740.2" r="1031.5" /> 
<path d="M57381 29755
L57381 27724
" />
<path d="M57366 29755
L57366 27724
" />
<path d="M57350 29755
L57350 27724
" />
<path d="M57334 29755
L57334 27725
" />
<path d="M57318 29754
L57318 27725
" />
<path d="M57303 29753
L57303 27727
" />
<path d="M57287 29751
L57287 29149
" />
<path d="M57287 28330
L57287 27728
" />
<path d="M57271 29750
L57271 29149
" />
<path d="M57271 28330
L57271 27730
" />
<path d="M57255 29748
L57255 29149
" />
<path d="M57255 28330
L57255 27731
" />
<path d="M57240 29746
L57240 29149
" />
<path d="M57240 28330
L57240 27733
" />
<path d="M57224 29744
L57224 29149
" />
<path d="M57224 28330
L57224 27736
" />
<path d="M57208 29741
L57208 29149
" />
<path d="M57208 28330
L57208 27738
" />
<path d="M57192 29738
L57192 29149
" />
<path d="M57192 28330
L57192 27741
" />
<path d="M57177 29735
L57177 29149
" />
<path d="M57177 28330
L57177 27744
" />
<path d="M57161 29732
L57161 29149
" />
<path d="M57161 28330
L57161 27748
" />
<path d="M57145 29728
L57145 29149
" />
<path d="M57145 28330
L57145 27751
" />
<path d="M57129 29724
L57129 29149
" />
<path d="M57129 28330
L57129 27755
" />
<path d="M57114 29720
L57114 29149
" />
<path d="M57114 28330
L57114 27759
" />
<path d="M57098 29716
L57098 29149
" />
<path d="M57098 28330
L57098 27763
" />
<path d="M57082 29711
L57082 29149
" />
<path d="M57082 28330
L57082 27768
" />
<path d="M57066 29706
L57066 29149
" />
<path d="M57066 28330
L57066 27773
" />
<path d="M57050 29701
L57050 29149
" />
<path d="M57050 28330
L57050 27778
" />
<path d="M57035 29696
L57035 29149
" />
<path d="M57035 28330
L57035 27784
" />
<path d="M57019 29690
L57019 29149
" />
<path d="M57019 28330
L57019 27789
" />
<path d="M57003 29684
L57003 29149
" />
<path d="M57003 28330
L57003 27796
" />
<path d="M56987 29677
L56987 29149
" />
<path d="M56987 28330
L56987 27802
" />
<path d="M56972 29671
L56972 29149
" />
<path d="M56972 28330
L56972 27809
" />
<path d="M56956 29664
L56956 29149
" />
<path d="M56956 28330
L56956 27815
" />
<path d="M56940 29657
L56940 29149
" />
<path d="M56940 28330
L56940 27823
" />
<path d="M56924 29649
L56924 29149
" />
<path d="M56924 28330
L56924 27830
" />
<path d="M56909 29641
L56909 29149
" />
<path d="M56909 28330
L56909 27838
" />
<path d="M56893 29633
L56893 29149
" />
<path d="M56893 28330
L56893 27847
" />
<path d="M56877 29624
L56877 29149
" />
<path d="M56877 28330
L56877 27855
" />
<path d="M56861 29615
L56861 29149
" />
<path d="M56861 28330
L56861 27864
" />
<path d="M56846 29606
L56846 29149
" />
<path d="M56846 28330
L56846 27874
" />
<path d="M56830 29596
L56830 29149
" />
<path d="M56830 28330
L56830 27883
" />
<path d="M56814 29586
L56814 29149
" />
<path d="M56814 28330
L56814 27894
" />
<path d="M56798 29575
L56798 29149
" />
<path d="M56798 28330
L56798 27904
" />
<path d="M56783 29564
L56783 29149
" />
<path d="M56783 28330
L56783 27915
" />
<path d="M56767 29553
L56767 29149
" />
<path d="M56767 28330
L56767 27927
" />
<path d="M56751 29541
L56751 29149
" />
<path d="M56751 28330
L56751 27938
" />
<path d="M56735 29529
L56735 29149
" />
<path d="M56735 28330
L56735 27951
" />
<path d="M56720 29516
L56720 29149
" />
<path d="M56720 28330
L56720 27964
" />
<path d="M56704 29502
L56704 29149
" />
<path d="M56704 28330
L56704 27977
" />
<path d="M56688 29488
L56688 29149
" />
<path d="M56688 28330
L56688 27991
" />
<path d="M56672 29474
L56672 29149
" />
<path d="M56672 28330
L56672 28006
" />
<path d="M56657 29459
L56657 29149
" />
<path d="M56657 28330
L56657 28021
" />
<path d="M56641 29442
L56641 29149
" />
<path d="M56641 28330
L56641 28037
" />
<path d="M56625 29426
L56625 29149
" />
<path d="M56625 28330
L56625 28053
" />
<path d="M56609 29409
L56609 29149
" />
<path d="M56609 28330
L56609 28071
" />
<path d="M56594 29390
L56594 29149
" />
<path d="M56594 28330
L56594 28089
" />
<path d="M56578 29372
L56578 29149
" />
<path d="M56578 28330
L56578 28108
" />
<path d="M56562 29351
L56562 29149
" />
<path d="M56562 28330
L56562 28128
" />
<path d="M56546 29330
L56546 29149
" />
<path d="M56546 28330
L56546 28149
" />
<path d="M56531 29308
L56531 29149
" />
<path d="M56531 28330
L56531 28172
" />
<path d="M56515 29284
L56515 29149
" />
<path d="M56515 28330
L56515 28195
" />
<path d="M56499 29259
L56499 29149
" />
<path d="M56499 28330
L56499 28220
" />
<path d="M56483 29232
L56483 29149
" />
<path d="M56483 28330
L56483 28247
" />
<path d="M56468 29203
L56468 28276
" />
<path d="M56452 29172
L56452 28307
" />
<path d="M56436 29138
L56436 28342
" />
<path d="M56420 29100
L56420 28379
" />
<path d="M56405 29057
L56405 28423
" />
<path d="M56389 29006
L56389 28473
" />
<path d="M56373 28944
L56373 28536
" />
<path d="M56357 28851
L56357 28628
" />
<path d="M58486 29320
L58289 29320
" />
<path d="M58387 29419
L58387 29222
" />
<path d="M47529 27832
L47332 27832
" />
<path d="M47431 27734
L47431 27931
" />
<path d="M46962 29862
L46738 29862
" />
<path d="M47054 29846
L46646 29846
" />
<path d="M47116 29831
L46583 29831
" />
<path d="M47167 29815
L46533 29815
" />
<path d="M47210 29799
L46490 29799
" />
<path d="M47248 29783
L46452 29783
" />
<path d="M47282 29768
L46418 29768
" />
<path d="M47314 29752
L46386 29752
" />
<path d="M46440 29736
L46357 29736
" />
<path d="M47342 29736
L47259 29736
" />
<path d="M46440 29720
L46331 29720
" />
<path d="M47369 29720
L47259 29720
" />
<path d="M46440 29705
L46305 29705
" />
<path d="M47394 29705
L47259 29705
" />
<path d="M46440 29689
L46282 29689
" />
<path d="M47418 29689
L47259 29689
" />
<path d="M46440 29673
L46259 29673
" />
<path d="M47440 29673
L47259 29673
" />
<path d="M46440 29657
L46238 29657
" />
<path d="M47462 29657
L47259 29657
" />
<path d="M46440 29642
L46218 29642
" />
<path d="M47482 29642
L47259 29642
" />
<path d="M46440 29626
L46199 29626
" />
<path d="M47501 29626
L47259 29626
" />
<path d="M46440 29610
L46181 29610
" />
<path d="M47519 29610
L47259 29610
" />
<path d="M46440 29594
L46164 29594
" />
<path d="M47536 29594
L47259 29594
" />
<path d="M46440 29579
L46147 29579
" />
<path d="M47553 29579
L47259 29579
" />
<path d="M46440 29563
L46131 29563
" />
<path d="M47569 29563
L47259 29563
" />
<path d="M46440 29547
L46116 29547
" />
<path d="M47584 29547
L47259 29547
" />
<path d="M46440 29531
L46101 29531
" />
<path d="M47598 29531
L47259 29531
" />
<path d="M46440 29516
L46087 29516
" />
<path d="M47612 29516
L47259 29516
" />
<path d="M46440 29500
L46074 29500
" />
<path d="M47626 29500
L47259 29500
" />
<path d="M46440 29484
L46061 29484
" />
<path d="M47639 29484
L47259 29484
" />
<path d="M46440 29468
L46049 29468
" />
<path d="M47651 29468
L47259 29468
" />
<path d="M46440 29453
L46037 29453
" />
<path d="M47663 29453
L47259 29453
" />
<path d="M46440 29437
L46025 29437
" />
<path d="M47675 29437
L47259 29437
" />
<path d="M46440 29421
L46014 29421
" />
<path d="M47685 29421
L47259 29421
" />
<path d="M46440 29405
L46004 29405
" />
<path d="M47696 29405
L47259 29405
" />
<path d="M46440 29390
L45994 29390
" />
<path d="M47706 29390
L47259 29390
" />
<path d="M46440 29374
L45984 29374
" />
<path d="M47716 29374
L47259 29374
" />
<path d="M46440 29358
L45974 29358
" />
<path d="M47725 29358
L47259 29358
" />
<path d="M46440 29342
L45965 29342
" />
<path d="M47735 29342
L47259 29342
" />
<path d="M46440 29327
L45957 29327
" />
<path d="M47743 29327
L47259 29327
" />
<path d="M46440 29311
L45948 29311
" />
<path d="M47751 29311
L47259 29311
" />
<path d="M46440 29295
L45940 29295
" />
<path d="M47759 29295
L47259 29295
" />
<path d="M46440 29279
L45933 29279
" />
<path d="M47767 29279
L47259 29279
" />
<path d="M46440 29264
L45925 29264
" />
<path d="M47774 29264
L47259 29264
" />
<path d="M46440 29248
L45919 29248
" />
<path d="M47781 29248
L47259 29248
" />
<path d="M46440 29232
L45912 29232
" />
<path d="M47788 29232
L47259 29232
" />
<path d="M46440 29216
L45906 29216
" />
<path d="M47794 29216
L47259 29216
" />
<path d="M46440 29201
L45900 29201
" />
<path d="M47800 29201
L47259 29201
" />
<path d="M46440 29185
L45894 29185
" />
<path d="M47806 29185
L47259 29185
" />
<path d="M46440 29169
L45888 29169
" />
<path d="M47811 29169
L47259 29169
" />
<path d="M46440 29153
L45883 29153
" />
<path d="M47816 29153
L47259 29153
" />
<path d="M46440 29138
L45878 29138
" />
<path d="M47822 29138
L47259 29138
" />
<path d="M46440 29122
L45874 29122
" />
<path d="M47826 29122
L47259 29122
" />
<path d="M46440 29106
L45869 29106
" />
<path d="M47831 29106
L47259 29106
" />
<path d="M46440 29090
L45865 29090
" />
<path d="M47835 29090
L47259 29090
" />
<path d="M46440 29074
L45861 29074
" />
<path d="M47838 29074
L47259 29074
" />
<path d="M46440 29059
L45858 29059
" />
<path d="M47842 29059
L47259 29059
" />
<path d="M46440 29043
L45855 29043
" />
<path d="M47845 29043
L47259 29043
" />
<path d="M46440 29027
L45851 29027
" />
<path d="M47848 29027
L47259 29027
" />
<path d="M46440 29011
L45849 29011
" />
<path d="M47851 29011
L47259 29011
" />
<path d="M46440 28996
L45846 28996
" />
<path d="M47854 28996
L47259 28996
" />
<path d="M46440 28980
L45844 28980
" />
<path d="M47856 28980
L47259 28980
" />
<path d="M46440 28964
L45842 28964
" />
<path d="M47858 28964
L47259 28964
" />
<path d="M46440 28948
L45840 28948
" />
<path d="M47860 28948
L47259 28948
" />
<path d="M46440 28933
L45838 28933
" />
<path d="M47861 28933
L47259 28933
" />
<path d="M47863 28917
L45837 28917
" />
<path d="M47864 28901
L45836 28901
" />
<path d="M47865 28885
L45835 28885
" />
<path d="M47865 28870
L45835 28870
" />
<path d="M47866 28854
L45834 28854
" />
<path d="M47866 28838
L45834 28838
" />
<circle cx="46850.4" cy="28838.6" r="1031.5" /> 
<path d="M53041 27832
L52844 27832
" />
<path d="M52942 27734
L52942 27931
" />
<path d="M52474 29862
L52250 29862
" />
<path d="M52566 29846
L52158 29846
" />
<path d="M52628 29831
L52095 29831
" />
<path d="M52679 29815
L52045 29815
" />
<path d="M52722 29799
L52001 29799
" />
<path d="M52760 29783
L51964 29783
" />
<path d="M52794 29768
L51929 29768
" />
<path d="M52825 29752
L51898 29752
" />
<path d="M51952 29736
L51869 29736
" />
<path d="M52854 29736
L52771 29736
" />
<path d="M51952 29720
L51842 29720
" />
<path d="M52881 29720
L52771 29720
" />
<path d="M51952 29705
L51817 29705
" />
<path d="M52906 29705
L52771 29705
" />
<path d="M51952 29689
L51794 29689
" />
<path d="M52930 29689
L52771 29689
" />
<path d="M51952 29673
L51771 29673
" />
<path d="M52952 29673
L52771 29673
" />
<path d="M51952 29657
L51750 29657
" />
<path d="M52974 29657
L52771 29657
" />
<path d="M51952 29642
L51730 29642
" />
<path d="M52994 29642
L52771 29642
" />
<path d="M51952 29626
L51711 29626
" />
<path d="M53012 29626
L52771 29626
" />
<path d="M51952 29610
L51693 29610
" />
<path d="M53031 29610
L52771 29610
" />
<path d="M51952 29594
L51675 29594
" />
<path d="M53048 29594
L52771 29594
" />
<path d="M51952 29579
L51659 29579
" />
<path d="M53064 29579
L52771 29579
" />
<path d="M51952 29563
L51643 29563
" />
<path d="M53081 29563
L52771 29563
" />
<path d="M51952 29547
L51628 29547
" />
<path d="M53096 29547
L52771 29547
" />
<path d="M51952 29531
L51613 29531
" />
<path d="M53110 29531
L52771 29531
" />
<path d="M51952 29516
L51599 29516
" />
<path d="M53124 29516
L52771 29516
" />
<path d="M51952 29500
L51586 29500
" />
<path d="M53138 29500
L52771 29500
" />
<path d="M51952 29484
L51573 29484
" />
<path d="M53151 29484
L52771 29484
" />
<path d="M51952 29468
L51561 29468
" />
<path d="M53163 29468
L52771 29468
" />
<path d="M51952 29453
L51549 29453
" />
<path d="M53175 29453
L52771 29453
" />
<path d="M51952 29437
L51537 29437
" />
<path d="M53187 29437
L52771 29437
" />
<path d="M51952 29421
L51526 29421
" />
<path d="M53197 29421
L52771 29421
" />
<path d="M51952 29405
L51516 29405
" />
<path d="M53208 29405
L52771 29405
" />
<path d="M51952 29390
L51505 29390
" />
<path d="M53218 29390
L52771 29390
" />
<path d="M51952 29374
L51496 29374
" />
<path d="M53228 29374
L52771 29374
" />
<path d="M51952 29358
L51486 29358
" />
<path d="M53237 29358
L52771 29358
" />
<path d="M51952 29342
L51477 29342
" />
<path d="M53246 29342
L52771 29342
" />
<path d="M51952 29327
L51469 29327
" />
<path d="M53255 29327
L52771 29327
" />
<path d="M51952 29311
L51460 29311
" />
<path d="M53263 29311
L52771 29311
" />
<path d="M51952 29295
L51452 29295
" />
<path d="M53271 29295
L52771 29295
" />
<path d="M51952 29279
L51445 29279
" />
<path d="M53279 29279
L52771 29279
" />
<path d="M51952 29264
L51437 29264
" />
<path d="M53286 29264
L52771 29264
" />
<path d="M51952 29248
L51431 29248
" />
<path d="M53293 29248
L52771 29248
" />
<path d="M51952 29232
L51424 29232
" />
<path d="M53300 29232
L52771 29232
" />
<path d="M51952 29216
L51418 29216
" />
<path d="M53306 29216
L52771 29216
" />
<path d="M51952 29201
L51411 29201
" />
<path d="M53312 29201
L52771 29201
" />
<path d="M51952 29185
L51406 29185
" />
<path d="M53318 29185
L52771 29185
" />
<path d="M51952 29169
L51400 29169
" />
<path d="M53323 29169
L52771 29169
" />
<path d="M51952 29153
L51395 29153
" />
<path d="M53328 29153
L52771 29153
" />
<path d="M51952 29138
L51390 29138
" />
<path d="M53333 29138
L52771 29138
" />
<path d="M51952 29122
L51385 29122
" />
<path d="M53338 29122
L52771 29122
" />
<path d="M51952 29106
L51381 29106
" />
<path d="M53342 29106
L52771 29106
" />
<path d="M51952 29090
L51377 29090
" />
<path d="M53346 29090
L52771 29090
" />
<path d="M51952 29074
L51373 29074
" />
<path d="M53350 29074
L52771 29074
" />
<path d="M51952 29059
L51370 29059
" />
<path d="M53354 29059
L52771 29059
" />
<path d="M51952 29043
L51366 29043
" />
<path d="M53357 29043
L52771 29043
" />
<path d="M51952 29027
L51363 29027
" />
<path d="M53360 29027
L52771 29027
" />
<path d="M51952 29011
L51361 29011
" />
<path d="M53363 29011
L52771 29011
" />
<path d="M51952 28996
L51358 28996
" />
<path d="M53366 28996
L52771 28996
" />
<path d="M51952 28980
L51355 28980
" />
<path d="M53368 28980
L52771 28980
" />
<path d="M51952 28964
L51353 28964
" />
<path d="M53370 28964
L52771 28964
" />
<path d="M51952 28948
L51352 28948
" />
<path d="M53372 28948
L52771 28948
" />
<path d="M51952 28933
L51350 28933
" />
<path d="M53373 28933
L52771 28933
" />
<path d="M53375 28917
L51349 28917
" />
<path d="M53376 28901
L51348 28901
" />
<path d="M53377 28885
L51347 28885
" />
<path d="M53377 28870
L51346 28870
" />
<path d="M53377 28854
L51346 28854
" />
<path d="M53377 28838
L51346 28838
" />
<circle cx="52362.2" cy="28838.6" r="1031.5" /> 
<path d="M53401 31681
L53401 30523
" />
<path d="M53401 30523
L51259 30523
" />
<path d="M51259 30523
L51259 31681
" />
<path d="M51259 31681
L53401 31681
" />
<path d="M53803 31102
L53401 31102
" />
<path d="M50858 31102
L51259 31102
" />
<path d="M53047 31681
L53047 30523
" />
<path d="M53000 31681
L53000 30523
" />
<path d="M53094 31681
L53094 30523
" />
<path d="M47582 31681
L47582 30523
" />
<path d="M47488 31681
L47488 30523
" />
<path d="M47535 31681
L47535 30523
" />
<path d="M45346 31102
L45748 31102
" />
<path d="M48291 31102
L47889 31102
" />
<path d="M45748 31681
L47889 31681
" />
<path d="M45748 30523
L45748 31681
" />
<path d="M47889 30523
L45748 30523
" />
<path d="M47889 31681
L47889 30523
" />
<circle cx="57086.6" cy="31496.1" r="522.193" /> 
<path d="M57086 32018
L57086 32062
" />
<path d="M56586 35562
L56586 34515
" />
<path d="M56586 35562
L57610 35562
" />
<path d="M57610 35562
L57610 34515
" />
<path d="M56586 34515
L57610 34515
" />
<path d="M55562 34515
L56086 34515
" />
<path d="M55562 35039
L55562 34515
" />
<path d="M44232 32952
L44232 37913
" />
<path d="M44232 37913
L48307 37913
" />
<path d="M48307 37913
L48307 37539
" />
<path d="M48307 37539
L48503 37637
" />
<path d="M48503 37637
L48503 36889
" />
<path d="M48503 36889
L48503 36870
" />
<path d="M48503 36870
L48307 36968
" />
<path d="M48307 36968
L48307 34842
" />
<path d="M48307 34842
L48503 34960
" />
<path d="M48503 34960
L48503 32952
" />
<path d="M48503 32952
L44232 32952
" />
<path d="M50893 35562
L50893 34515
" />
<path d="M50893 35562
L53917 35562
" />
<path d="M53917 35562
L53917 34515
" />
<path d="M50893 34515
L53917 34515
" />
<path d="M49870 34515
L50393 34515
" />
<path d="M49870 35039
L49870 34515
" />
<path d="M64279 31267
L64279 35299
" />
<path d="M62452 31267
L62452 35299
" />
<path d="M64279 31267
L62452 31267
" />
<path d="M64279 35299
L62452 35299
" />
<path d="M63685 31267
L63685 35299
" />
<path d="M64279 32555
L63685 32555
" />
<path d="M64279 34012
L63685 34012
" />
<path d="M59055 35086
L59055 34783
" />
<path d="M59055 31905
L59055 32208
" />
<path d="M59594 34783
L59594 32208
" />
<path d="M58515 34783
L59594 34783
" />
<path d="M58515 32208
L58515 34783
" />
<path d="M59594 32208
L58515 32208
" />
<path d="M61562 32208
L60484 32208
" />
<path d="M60484 32208
L60484 34783
" />
<path d="M60484 34783
L61562 34783
" />
<path d="M61562 34783
L61562 32208
" />
<path d="M61023 31905
L61023 32208
" />
<path d="M61023 35086
L61023 34783
" />
<path d="M63146 25090
L63146 25685
" />
<path d="M61688 25090
L61688 25685
" />
<path d="M60401 25685
L64433 25685
" />
<path d="M64433 25090
L64433 26917
" />
<path d="M60401 25090
L60401 26917
" />
<path d="M60401 26917
L64433 26917
" />
<path d="M60401 25090
L64433 25090
" />
<path d="M55283 25090
L59314 25090
" />
<path d="M55283 26917
L59314 26917
" />
<path d="M55283 25090
L55283 26917
" />
<path d="M59314 25090
L59314 26917
" />
<path d="M55283 25685
L59314 25685
" />
<path d="M56570 25090
L56570 25685
" />
<path d="M58027 25090
L58027 25685
" />
<path d="M47398 25090
L47398 25685
" />
<path d="M45940 25090
L45940 25685
" />
<path d="M44653 25685
L48685 25685
" />
<path d="M48685 25090
L48685 26917
" />
<path d="M44653 25090
L44653 26917
" />
<path d="M44653 26917
L48685 26917
" />
<path d="M44653 25090
L48685 25090
" />
<path d="M50165 25090
L54196 25090
" />
<path d="M50165 26917
L54196 26917
" />
<path d="M50165 25090
L50165 26917
" />
<path d="M54196 25090
L54196 26917
" />
<path d="M50165 25685
L54196 25685
" />
<path d="M51452 25090
L51452 25685
" />
<path d="M52909 25090
L52909 25685
" />
</g>
<g style="fill:#008484; fill-opacity:0.0; 
stroke:#008484; stroke-width:59.0551; stroke-opacity:1; 
stroke-linecap:round; stroke-linejoin:round;">
<g transform="rotate(-90 64173.2 28740.2)">
<text x="64173.2" y="28937"
textLength="845.426" font-size="524.934" lengthAdjust="spacingAndGlyphs"
text-anchor="middle" opacity="0">C1</text>
</g>
<path d="M64313 28805
L64332 28824
L64351 28880
L64351 28918
L64332 28974
L64295 29011
L64257 29030
L64182 29049
L64126 29049
L64051 29030
L64013 29011
L63976 28974
L63957 28918
L63957 28880
L63976 28824
L63995 28805
" />
<path d="M64351 28430
L64351 28655
" />
<path d="M64351 28543
L63957 28543
L64013 28580
L64051 28618
L64070 28655
" />
<g transform="rotate(-90 59055.1 28740.2)">
<text x="59055.1" y="28937"
textLength="845.426" font-size="524.934" lengthAdjust="spacingAndGlyphs"
text-anchor="middle" opacity="0">C2</text>
</g>
<path d="M59195 28805
L59214 28824
L59233 28880
L59233 28918
L59214 28974
L59176 29011
L59139 29030
L59064 29049
L59008 29049
L58933 29030
L58895 29011
L58858 28974
L58839 28918
L58839 28880
L58858 28824
L58877 28805
" />
<path d="M58877 28655
L58858 28637
L58839 28599
L58839 28505
L58858 28468
L58877 28449
L58914 28430
L58952 28430
L59008 28449
L59233 28674
L59233 28430
" />
<g transform="rotate(-90 48326.8 28838.6)">
<text x="48326.8" y="29035.4"
textLength="845.426" font-size="524.934" lengthAdjust="spacingAndGlyphs"
text-anchor="middle" opacity="0">C3</text>
</g>
<path d="M48467 28904
L48486 28922
L48504 28979
L48504 29016
L48486 29072
L48448 29110
L48411 29129
L48336 29147
L48279 29147
L48204 29129
L48167 29110
L48129 29072
L48111 29016
L48111 28979
L48129 28922
L48148 28904
" />
<path d="M48111 28772
L48111 28529
L48261 28660
L48261 28604
L48279 28566
L48298 28547
L48336 28529
L48429 28529
L48467 28547
L48486 28566
L48504 28604
L48504 28716
L48486 28754
L48467 28772
" />
<g transform="rotate(-90 53937 28838.6)">
<text x="53937" y="29035.4"
textLength="845.426" font-size="524.934" lengthAdjust="spacingAndGlyphs"
text-anchor="middle" opacity="0">C4</text>
</g>
<path d="M54077 28904
L54096 28922
L54115 28979
L54115 29016
L54096 29072
L54058 29110
L54021 29129
L53946 29147
L53890 29147
L53815 29129
L53777 29110
L53740 29072
L53721 29016
L53721 28979
L53740 28922
L53758 28904
" />
<path d="M53852 28566
L54115 28566
" />
<path d="M53702 28660
L53983 28754
L53983 28510
" />
<text x="52330.7" y="32271.7"
textLength="845.426" font-size="524.934" lengthAdjust="spacingAndGlyphs"
text-anchor="middle" opacity="0">D9</text>
<path d="M52040 32252
L52040 31859
L52133 31859
L52190 31877
L52227 31915
L52246 31952
L52265 32027
L52265 32084
L52246 32159
L52227 32196
L52190 32234
L52133 32252
L52040 32252
" />
<path d="M52452 32252
L52527 32252
L52565 32234
L52583 32215
L52621 32159
L52640 32084
L52640 31934
L52621 31896
L52602 31877
L52565 31859
L52490 31859
L52452 31877
L52433 31896
L52415 31934
L52415 32027
L52433 32065
L52452 32084
L52490 32102
L52565 32102
L52602 32084
L52621 32065
L52640 32027
" />
<text x="54330.7" y="32126"
textLength="470.472" font-size="524.934" lengthAdjust="spacingAndGlyphs"
text-anchor="middle" opacity="0">K</text>
<path d="M54227 32107
L54227 31713
" />
<path d="M54452 32107
L54283 31882
" />
<path d="M54452 31713
L54227 31938
" />
<text x="46818.9" y="32271.7"
textLength="1220.38" font-size="524.934" lengthAdjust="spacingAndGlyphs"
text-anchor="middle" opacity="0">D10</text>
<path d="M46340 32252
L46340 31859
L46434 31859
L46490 31877
L46528 31915
L46547 31952
L46565 32027
L46565 32084
L46547 32159
L46528 32196
L46490 32234
L46434 32252
L46340 32252
" />
<path d="M46940 32252
L46715 32252
" />
<path d="M46828 32252
L46828 31859
L46790 31915
L46753 31952
L46715 31971
" />
<path d="M47184 31859
L47221 31859
L47259 31877
L47278 31896
L47296 31934
L47315 32009
L47315 32102
L47296 32177
L47278 32215
L47259 32234
L47221 32252
L47184 32252
L47146 32234
L47128 32215
L47109 32177
L47090 32102
L47090 32009
L47109 31934
L47128 31896
L47146 31877
L47184 31859
" />
<text x="48818.9" y="32126"
textLength="470.472" font-size="524.934" lengthAdjust="spacingAndGlyphs"
text-anchor="middle" opacity="0">K</text>
<path d="M48715 32107
L48715 31713
" />
<path d="M48940 32107
L48772 31882
" />
<path d="M48940 31713
L48715 31938
" />
<g transform="rotate(-90 56170.7 31996.1)">
<text x="56170.7" y="32192.9"
textLength="1220.38" font-size="524.934" lengthAdjust="spacingAndGlyphs"
text-anchor="middle" opacity="0">D11</text>
</g>
<path d="M56348 32474
L55955 32474
L55955 32380
L55973 32324
L56011 32286
L56048 32267
L56123 32249
L56180 32249
L56255 32267
L56292 32286
L56330 32324
L56348 32380
L56348 32474
" />
<path d="M56348 31874
L56348 32099
" />
<path d="M56348 31986
L55955 31986
L56011 32024
L56048 32061
L56067 32099
" />
<path d="M56348 31499
L56348 31724
" />
<path d="M56348 31611
L55955 31611
L56011 31649
L56048 31686
L56067 31724
" />
<g transform="rotate(-90 57086.6 33204.7)">
<text x="57086.6" y="33401.6"
textLength="470.472" font-size="524.934" lengthAdjust="spacingAndGlyphs"
text-anchor="middle" opacity="0">K</text>
</g>
<path d="M57264 33307
L56871 33307
" />
<path d="M57264 33082
L57039 33251
" />
<path d="M56871 33082
L57095 33307
" />
<text x="56692.9" y="36811"
textLength="751.687" font-size="524.934" lengthAdjust="spacingAndGlyphs"
text-anchor="middle" opacity="0">J1</text>
<path d="M56561 36398
L56561 36679
L56542 36736
L56505 36773
L56449 36792
L56411 36792
" />
<path d="M56955 36792
L56730 36792
" />
<path d="M56842 36792
L56842 36398
L56805 36454
L56767 36492
L56730 36511
" />
<text x="44519.7" y="32878"
textLength="751.687" font-size="524.934" lengthAdjust="spacingAndGlyphs"
text-anchor="middle" opacity="0">J2</text>
<path d="M44388 32465
L44388 32746
L44369 32802
L44332 32840
L44275 32859
L44238 32859
" />
<path d="M44557 32502
L44575 32484
L44613 32465
L44707 32465
L44744 32484
L44763 32502
L44782 32540
L44782 32577
L44763 32634
L44538 32859
L44782 32859
" />
<text x="51968.5" y="36811"
textLength="751.687" font-size="524.934" lengthAdjust="spacingAndGlyphs"
text-anchor="middle" opacity="0">J3</text>
<path d="M51837 36398
L51837 36679
L51818 36736
L51781 36773
L51724 36792
L51687 36792
" />
<path d="M51987 36398
L52230 36398
L52099 36548
L52155 36548
L52193 36567
L52212 36586
L52230 36623
L52230 36717
L52212 36754
L52193 36773
L52155 36792
L52043 36792
L52005 36773
L51987 36754
" />
<g transform="rotate(-90 64673.2 33283.5)">
<text x="64673.2" y="33480.3"
textLength="864.173" font-size="524.934" lengthAdjust="spacingAndGlyphs"
text-anchor="middle" opacity="0">Q9</text>
</g>
<path d="M64888 33320
L64870 33358
L64832 33395
L64776 33452
L64757 33489
L64757 33527
" />
<path d="M64851 33508
L64832 33545
L64795 33583
L64720 33602
L64588 33602
L64513 33583
L64476 33545
L64457 33508
L64457 33433
L64476 33395
L64513 33358
L64588 33339
L64720 33339
L64795 33358
L64832 33395
L64851 33433
L64851 33508
" />
<path d="M64851 33152
L64851 33077
L64832 33039
L64813 33020
L64757 32983
L64682 32964
L64532 32964
L64495 32983
L64476 33002
L64457 33039
L64457 33114
L64476 33152
L64495 33170
L64532 33189
L64626 33189
L64663 33170
L64682 33152
L64701 33114
L64701 33039
L64682 33002
L64663 32983
L64626 32964
" />
<g transform="rotate(-90 59988.2 33496.1)">
<text x="59988.2" y="33692.9"
textLength="1220.38" font-size="524.934" lengthAdjust="spacingAndGlyphs"
text-anchor="middle" opacity="0">R17</text>
</g>
<path d="M60166 33749
L59978 33880
" />
<path d="M60166 33974
L59772 33974
L59772 33824
L59791 33786
L59810 33767
L59847 33749
L59903 33749
L59941 33767
L59960 33786
L59978 33824
L59978 33974
" />
<path d="M60166 33374
L60166 33599
" />
<path d="M60166 33486
L59772 33486
L59828 33524
L59866 33561
L59885 33599
" />
<path d="M59772 33242
L59772 32980
L60166 33149
" />
<g transform="rotate(-90 61956.7 33496.1)">
<text x="61956.7" y="33692.9"
textLength="1220.38" font-size="524.934" lengthAdjust="spacingAndGlyphs"
text-anchor="middle" opacity="0">R18</text>
</g>
<path d="M62134 33749
L61947 33880
" />
<path d="M62134 33974
L61741 33974
L61741 33824
L61759 33786
L61778 33767
L61816 33749
L61872 33749
L61909 33767
L61928 33786
L61947 33824
L61947 33974
" />
<path d="M62134 33374
L62134 33599
" />
<path d="M62134 33486
L61741 33486
L61797 33524
L61834 33561
L61853 33599
" />
<path d="M61909 33149
L61891 33186
L61872 33205
L61834 33224
L61816 33224
L61778 33205
L61759 33186
L61741 33149
L61741 33074
L61759 33036
L61778 33017
L61816 32999
L61834 32999
L61872 33017
L61891 33036
L61909 33074
L61909 33149
L61928 33186
L61947 33205
L61984 33224
L62059 33224
L62097 33205
L62116 33186
L62134 33149
L62134 33074
L62116 33036
L62097 33017
L62059 32999
L61984 32999
L61947 33017
L61928 33036
L61909 33074
" />
<text x="62417.3" y="24893.7"
textLength="864.173" font-size="524.934" lengthAdjust="spacingAndGlyphs"
text-anchor="middle" opacity="0">U1</text>
<path d="M62117 24481
L62117 24799
L62136 24837
L62154 24856
L62192 24874
L62267 24874
L62304 24856
L62323 24837
L62342 24799
L62342 24481
" />
<path d="M62736 24874
L62511 24874
" />
<path d="M62623 24874
L62623 24481
L62586 24537
L62548 24574
L62511 24593
" />
<text x="57299.2" y="24893.7"
textLength="864.173" font-size="524.934" lengthAdjust="spacingAndGlyphs"
text-anchor="middle" opacity="0">U2</text>
<path d="M56999 24481
L56999 24799
L57017 24837
L57036 24856
L57074 24874
L57149 24874
L57186 24856
L57205 24837
L57224 24799
L57224 24481
" />
<path d="M57392 24518
L57411 24500
L57449 24481
L57542 24481
L57580 24500
L57599 24518
L57617 24556
L57617 24593
L57599 24649
L57374 24874
L57617 24874
" />
<text x="46669.3" y="24893.7"
textLength="864.173" font-size="524.934" lengthAdjust="spacingAndGlyphs"
text-anchor="middle" opacity="0">U3</text>
<path d="M46369 24481
L46369 24799
L46388 24837
L46406 24856
L46444 24874
L46519 24874
L46556 24856
L46575 24837
L46594 24799
L46594 24481
" />
<path d="M46744 24481
L46988 24481
L46856 24631
L46913 24631
L46950 24649
L46969 24668
L46988 24706
L46988 24799
L46969 24837
L46950 24856
L46913 24874
L46800 24874
L46763 24856
L46744 24837
" />
<text x="52181.1" y="24893.7"
textLength="864.173" font-size="524.934" lengthAdjust="spacingAndGlyphs"
text-anchor="middle" opacity="0">U4</text>
<path d="M51881 24481
L51881 24799
L51899 24837
L51918 24856
L51956 24874
L52031 24874
L52068 24856
L52087 24837
L52106 24799
L52106 24481
" />
<path d="M52462 24612
L52462 24874
" />
<path d="M52368 24462
L52274 24743
L52518 24743
" />
<text x="42500" y="21622"
textLength="864.173" font-size="524.934" lengthAdjust="spacingAndGlyphs"
text-anchor="middle" opacity="0">H1</text>
<path d="M42200 21603
L42200 21209
" />
<path d="M42200 21397
L42425 21397
" />
<path d="M42425 21603
L42425 21209
" />
<path d="M42818 21603
L42593 21603
" />
<path d="M42706 21603
L42706 21209
L42668 21265
L42631 21303
L42593 21322
" />
<text x="42500" y="37622"
textLength="864.173" font-size="524.934" lengthAdjust="spacingAndGlyphs"
text-anchor="middle" opacity="0">H2</text>
<path d="M42200 37603
L42200 37209
" />
<path d="M42200 37397
L42425 37397
" />
<path d="M42425 37603
L42425 37209
" />
<path d="M42593 37247
L42612 37228
L42649 37209
L42743 37209
L42781 37228
L42799 37247
L42818 37284
L42818 37322
L42799 37378
L42574 37603
L42818 37603
" />
<text x="65500" y="21622"
textLength="864.173" font-size="524.934" lengthAdjust="spacingAndGlyphs"
text-anchor="middle" opacity="0">H3</text>
<path d="M65200 21603
L65200 21209
" />
<path d="M65200 21397
L65425 21397
" />
<path d="M65425 21603
L65425 21209
" />
<path d="M65574 21209
L65818 21209
L65687 21359
L65743 21359
L65781 21378
L65799 21397
L65818 21434
L65818 21528
L65799 21565
L65781 21584
L65743 21603
L65631 21603
L65593 21584
L65574 21565
" />
<text x="65500" y="37622"
textLength="864.173" font-size="524.934" lengthAdjust="spacingAndGlyphs"
text-anchor="middle" opacity="0">H4</text>
<path d="M65200 37603
L65200 37209
" />
<path d="M65200 37397
L65425 37397
" />
<path d="M65425 37603
L65425 37209
" />
<path d="M65781 37340
L65781 37603
" />
<path d="M65687 37190
L65593 37472
L65837 37472
" />
<g >
</g>
</g>
<g style="fill:#000000; fill-opacity:0.0; 
stroke:#000000; stroke-width:59.0551; stroke-opacity:1; 
stroke-linecap:round; stroke-linejoin:round;">
</g>
<g style="fill:#C2C200; fill-opacity:0.0; 
stroke:#C2C200; stroke-width:59.0551; stroke-opacity:1; 
stroke-linecap:round; stroke-linejoin:round;">
</g>
<g style="fill:#C2C200; fill-opacity:0.0; 
stroke:#C2C200; stroke-width:39.3701; stroke-opacity:1; 
stroke-linecap:round; stroke-linejoin:round;">
<path d="M67716 20472
L67716 41338
" />
<path d="M40157 20472
L67716 20472
" />
<path d="M40157 41338
L40157 20472
" />
<path d="M67716 41338
L40157 41338
" />
<g >
</g>
<g >
</g>
<g >
</g>
<g >
</g>
<g >
</g>
<g >
</g>
<g >
</g>
<g >
</g>
<g >
</g>
<g >
</g>
<g >
</g>
<g >
</g>
<g >
</g>
<g >
</g>
<g >
</g>
<g >
</g>
<g >
</g>
<g >
</g>
<g >
</g>
<g >
</g>
<g >
</g>
<g >
</g>
</g> 
</svg>
