G04 #@! TF.GenerationSoftware,KiCad,Pcbnew,(5.1.5)-3*
G04 #@! TF.CreationDate,2020-04-05T12:45:21+05:30*
G04 #@! TF.ProjectId,Con+fb(v+i),436f6e2b-6662-4287-962b-69292e6b6963,rev?*
G04 #@! TF.SameCoordinates,Original*
G04 #@! TF.FileFunction,Other,Fab,Top*
%FSLAX46Y46*%
G04 Gerber Fmt 4.6, Leading zero omitted, Abs format (unit mm)*
G04 Created by KiCad (PCBNEW (5.1.5)-3) date 2020-04-05 12:45:21*
%MOMM*%
%LPD*%
G04 APERTURE LIST*
%ADD10C,0.100000*%
%ADD11C,0.150000*%
G04 APERTURE END LIST*
D10*
X116250000Y-107000000D02*
G75*
G03X116250000Y-107000000I-2500000J0D01*
G01*
X115883605Y-108087500D02*
X115383605Y-108087500D01*
X115633605Y-108337500D02*
X115633605Y-107837500D01*
X121650000Y-101520000D02*
X124350000Y-101520000D01*
X124350000Y-101520000D02*
X124350000Y-96320000D01*
X124350000Y-96320000D02*
X121650000Y-96320000D01*
X121650000Y-96320000D02*
X121650000Y-101520000D01*
X123000000Y-104000000D02*
X123000000Y-101520000D01*
X123000000Y-93840000D02*
X123000000Y-96320000D01*
X121650000Y-100740000D02*
X124350000Y-100740000D01*
X121650000Y-100640000D02*
X124350000Y-100640000D01*
X121650000Y-100840000D02*
X124350000Y-100840000D01*
X121650000Y-116000000D02*
X124350000Y-116000000D01*
X121650000Y-115800000D02*
X124350000Y-115800000D01*
X121650000Y-115900000D02*
X124350000Y-115900000D01*
X123000000Y-109000000D02*
X123000000Y-111480000D01*
X123000000Y-119160000D02*
X123000000Y-116680000D01*
X121650000Y-111480000D02*
X121650000Y-116680000D01*
X124350000Y-111480000D02*
X121650000Y-111480000D01*
X124350000Y-116680000D02*
X124350000Y-111480000D01*
X121650000Y-116680000D02*
X124350000Y-116680000D01*
X129650000Y-101520000D02*
X132350000Y-101520000D01*
X132350000Y-101520000D02*
X132350000Y-96320000D01*
X132350000Y-96320000D02*
X129650000Y-96320000D01*
X129650000Y-96320000D02*
X129650000Y-101520000D01*
X131000000Y-104000000D02*
X131000000Y-101520000D01*
X131000000Y-93840000D02*
X131000000Y-96320000D01*
X129650000Y-100740000D02*
X132350000Y-100740000D01*
X129650000Y-100640000D02*
X132350000Y-100640000D01*
X129650000Y-100840000D02*
X132350000Y-100840000D01*
X129650000Y-116000000D02*
X132350000Y-116000000D01*
X129650000Y-115800000D02*
X132350000Y-115800000D01*
X129650000Y-115900000D02*
X132350000Y-115900000D01*
X131000000Y-109000000D02*
X131000000Y-111480000D01*
X131000000Y-119160000D02*
X131000000Y-116680000D01*
X129650000Y-111480000D02*
X129650000Y-116680000D01*
X132350000Y-111480000D02*
X129650000Y-111480000D01*
X132350000Y-116680000D02*
X132350000Y-111480000D01*
X129650000Y-116680000D02*
X132350000Y-116680000D01*
X76730000Y-92730000D02*
X78635000Y-92730000D01*
X78635000Y-92730000D02*
X79270000Y-93365000D01*
X79270000Y-93365000D02*
X79270000Y-135910000D01*
X79270000Y-135910000D02*
X76730000Y-135910000D01*
X76730000Y-135910000D02*
X76730000Y-92730000D01*
X87730000Y-96730000D02*
X89635000Y-96730000D01*
X89635000Y-96730000D02*
X90270000Y-97365000D01*
X90270000Y-97365000D02*
X90270000Y-101810000D01*
X90270000Y-101810000D02*
X87730000Y-101810000D01*
X87730000Y-101810000D02*
X87730000Y-96730000D01*
X89730000Y-135890000D02*
X89730000Y-125730000D01*
X92270000Y-135890000D02*
X89730000Y-135890000D01*
X92270000Y-126365000D02*
X92270000Y-135890000D01*
X91635000Y-125730000D02*
X92270000Y-126365000D01*
X89730000Y-125730000D02*
X91635000Y-125730000D01*
X87730000Y-105730000D02*
X89635000Y-105730000D01*
X89635000Y-105730000D02*
X90270000Y-106365000D01*
X90270000Y-106365000D02*
X90270000Y-115890000D01*
X90270000Y-115890000D02*
X87730000Y-115890000D01*
X87730000Y-115890000D02*
X87730000Y-105730000D01*
X98635000Y-135270000D02*
X96730000Y-135270000D01*
X96730000Y-135270000D02*
X96730000Y-117490000D01*
X96730000Y-117490000D02*
X99270000Y-117490000D01*
X99270000Y-117490000D02*
X99270000Y-134635000D01*
X99270000Y-134635000D02*
X98635000Y-135270000D01*
X127810000Y-135270000D02*
X122730000Y-135270000D01*
X127810000Y-132730000D02*
X127810000Y-135270000D01*
X123365000Y-132730000D02*
X127810000Y-132730000D01*
X122730000Y-133365000D02*
X123365000Y-132730000D01*
X122730000Y-135270000D02*
X122730000Y-133365000D01*
X84730000Y-127650000D02*
X86635000Y-127650000D01*
X86635000Y-127650000D02*
X87270000Y-128285000D01*
X87270000Y-128285000D02*
X87270000Y-135270000D01*
X87270000Y-135270000D02*
X84730000Y-135270000D01*
X84730000Y-135270000D02*
X84730000Y-127650000D01*
X102730000Y-117730000D02*
X104635000Y-117730000D01*
X104635000Y-117730000D02*
X105270000Y-118365000D01*
X105270000Y-118365000D02*
X105270000Y-135510000D01*
X105270000Y-135510000D02*
X102730000Y-135510000D01*
X102730000Y-135510000D02*
X102730000Y-117730000D01*
X98500000Y-91600000D02*
X98500000Y-96400000D01*
X98500000Y-96400000D02*
X110900000Y-96400000D01*
X110900000Y-96400000D02*
X110900000Y-91600000D01*
X110900000Y-91600000D02*
X98500000Y-91600000D01*
X130070000Y-125250000D02*
X130070000Y-122750000D01*
X130070000Y-122750000D02*
X123770000Y-122750000D01*
X123770000Y-122750000D02*
X123770000Y-125250000D01*
X123770000Y-125250000D02*
X130070000Y-125250000D01*
X132000000Y-124000000D02*
X130070000Y-124000000D01*
X121840000Y-124000000D02*
X123770000Y-124000000D01*
X116800000Y-115600000D02*
X116800000Y-125400000D01*
X116800000Y-125400000D02*
X112000000Y-125400000D01*
X112000000Y-125400000D02*
X112000000Y-115600000D01*
X112000000Y-115600000D02*
X116800000Y-115600000D01*
X112000000Y-119000000D02*
X112000000Y-122000000D01*
X112000000Y-122000000D02*
X116800000Y-122000000D01*
X116800000Y-122000000D02*
X116800000Y-119000000D01*
X116800000Y-119000000D02*
X112000000Y-119000000D01*
D11*
X112345238Y-103035714D02*
X112345238Y-103702380D01*
X112107142Y-102654761D02*
X111869047Y-103369047D01*
X112488095Y-103369047D01*
X112869047Y-103607142D02*
X112916666Y-103654761D01*
X112869047Y-103702380D01*
X112821428Y-103654761D01*
X112869047Y-103607142D01*
X112869047Y-103702380D01*
X113250000Y-102702380D02*
X113916666Y-102702380D01*
X113488095Y-103702380D01*
X114726190Y-103035714D02*
X114726190Y-103702380D01*
X114297619Y-103035714D02*
X114297619Y-103559523D01*
X114345238Y-103654761D01*
X114440476Y-103702380D01*
X114583333Y-103702380D01*
X114678571Y-103654761D01*
X114726190Y-103607142D01*
X115535714Y-103178571D02*
X115202380Y-103178571D01*
X115202380Y-103702380D02*
X115202380Y-102702380D01*
X115678571Y-102702380D01*
X113583333Y-107357142D02*
X113535714Y-107404761D01*
X113392857Y-107452380D01*
X113297619Y-107452380D01*
X113154761Y-107404761D01*
X113059523Y-107309523D01*
X113011904Y-107214285D01*
X112964285Y-107023809D01*
X112964285Y-106880952D01*
X113011904Y-106690476D01*
X113059523Y-106595238D01*
X113154761Y-106500000D01*
X113297619Y-106452380D01*
X113392857Y-106452380D01*
X113535714Y-106500000D01*
X113583333Y-106547619D01*
X113916666Y-106452380D02*
X114583333Y-106452380D01*
X114154761Y-107452380D01*
X125922380Y-101062857D02*
X125922380Y-101634285D01*
X125922380Y-101348571D02*
X124922380Y-101348571D01*
X125065238Y-101443809D01*
X125160476Y-101539047D01*
X125208095Y-101634285D01*
X125922380Y-100634285D02*
X124922380Y-100634285D01*
X125922380Y-100062857D01*
X124922380Y-100062857D01*
X125255714Y-99158095D02*
X125922380Y-99158095D01*
X124874761Y-99396190D02*
X125589047Y-99634285D01*
X125589047Y-99015238D01*
X124922380Y-98443809D02*
X124922380Y-98348571D01*
X124970000Y-98253333D01*
X125017619Y-98205714D01*
X125112857Y-98158095D01*
X125303333Y-98110476D01*
X125541428Y-98110476D01*
X125731904Y-98158095D01*
X125827142Y-98205714D01*
X125874761Y-98253333D01*
X125922380Y-98348571D01*
X125922380Y-98443809D01*
X125874761Y-98539047D01*
X125827142Y-98586666D01*
X125731904Y-98634285D01*
X125541428Y-98681904D01*
X125303333Y-98681904D01*
X125112857Y-98634285D01*
X125017619Y-98586666D01*
X124970000Y-98539047D01*
X124922380Y-98443809D01*
X124922380Y-97491428D02*
X124922380Y-97396190D01*
X124970000Y-97300952D01*
X125017619Y-97253333D01*
X125112857Y-97205714D01*
X125303333Y-97158095D01*
X125541428Y-97158095D01*
X125731904Y-97205714D01*
X125827142Y-97253333D01*
X125874761Y-97300952D01*
X125922380Y-97396190D01*
X125922380Y-97491428D01*
X125874761Y-97586666D01*
X125827142Y-97634285D01*
X125731904Y-97681904D01*
X125541428Y-97729523D01*
X125303333Y-97729523D01*
X125112857Y-97681904D01*
X125017619Y-97634285D01*
X124970000Y-97586666D01*
X124922380Y-97491428D01*
X124922380Y-96824761D02*
X124922380Y-96158095D01*
X125922380Y-96586666D01*
X123452380Y-99744285D02*
X122452380Y-99744285D01*
X122452380Y-99506190D01*
X122500000Y-99363333D01*
X122595238Y-99268095D01*
X122690476Y-99220476D01*
X122880952Y-99172857D01*
X123023809Y-99172857D01*
X123214285Y-99220476D01*
X123309523Y-99268095D01*
X123404761Y-99363333D01*
X123452380Y-99506190D01*
X123452380Y-99744285D01*
X123452380Y-98220476D02*
X123452380Y-98791904D01*
X123452380Y-98506190D02*
X122452380Y-98506190D01*
X122595238Y-98601428D01*
X122690476Y-98696666D01*
X122738095Y-98791904D01*
X122547619Y-97839523D02*
X122500000Y-97791904D01*
X122452380Y-97696666D01*
X122452380Y-97458571D01*
X122500000Y-97363333D01*
X122547619Y-97315714D01*
X122642857Y-97268095D01*
X122738095Y-97268095D01*
X122880952Y-97315714D01*
X123452380Y-97887142D01*
X123452380Y-97268095D01*
X121352380Y-104261904D02*
X120352380Y-104261904D01*
X121352380Y-103690476D02*
X120780952Y-104119047D01*
X120352380Y-103690476D02*
X120923809Y-104261904D01*
X125922380Y-116222857D02*
X125922380Y-116794285D01*
X125922380Y-116508571D02*
X124922380Y-116508571D01*
X125065238Y-116603809D01*
X125160476Y-116699047D01*
X125208095Y-116794285D01*
X125922380Y-115794285D02*
X124922380Y-115794285D01*
X125922380Y-115222857D01*
X124922380Y-115222857D01*
X125255714Y-114318095D02*
X125922380Y-114318095D01*
X124874761Y-114556190D02*
X125589047Y-114794285D01*
X125589047Y-114175238D01*
X124922380Y-113603809D02*
X124922380Y-113508571D01*
X124970000Y-113413333D01*
X125017619Y-113365714D01*
X125112857Y-113318095D01*
X125303333Y-113270476D01*
X125541428Y-113270476D01*
X125731904Y-113318095D01*
X125827142Y-113365714D01*
X125874761Y-113413333D01*
X125922380Y-113508571D01*
X125922380Y-113603809D01*
X125874761Y-113699047D01*
X125827142Y-113746666D01*
X125731904Y-113794285D01*
X125541428Y-113841904D01*
X125303333Y-113841904D01*
X125112857Y-113794285D01*
X125017619Y-113746666D01*
X124970000Y-113699047D01*
X124922380Y-113603809D01*
X124922380Y-112651428D02*
X124922380Y-112556190D01*
X124970000Y-112460952D01*
X125017619Y-112413333D01*
X125112857Y-112365714D01*
X125303333Y-112318095D01*
X125541428Y-112318095D01*
X125731904Y-112365714D01*
X125827142Y-112413333D01*
X125874761Y-112460952D01*
X125922380Y-112556190D01*
X125922380Y-112651428D01*
X125874761Y-112746666D01*
X125827142Y-112794285D01*
X125731904Y-112841904D01*
X125541428Y-112889523D01*
X125303333Y-112889523D01*
X125112857Y-112841904D01*
X125017619Y-112794285D01*
X124970000Y-112746666D01*
X124922380Y-112651428D01*
X124922380Y-111984761D02*
X124922380Y-111318095D01*
X125922380Y-111746666D01*
X121352380Y-119421904D02*
X120352380Y-119421904D01*
X121352380Y-118850476D02*
X120780952Y-119279047D01*
X120352380Y-118850476D02*
X120923809Y-119421904D01*
X123452380Y-114904285D02*
X122452380Y-114904285D01*
X122452380Y-114666190D01*
X122500000Y-114523333D01*
X122595238Y-114428095D01*
X122690476Y-114380476D01*
X122880952Y-114332857D01*
X123023809Y-114332857D01*
X123214285Y-114380476D01*
X123309523Y-114428095D01*
X123404761Y-114523333D01*
X123452380Y-114666190D01*
X123452380Y-114904285D01*
X123452380Y-113380476D02*
X123452380Y-113951904D01*
X123452380Y-113666190D02*
X122452380Y-113666190D01*
X122595238Y-113761428D01*
X122690476Y-113856666D01*
X122738095Y-113951904D01*
X122452380Y-113047142D02*
X122452380Y-112428095D01*
X122833333Y-112761428D01*
X122833333Y-112618571D01*
X122880952Y-112523333D01*
X122928571Y-112475714D01*
X123023809Y-112428095D01*
X123261904Y-112428095D01*
X123357142Y-112475714D01*
X123404761Y-112523333D01*
X123452380Y-112618571D01*
X123452380Y-112904285D01*
X123404761Y-112999523D01*
X123357142Y-113047142D01*
X133922380Y-101062857D02*
X133922380Y-101634285D01*
X133922380Y-101348571D02*
X132922380Y-101348571D01*
X133065238Y-101443809D01*
X133160476Y-101539047D01*
X133208095Y-101634285D01*
X133922380Y-100634285D02*
X132922380Y-100634285D01*
X133922380Y-100062857D01*
X132922380Y-100062857D01*
X133255714Y-99158095D02*
X133922380Y-99158095D01*
X132874761Y-99396190D02*
X133589047Y-99634285D01*
X133589047Y-99015238D01*
X132922380Y-98443809D02*
X132922380Y-98348571D01*
X132970000Y-98253333D01*
X133017619Y-98205714D01*
X133112857Y-98158095D01*
X133303333Y-98110476D01*
X133541428Y-98110476D01*
X133731904Y-98158095D01*
X133827142Y-98205714D01*
X133874761Y-98253333D01*
X133922380Y-98348571D01*
X133922380Y-98443809D01*
X133874761Y-98539047D01*
X133827142Y-98586666D01*
X133731904Y-98634285D01*
X133541428Y-98681904D01*
X133303333Y-98681904D01*
X133112857Y-98634285D01*
X133017619Y-98586666D01*
X132970000Y-98539047D01*
X132922380Y-98443809D01*
X132922380Y-97491428D02*
X132922380Y-97396190D01*
X132970000Y-97300952D01*
X133017619Y-97253333D01*
X133112857Y-97205714D01*
X133303333Y-97158095D01*
X133541428Y-97158095D01*
X133731904Y-97205714D01*
X133827142Y-97253333D01*
X133874761Y-97300952D01*
X133922380Y-97396190D01*
X133922380Y-97491428D01*
X133874761Y-97586666D01*
X133827142Y-97634285D01*
X133731904Y-97681904D01*
X133541428Y-97729523D01*
X133303333Y-97729523D01*
X133112857Y-97681904D01*
X133017619Y-97634285D01*
X132970000Y-97586666D01*
X132922380Y-97491428D01*
X132922380Y-96824761D02*
X132922380Y-96158095D01*
X133922380Y-96586666D01*
X131452380Y-99744285D02*
X130452380Y-99744285D01*
X130452380Y-99506190D01*
X130500000Y-99363333D01*
X130595238Y-99268095D01*
X130690476Y-99220476D01*
X130880952Y-99172857D01*
X131023809Y-99172857D01*
X131214285Y-99220476D01*
X131309523Y-99268095D01*
X131404761Y-99363333D01*
X131452380Y-99506190D01*
X131452380Y-99744285D01*
X131452380Y-98220476D02*
X131452380Y-98791904D01*
X131452380Y-98506190D02*
X130452380Y-98506190D01*
X130595238Y-98601428D01*
X130690476Y-98696666D01*
X130738095Y-98791904D01*
X130785714Y-97363333D02*
X131452380Y-97363333D01*
X130404761Y-97601428D02*
X131119047Y-97839523D01*
X131119047Y-97220476D01*
X129352380Y-104261904D02*
X128352380Y-104261904D01*
X129352380Y-103690476D02*
X128780952Y-104119047D01*
X128352380Y-103690476D02*
X128923809Y-104261904D01*
X133922380Y-116222857D02*
X133922380Y-116794285D01*
X133922380Y-116508571D02*
X132922380Y-116508571D01*
X133065238Y-116603809D01*
X133160476Y-116699047D01*
X133208095Y-116794285D01*
X133922380Y-115794285D02*
X132922380Y-115794285D01*
X133922380Y-115222857D01*
X132922380Y-115222857D01*
X133255714Y-114318095D02*
X133922380Y-114318095D01*
X132874761Y-114556190D02*
X133589047Y-114794285D01*
X133589047Y-114175238D01*
X132922380Y-113603809D02*
X132922380Y-113508571D01*
X132970000Y-113413333D01*
X133017619Y-113365714D01*
X133112857Y-113318095D01*
X133303333Y-113270476D01*
X133541428Y-113270476D01*
X133731904Y-113318095D01*
X133827142Y-113365714D01*
X133874761Y-113413333D01*
X133922380Y-113508571D01*
X133922380Y-113603809D01*
X133874761Y-113699047D01*
X133827142Y-113746666D01*
X133731904Y-113794285D01*
X133541428Y-113841904D01*
X133303333Y-113841904D01*
X133112857Y-113794285D01*
X133017619Y-113746666D01*
X132970000Y-113699047D01*
X132922380Y-113603809D01*
X132922380Y-112651428D02*
X132922380Y-112556190D01*
X132970000Y-112460952D01*
X133017619Y-112413333D01*
X133112857Y-112365714D01*
X133303333Y-112318095D01*
X133541428Y-112318095D01*
X133731904Y-112365714D01*
X133827142Y-112413333D01*
X133874761Y-112460952D01*
X133922380Y-112556190D01*
X133922380Y-112651428D01*
X133874761Y-112746666D01*
X133827142Y-112794285D01*
X133731904Y-112841904D01*
X133541428Y-112889523D01*
X133303333Y-112889523D01*
X133112857Y-112841904D01*
X133017619Y-112794285D01*
X132970000Y-112746666D01*
X132922380Y-112651428D01*
X132922380Y-111984761D02*
X132922380Y-111318095D01*
X133922380Y-111746666D01*
X129352380Y-119421904D02*
X128352380Y-119421904D01*
X129352380Y-118850476D02*
X128780952Y-119279047D01*
X128352380Y-118850476D02*
X128923809Y-119421904D01*
X131452380Y-114904285D02*
X130452380Y-114904285D01*
X130452380Y-114666190D01*
X130500000Y-114523333D01*
X130595238Y-114428095D01*
X130690476Y-114380476D01*
X130880952Y-114332857D01*
X131023809Y-114332857D01*
X131214285Y-114380476D01*
X131309523Y-114428095D01*
X131404761Y-114523333D01*
X131452380Y-114666190D01*
X131452380Y-114904285D01*
X131452380Y-113380476D02*
X131452380Y-113951904D01*
X131452380Y-113666190D02*
X130452380Y-113666190D01*
X130595238Y-113761428D01*
X130690476Y-113856666D01*
X130738095Y-113951904D01*
X130452380Y-112475714D02*
X130452380Y-112951904D01*
X130928571Y-112999523D01*
X130880952Y-112951904D01*
X130833333Y-112856666D01*
X130833333Y-112618571D01*
X130880952Y-112523333D01*
X130928571Y-112475714D01*
X131023809Y-112428095D01*
X131261904Y-112428095D01*
X131357142Y-112475714D01*
X131404761Y-112523333D01*
X131452380Y-112618571D01*
X131452380Y-112856666D01*
X131404761Y-112951904D01*
X131357142Y-112999523D01*
X71214285Y-137767142D02*
X71166666Y-137814761D01*
X71023809Y-137862380D01*
X70928571Y-137862380D01*
X70785714Y-137814761D01*
X70690476Y-137719523D01*
X70642857Y-137624285D01*
X70595238Y-137433809D01*
X70595238Y-137290952D01*
X70642857Y-137100476D01*
X70690476Y-137005238D01*
X70785714Y-136910000D01*
X70928571Y-136862380D01*
X71023809Y-136862380D01*
X71166666Y-136910000D01*
X71214285Y-136957619D01*
X71785714Y-137862380D02*
X71690476Y-137814761D01*
X71642857Y-137767142D01*
X71595238Y-137671904D01*
X71595238Y-137386190D01*
X71642857Y-137290952D01*
X71690476Y-137243333D01*
X71785714Y-137195714D01*
X71928571Y-137195714D01*
X72023809Y-137243333D01*
X72071428Y-137290952D01*
X72119047Y-137386190D01*
X72119047Y-137671904D01*
X72071428Y-137767142D01*
X72023809Y-137814761D01*
X71928571Y-137862380D01*
X71785714Y-137862380D01*
X72547619Y-137195714D02*
X72547619Y-137862380D01*
X72547619Y-137290952D02*
X72595238Y-137243333D01*
X72690476Y-137195714D01*
X72833333Y-137195714D01*
X72928571Y-137243333D01*
X72976190Y-137338571D01*
X72976190Y-137862380D01*
X73452380Y-137195714D02*
X73452380Y-137862380D01*
X73452380Y-137290952D02*
X73500000Y-137243333D01*
X73595238Y-137195714D01*
X73738095Y-137195714D01*
X73833333Y-137243333D01*
X73880952Y-137338571D01*
X73880952Y-137862380D01*
X74119047Y-137957619D02*
X74880952Y-137957619D01*
X75309523Y-136862380D02*
X75404761Y-136862380D01*
X75500000Y-136910000D01*
X75547619Y-136957619D01*
X75595238Y-137052857D01*
X75642857Y-137243333D01*
X75642857Y-137481428D01*
X75595238Y-137671904D01*
X75547619Y-137767142D01*
X75500000Y-137814761D01*
X75404761Y-137862380D01*
X75309523Y-137862380D01*
X75214285Y-137814761D01*
X75166666Y-137767142D01*
X75119047Y-137671904D01*
X75071428Y-137481428D01*
X75071428Y-137243333D01*
X75119047Y-137052857D01*
X75166666Y-136957619D01*
X75214285Y-136910000D01*
X75309523Y-136862380D01*
X76595238Y-137862380D02*
X76023809Y-137862380D01*
X76309523Y-137862380D02*
X76309523Y-136862380D01*
X76214285Y-137005238D01*
X76119047Y-137100476D01*
X76023809Y-137148095D01*
X76928571Y-137862380D02*
X77452380Y-137195714D01*
X76928571Y-137195714D02*
X77452380Y-137862380D01*
X78357142Y-137862380D02*
X77785714Y-137862380D01*
X78071428Y-137862380D02*
X78071428Y-136862380D01*
X77976190Y-137005238D01*
X77880952Y-137100476D01*
X77785714Y-137148095D01*
X78690476Y-136862380D02*
X79357142Y-136862380D01*
X78928571Y-137862380D01*
X79500000Y-137957619D02*
X80261904Y-137957619D01*
X80833333Y-137338571D02*
X80500000Y-137338571D01*
X80500000Y-137862380D02*
X80500000Y-136862380D01*
X80976190Y-136862380D01*
X81738095Y-137814761D02*
X81642857Y-137862380D01*
X81452380Y-137862380D01*
X81357142Y-137814761D01*
X81309523Y-137719523D01*
X81309523Y-137338571D01*
X81357142Y-137243333D01*
X81452380Y-137195714D01*
X81642857Y-137195714D01*
X81738095Y-137243333D01*
X81785714Y-137338571D01*
X81785714Y-137433809D01*
X81309523Y-137529047D01*
X82214285Y-137862380D02*
X82214285Y-137195714D01*
X82214285Y-137290952D02*
X82261904Y-137243333D01*
X82357142Y-137195714D01*
X82500000Y-137195714D01*
X82595238Y-137243333D01*
X82642857Y-137338571D01*
X82642857Y-137862380D01*
X82642857Y-137338571D02*
X82690476Y-137243333D01*
X82785714Y-137195714D01*
X82928571Y-137195714D01*
X83023809Y-137243333D01*
X83071428Y-137338571D01*
X83071428Y-137862380D01*
X83976190Y-137862380D02*
X83976190Y-137338571D01*
X83928571Y-137243333D01*
X83833333Y-137195714D01*
X83642857Y-137195714D01*
X83547619Y-137243333D01*
X83976190Y-137814761D02*
X83880952Y-137862380D01*
X83642857Y-137862380D01*
X83547619Y-137814761D01*
X83500000Y-137719523D01*
X83500000Y-137624285D01*
X83547619Y-137529047D01*
X83642857Y-137481428D01*
X83880952Y-137481428D01*
X83976190Y-137433809D01*
X84595238Y-137862380D02*
X84500000Y-137814761D01*
X84452380Y-137719523D01*
X84452380Y-136862380D01*
X85357142Y-137814761D02*
X85261904Y-137862380D01*
X85071428Y-137862380D01*
X84976190Y-137814761D01*
X84928571Y-137719523D01*
X84928571Y-137338571D01*
X84976190Y-137243333D01*
X85071428Y-137195714D01*
X85261904Y-137195714D01*
X85357142Y-137243333D01*
X85404761Y-137338571D01*
X85404761Y-137433809D01*
X84928571Y-137529047D01*
X77452380Y-114653333D02*
X78166666Y-114653333D01*
X78309523Y-114700952D01*
X78404761Y-114796190D01*
X78452380Y-114939047D01*
X78452380Y-115034285D01*
X78452380Y-113653333D02*
X78452380Y-114224761D01*
X78452380Y-113939047D02*
X77452380Y-113939047D01*
X77595238Y-114034285D01*
X77690476Y-114129523D01*
X77738095Y-114224761D01*
X82214285Y-103667142D02*
X82166666Y-103714761D01*
X82023809Y-103762380D01*
X81928571Y-103762380D01*
X81785714Y-103714761D01*
X81690476Y-103619523D01*
X81642857Y-103524285D01*
X81595238Y-103333809D01*
X81595238Y-103190952D01*
X81642857Y-103000476D01*
X81690476Y-102905238D01*
X81785714Y-102810000D01*
X81928571Y-102762380D01*
X82023809Y-102762380D01*
X82166666Y-102810000D01*
X82214285Y-102857619D01*
X82785714Y-103762380D02*
X82690476Y-103714761D01*
X82642857Y-103667142D01*
X82595238Y-103571904D01*
X82595238Y-103286190D01*
X82642857Y-103190952D01*
X82690476Y-103143333D01*
X82785714Y-103095714D01*
X82928571Y-103095714D01*
X83023809Y-103143333D01*
X83071428Y-103190952D01*
X83119047Y-103286190D01*
X83119047Y-103571904D01*
X83071428Y-103667142D01*
X83023809Y-103714761D01*
X82928571Y-103762380D01*
X82785714Y-103762380D01*
X83547619Y-103095714D02*
X83547619Y-103762380D01*
X83547619Y-103190952D02*
X83595238Y-103143333D01*
X83690476Y-103095714D01*
X83833333Y-103095714D01*
X83928571Y-103143333D01*
X83976190Y-103238571D01*
X83976190Y-103762380D01*
X84452380Y-103095714D02*
X84452380Y-103762380D01*
X84452380Y-103190952D02*
X84500000Y-103143333D01*
X84595238Y-103095714D01*
X84738095Y-103095714D01*
X84833333Y-103143333D01*
X84880952Y-103238571D01*
X84880952Y-103762380D01*
X85119047Y-103857619D02*
X85880952Y-103857619D01*
X86309523Y-102762380D02*
X86404761Y-102762380D01*
X86500000Y-102810000D01*
X86547619Y-102857619D01*
X86595238Y-102952857D01*
X86642857Y-103143333D01*
X86642857Y-103381428D01*
X86595238Y-103571904D01*
X86547619Y-103667142D01*
X86500000Y-103714761D01*
X86404761Y-103762380D01*
X86309523Y-103762380D01*
X86214285Y-103714761D01*
X86166666Y-103667142D01*
X86119047Y-103571904D01*
X86071428Y-103381428D01*
X86071428Y-103143333D01*
X86119047Y-102952857D01*
X86166666Y-102857619D01*
X86214285Y-102810000D01*
X86309523Y-102762380D01*
X87595238Y-103762380D02*
X87023809Y-103762380D01*
X87309523Y-103762380D02*
X87309523Y-102762380D01*
X87214285Y-102905238D01*
X87119047Y-103000476D01*
X87023809Y-103048095D01*
X87928571Y-103762380D02*
X88452380Y-103095714D01*
X87928571Y-103095714D02*
X88452380Y-103762380D01*
X89023809Y-102762380D02*
X89119047Y-102762380D01*
X89214285Y-102810000D01*
X89261904Y-102857619D01*
X89309523Y-102952857D01*
X89357142Y-103143333D01*
X89357142Y-103381428D01*
X89309523Y-103571904D01*
X89261904Y-103667142D01*
X89214285Y-103714761D01*
X89119047Y-103762380D01*
X89023809Y-103762380D01*
X88928571Y-103714761D01*
X88880952Y-103667142D01*
X88833333Y-103571904D01*
X88785714Y-103381428D01*
X88785714Y-103143333D01*
X88833333Y-102952857D01*
X88880952Y-102857619D01*
X88928571Y-102810000D01*
X89023809Y-102762380D01*
X89738095Y-102857619D02*
X89785714Y-102810000D01*
X89880952Y-102762380D01*
X90119047Y-102762380D01*
X90214285Y-102810000D01*
X90261904Y-102857619D01*
X90309523Y-102952857D01*
X90309523Y-103048095D01*
X90261904Y-103190952D01*
X89690476Y-103762380D01*
X90309523Y-103762380D01*
X90500000Y-103857619D02*
X91261904Y-103857619D01*
X91833333Y-103238571D02*
X91500000Y-103238571D01*
X91500000Y-103762380D02*
X91500000Y-102762380D01*
X91976190Y-102762380D01*
X92738095Y-103714761D02*
X92642857Y-103762380D01*
X92452380Y-103762380D01*
X92357142Y-103714761D01*
X92309523Y-103619523D01*
X92309523Y-103238571D01*
X92357142Y-103143333D01*
X92452380Y-103095714D01*
X92642857Y-103095714D01*
X92738095Y-103143333D01*
X92785714Y-103238571D01*
X92785714Y-103333809D01*
X92309523Y-103429047D01*
X93214285Y-103762380D02*
X93214285Y-103095714D01*
X93214285Y-103190952D02*
X93261904Y-103143333D01*
X93357142Y-103095714D01*
X93500000Y-103095714D01*
X93595238Y-103143333D01*
X93642857Y-103238571D01*
X93642857Y-103762380D01*
X93642857Y-103238571D02*
X93690476Y-103143333D01*
X93785714Y-103095714D01*
X93928571Y-103095714D01*
X94023809Y-103143333D01*
X94071428Y-103238571D01*
X94071428Y-103762380D01*
X94976190Y-103762380D02*
X94976190Y-103238571D01*
X94928571Y-103143333D01*
X94833333Y-103095714D01*
X94642857Y-103095714D01*
X94547619Y-103143333D01*
X94976190Y-103714761D02*
X94880952Y-103762380D01*
X94642857Y-103762380D01*
X94547619Y-103714761D01*
X94500000Y-103619523D01*
X94500000Y-103524285D01*
X94547619Y-103429047D01*
X94642857Y-103381428D01*
X94880952Y-103381428D01*
X94976190Y-103333809D01*
X95595238Y-103762380D02*
X95500000Y-103714761D01*
X95452380Y-103619523D01*
X95452380Y-102762380D01*
X96357142Y-103714761D02*
X96261904Y-103762380D01*
X96071428Y-103762380D01*
X95976190Y-103714761D01*
X95928571Y-103619523D01*
X95928571Y-103238571D01*
X95976190Y-103143333D01*
X96071428Y-103095714D01*
X96261904Y-103095714D01*
X96357142Y-103143333D01*
X96404761Y-103238571D01*
X96404761Y-103333809D01*
X95928571Y-103429047D01*
X88452380Y-99603333D02*
X89166666Y-99603333D01*
X89309523Y-99650952D01*
X89404761Y-99746190D01*
X89452380Y-99889047D01*
X89452380Y-99984285D01*
X88547619Y-99174761D02*
X88500000Y-99127142D01*
X88452380Y-99031904D01*
X88452380Y-98793809D01*
X88500000Y-98698571D01*
X88547619Y-98650952D01*
X88642857Y-98603333D01*
X88738095Y-98603333D01*
X88880952Y-98650952D01*
X89452380Y-99222380D01*
X89452380Y-98603333D01*
X84214285Y-137747142D02*
X84166666Y-137794761D01*
X84023809Y-137842380D01*
X83928571Y-137842380D01*
X83785714Y-137794761D01*
X83690476Y-137699523D01*
X83642857Y-137604285D01*
X83595238Y-137413809D01*
X83595238Y-137270952D01*
X83642857Y-137080476D01*
X83690476Y-136985238D01*
X83785714Y-136890000D01*
X83928571Y-136842380D01*
X84023809Y-136842380D01*
X84166666Y-136890000D01*
X84214285Y-136937619D01*
X84785714Y-137842380D02*
X84690476Y-137794761D01*
X84642857Y-137747142D01*
X84595238Y-137651904D01*
X84595238Y-137366190D01*
X84642857Y-137270952D01*
X84690476Y-137223333D01*
X84785714Y-137175714D01*
X84928571Y-137175714D01*
X85023809Y-137223333D01*
X85071428Y-137270952D01*
X85119047Y-137366190D01*
X85119047Y-137651904D01*
X85071428Y-137747142D01*
X85023809Y-137794761D01*
X84928571Y-137842380D01*
X84785714Y-137842380D01*
X85547619Y-137175714D02*
X85547619Y-137842380D01*
X85547619Y-137270952D02*
X85595238Y-137223333D01*
X85690476Y-137175714D01*
X85833333Y-137175714D01*
X85928571Y-137223333D01*
X85976190Y-137318571D01*
X85976190Y-137842380D01*
X86452380Y-137175714D02*
X86452380Y-137842380D01*
X86452380Y-137270952D02*
X86500000Y-137223333D01*
X86595238Y-137175714D01*
X86738095Y-137175714D01*
X86833333Y-137223333D01*
X86880952Y-137318571D01*
X86880952Y-137842380D01*
X87119047Y-137937619D02*
X87880952Y-137937619D01*
X88309523Y-136842380D02*
X88404761Y-136842380D01*
X88500000Y-136890000D01*
X88547619Y-136937619D01*
X88595238Y-137032857D01*
X88642857Y-137223333D01*
X88642857Y-137461428D01*
X88595238Y-137651904D01*
X88547619Y-137747142D01*
X88500000Y-137794761D01*
X88404761Y-137842380D01*
X88309523Y-137842380D01*
X88214285Y-137794761D01*
X88166666Y-137747142D01*
X88119047Y-137651904D01*
X88071428Y-137461428D01*
X88071428Y-137223333D01*
X88119047Y-137032857D01*
X88166666Y-136937619D01*
X88214285Y-136890000D01*
X88309523Y-136842380D01*
X89595238Y-137842380D02*
X89023809Y-137842380D01*
X89309523Y-137842380D02*
X89309523Y-136842380D01*
X89214285Y-136985238D01*
X89119047Y-137080476D01*
X89023809Y-137128095D01*
X89928571Y-137842380D02*
X90452380Y-137175714D01*
X89928571Y-137175714D02*
X90452380Y-137842380D01*
X91023809Y-136842380D02*
X91119047Y-136842380D01*
X91214285Y-136890000D01*
X91261904Y-136937619D01*
X91309523Y-137032857D01*
X91357142Y-137223333D01*
X91357142Y-137461428D01*
X91309523Y-137651904D01*
X91261904Y-137747142D01*
X91214285Y-137794761D01*
X91119047Y-137842380D01*
X91023809Y-137842380D01*
X90928571Y-137794761D01*
X90880952Y-137747142D01*
X90833333Y-137651904D01*
X90785714Y-137461428D01*
X90785714Y-137223333D01*
X90833333Y-137032857D01*
X90880952Y-136937619D01*
X90928571Y-136890000D01*
X91023809Y-136842380D01*
X92214285Y-137175714D02*
X92214285Y-137842380D01*
X91976190Y-136794761D02*
X91738095Y-137509047D01*
X92357142Y-137509047D01*
X92500000Y-137937619D02*
X93261904Y-137937619D01*
X93833333Y-137318571D02*
X93500000Y-137318571D01*
X93500000Y-137842380D02*
X93500000Y-136842380D01*
X93976190Y-136842380D01*
X94738095Y-137794761D02*
X94642857Y-137842380D01*
X94452380Y-137842380D01*
X94357142Y-137794761D01*
X94309523Y-137699523D01*
X94309523Y-137318571D01*
X94357142Y-137223333D01*
X94452380Y-137175714D01*
X94642857Y-137175714D01*
X94738095Y-137223333D01*
X94785714Y-137318571D01*
X94785714Y-137413809D01*
X94309523Y-137509047D01*
X95214285Y-137842380D02*
X95214285Y-137175714D01*
X95214285Y-137270952D02*
X95261904Y-137223333D01*
X95357142Y-137175714D01*
X95500000Y-137175714D01*
X95595238Y-137223333D01*
X95642857Y-137318571D01*
X95642857Y-137842380D01*
X95642857Y-137318571D02*
X95690476Y-137223333D01*
X95785714Y-137175714D01*
X95928571Y-137175714D01*
X96023809Y-137223333D01*
X96071428Y-137318571D01*
X96071428Y-137842380D01*
X96976190Y-137842380D02*
X96976190Y-137318571D01*
X96928571Y-137223333D01*
X96833333Y-137175714D01*
X96642857Y-137175714D01*
X96547619Y-137223333D01*
X96976190Y-137794761D02*
X96880952Y-137842380D01*
X96642857Y-137842380D01*
X96547619Y-137794761D01*
X96500000Y-137699523D01*
X96500000Y-137604285D01*
X96547619Y-137509047D01*
X96642857Y-137461428D01*
X96880952Y-137461428D01*
X96976190Y-137413809D01*
X97595238Y-137842380D02*
X97500000Y-137794761D01*
X97452380Y-137699523D01*
X97452380Y-136842380D01*
X98357142Y-137794761D02*
X98261904Y-137842380D01*
X98071428Y-137842380D01*
X97976190Y-137794761D01*
X97928571Y-137699523D01*
X97928571Y-137318571D01*
X97976190Y-137223333D01*
X98071428Y-137175714D01*
X98261904Y-137175714D01*
X98357142Y-137223333D01*
X98404761Y-137318571D01*
X98404761Y-137413809D01*
X97928571Y-137509047D01*
X90452380Y-131143333D02*
X91166666Y-131143333D01*
X91309523Y-131190952D01*
X91404761Y-131286190D01*
X91452380Y-131429047D01*
X91452380Y-131524285D01*
X90452380Y-130762380D02*
X90452380Y-130143333D01*
X90833333Y-130476666D01*
X90833333Y-130333809D01*
X90880952Y-130238571D01*
X90928571Y-130190952D01*
X91023809Y-130143333D01*
X91261904Y-130143333D01*
X91357142Y-130190952D01*
X91404761Y-130238571D01*
X91452380Y-130333809D01*
X91452380Y-130619523D01*
X91404761Y-130714761D01*
X91357142Y-130762380D01*
X82214285Y-117747142D02*
X82166666Y-117794761D01*
X82023809Y-117842380D01*
X81928571Y-117842380D01*
X81785714Y-117794761D01*
X81690476Y-117699523D01*
X81642857Y-117604285D01*
X81595238Y-117413809D01*
X81595238Y-117270952D01*
X81642857Y-117080476D01*
X81690476Y-116985238D01*
X81785714Y-116890000D01*
X81928571Y-116842380D01*
X82023809Y-116842380D01*
X82166666Y-116890000D01*
X82214285Y-116937619D01*
X82785714Y-117842380D02*
X82690476Y-117794761D01*
X82642857Y-117747142D01*
X82595238Y-117651904D01*
X82595238Y-117366190D01*
X82642857Y-117270952D01*
X82690476Y-117223333D01*
X82785714Y-117175714D01*
X82928571Y-117175714D01*
X83023809Y-117223333D01*
X83071428Y-117270952D01*
X83119047Y-117366190D01*
X83119047Y-117651904D01*
X83071428Y-117747142D01*
X83023809Y-117794761D01*
X82928571Y-117842380D01*
X82785714Y-117842380D01*
X83547619Y-117175714D02*
X83547619Y-117842380D01*
X83547619Y-117270952D02*
X83595238Y-117223333D01*
X83690476Y-117175714D01*
X83833333Y-117175714D01*
X83928571Y-117223333D01*
X83976190Y-117318571D01*
X83976190Y-117842380D01*
X84452380Y-117175714D02*
X84452380Y-117842380D01*
X84452380Y-117270952D02*
X84500000Y-117223333D01*
X84595238Y-117175714D01*
X84738095Y-117175714D01*
X84833333Y-117223333D01*
X84880952Y-117318571D01*
X84880952Y-117842380D01*
X85119047Y-117937619D02*
X85880952Y-117937619D01*
X86309523Y-116842380D02*
X86404761Y-116842380D01*
X86500000Y-116890000D01*
X86547619Y-116937619D01*
X86595238Y-117032857D01*
X86642857Y-117223333D01*
X86642857Y-117461428D01*
X86595238Y-117651904D01*
X86547619Y-117747142D01*
X86500000Y-117794761D01*
X86404761Y-117842380D01*
X86309523Y-117842380D01*
X86214285Y-117794761D01*
X86166666Y-117747142D01*
X86119047Y-117651904D01*
X86071428Y-117461428D01*
X86071428Y-117223333D01*
X86119047Y-117032857D01*
X86166666Y-116937619D01*
X86214285Y-116890000D01*
X86309523Y-116842380D01*
X87595238Y-117842380D02*
X87023809Y-117842380D01*
X87309523Y-117842380D02*
X87309523Y-116842380D01*
X87214285Y-116985238D01*
X87119047Y-117080476D01*
X87023809Y-117128095D01*
X87928571Y-117842380D02*
X88452380Y-117175714D01*
X87928571Y-117175714D02*
X88452380Y-117842380D01*
X89023809Y-116842380D02*
X89119047Y-116842380D01*
X89214285Y-116890000D01*
X89261904Y-116937619D01*
X89309523Y-117032857D01*
X89357142Y-117223333D01*
X89357142Y-117461428D01*
X89309523Y-117651904D01*
X89261904Y-117747142D01*
X89214285Y-117794761D01*
X89119047Y-117842380D01*
X89023809Y-117842380D01*
X88928571Y-117794761D01*
X88880952Y-117747142D01*
X88833333Y-117651904D01*
X88785714Y-117461428D01*
X88785714Y-117223333D01*
X88833333Y-117032857D01*
X88880952Y-116937619D01*
X88928571Y-116890000D01*
X89023809Y-116842380D01*
X90214285Y-117175714D02*
X90214285Y-117842380D01*
X89976190Y-116794761D02*
X89738095Y-117509047D01*
X90357142Y-117509047D01*
X90500000Y-117937619D02*
X91261904Y-117937619D01*
X91833333Y-117318571D02*
X91500000Y-117318571D01*
X91500000Y-117842380D02*
X91500000Y-116842380D01*
X91976190Y-116842380D01*
X92738095Y-117794761D02*
X92642857Y-117842380D01*
X92452380Y-117842380D01*
X92357142Y-117794761D01*
X92309523Y-117699523D01*
X92309523Y-117318571D01*
X92357142Y-117223333D01*
X92452380Y-117175714D01*
X92642857Y-117175714D01*
X92738095Y-117223333D01*
X92785714Y-117318571D01*
X92785714Y-117413809D01*
X92309523Y-117509047D01*
X93214285Y-117842380D02*
X93214285Y-117175714D01*
X93214285Y-117270952D02*
X93261904Y-117223333D01*
X93357142Y-117175714D01*
X93500000Y-117175714D01*
X93595238Y-117223333D01*
X93642857Y-117318571D01*
X93642857Y-117842380D01*
X93642857Y-117318571D02*
X93690476Y-117223333D01*
X93785714Y-117175714D01*
X93928571Y-117175714D01*
X94023809Y-117223333D01*
X94071428Y-117318571D01*
X94071428Y-117842380D01*
X94976190Y-117842380D02*
X94976190Y-117318571D01*
X94928571Y-117223333D01*
X94833333Y-117175714D01*
X94642857Y-117175714D01*
X94547619Y-117223333D01*
X94976190Y-117794761D02*
X94880952Y-117842380D01*
X94642857Y-117842380D01*
X94547619Y-117794761D01*
X94500000Y-117699523D01*
X94500000Y-117604285D01*
X94547619Y-117509047D01*
X94642857Y-117461428D01*
X94880952Y-117461428D01*
X94976190Y-117413809D01*
X95595238Y-117842380D02*
X95500000Y-117794761D01*
X95452380Y-117699523D01*
X95452380Y-116842380D01*
X96357142Y-117794761D02*
X96261904Y-117842380D01*
X96071428Y-117842380D01*
X95976190Y-117794761D01*
X95928571Y-117699523D01*
X95928571Y-117318571D01*
X95976190Y-117223333D01*
X96071428Y-117175714D01*
X96261904Y-117175714D01*
X96357142Y-117223333D01*
X96404761Y-117318571D01*
X96404761Y-117413809D01*
X95928571Y-117509047D01*
X88452380Y-111143333D02*
X89166666Y-111143333D01*
X89309523Y-111190952D01*
X89404761Y-111286190D01*
X89452380Y-111429047D01*
X89452380Y-111524285D01*
X88785714Y-110238571D02*
X89452380Y-110238571D01*
X88404761Y-110476666D02*
X89119047Y-110714761D01*
X89119047Y-110095714D01*
X92166666Y-116787142D02*
X92119047Y-116834761D01*
X91976190Y-116882380D01*
X91880952Y-116882380D01*
X91738095Y-116834761D01*
X91642857Y-116739523D01*
X91595238Y-116644285D01*
X91547619Y-116453809D01*
X91547619Y-116310952D01*
X91595238Y-116120476D01*
X91642857Y-116025238D01*
X91738095Y-115930000D01*
X91880952Y-115882380D01*
X91976190Y-115882380D01*
X92119047Y-115930000D01*
X92166666Y-115977619D01*
X92738095Y-116882380D02*
X92642857Y-116834761D01*
X92595238Y-116787142D01*
X92547619Y-116691904D01*
X92547619Y-116406190D01*
X92595238Y-116310952D01*
X92642857Y-116263333D01*
X92738095Y-116215714D01*
X92880952Y-116215714D01*
X92976190Y-116263333D01*
X93023809Y-116310952D01*
X93071428Y-116406190D01*
X93071428Y-116691904D01*
X93023809Y-116787142D01*
X92976190Y-116834761D01*
X92880952Y-116882380D01*
X92738095Y-116882380D01*
X93500000Y-116215714D02*
X93500000Y-116882380D01*
X93500000Y-116310952D02*
X93547619Y-116263333D01*
X93642857Y-116215714D01*
X93785714Y-116215714D01*
X93880952Y-116263333D01*
X93928571Y-116358571D01*
X93928571Y-116882380D01*
X94404761Y-116215714D02*
X94404761Y-116882380D01*
X94404761Y-116310952D02*
X94452380Y-116263333D01*
X94547619Y-116215714D01*
X94690476Y-116215714D01*
X94785714Y-116263333D01*
X94833333Y-116358571D01*
X94833333Y-116882380D01*
X95071428Y-116977619D02*
X95833333Y-116977619D01*
X96261904Y-115882380D02*
X96357142Y-115882380D01*
X96452380Y-115930000D01*
X96500000Y-115977619D01*
X96547619Y-116072857D01*
X96595238Y-116263333D01*
X96595238Y-116501428D01*
X96547619Y-116691904D01*
X96500000Y-116787142D01*
X96452380Y-116834761D01*
X96357142Y-116882380D01*
X96261904Y-116882380D01*
X96166666Y-116834761D01*
X96119047Y-116787142D01*
X96071428Y-116691904D01*
X96023809Y-116501428D01*
X96023809Y-116263333D01*
X96071428Y-116072857D01*
X96119047Y-115977619D01*
X96166666Y-115930000D01*
X96261904Y-115882380D01*
X97547619Y-116882380D02*
X96976190Y-116882380D01*
X97261904Y-116882380D02*
X97261904Y-115882380D01*
X97166666Y-116025238D01*
X97071428Y-116120476D01*
X96976190Y-116168095D01*
X97880952Y-116882380D02*
X98404761Y-116215714D01*
X97880952Y-116215714D02*
X98404761Y-116882380D01*
X98976190Y-115882380D02*
X99071428Y-115882380D01*
X99166666Y-115930000D01*
X99214285Y-115977619D01*
X99261904Y-116072857D01*
X99309523Y-116263333D01*
X99309523Y-116501428D01*
X99261904Y-116691904D01*
X99214285Y-116787142D01*
X99166666Y-116834761D01*
X99071428Y-116882380D01*
X98976190Y-116882380D01*
X98880952Y-116834761D01*
X98833333Y-116787142D01*
X98785714Y-116691904D01*
X98738095Y-116501428D01*
X98738095Y-116263333D01*
X98785714Y-116072857D01*
X98833333Y-115977619D01*
X98880952Y-115930000D01*
X98976190Y-115882380D01*
X99642857Y-115882380D02*
X100309523Y-115882380D01*
X99880952Y-116882380D01*
X100452380Y-116977619D02*
X101214285Y-116977619D01*
X101452380Y-116882380D02*
X101452380Y-115882380D01*
X101785714Y-116596666D01*
X102119047Y-115882380D01*
X102119047Y-116882380D01*
X103023809Y-116882380D02*
X103023809Y-116358571D01*
X102976190Y-116263333D01*
X102880952Y-116215714D01*
X102690476Y-116215714D01*
X102595238Y-116263333D01*
X103023809Y-116834761D02*
X102928571Y-116882380D01*
X102690476Y-116882380D01*
X102595238Y-116834761D01*
X102547619Y-116739523D01*
X102547619Y-116644285D01*
X102595238Y-116549047D01*
X102690476Y-116501428D01*
X102928571Y-116501428D01*
X103023809Y-116453809D01*
X103642857Y-116882380D02*
X103547619Y-116834761D01*
X103500000Y-116739523D01*
X103500000Y-115882380D01*
X104404761Y-116834761D02*
X104309523Y-116882380D01*
X104119047Y-116882380D01*
X104023809Y-116834761D01*
X103976190Y-116739523D01*
X103976190Y-116358571D01*
X104023809Y-116263333D01*
X104119047Y-116215714D01*
X104309523Y-116215714D01*
X104404761Y-116263333D01*
X104452380Y-116358571D01*
X104452380Y-116453809D01*
X103976190Y-116549047D01*
X97452380Y-126713333D02*
X98166666Y-126713333D01*
X98309523Y-126760952D01*
X98404761Y-126856190D01*
X98452380Y-126999047D01*
X98452380Y-127094285D01*
X97452380Y-125760952D02*
X97452380Y-126237142D01*
X97928571Y-126284761D01*
X97880952Y-126237142D01*
X97833333Y-126141904D01*
X97833333Y-125903809D01*
X97880952Y-125808571D01*
X97928571Y-125760952D01*
X98023809Y-125713333D01*
X98261904Y-125713333D01*
X98357142Y-125760952D01*
X98404761Y-125808571D01*
X98452380Y-125903809D01*
X98452380Y-126141904D01*
X98404761Y-126237142D01*
X98357142Y-126284761D01*
X129667142Y-140785714D02*
X129714761Y-140833333D01*
X129762380Y-140976190D01*
X129762380Y-141071428D01*
X129714761Y-141214285D01*
X129619523Y-141309523D01*
X129524285Y-141357142D01*
X129333809Y-141404761D01*
X129190952Y-141404761D01*
X129000476Y-141357142D01*
X128905238Y-141309523D01*
X128810000Y-141214285D01*
X128762380Y-141071428D01*
X128762380Y-140976190D01*
X128810000Y-140833333D01*
X128857619Y-140785714D01*
X129762380Y-140214285D02*
X129714761Y-140309523D01*
X129667142Y-140357142D01*
X129571904Y-140404761D01*
X129286190Y-140404761D01*
X129190952Y-140357142D01*
X129143333Y-140309523D01*
X129095714Y-140214285D01*
X129095714Y-140071428D01*
X129143333Y-139976190D01*
X129190952Y-139928571D01*
X129286190Y-139880952D01*
X129571904Y-139880952D01*
X129667142Y-139928571D01*
X129714761Y-139976190D01*
X129762380Y-140071428D01*
X129762380Y-140214285D01*
X129095714Y-139452380D02*
X129762380Y-139452380D01*
X129190952Y-139452380D02*
X129143333Y-139404761D01*
X129095714Y-139309523D01*
X129095714Y-139166666D01*
X129143333Y-139071428D01*
X129238571Y-139023809D01*
X129762380Y-139023809D01*
X129095714Y-138547619D02*
X129762380Y-138547619D01*
X129190952Y-138547619D02*
X129143333Y-138500000D01*
X129095714Y-138404761D01*
X129095714Y-138261904D01*
X129143333Y-138166666D01*
X129238571Y-138119047D01*
X129762380Y-138119047D01*
X129857619Y-137880952D02*
X129857619Y-137119047D01*
X128762380Y-136690476D02*
X128762380Y-136595238D01*
X128810000Y-136500000D01*
X128857619Y-136452380D01*
X128952857Y-136404761D01*
X129143333Y-136357142D01*
X129381428Y-136357142D01*
X129571904Y-136404761D01*
X129667142Y-136452380D01*
X129714761Y-136500000D01*
X129762380Y-136595238D01*
X129762380Y-136690476D01*
X129714761Y-136785714D01*
X129667142Y-136833333D01*
X129571904Y-136880952D01*
X129381428Y-136928571D01*
X129143333Y-136928571D01*
X128952857Y-136880952D01*
X128857619Y-136833333D01*
X128810000Y-136785714D01*
X128762380Y-136690476D01*
X129762380Y-135404761D02*
X129762380Y-135976190D01*
X129762380Y-135690476D02*
X128762380Y-135690476D01*
X128905238Y-135785714D01*
X129000476Y-135880952D01*
X129048095Y-135976190D01*
X129762380Y-135071428D02*
X129095714Y-134547619D01*
X129095714Y-135071428D02*
X129762380Y-134547619D01*
X128762380Y-133976190D02*
X128762380Y-133880952D01*
X128810000Y-133785714D01*
X128857619Y-133738095D01*
X128952857Y-133690476D01*
X129143333Y-133642857D01*
X129381428Y-133642857D01*
X129571904Y-133690476D01*
X129667142Y-133738095D01*
X129714761Y-133785714D01*
X129762380Y-133880952D01*
X129762380Y-133976190D01*
X129714761Y-134071428D01*
X129667142Y-134119047D01*
X129571904Y-134166666D01*
X129381428Y-134214285D01*
X129143333Y-134214285D01*
X128952857Y-134166666D01*
X128857619Y-134119047D01*
X128810000Y-134071428D01*
X128762380Y-133976190D01*
X128857619Y-133261904D02*
X128810000Y-133214285D01*
X128762380Y-133119047D01*
X128762380Y-132880952D01*
X128810000Y-132785714D01*
X128857619Y-132738095D01*
X128952857Y-132690476D01*
X129048095Y-132690476D01*
X129190952Y-132738095D01*
X129762380Y-133309523D01*
X129762380Y-132690476D01*
X129857619Y-132500000D02*
X129857619Y-131738095D01*
X129238571Y-131166666D02*
X129238571Y-131500000D01*
X129762380Y-131500000D02*
X128762380Y-131500000D01*
X128762380Y-131023809D01*
X129714761Y-130261904D02*
X129762380Y-130357142D01*
X129762380Y-130547619D01*
X129714761Y-130642857D01*
X129619523Y-130690476D01*
X129238571Y-130690476D01*
X129143333Y-130642857D01*
X129095714Y-130547619D01*
X129095714Y-130357142D01*
X129143333Y-130261904D01*
X129238571Y-130214285D01*
X129333809Y-130214285D01*
X129429047Y-130690476D01*
X129762380Y-129785714D02*
X129095714Y-129785714D01*
X129190952Y-129785714D02*
X129143333Y-129738095D01*
X129095714Y-129642857D01*
X129095714Y-129500000D01*
X129143333Y-129404761D01*
X129238571Y-129357142D01*
X129762380Y-129357142D01*
X129238571Y-129357142D02*
X129143333Y-129309523D01*
X129095714Y-129214285D01*
X129095714Y-129071428D01*
X129143333Y-128976190D01*
X129238571Y-128928571D01*
X129762380Y-128928571D01*
X129762380Y-128023809D02*
X129238571Y-128023809D01*
X129143333Y-128071428D01*
X129095714Y-128166666D01*
X129095714Y-128357142D01*
X129143333Y-128452380D01*
X129714761Y-128023809D02*
X129762380Y-128119047D01*
X129762380Y-128357142D01*
X129714761Y-128452380D01*
X129619523Y-128500000D01*
X129524285Y-128500000D01*
X129429047Y-128452380D01*
X129381428Y-128357142D01*
X129381428Y-128119047D01*
X129333809Y-128023809D01*
X129762380Y-127404761D02*
X129714761Y-127500000D01*
X129619523Y-127547619D01*
X128762380Y-127547619D01*
X129714761Y-126642857D02*
X129762380Y-126738095D01*
X129762380Y-126928571D01*
X129714761Y-127023809D01*
X129619523Y-127071428D01*
X129238571Y-127071428D01*
X129143333Y-127023809D01*
X129095714Y-126928571D01*
X129095714Y-126738095D01*
X129143333Y-126642857D01*
X129238571Y-126595238D01*
X129333809Y-126595238D01*
X129429047Y-127071428D01*
X124936666Y-133452380D02*
X124936666Y-134166666D01*
X124889047Y-134309523D01*
X124793809Y-134404761D01*
X124650952Y-134452380D01*
X124555714Y-134452380D01*
X125841428Y-133452380D02*
X125650952Y-133452380D01*
X125555714Y-133500000D01*
X125508095Y-133547619D01*
X125412857Y-133690476D01*
X125365238Y-133880952D01*
X125365238Y-134261904D01*
X125412857Y-134357142D01*
X125460476Y-134404761D01*
X125555714Y-134452380D01*
X125746190Y-134452380D01*
X125841428Y-134404761D01*
X125889047Y-134357142D01*
X125936666Y-134261904D01*
X125936666Y-134023809D01*
X125889047Y-133928571D01*
X125841428Y-133880952D01*
X125746190Y-133833333D01*
X125555714Y-133833333D01*
X125460476Y-133880952D01*
X125412857Y-133928571D01*
X125365238Y-134023809D01*
X79214285Y-137127142D02*
X79166666Y-137174761D01*
X79023809Y-137222380D01*
X78928571Y-137222380D01*
X78785714Y-137174761D01*
X78690476Y-137079523D01*
X78642857Y-136984285D01*
X78595238Y-136793809D01*
X78595238Y-136650952D01*
X78642857Y-136460476D01*
X78690476Y-136365238D01*
X78785714Y-136270000D01*
X78928571Y-136222380D01*
X79023809Y-136222380D01*
X79166666Y-136270000D01*
X79214285Y-136317619D01*
X79785714Y-137222380D02*
X79690476Y-137174761D01*
X79642857Y-137127142D01*
X79595238Y-137031904D01*
X79595238Y-136746190D01*
X79642857Y-136650952D01*
X79690476Y-136603333D01*
X79785714Y-136555714D01*
X79928571Y-136555714D01*
X80023809Y-136603333D01*
X80071428Y-136650952D01*
X80119047Y-136746190D01*
X80119047Y-137031904D01*
X80071428Y-137127142D01*
X80023809Y-137174761D01*
X79928571Y-137222380D01*
X79785714Y-137222380D01*
X80547619Y-136555714D02*
X80547619Y-137222380D01*
X80547619Y-136650952D02*
X80595238Y-136603333D01*
X80690476Y-136555714D01*
X80833333Y-136555714D01*
X80928571Y-136603333D01*
X80976190Y-136698571D01*
X80976190Y-137222380D01*
X81452380Y-136555714D02*
X81452380Y-137222380D01*
X81452380Y-136650952D02*
X81500000Y-136603333D01*
X81595238Y-136555714D01*
X81738095Y-136555714D01*
X81833333Y-136603333D01*
X81880952Y-136698571D01*
X81880952Y-137222380D01*
X82119047Y-137317619D02*
X82880952Y-137317619D01*
X83309523Y-136222380D02*
X83404761Y-136222380D01*
X83500000Y-136270000D01*
X83547619Y-136317619D01*
X83595238Y-136412857D01*
X83642857Y-136603333D01*
X83642857Y-136841428D01*
X83595238Y-137031904D01*
X83547619Y-137127142D01*
X83500000Y-137174761D01*
X83404761Y-137222380D01*
X83309523Y-137222380D01*
X83214285Y-137174761D01*
X83166666Y-137127142D01*
X83119047Y-137031904D01*
X83071428Y-136841428D01*
X83071428Y-136603333D01*
X83119047Y-136412857D01*
X83166666Y-136317619D01*
X83214285Y-136270000D01*
X83309523Y-136222380D01*
X84595238Y-137222380D02*
X84023809Y-137222380D01*
X84309523Y-137222380D02*
X84309523Y-136222380D01*
X84214285Y-136365238D01*
X84119047Y-136460476D01*
X84023809Y-136508095D01*
X84928571Y-137222380D02*
X85452380Y-136555714D01*
X84928571Y-136555714D02*
X85452380Y-137222380D01*
X86023809Y-136222380D02*
X86119047Y-136222380D01*
X86214285Y-136270000D01*
X86261904Y-136317619D01*
X86309523Y-136412857D01*
X86357142Y-136603333D01*
X86357142Y-136841428D01*
X86309523Y-137031904D01*
X86261904Y-137127142D01*
X86214285Y-137174761D01*
X86119047Y-137222380D01*
X86023809Y-137222380D01*
X85928571Y-137174761D01*
X85880952Y-137127142D01*
X85833333Y-137031904D01*
X85785714Y-136841428D01*
X85785714Y-136603333D01*
X85833333Y-136412857D01*
X85880952Y-136317619D01*
X85928571Y-136270000D01*
X86023809Y-136222380D01*
X86690476Y-136222380D02*
X87309523Y-136222380D01*
X86976190Y-136603333D01*
X87119047Y-136603333D01*
X87214285Y-136650952D01*
X87261904Y-136698571D01*
X87309523Y-136793809D01*
X87309523Y-137031904D01*
X87261904Y-137127142D01*
X87214285Y-137174761D01*
X87119047Y-137222380D01*
X86833333Y-137222380D01*
X86738095Y-137174761D01*
X86690476Y-137127142D01*
X87500000Y-137317619D02*
X88261904Y-137317619D01*
X88833333Y-136698571D02*
X88500000Y-136698571D01*
X88500000Y-137222380D02*
X88500000Y-136222380D01*
X88976190Y-136222380D01*
X89738095Y-137174761D02*
X89642857Y-137222380D01*
X89452380Y-137222380D01*
X89357142Y-137174761D01*
X89309523Y-137079523D01*
X89309523Y-136698571D01*
X89357142Y-136603333D01*
X89452380Y-136555714D01*
X89642857Y-136555714D01*
X89738095Y-136603333D01*
X89785714Y-136698571D01*
X89785714Y-136793809D01*
X89309523Y-136889047D01*
X90214285Y-137222380D02*
X90214285Y-136555714D01*
X90214285Y-136650952D02*
X90261904Y-136603333D01*
X90357142Y-136555714D01*
X90500000Y-136555714D01*
X90595238Y-136603333D01*
X90642857Y-136698571D01*
X90642857Y-137222380D01*
X90642857Y-136698571D02*
X90690476Y-136603333D01*
X90785714Y-136555714D01*
X90928571Y-136555714D01*
X91023809Y-136603333D01*
X91071428Y-136698571D01*
X91071428Y-137222380D01*
X91976190Y-137222380D02*
X91976190Y-136698571D01*
X91928571Y-136603333D01*
X91833333Y-136555714D01*
X91642857Y-136555714D01*
X91547619Y-136603333D01*
X91976190Y-137174761D02*
X91880952Y-137222380D01*
X91642857Y-137222380D01*
X91547619Y-137174761D01*
X91500000Y-137079523D01*
X91500000Y-136984285D01*
X91547619Y-136889047D01*
X91642857Y-136841428D01*
X91880952Y-136841428D01*
X91976190Y-136793809D01*
X92595238Y-137222380D02*
X92500000Y-137174761D01*
X92452380Y-137079523D01*
X92452380Y-136222380D01*
X93357142Y-137174761D02*
X93261904Y-137222380D01*
X93071428Y-137222380D01*
X92976190Y-137174761D01*
X92928571Y-137079523D01*
X92928571Y-136698571D01*
X92976190Y-136603333D01*
X93071428Y-136555714D01*
X93261904Y-136555714D01*
X93357142Y-136603333D01*
X93404761Y-136698571D01*
X93404761Y-136793809D01*
X92928571Y-136889047D01*
X85452380Y-131793333D02*
X86166666Y-131793333D01*
X86309523Y-131840952D01*
X86404761Y-131936190D01*
X86452380Y-132079047D01*
X86452380Y-132174285D01*
X85452380Y-131412380D02*
X85452380Y-130745714D01*
X86452380Y-131174285D01*
X97214285Y-137367142D02*
X97166666Y-137414761D01*
X97023809Y-137462380D01*
X96928571Y-137462380D01*
X96785714Y-137414761D01*
X96690476Y-137319523D01*
X96642857Y-137224285D01*
X96595238Y-137033809D01*
X96595238Y-136890952D01*
X96642857Y-136700476D01*
X96690476Y-136605238D01*
X96785714Y-136510000D01*
X96928571Y-136462380D01*
X97023809Y-136462380D01*
X97166666Y-136510000D01*
X97214285Y-136557619D01*
X97785714Y-137462380D02*
X97690476Y-137414761D01*
X97642857Y-137367142D01*
X97595238Y-137271904D01*
X97595238Y-136986190D01*
X97642857Y-136890952D01*
X97690476Y-136843333D01*
X97785714Y-136795714D01*
X97928571Y-136795714D01*
X98023809Y-136843333D01*
X98071428Y-136890952D01*
X98119047Y-136986190D01*
X98119047Y-137271904D01*
X98071428Y-137367142D01*
X98023809Y-137414761D01*
X97928571Y-137462380D01*
X97785714Y-137462380D01*
X98547619Y-136795714D02*
X98547619Y-137462380D01*
X98547619Y-136890952D02*
X98595238Y-136843333D01*
X98690476Y-136795714D01*
X98833333Y-136795714D01*
X98928571Y-136843333D01*
X98976190Y-136938571D01*
X98976190Y-137462380D01*
X99452380Y-136795714D02*
X99452380Y-137462380D01*
X99452380Y-136890952D02*
X99500000Y-136843333D01*
X99595238Y-136795714D01*
X99738095Y-136795714D01*
X99833333Y-136843333D01*
X99880952Y-136938571D01*
X99880952Y-137462380D01*
X100119047Y-137557619D02*
X100880952Y-137557619D01*
X101309523Y-136462380D02*
X101404761Y-136462380D01*
X101500000Y-136510000D01*
X101547619Y-136557619D01*
X101595238Y-136652857D01*
X101642857Y-136843333D01*
X101642857Y-137081428D01*
X101595238Y-137271904D01*
X101547619Y-137367142D01*
X101500000Y-137414761D01*
X101404761Y-137462380D01*
X101309523Y-137462380D01*
X101214285Y-137414761D01*
X101166666Y-137367142D01*
X101119047Y-137271904D01*
X101071428Y-137081428D01*
X101071428Y-136843333D01*
X101119047Y-136652857D01*
X101166666Y-136557619D01*
X101214285Y-136510000D01*
X101309523Y-136462380D01*
X102595238Y-137462380D02*
X102023809Y-137462380D01*
X102309523Y-137462380D02*
X102309523Y-136462380D01*
X102214285Y-136605238D01*
X102119047Y-136700476D01*
X102023809Y-136748095D01*
X102928571Y-137462380D02*
X103452380Y-136795714D01*
X102928571Y-136795714D02*
X103452380Y-137462380D01*
X104023809Y-136462380D02*
X104119047Y-136462380D01*
X104214285Y-136510000D01*
X104261904Y-136557619D01*
X104309523Y-136652857D01*
X104357142Y-136843333D01*
X104357142Y-137081428D01*
X104309523Y-137271904D01*
X104261904Y-137367142D01*
X104214285Y-137414761D01*
X104119047Y-137462380D01*
X104023809Y-137462380D01*
X103928571Y-137414761D01*
X103880952Y-137367142D01*
X103833333Y-137271904D01*
X103785714Y-137081428D01*
X103785714Y-136843333D01*
X103833333Y-136652857D01*
X103880952Y-136557619D01*
X103928571Y-136510000D01*
X104023809Y-136462380D01*
X104690476Y-136462380D02*
X105357142Y-136462380D01*
X104928571Y-137462380D01*
X105500000Y-137557619D02*
X106261904Y-137557619D01*
X106833333Y-136938571D02*
X106500000Y-136938571D01*
X106500000Y-137462380D02*
X106500000Y-136462380D01*
X106976190Y-136462380D01*
X107738095Y-137414761D02*
X107642857Y-137462380D01*
X107452380Y-137462380D01*
X107357142Y-137414761D01*
X107309523Y-137319523D01*
X107309523Y-136938571D01*
X107357142Y-136843333D01*
X107452380Y-136795714D01*
X107642857Y-136795714D01*
X107738095Y-136843333D01*
X107785714Y-136938571D01*
X107785714Y-137033809D01*
X107309523Y-137129047D01*
X108214285Y-137462380D02*
X108214285Y-136795714D01*
X108214285Y-136890952D02*
X108261904Y-136843333D01*
X108357142Y-136795714D01*
X108500000Y-136795714D01*
X108595238Y-136843333D01*
X108642857Y-136938571D01*
X108642857Y-137462380D01*
X108642857Y-136938571D02*
X108690476Y-136843333D01*
X108785714Y-136795714D01*
X108928571Y-136795714D01*
X109023809Y-136843333D01*
X109071428Y-136938571D01*
X109071428Y-137462380D01*
X109976190Y-137462380D02*
X109976190Y-136938571D01*
X109928571Y-136843333D01*
X109833333Y-136795714D01*
X109642857Y-136795714D01*
X109547619Y-136843333D01*
X109976190Y-137414761D02*
X109880952Y-137462380D01*
X109642857Y-137462380D01*
X109547619Y-137414761D01*
X109500000Y-137319523D01*
X109500000Y-137224285D01*
X109547619Y-137129047D01*
X109642857Y-137081428D01*
X109880952Y-137081428D01*
X109976190Y-137033809D01*
X110595238Y-137462380D02*
X110500000Y-137414761D01*
X110452380Y-137319523D01*
X110452380Y-136462380D01*
X111357142Y-137414761D02*
X111261904Y-137462380D01*
X111071428Y-137462380D01*
X110976190Y-137414761D01*
X110928571Y-137319523D01*
X110928571Y-136938571D01*
X110976190Y-136843333D01*
X111071428Y-136795714D01*
X111261904Y-136795714D01*
X111357142Y-136843333D01*
X111404761Y-136938571D01*
X111404761Y-137033809D01*
X110928571Y-137129047D01*
X103452380Y-126953333D02*
X104166666Y-126953333D01*
X104309523Y-127000952D01*
X104404761Y-127096190D01*
X104452380Y-127239047D01*
X104452380Y-127334285D01*
X103880952Y-126334285D02*
X103833333Y-126429523D01*
X103785714Y-126477142D01*
X103690476Y-126524761D01*
X103642857Y-126524761D01*
X103547619Y-126477142D01*
X103500000Y-126429523D01*
X103452380Y-126334285D01*
X103452380Y-126143809D01*
X103500000Y-126048571D01*
X103547619Y-126000952D01*
X103642857Y-125953333D01*
X103690476Y-125953333D01*
X103785714Y-126000952D01*
X103833333Y-126048571D01*
X103880952Y-126143809D01*
X103880952Y-126334285D01*
X103928571Y-126429523D01*
X103976190Y-126477142D01*
X104071428Y-126524761D01*
X104261904Y-126524761D01*
X104357142Y-126477142D01*
X104404761Y-126429523D01*
X104452380Y-126334285D01*
X104452380Y-126143809D01*
X104404761Y-126048571D01*
X104357142Y-126000952D01*
X104261904Y-125953333D01*
X104071428Y-125953333D01*
X103976190Y-126000952D01*
X103928571Y-126048571D01*
X103880952Y-126143809D01*
X101914285Y-97924761D02*
X102057142Y-97972380D01*
X102295238Y-97972380D01*
X102390476Y-97924761D01*
X102438095Y-97877142D01*
X102485714Y-97781904D01*
X102485714Y-97686666D01*
X102438095Y-97591428D01*
X102390476Y-97543809D01*
X102295238Y-97496190D01*
X102104761Y-97448571D01*
X102009523Y-97400952D01*
X101961904Y-97353333D01*
X101914285Y-97258095D01*
X101914285Y-97162857D01*
X101961904Y-97067619D01*
X102009523Y-97020000D01*
X102104761Y-96972380D01*
X102342857Y-96972380D01*
X102485714Y-97020000D01*
X102914285Y-97972380D02*
X102914285Y-96972380D01*
X103342857Y-97972380D02*
X103342857Y-97448571D01*
X103295238Y-97353333D01*
X103200000Y-97305714D01*
X103057142Y-97305714D01*
X102961904Y-97353333D01*
X102914285Y-97400952D01*
X104247619Y-97305714D02*
X104247619Y-97972380D01*
X103819047Y-97305714D02*
X103819047Y-97829523D01*
X103866666Y-97924761D01*
X103961904Y-97972380D01*
X104104761Y-97972380D01*
X104200000Y-97924761D01*
X104247619Y-97877142D01*
X104723809Y-97305714D02*
X104723809Y-97972380D01*
X104723809Y-97400952D02*
X104771428Y-97353333D01*
X104866666Y-97305714D01*
X105009523Y-97305714D01*
X105104761Y-97353333D01*
X105152380Y-97448571D01*
X105152380Y-97972380D01*
X105485714Y-97305714D02*
X105866666Y-97305714D01*
X105628571Y-96972380D02*
X105628571Y-97829523D01*
X105676190Y-97924761D01*
X105771428Y-97972380D01*
X105866666Y-97972380D01*
X107152380Y-96972380D02*
X107247619Y-96972380D01*
X107342857Y-97020000D01*
X107390476Y-97067619D01*
X107438095Y-97162857D01*
X107485714Y-97353333D01*
X107485714Y-97591428D01*
X107438095Y-97781904D01*
X107390476Y-97877142D01*
X107342857Y-97924761D01*
X107247619Y-97972380D01*
X107152380Y-97972380D01*
X107057142Y-97924761D01*
X107009523Y-97877142D01*
X106961904Y-97781904D01*
X106914285Y-97591428D01*
X106914285Y-97353333D01*
X106961904Y-97162857D01*
X107009523Y-97067619D01*
X107057142Y-97020000D01*
X107152380Y-96972380D01*
X104057142Y-94452380D02*
X103723809Y-93976190D01*
X103485714Y-94452380D02*
X103485714Y-93452380D01*
X103866666Y-93452380D01*
X103961904Y-93500000D01*
X104009523Y-93547619D01*
X104057142Y-93642857D01*
X104057142Y-93785714D01*
X104009523Y-93880952D01*
X103961904Y-93928571D01*
X103866666Y-93976190D01*
X103485714Y-93976190D01*
X105009523Y-94452380D02*
X104438095Y-94452380D01*
X104723809Y-94452380D02*
X104723809Y-93452380D01*
X104628571Y-93595238D01*
X104533333Y-93690476D01*
X104438095Y-93738095D01*
X105485714Y-94452380D02*
X105676190Y-94452380D01*
X105771428Y-94404761D01*
X105819047Y-94357142D01*
X105914285Y-94214285D01*
X105961904Y-94023809D01*
X105961904Y-93642857D01*
X105914285Y-93547619D01*
X105866666Y-93500000D01*
X105771428Y-93452380D01*
X105580952Y-93452380D01*
X105485714Y-93500000D01*
X105438095Y-93547619D01*
X105390476Y-93642857D01*
X105390476Y-93880952D01*
X105438095Y-93976190D01*
X105485714Y-94023809D01*
X105580952Y-94071428D01*
X105771428Y-94071428D01*
X105866666Y-94023809D01*
X105914285Y-93976190D01*
X105961904Y-93880952D01*
X125896190Y-121415714D02*
X125896190Y-122082380D01*
X125658095Y-121034761D02*
X125420000Y-121749047D01*
X126039047Y-121749047D01*
X126420000Y-121987142D02*
X126467619Y-122034761D01*
X126420000Y-122082380D01*
X126372380Y-122034761D01*
X126420000Y-121987142D01*
X126420000Y-122082380D01*
X126800952Y-121082380D02*
X127467619Y-121082380D01*
X127039047Y-122082380D01*
X127848571Y-122082380D02*
X127848571Y-121082380D01*
X128420000Y-122082380D02*
X127991428Y-121510952D01*
X128420000Y-121082380D02*
X127848571Y-121653809D01*
X126277142Y-124452380D02*
X125943809Y-123976190D01*
X125705714Y-124452380D02*
X125705714Y-123452380D01*
X126086666Y-123452380D01*
X126181904Y-123500000D01*
X126229523Y-123547619D01*
X126277142Y-123642857D01*
X126277142Y-123785714D01*
X126229523Y-123880952D01*
X126181904Y-123928571D01*
X126086666Y-123976190D01*
X125705714Y-123976190D01*
X126658095Y-123547619D02*
X126705714Y-123500000D01*
X126800952Y-123452380D01*
X127039047Y-123452380D01*
X127134285Y-123500000D01*
X127181904Y-123547619D01*
X127229523Y-123642857D01*
X127229523Y-123738095D01*
X127181904Y-123880952D01*
X126610476Y-124452380D01*
X127229523Y-124452380D01*
X127848571Y-123452380D02*
X127943809Y-123452380D01*
X128039047Y-123500000D01*
X128086666Y-123547619D01*
X128134285Y-123642857D01*
X128181904Y-123833333D01*
X128181904Y-124071428D01*
X128134285Y-124261904D01*
X128086666Y-124357142D01*
X128039047Y-124404761D01*
X127943809Y-124452380D01*
X127848571Y-124452380D01*
X127753333Y-124404761D01*
X127705714Y-124357142D01*
X127658095Y-124261904D01*
X127610476Y-124071428D01*
X127610476Y-123833333D01*
X127658095Y-123642857D01*
X127705714Y-123547619D01*
X127753333Y-123500000D01*
X127848571Y-123452380D01*
X111309523Y-127102380D02*
X110738095Y-127102380D01*
X111023809Y-127102380D02*
X111023809Y-126102380D01*
X110928571Y-126245238D01*
X110833333Y-126340476D01*
X110738095Y-126388095D01*
X111928571Y-126102380D02*
X112023809Y-126102380D01*
X112119047Y-126150000D01*
X112166666Y-126197619D01*
X112214285Y-126292857D01*
X112261904Y-126483333D01*
X112261904Y-126721428D01*
X112214285Y-126911904D01*
X112166666Y-127007142D01*
X112119047Y-127054761D01*
X112023809Y-127102380D01*
X111928571Y-127102380D01*
X111833333Y-127054761D01*
X111785714Y-127007142D01*
X111738095Y-126911904D01*
X111690476Y-126721428D01*
X111690476Y-126483333D01*
X111738095Y-126292857D01*
X111785714Y-126197619D01*
X111833333Y-126150000D01*
X111928571Y-126102380D01*
X112690476Y-127102380D02*
X112690476Y-126102380D01*
X113261904Y-127102380D02*
X112833333Y-126530952D01*
X113261904Y-126102380D02*
X112690476Y-126673809D01*
X113757142Y-120952380D02*
X113423809Y-120476190D01*
X113185714Y-120952380D02*
X113185714Y-119952380D01*
X113566666Y-119952380D01*
X113661904Y-120000000D01*
X113709523Y-120047619D01*
X113757142Y-120142857D01*
X113757142Y-120285714D01*
X113709523Y-120380952D01*
X113661904Y-120428571D01*
X113566666Y-120476190D01*
X113185714Y-120476190D01*
X114138095Y-120047619D02*
X114185714Y-120000000D01*
X114280952Y-119952380D01*
X114519047Y-119952380D01*
X114614285Y-120000000D01*
X114661904Y-120047619D01*
X114709523Y-120142857D01*
X114709523Y-120238095D01*
X114661904Y-120380952D01*
X114090476Y-120952380D01*
X114709523Y-120952380D01*
X115661904Y-120952380D02*
X115090476Y-120952380D01*
X115376190Y-120952380D02*
X115376190Y-119952380D01*
X115280952Y-120095238D01*
X115185714Y-120190476D01*
X115090476Y-120238095D01*
X66214285Y-91452380D02*
X66214285Y-90452380D01*
X66547619Y-91166666D01*
X66880952Y-90452380D01*
X66880952Y-91452380D01*
X67500000Y-91452380D02*
X67404761Y-91404761D01*
X67357142Y-91357142D01*
X67309523Y-91261904D01*
X67309523Y-90976190D01*
X67357142Y-90880952D01*
X67404761Y-90833333D01*
X67500000Y-90785714D01*
X67642857Y-90785714D01*
X67738095Y-90833333D01*
X67785714Y-90880952D01*
X67833333Y-90976190D01*
X67833333Y-91261904D01*
X67785714Y-91357142D01*
X67738095Y-91404761D01*
X67642857Y-91452380D01*
X67500000Y-91452380D01*
X68690476Y-90785714D02*
X68690476Y-91452380D01*
X68261904Y-90785714D02*
X68261904Y-91309523D01*
X68309523Y-91404761D01*
X68404761Y-91452380D01*
X68547619Y-91452380D01*
X68642857Y-91404761D01*
X68690476Y-91357142D01*
X69166666Y-90785714D02*
X69166666Y-91452380D01*
X69166666Y-90880952D02*
X69214285Y-90833333D01*
X69309523Y-90785714D01*
X69452380Y-90785714D01*
X69547619Y-90833333D01*
X69595238Y-90928571D01*
X69595238Y-91452380D01*
X69928571Y-90785714D02*
X70309523Y-90785714D01*
X70071428Y-90452380D02*
X70071428Y-91309523D01*
X70119047Y-91404761D01*
X70214285Y-91452380D01*
X70309523Y-91452380D01*
X70642857Y-91452380D02*
X70642857Y-90785714D01*
X70642857Y-90452380D02*
X70595238Y-90500000D01*
X70642857Y-90547619D01*
X70690476Y-90500000D01*
X70642857Y-90452380D01*
X70642857Y-90547619D01*
X71119047Y-90785714D02*
X71119047Y-91452380D01*
X71119047Y-90880952D02*
X71166666Y-90833333D01*
X71261904Y-90785714D01*
X71404761Y-90785714D01*
X71500000Y-90833333D01*
X71547619Y-90928571D01*
X71547619Y-91452380D01*
X72452380Y-90785714D02*
X72452380Y-91595238D01*
X72404761Y-91690476D01*
X72357142Y-91738095D01*
X72261904Y-91785714D01*
X72119047Y-91785714D01*
X72023809Y-91738095D01*
X72452380Y-91404761D02*
X72357142Y-91452380D01*
X72166666Y-91452380D01*
X72071428Y-91404761D01*
X72023809Y-91357142D01*
X71976190Y-91261904D01*
X71976190Y-90976190D01*
X72023809Y-90880952D01*
X72071428Y-90833333D01*
X72166666Y-90785714D01*
X72357142Y-90785714D01*
X72452380Y-90833333D01*
X72928571Y-91452380D02*
X72928571Y-90452380D01*
X72928571Y-90928571D02*
X73500000Y-90928571D01*
X73500000Y-91452380D02*
X73500000Y-90452380D01*
X74119047Y-91452380D02*
X74023809Y-91404761D01*
X73976190Y-91357142D01*
X73928571Y-91261904D01*
X73928571Y-90976190D01*
X73976190Y-90880952D01*
X74023809Y-90833333D01*
X74119047Y-90785714D01*
X74261904Y-90785714D01*
X74357142Y-90833333D01*
X74404761Y-90880952D01*
X74452380Y-90976190D01*
X74452380Y-91261904D01*
X74404761Y-91357142D01*
X74357142Y-91404761D01*
X74261904Y-91452380D01*
X74119047Y-91452380D01*
X75023809Y-91452380D02*
X74928571Y-91404761D01*
X74880952Y-91309523D01*
X74880952Y-90452380D01*
X75785714Y-91404761D02*
X75690476Y-91452380D01*
X75500000Y-91452380D01*
X75404761Y-91404761D01*
X75357142Y-91309523D01*
X75357142Y-90928571D01*
X75404761Y-90833333D01*
X75500000Y-90785714D01*
X75690476Y-90785714D01*
X75785714Y-90833333D01*
X75833333Y-90928571D01*
X75833333Y-91023809D01*
X75357142Y-91119047D01*
X70538095Y-87452380D02*
X70538095Y-86452380D01*
X70538095Y-86928571D02*
X71109523Y-86928571D01*
X71109523Y-87452380D02*
X71109523Y-86452380D01*
X72109523Y-87452380D02*
X71538095Y-87452380D01*
X71823809Y-87452380D02*
X71823809Y-86452380D01*
X71728571Y-86595238D01*
X71633333Y-86690476D01*
X71538095Y-86738095D01*
X133214285Y-91452380D02*
X133214285Y-90452380D01*
X133547619Y-91166666D01*
X133880952Y-90452380D01*
X133880952Y-91452380D01*
X134500000Y-91452380D02*
X134404761Y-91404761D01*
X134357142Y-91357142D01*
X134309523Y-91261904D01*
X134309523Y-90976190D01*
X134357142Y-90880952D01*
X134404761Y-90833333D01*
X134500000Y-90785714D01*
X134642857Y-90785714D01*
X134738095Y-90833333D01*
X134785714Y-90880952D01*
X134833333Y-90976190D01*
X134833333Y-91261904D01*
X134785714Y-91357142D01*
X134738095Y-91404761D01*
X134642857Y-91452380D01*
X134500000Y-91452380D01*
X135690476Y-90785714D02*
X135690476Y-91452380D01*
X135261904Y-90785714D02*
X135261904Y-91309523D01*
X135309523Y-91404761D01*
X135404761Y-91452380D01*
X135547619Y-91452380D01*
X135642857Y-91404761D01*
X135690476Y-91357142D01*
X136166666Y-90785714D02*
X136166666Y-91452380D01*
X136166666Y-90880952D02*
X136214285Y-90833333D01*
X136309523Y-90785714D01*
X136452380Y-90785714D01*
X136547619Y-90833333D01*
X136595238Y-90928571D01*
X136595238Y-91452380D01*
X136928571Y-90785714D02*
X137309523Y-90785714D01*
X137071428Y-90452380D02*
X137071428Y-91309523D01*
X137119047Y-91404761D01*
X137214285Y-91452380D01*
X137309523Y-91452380D01*
X137642857Y-91452380D02*
X137642857Y-90785714D01*
X137642857Y-90452380D02*
X137595238Y-90500000D01*
X137642857Y-90547619D01*
X137690476Y-90500000D01*
X137642857Y-90452380D01*
X137642857Y-90547619D01*
X138119047Y-90785714D02*
X138119047Y-91452380D01*
X138119047Y-90880952D02*
X138166666Y-90833333D01*
X138261904Y-90785714D01*
X138404761Y-90785714D01*
X138500000Y-90833333D01*
X138547619Y-90928571D01*
X138547619Y-91452380D01*
X139452380Y-90785714D02*
X139452380Y-91595238D01*
X139404761Y-91690476D01*
X139357142Y-91738095D01*
X139261904Y-91785714D01*
X139119047Y-91785714D01*
X139023809Y-91738095D01*
X139452380Y-91404761D02*
X139357142Y-91452380D01*
X139166666Y-91452380D01*
X139071428Y-91404761D01*
X139023809Y-91357142D01*
X138976190Y-91261904D01*
X138976190Y-90976190D01*
X139023809Y-90880952D01*
X139071428Y-90833333D01*
X139166666Y-90785714D01*
X139357142Y-90785714D01*
X139452380Y-90833333D01*
X139928571Y-91452380D02*
X139928571Y-90452380D01*
X139928571Y-90928571D02*
X140500000Y-90928571D01*
X140500000Y-91452380D02*
X140500000Y-90452380D01*
X141119047Y-91452380D02*
X141023809Y-91404761D01*
X140976190Y-91357142D01*
X140928571Y-91261904D01*
X140928571Y-90976190D01*
X140976190Y-90880952D01*
X141023809Y-90833333D01*
X141119047Y-90785714D01*
X141261904Y-90785714D01*
X141357142Y-90833333D01*
X141404761Y-90880952D01*
X141452380Y-90976190D01*
X141452380Y-91261904D01*
X141404761Y-91357142D01*
X141357142Y-91404761D01*
X141261904Y-91452380D01*
X141119047Y-91452380D01*
X142023809Y-91452380D02*
X141928571Y-91404761D01*
X141880952Y-91309523D01*
X141880952Y-90452380D01*
X142785714Y-91404761D02*
X142690476Y-91452380D01*
X142500000Y-91452380D01*
X142404761Y-91404761D01*
X142357142Y-91309523D01*
X142357142Y-90928571D01*
X142404761Y-90833333D01*
X142500000Y-90785714D01*
X142690476Y-90785714D01*
X142785714Y-90833333D01*
X142833333Y-90928571D01*
X142833333Y-91023809D01*
X142357142Y-91119047D01*
X137538095Y-87452380D02*
X137538095Y-86452380D01*
X137538095Y-86928571D02*
X138109523Y-86928571D01*
X138109523Y-87452380D02*
X138109523Y-86452380D01*
X138538095Y-86547619D02*
X138585714Y-86500000D01*
X138680952Y-86452380D01*
X138919047Y-86452380D01*
X139014285Y-86500000D01*
X139061904Y-86547619D01*
X139109523Y-86642857D01*
X139109523Y-86738095D01*
X139061904Y-86880952D01*
X138490476Y-87452380D01*
X139109523Y-87452380D01*
X133214285Y-146452380D02*
X133214285Y-145452380D01*
X133547619Y-146166666D01*
X133880952Y-145452380D01*
X133880952Y-146452380D01*
X134500000Y-146452380D02*
X134404761Y-146404761D01*
X134357142Y-146357142D01*
X134309523Y-146261904D01*
X134309523Y-145976190D01*
X134357142Y-145880952D01*
X134404761Y-145833333D01*
X134500000Y-145785714D01*
X134642857Y-145785714D01*
X134738095Y-145833333D01*
X134785714Y-145880952D01*
X134833333Y-145976190D01*
X134833333Y-146261904D01*
X134785714Y-146357142D01*
X134738095Y-146404761D01*
X134642857Y-146452380D01*
X134500000Y-146452380D01*
X135690476Y-145785714D02*
X135690476Y-146452380D01*
X135261904Y-145785714D02*
X135261904Y-146309523D01*
X135309523Y-146404761D01*
X135404761Y-146452380D01*
X135547619Y-146452380D01*
X135642857Y-146404761D01*
X135690476Y-146357142D01*
X136166666Y-145785714D02*
X136166666Y-146452380D01*
X136166666Y-145880952D02*
X136214285Y-145833333D01*
X136309523Y-145785714D01*
X136452380Y-145785714D01*
X136547619Y-145833333D01*
X136595238Y-145928571D01*
X136595238Y-146452380D01*
X136928571Y-145785714D02*
X137309523Y-145785714D01*
X137071428Y-145452380D02*
X137071428Y-146309523D01*
X137119047Y-146404761D01*
X137214285Y-146452380D01*
X137309523Y-146452380D01*
X137642857Y-146452380D02*
X137642857Y-145785714D01*
X137642857Y-145452380D02*
X137595238Y-145500000D01*
X137642857Y-145547619D01*
X137690476Y-145500000D01*
X137642857Y-145452380D01*
X137642857Y-145547619D01*
X138119047Y-145785714D02*
X138119047Y-146452380D01*
X138119047Y-145880952D02*
X138166666Y-145833333D01*
X138261904Y-145785714D01*
X138404761Y-145785714D01*
X138500000Y-145833333D01*
X138547619Y-145928571D01*
X138547619Y-146452380D01*
X139452380Y-145785714D02*
X139452380Y-146595238D01*
X139404761Y-146690476D01*
X139357142Y-146738095D01*
X139261904Y-146785714D01*
X139119047Y-146785714D01*
X139023809Y-146738095D01*
X139452380Y-146404761D02*
X139357142Y-146452380D01*
X139166666Y-146452380D01*
X139071428Y-146404761D01*
X139023809Y-146357142D01*
X138976190Y-146261904D01*
X138976190Y-145976190D01*
X139023809Y-145880952D01*
X139071428Y-145833333D01*
X139166666Y-145785714D01*
X139357142Y-145785714D01*
X139452380Y-145833333D01*
X139928571Y-146452380D02*
X139928571Y-145452380D01*
X139928571Y-145928571D02*
X140500000Y-145928571D01*
X140500000Y-146452380D02*
X140500000Y-145452380D01*
X141119047Y-146452380D02*
X141023809Y-146404761D01*
X140976190Y-146357142D01*
X140928571Y-146261904D01*
X140928571Y-145976190D01*
X140976190Y-145880952D01*
X141023809Y-145833333D01*
X141119047Y-145785714D01*
X141261904Y-145785714D01*
X141357142Y-145833333D01*
X141404761Y-145880952D01*
X141452380Y-145976190D01*
X141452380Y-146261904D01*
X141404761Y-146357142D01*
X141357142Y-146404761D01*
X141261904Y-146452380D01*
X141119047Y-146452380D01*
X142023809Y-146452380D02*
X141928571Y-146404761D01*
X141880952Y-146309523D01*
X141880952Y-145452380D01*
X142785714Y-146404761D02*
X142690476Y-146452380D01*
X142500000Y-146452380D01*
X142404761Y-146404761D01*
X142357142Y-146309523D01*
X142357142Y-145928571D01*
X142404761Y-145833333D01*
X142500000Y-145785714D01*
X142690476Y-145785714D01*
X142785714Y-145833333D01*
X142833333Y-145928571D01*
X142833333Y-146023809D01*
X142357142Y-146119047D01*
X137538095Y-142452380D02*
X137538095Y-141452380D01*
X137538095Y-141928571D02*
X138109523Y-141928571D01*
X138109523Y-142452380D02*
X138109523Y-141452380D01*
X138490476Y-141452380D02*
X139109523Y-141452380D01*
X138776190Y-141833333D01*
X138919047Y-141833333D01*
X139014285Y-141880952D01*
X139061904Y-141928571D01*
X139109523Y-142023809D01*
X139109523Y-142261904D01*
X139061904Y-142357142D01*
X139014285Y-142404761D01*
X138919047Y-142452380D01*
X138633333Y-142452380D01*
X138538095Y-142404761D01*
X138490476Y-142357142D01*
X66214285Y-146452380D02*
X66214285Y-145452380D01*
X66547619Y-146166666D01*
X66880952Y-145452380D01*
X66880952Y-146452380D01*
X67500000Y-146452380D02*
X67404761Y-146404761D01*
X67357142Y-146357142D01*
X67309523Y-146261904D01*
X67309523Y-145976190D01*
X67357142Y-145880952D01*
X67404761Y-145833333D01*
X67500000Y-145785714D01*
X67642857Y-145785714D01*
X67738095Y-145833333D01*
X67785714Y-145880952D01*
X67833333Y-145976190D01*
X67833333Y-146261904D01*
X67785714Y-146357142D01*
X67738095Y-146404761D01*
X67642857Y-146452380D01*
X67500000Y-146452380D01*
X68690476Y-145785714D02*
X68690476Y-146452380D01*
X68261904Y-145785714D02*
X68261904Y-146309523D01*
X68309523Y-146404761D01*
X68404761Y-146452380D01*
X68547619Y-146452380D01*
X68642857Y-146404761D01*
X68690476Y-146357142D01*
X69166666Y-145785714D02*
X69166666Y-146452380D01*
X69166666Y-145880952D02*
X69214285Y-145833333D01*
X69309523Y-145785714D01*
X69452380Y-145785714D01*
X69547619Y-145833333D01*
X69595238Y-145928571D01*
X69595238Y-146452380D01*
X69928571Y-145785714D02*
X70309523Y-145785714D01*
X70071428Y-145452380D02*
X70071428Y-146309523D01*
X70119047Y-146404761D01*
X70214285Y-146452380D01*
X70309523Y-146452380D01*
X70642857Y-146452380D02*
X70642857Y-145785714D01*
X70642857Y-145452380D02*
X70595238Y-145500000D01*
X70642857Y-145547619D01*
X70690476Y-145500000D01*
X70642857Y-145452380D01*
X70642857Y-145547619D01*
X71119047Y-145785714D02*
X71119047Y-146452380D01*
X71119047Y-145880952D02*
X71166666Y-145833333D01*
X71261904Y-145785714D01*
X71404761Y-145785714D01*
X71500000Y-145833333D01*
X71547619Y-145928571D01*
X71547619Y-146452380D01*
X72452380Y-145785714D02*
X72452380Y-146595238D01*
X72404761Y-146690476D01*
X72357142Y-146738095D01*
X72261904Y-146785714D01*
X72119047Y-146785714D01*
X72023809Y-146738095D01*
X72452380Y-146404761D02*
X72357142Y-146452380D01*
X72166666Y-146452380D01*
X72071428Y-146404761D01*
X72023809Y-146357142D01*
X71976190Y-146261904D01*
X71976190Y-145976190D01*
X72023809Y-145880952D01*
X72071428Y-145833333D01*
X72166666Y-145785714D01*
X72357142Y-145785714D01*
X72452380Y-145833333D01*
X72928571Y-146452380D02*
X72928571Y-145452380D01*
X72928571Y-145928571D02*
X73500000Y-145928571D01*
X73500000Y-146452380D02*
X73500000Y-145452380D01*
X74119047Y-146452380D02*
X74023809Y-146404761D01*
X73976190Y-146357142D01*
X73928571Y-146261904D01*
X73928571Y-145976190D01*
X73976190Y-145880952D01*
X74023809Y-145833333D01*
X74119047Y-145785714D01*
X74261904Y-145785714D01*
X74357142Y-145833333D01*
X74404761Y-145880952D01*
X74452380Y-145976190D01*
X74452380Y-146261904D01*
X74404761Y-146357142D01*
X74357142Y-146404761D01*
X74261904Y-146452380D01*
X74119047Y-146452380D01*
X75023809Y-146452380D02*
X74928571Y-146404761D01*
X74880952Y-146309523D01*
X74880952Y-145452380D01*
X75785714Y-146404761D02*
X75690476Y-146452380D01*
X75500000Y-146452380D01*
X75404761Y-146404761D01*
X75357142Y-146309523D01*
X75357142Y-145928571D01*
X75404761Y-145833333D01*
X75500000Y-145785714D01*
X75690476Y-145785714D01*
X75785714Y-145833333D01*
X75833333Y-145928571D01*
X75833333Y-146023809D01*
X75357142Y-146119047D01*
X70538095Y-142452380D02*
X70538095Y-141452380D01*
X70538095Y-141928571D02*
X71109523Y-141928571D01*
X71109523Y-142452380D02*
X71109523Y-141452380D01*
X72014285Y-141785714D02*
X72014285Y-142452380D01*
X71776190Y-141404761D02*
X71538095Y-142119047D01*
X72157142Y-142119047D01*
M02*
