G04 #@! TF.GenerationSoftware,KiCad,Pcbnew,(5.1.5)-3*
G04 #@! TF.CreationDate,2020-04-05T12:45:20+05:30*
G04 #@! TF.ProjectId,Con+fb(v+i),436f6e2b-6662-4287-962b-69292e6b6963,rev?*
G04 #@! TF.SameCoordinates,Original*
G04 #@! TF.FileFunction,Legend,Top*
G04 #@! TF.FilePolarity,Positive*
%FSLAX46Y46*%
G04 Gerber Fmt 4.6, Leading zero omitted, Abs format (unit mm)*
G04 Created by KiCad (PCBNEW (5.1.5)-3) date 2020-04-05 12:45:20*
%MOMM*%
%LPD*%
G04 APERTURE LIST*
%ADD10C,0.120000*%
%ADD11C,0.150000*%
G04 APERTURE END LIST*
D10*
X116370000Y-107000000D02*
G75*
G03X116370000Y-107000000I-2620000J0D01*
G01*
X113750000Y-109580000D02*
X113750000Y-104420000D01*
X113710000Y-109580000D02*
X113710000Y-104420000D01*
X113670000Y-109579000D02*
X113670000Y-104421000D01*
X113630000Y-109578000D02*
X113630000Y-104422000D01*
X113590000Y-109576000D02*
X113590000Y-104424000D01*
X113550000Y-109573000D02*
X113550000Y-104427000D01*
X113510000Y-109569000D02*
X113510000Y-108040000D01*
X113510000Y-105960000D02*
X113510000Y-104431000D01*
X113470000Y-109565000D02*
X113470000Y-108040000D01*
X113470000Y-105960000D02*
X113470000Y-104435000D01*
X113430000Y-109561000D02*
X113430000Y-108040000D01*
X113430000Y-105960000D02*
X113430000Y-104439000D01*
X113390000Y-109556000D02*
X113390000Y-108040000D01*
X113390000Y-105960000D02*
X113390000Y-104444000D01*
X113350000Y-109550000D02*
X113350000Y-108040000D01*
X113350000Y-105960000D02*
X113350000Y-104450000D01*
X113310000Y-109543000D02*
X113310000Y-108040000D01*
X113310000Y-105960000D02*
X113310000Y-104457000D01*
X113270000Y-109536000D02*
X113270000Y-108040000D01*
X113270000Y-105960000D02*
X113270000Y-104464000D01*
X113230000Y-109528000D02*
X113230000Y-108040000D01*
X113230000Y-105960000D02*
X113230000Y-104472000D01*
X113190000Y-109520000D02*
X113190000Y-108040000D01*
X113190000Y-105960000D02*
X113190000Y-104480000D01*
X113150000Y-109511000D02*
X113150000Y-108040000D01*
X113150000Y-105960000D02*
X113150000Y-104489000D01*
X113110000Y-109501000D02*
X113110000Y-108040000D01*
X113110000Y-105960000D02*
X113110000Y-104499000D01*
X113070000Y-109491000D02*
X113070000Y-108040000D01*
X113070000Y-105960000D02*
X113070000Y-104509000D01*
X113029000Y-109480000D02*
X113029000Y-108040000D01*
X113029000Y-105960000D02*
X113029000Y-104520000D01*
X112989000Y-109468000D02*
X112989000Y-108040000D01*
X112989000Y-105960000D02*
X112989000Y-104532000D01*
X112949000Y-109455000D02*
X112949000Y-108040000D01*
X112949000Y-105960000D02*
X112949000Y-104545000D01*
X112909000Y-109442000D02*
X112909000Y-108040000D01*
X112909000Y-105960000D02*
X112909000Y-104558000D01*
X112869000Y-109428000D02*
X112869000Y-108040000D01*
X112869000Y-105960000D02*
X112869000Y-104572000D01*
X112829000Y-109414000D02*
X112829000Y-108040000D01*
X112829000Y-105960000D02*
X112829000Y-104586000D01*
X112789000Y-109398000D02*
X112789000Y-108040000D01*
X112789000Y-105960000D02*
X112789000Y-104602000D01*
X112749000Y-109382000D02*
X112749000Y-108040000D01*
X112749000Y-105960000D02*
X112749000Y-104618000D01*
X112709000Y-109365000D02*
X112709000Y-108040000D01*
X112709000Y-105960000D02*
X112709000Y-104635000D01*
X112669000Y-109348000D02*
X112669000Y-108040000D01*
X112669000Y-105960000D02*
X112669000Y-104652000D01*
X112629000Y-109329000D02*
X112629000Y-108040000D01*
X112629000Y-105960000D02*
X112629000Y-104671000D01*
X112589000Y-109310000D02*
X112589000Y-108040000D01*
X112589000Y-105960000D02*
X112589000Y-104690000D01*
X112549000Y-109290000D02*
X112549000Y-108040000D01*
X112549000Y-105960000D02*
X112549000Y-104710000D01*
X112509000Y-109268000D02*
X112509000Y-108040000D01*
X112509000Y-105960000D02*
X112509000Y-104732000D01*
X112469000Y-109247000D02*
X112469000Y-108040000D01*
X112469000Y-105960000D02*
X112469000Y-104753000D01*
X112429000Y-109224000D02*
X112429000Y-108040000D01*
X112429000Y-105960000D02*
X112429000Y-104776000D01*
X112389000Y-109200000D02*
X112389000Y-108040000D01*
X112389000Y-105960000D02*
X112389000Y-104800000D01*
X112349000Y-109175000D02*
X112349000Y-108040000D01*
X112349000Y-105960000D02*
X112349000Y-104825000D01*
X112309000Y-109149000D02*
X112309000Y-108040000D01*
X112309000Y-105960000D02*
X112309000Y-104851000D01*
X112269000Y-109122000D02*
X112269000Y-108040000D01*
X112269000Y-105960000D02*
X112269000Y-104878000D01*
X112229000Y-109095000D02*
X112229000Y-108040000D01*
X112229000Y-105960000D02*
X112229000Y-104905000D01*
X112189000Y-109065000D02*
X112189000Y-108040000D01*
X112189000Y-105960000D02*
X112189000Y-104935000D01*
X112149000Y-109035000D02*
X112149000Y-108040000D01*
X112149000Y-105960000D02*
X112149000Y-104965000D01*
X112109000Y-109004000D02*
X112109000Y-108040000D01*
X112109000Y-105960000D02*
X112109000Y-104996000D01*
X112069000Y-108971000D02*
X112069000Y-108040000D01*
X112069000Y-105960000D02*
X112069000Y-105029000D01*
X112029000Y-108937000D02*
X112029000Y-108040000D01*
X112029000Y-105960000D02*
X112029000Y-105063000D01*
X111989000Y-108901000D02*
X111989000Y-108040000D01*
X111989000Y-105960000D02*
X111989000Y-105099000D01*
X111949000Y-108864000D02*
X111949000Y-108040000D01*
X111949000Y-105960000D02*
X111949000Y-105136000D01*
X111909000Y-108826000D02*
X111909000Y-108040000D01*
X111909000Y-105960000D02*
X111909000Y-105174000D01*
X111869000Y-108785000D02*
X111869000Y-108040000D01*
X111869000Y-105960000D02*
X111869000Y-105215000D01*
X111829000Y-108743000D02*
X111829000Y-108040000D01*
X111829000Y-105960000D02*
X111829000Y-105257000D01*
X111789000Y-108699000D02*
X111789000Y-108040000D01*
X111789000Y-105960000D02*
X111789000Y-105301000D01*
X111749000Y-108653000D02*
X111749000Y-108040000D01*
X111749000Y-105960000D02*
X111749000Y-105347000D01*
X111709000Y-108605000D02*
X111709000Y-108040000D01*
X111709000Y-105960000D02*
X111709000Y-105395000D01*
X111669000Y-108554000D02*
X111669000Y-108040000D01*
X111669000Y-105960000D02*
X111669000Y-105446000D01*
X111629000Y-108500000D02*
X111629000Y-108040000D01*
X111629000Y-105960000D02*
X111629000Y-105500000D01*
X111589000Y-108443000D02*
X111589000Y-108040000D01*
X111589000Y-105960000D02*
X111589000Y-105557000D01*
X111549000Y-108383000D02*
X111549000Y-108040000D01*
X111549000Y-105960000D02*
X111549000Y-105617000D01*
X111509000Y-108319000D02*
X111509000Y-108040000D01*
X111509000Y-105960000D02*
X111509000Y-105681000D01*
X111469000Y-108251000D02*
X111469000Y-108040000D01*
X111469000Y-105960000D02*
X111469000Y-105749000D01*
X111429000Y-108178000D02*
X111429000Y-105822000D01*
X111389000Y-108098000D02*
X111389000Y-105902000D01*
X111349000Y-108011000D02*
X111349000Y-105989000D01*
X111309000Y-107915000D02*
X111309000Y-106085000D01*
X111269000Y-107805000D02*
X111269000Y-106195000D01*
X111229000Y-107677000D02*
X111229000Y-106323000D01*
X111189000Y-107518000D02*
X111189000Y-106482000D01*
X111149000Y-107284000D02*
X111149000Y-106716000D01*
X116554775Y-108475000D02*
X116054775Y-108475000D01*
X116304775Y-108725000D02*
X116304775Y-108225000D01*
X121530000Y-101640000D02*
X124470000Y-101640000D01*
X124470000Y-101640000D02*
X124470000Y-96200000D01*
X124470000Y-96200000D02*
X121530000Y-96200000D01*
X121530000Y-96200000D02*
X121530000Y-101640000D01*
X123000000Y-102660000D02*
X123000000Y-101640000D01*
X123000000Y-95180000D02*
X123000000Y-96200000D01*
X121530000Y-100740000D02*
X124470000Y-100740000D01*
X121530000Y-100620000D02*
X124470000Y-100620000D01*
X121530000Y-100860000D02*
X124470000Y-100860000D01*
X121530000Y-116020000D02*
X124470000Y-116020000D01*
X121530000Y-115780000D02*
X124470000Y-115780000D01*
X121530000Y-115900000D02*
X124470000Y-115900000D01*
X123000000Y-110340000D02*
X123000000Y-111360000D01*
X123000000Y-117820000D02*
X123000000Y-116800000D01*
X121530000Y-111360000D02*
X121530000Y-116800000D01*
X124470000Y-111360000D02*
X121530000Y-111360000D01*
X124470000Y-116800000D02*
X124470000Y-111360000D01*
X121530000Y-116800000D02*
X124470000Y-116800000D01*
X129530000Y-101640000D02*
X132470000Y-101640000D01*
X132470000Y-101640000D02*
X132470000Y-96200000D01*
X132470000Y-96200000D02*
X129530000Y-96200000D01*
X129530000Y-96200000D02*
X129530000Y-101640000D01*
X131000000Y-102660000D02*
X131000000Y-101640000D01*
X131000000Y-95180000D02*
X131000000Y-96200000D01*
X129530000Y-100740000D02*
X132470000Y-100740000D01*
X129530000Y-100620000D02*
X132470000Y-100620000D01*
X129530000Y-100860000D02*
X132470000Y-100860000D01*
X129530000Y-116020000D02*
X132470000Y-116020000D01*
X129530000Y-115780000D02*
X132470000Y-115780000D01*
X129530000Y-115900000D02*
X132470000Y-115900000D01*
X131000000Y-110340000D02*
X131000000Y-111360000D01*
X131000000Y-117820000D02*
X131000000Y-116800000D01*
X129530000Y-111360000D02*
X129530000Y-116800000D01*
X132470000Y-111360000D02*
X129530000Y-111360000D01*
X132470000Y-116800000D02*
X132470000Y-111360000D01*
X129530000Y-116800000D02*
X132470000Y-116800000D01*
X76670000Y-95270000D02*
X79330000Y-95270000D01*
X76670000Y-95270000D02*
X76670000Y-135970000D01*
X76670000Y-135970000D02*
X79330000Y-135970000D01*
X79330000Y-95270000D02*
X79330000Y-135970000D01*
X79330000Y-92670000D02*
X79330000Y-94000000D01*
X78000000Y-92670000D02*
X79330000Y-92670000D01*
X87670000Y-99270000D02*
X90330000Y-99270000D01*
X87670000Y-99270000D02*
X87670000Y-101870000D01*
X87670000Y-101870000D02*
X90330000Y-101870000D01*
X90330000Y-99270000D02*
X90330000Y-101870000D01*
X90330000Y-96670000D02*
X90330000Y-98000000D01*
X89000000Y-96670000D02*
X90330000Y-96670000D01*
X91000000Y-125670000D02*
X92330000Y-125670000D01*
X92330000Y-125670000D02*
X92330000Y-127000000D01*
X92330000Y-128270000D02*
X92330000Y-135950000D01*
X89670000Y-135950000D02*
X92330000Y-135950000D01*
X89670000Y-128270000D02*
X89670000Y-135950000D01*
X89670000Y-128270000D02*
X92330000Y-128270000D01*
X87670000Y-108270000D02*
X90330000Y-108270000D01*
X87670000Y-108270000D02*
X87670000Y-115950000D01*
X87670000Y-115950000D02*
X90330000Y-115950000D01*
X90330000Y-108270000D02*
X90330000Y-115950000D01*
X90330000Y-105670000D02*
X90330000Y-107000000D01*
X89000000Y-105670000D02*
X90330000Y-105670000D01*
X99330000Y-117430000D02*
X96670000Y-117430000D01*
X99330000Y-132730000D02*
X99330000Y-117430000D01*
X96670000Y-132730000D02*
X96670000Y-117430000D01*
X99330000Y-132730000D02*
X96670000Y-132730000D01*
X99330000Y-134000000D02*
X99330000Y-135330000D01*
X99330000Y-135330000D02*
X98000000Y-135330000D01*
X122670000Y-134000000D02*
X122670000Y-132670000D01*
X122670000Y-132670000D02*
X124000000Y-132670000D01*
X125270000Y-132670000D02*
X127870000Y-132670000D01*
X127870000Y-135330000D02*
X127870000Y-132670000D01*
X125270000Y-135330000D02*
X127870000Y-135330000D01*
X125270000Y-135330000D02*
X125270000Y-132670000D01*
X84670000Y-130190000D02*
X87330000Y-130190000D01*
X84670000Y-130190000D02*
X84670000Y-135330000D01*
X84670000Y-135330000D02*
X87330000Y-135330000D01*
X87330000Y-130190000D02*
X87330000Y-135330000D01*
X87330000Y-127590000D02*
X87330000Y-128920000D01*
X86000000Y-127590000D02*
X87330000Y-127590000D01*
X102670000Y-120270000D02*
X105330000Y-120270000D01*
X102670000Y-120270000D02*
X102670000Y-135570000D01*
X102670000Y-135570000D02*
X105330000Y-135570000D01*
X105330000Y-120270000D02*
X105330000Y-135570000D01*
X105330000Y-117670000D02*
X105330000Y-119000000D01*
X104000000Y-117670000D02*
X105330000Y-117670000D01*
X98380000Y-92260000D02*
X98380000Y-91480000D01*
X98380000Y-91480000D02*
X111020000Y-91480000D01*
X111020000Y-91480000D02*
X111020000Y-92260000D01*
X98380000Y-95740000D02*
X98380000Y-96520000D01*
X98380000Y-96520000D02*
X111020000Y-96520000D01*
X111020000Y-96520000D02*
X111020000Y-95740000D01*
X100860000Y-93000000D02*
X108540000Y-93000000D01*
X100860000Y-93120000D02*
X108540000Y-93120000D01*
X100860000Y-93240000D02*
X108540000Y-93240000D01*
X100860000Y-93360000D02*
X108540000Y-93360000D01*
X100860000Y-93480000D02*
X108540000Y-93480000D01*
X100860000Y-93600000D02*
X108540000Y-93600000D01*
X100860000Y-93720000D02*
X108540000Y-93720000D01*
X100860000Y-93840000D02*
X108540000Y-93840000D01*
X100860000Y-93960000D02*
X108540000Y-93960000D01*
X100860000Y-94080000D02*
X108540000Y-94080000D01*
X100860000Y-94200000D02*
X108540000Y-94200000D01*
X100860000Y-94320000D02*
X108540000Y-94320000D01*
X100860000Y-94440000D02*
X108540000Y-94440000D01*
X100860000Y-94560000D02*
X108540000Y-94560000D01*
X100860000Y-94680000D02*
X108540000Y-94680000D01*
X100860000Y-94800000D02*
X108540000Y-94800000D01*
X100860000Y-94920000D02*
X108540000Y-94920000D01*
X100860000Y-93000000D02*
X100860000Y-94920000D01*
X108540000Y-93000000D02*
X108540000Y-94920000D01*
X130190000Y-125370000D02*
X130190000Y-122630000D01*
X130190000Y-122630000D02*
X123650000Y-122630000D01*
X123650000Y-122630000D02*
X123650000Y-125370000D01*
X123650000Y-125370000D02*
X130190000Y-125370000D01*
X130960000Y-124000000D02*
X130190000Y-124000000D01*
X122880000Y-124000000D02*
X123650000Y-124000000D01*
X111879000Y-115479000D02*
X116920000Y-115479000D01*
X111879000Y-125520000D02*
X116920000Y-125520000D01*
X116920000Y-115479000D02*
X116920000Y-119428000D01*
X116920000Y-121573000D02*
X116920000Y-125520000D01*
X111879000Y-124425000D02*
X111879000Y-125520000D01*
X111879000Y-115479000D02*
X111879000Y-116574000D01*
X111879000Y-119426000D02*
X111879000Y-121575000D01*
X113237000Y-118880000D02*
X116920000Y-118880000D01*
X113237000Y-122120000D02*
X116920000Y-122120000D01*
X111879000Y-119426000D02*
X111879000Y-121575000D01*
X116920000Y-118880000D02*
X116920000Y-119428000D01*
X116920000Y-121573000D02*
X116920000Y-122120000D01*
D11*
X113583333Y-111107142D02*
X113535714Y-111154761D01*
X113392857Y-111202380D01*
X113297619Y-111202380D01*
X113154761Y-111154761D01*
X113059523Y-111059523D01*
X113011904Y-110964285D01*
X112964285Y-110773809D01*
X112964285Y-110630952D01*
X113011904Y-110440476D01*
X113059523Y-110345238D01*
X113154761Y-110250000D01*
X113297619Y-110202380D01*
X113392857Y-110202380D01*
X113535714Y-110250000D01*
X113583333Y-110297619D01*
X113916666Y-110202380D02*
X114583333Y-110202380D01*
X114154761Y-111202380D01*
X120982380Y-100134285D02*
X119982380Y-100134285D01*
X119982380Y-99896190D01*
X120030000Y-99753333D01*
X120125238Y-99658095D01*
X120220476Y-99610476D01*
X120410952Y-99562857D01*
X120553809Y-99562857D01*
X120744285Y-99610476D01*
X120839523Y-99658095D01*
X120934761Y-99753333D01*
X120982380Y-99896190D01*
X120982380Y-100134285D01*
X120982380Y-98610476D02*
X120982380Y-99181904D01*
X120982380Y-98896190D02*
X119982380Y-98896190D01*
X120125238Y-98991428D01*
X120220476Y-99086666D01*
X120268095Y-99181904D01*
X120077619Y-98229523D02*
X120030000Y-98181904D01*
X119982380Y-98086666D01*
X119982380Y-97848571D01*
X120030000Y-97753333D01*
X120077619Y-97705714D01*
X120172857Y-97658095D01*
X120268095Y-97658095D01*
X120410952Y-97705714D01*
X120982380Y-98277142D01*
X120982380Y-97658095D01*
X121352380Y-104261904D02*
X120352380Y-104261904D01*
X121352380Y-103690476D02*
X120780952Y-104119047D01*
X120352380Y-103690476D02*
X120923809Y-104261904D01*
X120982380Y-115294285D02*
X119982380Y-115294285D01*
X119982380Y-115056190D01*
X120030000Y-114913333D01*
X120125238Y-114818095D01*
X120220476Y-114770476D01*
X120410952Y-114722857D01*
X120553809Y-114722857D01*
X120744285Y-114770476D01*
X120839523Y-114818095D01*
X120934761Y-114913333D01*
X120982380Y-115056190D01*
X120982380Y-115294285D01*
X120982380Y-113770476D02*
X120982380Y-114341904D01*
X120982380Y-114056190D02*
X119982380Y-114056190D01*
X120125238Y-114151428D01*
X120220476Y-114246666D01*
X120268095Y-114341904D01*
X119982380Y-113437142D02*
X119982380Y-112818095D01*
X120363333Y-113151428D01*
X120363333Y-113008571D01*
X120410952Y-112913333D01*
X120458571Y-112865714D01*
X120553809Y-112818095D01*
X120791904Y-112818095D01*
X120887142Y-112865714D01*
X120934761Y-112913333D01*
X120982380Y-113008571D01*
X120982380Y-113294285D01*
X120934761Y-113389523D01*
X120887142Y-113437142D01*
X121352380Y-119421904D02*
X120352380Y-119421904D01*
X121352380Y-118850476D02*
X120780952Y-119279047D01*
X120352380Y-118850476D02*
X120923809Y-119421904D01*
X128982380Y-100134285D02*
X127982380Y-100134285D01*
X127982380Y-99896190D01*
X128030000Y-99753333D01*
X128125238Y-99658095D01*
X128220476Y-99610476D01*
X128410952Y-99562857D01*
X128553809Y-99562857D01*
X128744285Y-99610476D01*
X128839523Y-99658095D01*
X128934761Y-99753333D01*
X128982380Y-99896190D01*
X128982380Y-100134285D01*
X128982380Y-98610476D02*
X128982380Y-99181904D01*
X128982380Y-98896190D02*
X127982380Y-98896190D01*
X128125238Y-98991428D01*
X128220476Y-99086666D01*
X128268095Y-99181904D01*
X128315714Y-97753333D02*
X128982380Y-97753333D01*
X127934761Y-97991428D02*
X128649047Y-98229523D01*
X128649047Y-97610476D01*
X129352380Y-104261904D02*
X128352380Y-104261904D01*
X129352380Y-103690476D02*
X128780952Y-104119047D01*
X128352380Y-103690476D02*
X128923809Y-104261904D01*
X128982380Y-115294285D02*
X127982380Y-115294285D01*
X127982380Y-115056190D01*
X128030000Y-114913333D01*
X128125238Y-114818095D01*
X128220476Y-114770476D01*
X128410952Y-114722857D01*
X128553809Y-114722857D01*
X128744285Y-114770476D01*
X128839523Y-114818095D01*
X128934761Y-114913333D01*
X128982380Y-115056190D01*
X128982380Y-115294285D01*
X128982380Y-113770476D02*
X128982380Y-114341904D01*
X128982380Y-114056190D02*
X127982380Y-114056190D01*
X128125238Y-114151428D01*
X128220476Y-114246666D01*
X128268095Y-114341904D01*
X127982380Y-112865714D02*
X127982380Y-113341904D01*
X128458571Y-113389523D01*
X128410952Y-113341904D01*
X128363333Y-113246666D01*
X128363333Y-113008571D01*
X128410952Y-112913333D01*
X128458571Y-112865714D01*
X128553809Y-112818095D01*
X128791904Y-112818095D01*
X128887142Y-112865714D01*
X128934761Y-112913333D01*
X128982380Y-113008571D01*
X128982380Y-113246666D01*
X128934761Y-113341904D01*
X128887142Y-113389523D01*
X129352380Y-119421904D02*
X128352380Y-119421904D01*
X129352380Y-118850476D02*
X128780952Y-119279047D01*
X128352380Y-118850476D02*
X128923809Y-119421904D01*
X77666666Y-90682380D02*
X77666666Y-91396666D01*
X77619047Y-91539523D01*
X77523809Y-91634761D01*
X77380952Y-91682380D01*
X77285714Y-91682380D01*
X78666666Y-91682380D02*
X78095238Y-91682380D01*
X78380952Y-91682380D02*
X78380952Y-90682380D01*
X78285714Y-90825238D01*
X78190476Y-90920476D01*
X78095238Y-90968095D01*
X88666666Y-94682380D02*
X88666666Y-95396666D01*
X88619047Y-95539523D01*
X88523809Y-95634761D01*
X88380952Y-95682380D01*
X88285714Y-95682380D01*
X89095238Y-94777619D02*
X89142857Y-94730000D01*
X89238095Y-94682380D01*
X89476190Y-94682380D01*
X89571428Y-94730000D01*
X89619047Y-94777619D01*
X89666666Y-94872857D01*
X89666666Y-94968095D01*
X89619047Y-95110952D01*
X89047619Y-95682380D01*
X89666666Y-95682380D01*
X90666666Y-123682380D02*
X90666666Y-124396666D01*
X90619047Y-124539523D01*
X90523809Y-124634761D01*
X90380952Y-124682380D01*
X90285714Y-124682380D01*
X91047619Y-123682380D02*
X91666666Y-123682380D01*
X91333333Y-124063333D01*
X91476190Y-124063333D01*
X91571428Y-124110952D01*
X91619047Y-124158571D01*
X91666666Y-124253809D01*
X91666666Y-124491904D01*
X91619047Y-124587142D01*
X91571428Y-124634761D01*
X91476190Y-124682380D01*
X91190476Y-124682380D01*
X91095238Y-124634761D01*
X91047619Y-124587142D01*
X88666666Y-103682380D02*
X88666666Y-104396666D01*
X88619047Y-104539523D01*
X88523809Y-104634761D01*
X88380952Y-104682380D01*
X88285714Y-104682380D01*
X89571428Y-104015714D02*
X89571428Y-104682380D01*
X89333333Y-103634761D02*
X89095238Y-104349047D01*
X89714285Y-104349047D01*
X97666666Y-135782380D02*
X97666666Y-136496666D01*
X97619047Y-136639523D01*
X97523809Y-136734761D01*
X97380952Y-136782380D01*
X97285714Y-136782380D01*
X98619047Y-135782380D02*
X98142857Y-135782380D01*
X98095238Y-136258571D01*
X98142857Y-136210952D01*
X98238095Y-136163333D01*
X98476190Y-136163333D01*
X98571428Y-136210952D01*
X98619047Y-136258571D01*
X98666666Y-136353809D01*
X98666666Y-136591904D01*
X98619047Y-136687142D01*
X98571428Y-136734761D01*
X98476190Y-136782380D01*
X98238095Y-136782380D01*
X98142857Y-136734761D01*
X98095238Y-136687142D01*
X120682380Y-134333333D02*
X121396666Y-134333333D01*
X121539523Y-134380952D01*
X121634761Y-134476190D01*
X121682380Y-134619047D01*
X121682380Y-134714285D01*
X120682380Y-133428571D02*
X120682380Y-133619047D01*
X120730000Y-133714285D01*
X120777619Y-133761904D01*
X120920476Y-133857142D01*
X121110952Y-133904761D01*
X121491904Y-133904761D01*
X121587142Y-133857142D01*
X121634761Y-133809523D01*
X121682380Y-133714285D01*
X121682380Y-133523809D01*
X121634761Y-133428571D01*
X121587142Y-133380952D01*
X121491904Y-133333333D01*
X121253809Y-133333333D01*
X121158571Y-133380952D01*
X121110952Y-133428571D01*
X121063333Y-133523809D01*
X121063333Y-133714285D01*
X121110952Y-133809523D01*
X121158571Y-133857142D01*
X121253809Y-133904761D01*
X85666666Y-125602380D02*
X85666666Y-126316666D01*
X85619047Y-126459523D01*
X85523809Y-126554761D01*
X85380952Y-126602380D01*
X85285714Y-126602380D01*
X86047619Y-125602380D02*
X86714285Y-125602380D01*
X86285714Y-126602380D01*
X103666666Y-115682380D02*
X103666666Y-116396666D01*
X103619047Y-116539523D01*
X103523809Y-116634761D01*
X103380952Y-116682380D01*
X103285714Y-116682380D01*
X104285714Y-116110952D02*
X104190476Y-116063333D01*
X104142857Y-116015714D01*
X104095238Y-115920476D01*
X104095238Y-115872857D01*
X104142857Y-115777619D01*
X104190476Y-115730000D01*
X104285714Y-115682380D01*
X104476190Y-115682380D01*
X104571428Y-115730000D01*
X104619047Y-115777619D01*
X104666666Y-115872857D01*
X104666666Y-115920476D01*
X104619047Y-116015714D01*
X104571428Y-116063333D01*
X104476190Y-116110952D01*
X104285714Y-116110952D01*
X104190476Y-116158571D01*
X104142857Y-116206190D01*
X104095238Y-116301428D01*
X104095238Y-116491904D01*
X104142857Y-116587142D01*
X104190476Y-116634761D01*
X104285714Y-116682380D01*
X104476190Y-116682380D01*
X104571428Y-116634761D01*
X104619047Y-116587142D01*
X104666666Y-116491904D01*
X104666666Y-116301428D01*
X104619047Y-116206190D01*
X104571428Y-116158571D01*
X104476190Y-116110952D01*
X104057142Y-90932380D02*
X103723809Y-90456190D01*
X103485714Y-90932380D02*
X103485714Y-89932380D01*
X103866666Y-89932380D01*
X103961904Y-89980000D01*
X104009523Y-90027619D01*
X104057142Y-90122857D01*
X104057142Y-90265714D01*
X104009523Y-90360952D01*
X103961904Y-90408571D01*
X103866666Y-90456190D01*
X103485714Y-90456190D01*
X105009523Y-90932380D02*
X104438095Y-90932380D01*
X104723809Y-90932380D02*
X104723809Y-89932380D01*
X104628571Y-90075238D01*
X104533333Y-90170476D01*
X104438095Y-90218095D01*
X105485714Y-90932380D02*
X105676190Y-90932380D01*
X105771428Y-90884761D01*
X105819047Y-90837142D01*
X105914285Y-90694285D01*
X105961904Y-90503809D01*
X105961904Y-90122857D01*
X105914285Y-90027619D01*
X105866666Y-89980000D01*
X105771428Y-89932380D01*
X105580952Y-89932380D01*
X105485714Y-89980000D01*
X105438095Y-90027619D01*
X105390476Y-90122857D01*
X105390476Y-90360952D01*
X105438095Y-90456190D01*
X105485714Y-90503809D01*
X105580952Y-90551428D01*
X105771428Y-90551428D01*
X105866666Y-90503809D01*
X105914285Y-90456190D01*
X105961904Y-90360952D01*
X126277142Y-126822380D02*
X125943809Y-126346190D01*
X125705714Y-126822380D02*
X125705714Y-125822380D01*
X126086666Y-125822380D01*
X126181904Y-125870000D01*
X126229523Y-125917619D01*
X126277142Y-126012857D01*
X126277142Y-126155714D01*
X126229523Y-126250952D01*
X126181904Y-126298571D01*
X126086666Y-126346190D01*
X125705714Y-126346190D01*
X126658095Y-125917619D02*
X126705714Y-125870000D01*
X126800952Y-125822380D01*
X127039047Y-125822380D01*
X127134285Y-125870000D01*
X127181904Y-125917619D01*
X127229523Y-126012857D01*
X127229523Y-126108095D01*
X127181904Y-126250952D01*
X126610476Y-126822380D01*
X127229523Y-126822380D01*
X127848571Y-125822380D02*
X127943809Y-125822380D01*
X128039047Y-125870000D01*
X128086666Y-125917619D01*
X128134285Y-126012857D01*
X128181904Y-126203333D01*
X128181904Y-126441428D01*
X128134285Y-126631904D01*
X128086666Y-126727142D01*
X128039047Y-126774761D01*
X127943809Y-126822380D01*
X127848571Y-126822380D01*
X127753333Y-126774761D01*
X127705714Y-126727142D01*
X127658095Y-126631904D01*
X127610476Y-126441428D01*
X127610476Y-126203333D01*
X127658095Y-126012857D01*
X127705714Y-125917619D01*
X127753333Y-125870000D01*
X127848571Y-125822380D01*
X111357142Y-114802380D02*
X111023809Y-114326190D01*
X110785714Y-114802380D02*
X110785714Y-113802380D01*
X111166666Y-113802380D01*
X111261904Y-113850000D01*
X111309523Y-113897619D01*
X111357142Y-113992857D01*
X111357142Y-114135714D01*
X111309523Y-114230952D01*
X111261904Y-114278571D01*
X111166666Y-114326190D01*
X110785714Y-114326190D01*
X111738095Y-113897619D02*
X111785714Y-113850000D01*
X111880952Y-113802380D01*
X112119047Y-113802380D01*
X112214285Y-113850000D01*
X112261904Y-113897619D01*
X112309523Y-113992857D01*
X112309523Y-114088095D01*
X112261904Y-114230952D01*
X111690476Y-114802380D01*
X112309523Y-114802380D01*
X113261904Y-114802380D02*
X112690476Y-114802380D01*
X112976190Y-114802380D02*
X112976190Y-113802380D01*
X112880952Y-113945238D01*
X112785714Y-114040476D01*
X112690476Y-114088095D01*
X70238095Y-83452380D02*
X70238095Y-82452380D01*
X70238095Y-82928571D02*
X70809523Y-82928571D01*
X70809523Y-83452380D02*
X70809523Y-82452380D01*
X71809523Y-83452380D02*
X71238095Y-83452380D01*
X71523809Y-83452380D02*
X71523809Y-82452380D01*
X71428571Y-82595238D01*
X71333333Y-82690476D01*
X71238095Y-82738095D01*
X137238095Y-83452380D02*
X137238095Y-82452380D01*
X137238095Y-82928571D02*
X137809523Y-82928571D01*
X137809523Y-83452380D02*
X137809523Y-82452380D01*
X138238095Y-82547619D02*
X138285714Y-82500000D01*
X138380952Y-82452380D01*
X138619047Y-82452380D01*
X138714285Y-82500000D01*
X138761904Y-82547619D01*
X138809523Y-82642857D01*
X138809523Y-82738095D01*
X138761904Y-82880952D01*
X138190476Y-83452380D01*
X138809523Y-83452380D01*
X137238095Y-138452380D02*
X137238095Y-137452380D01*
X137238095Y-137928571D02*
X137809523Y-137928571D01*
X137809523Y-138452380D02*
X137809523Y-137452380D01*
X138190476Y-137452380D02*
X138809523Y-137452380D01*
X138476190Y-137833333D01*
X138619047Y-137833333D01*
X138714285Y-137880952D01*
X138761904Y-137928571D01*
X138809523Y-138023809D01*
X138809523Y-138261904D01*
X138761904Y-138357142D01*
X138714285Y-138404761D01*
X138619047Y-138452380D01*
X138333333Y-138452380D01*
X138238095Y-138404761D01*
X138190476Y-138357142D01*
X70238095Y-138452380D02*
X70238095Y-137452380D01*
X70238095Y-137928571D02*
X70809523Y-137928571D01*
X70809523Y-138452380D02*
X70809523Y-137452380D01*
X71714285Y-137785714D02*
X71714285Y-138452380D01*
X71476190Y-137404761D02*
X71238095Y-138119047D01*
X71857142Y-138119047D01*
M02*
