G04 #@! TF.GenerationSoftware,KiCad,Pcbnew,(5.1.5)-3*
G04 #@! TF.CreationDate,2020-04-05T12:45:20+05:30*
G04 #@! TF.ProjectId,Con+fb(v+i),436f6e2b-6662-4287-962b-69292e6b6963,rev?*
G04 #@! TF.SameCoordinates,Original*
G04 #@! TF.FileFunction,Soldermask,Bot*
G04 #@! TF.FilePolarity,Negative*
%FSLAX46Y46*%
G04 Gerber Fmt 4.6, Leading zero omitted, Abs format (unit mm)*
G04 Created by KiCad (PCBNEW (5.1.5)-3) date 2020-04-05 12:45:20*
%MOMM*%
%LPD*%
G04 APERTURE LIST*
%ADD10C,0.100000*%
G04 APERTURE END LIST*
D10*
G36*
X138889943Y-139066248D02*
G01*
X139445189Y-139296238D01*
X139445190Y-139296239D01*
X139944899Y-139630134D01*
X140369866Y-140055101D01*
X140369867Y-140055103D01*
X140703762Y-140554811D01*
X140933752Y-141110057D01*
X141051000Y-141699501D01*
X141051000Y-142300499D01*
X140933752Y-142889943D01*
X140703762Y-143445189D01*
X140703761Y-143445190D01*
X140369866Y-143944899D01*
X139944899Y-144369866D01*
X139693347Y-144537948D01*
X139445189Y-144703762D01*
X138889943Y-144933752D01*
X138300499Y-145051000D01*
X137699501Y-145051000D01*
X137110057Y-144933752D01*
X136554811Y-144703762D01*
X136306653Y-144537948D01*
X136055101Y-144369866D01*
X135630134Y-143944899D01*
X135296239Y-143445190D01*
X135296238Y-143445189D01*
X135066248Y-142889943D01*
X134949000Y-142300499D01*
X134949000Y-141699501D01*
X135066248Y-141110057D01*
X135296238Y-140554811D01*
X135630133Y-140055103D01*
X135630134Y-140055101D01*
X136055101Y-139630134D01*
X136554810Y-139296239D01*
X136554811Y-139296238D01*
X137110057Y-139066248D01*
X137699501Y-138949000D01*
X138300499Y-138949000D01*
X138889943Y-139066248D01*
G37*
G36*
X71889943Y-139066248D02*
G01*
X72445189Y-139296238D01*
X72445190Y-139296239D01*
X72944899Y-139630134D01*
X73369866Y-140055101D01*
X73369867Y-140055103D01*
X73703762Y-140554811D01*
X73933752Y-141110057D01*
X74051000Y-141699501D01*
X74051000Y-142300499D01*
X73933752Y-142889943D01*
X73703762Y-143445189D01*
X73703761Y-143445190D01*
X73369866Y-143944899D01*
X72944899Y-144369866D01*
X72693347Y-144537948D01*
X72445189Y-144703762D01*
X71889943Y-144933752D01*
X71300499Y-145051000D01*
X70699501Y-145051000D01*
X70110057Y-144933752D01*
X69554811Y-144703762D01*
X69306653Y-144537948D01*
X69055101Y-144369866D01*
X68630134Y-143944899D01*
X68296239Y-143445190D01*
X68296238Y-143445189D01*
X68066248Y-142889943D01*
X67949000Y-142300499D01*
X67949000Y-141699501D01*
X68066248Y-141110057D01*
X68296238Y-140554811D01*
X68630133Y-140055103D01*
X68630134Y-140055101D01*
X69055101Y-139630134D01*
X69554810Y-139296239D01*
X69554811Y-139296238D01*
X70110057Y-139066248D01*
X70699501Y-138949000D01*
X71300499Y-138949000D01*
X71889943Y-139066248D01*
G37*
G36*
X78113512Y-133743927D02*
G01*
X78262812Y-133773624D01*
X78426784Y-133841544D01*
X78574354Y-133940147D01*
X78699853Y-134065646D01*
X78798456Y-134213216D01*
X78866376Y-134377188D01*
X78901000Y-134551259D01*
X78901000Y-134728741D01*
X78866376Y-134902812D01*
X78798456Y-135066784D01*
X78699853Y-135214354D01*
X78574354Y-135339853D01*
X78426784Y-135438456D01*
X78262812Y-135506376D01*
X78113512Y-135536073D01*
X78088742Y-135541000D01*
X77911258Y-135541000D01*
X77886488Y-135536073D01*
X77737188Y-135506376D01*
X77573216Y-135438456D01*
X77425646Y-135339853D01*
X77300147Y-135214354D01*
X77201544Y-135066784D01*
X77133624Y-134902812D01*
X77099000Y-134728741D01*
X77099000Y-134551259D01*
X77133624Y-134377188D01*
X77201544Y-134213216D01*
X77300147Y-134065646D01*
X77425646Y-133940147D01*
X77573216Y-133841544D01*
X77737188Y-133773624D01*
X77886488Y-133743927D01*
X77911258Y-133739000D01*
X78088742Y-133739000D01*
X78113512Y-133743927D01*
G37*
G36*
X91113512Y-133723927D02*
G01*
X91262812Y-133753624D01*
X91426784Y-133821544D01*
X91574354Y-133920147D01*
X91699853Y-134045646D01*
X91798456Y-134193216D01*
X91866376Y-134357188D01*
X91901000Y-134531259D01*
X91901000Y-134708741D01*
X91866376Y-134882812D01*
X91798456Y-135046784D01*
X91699853Y-135194354D01*
X91574354Y-135319853D01*
X91426784Y-135418456D01*
X91262812Y-135486376D01*
X91113512Y-135516073D01*
X91088742Y-135521000D01*
X90911258Y-135521000D01*
X90886488Y-135516073D01*
X90737188Y-135486376D01*
X90573216Y-135418456D01*
X90425646Y-135319853D01*
X90300147Y-135194354D01*
X90201544Y-135046784D01*
X90133624Y-134882812D01*
X90099000Y-134708741D01*
X90099000Y-134531259D01*
X90133624Y-134357188D01*
X90201544Y-134193216D01*
X90300147Y-134045646D01*
X90425646Y-133920147D01*
X90573216Y-133821544D01*
X90737188Y-133753624D01*
X90886488Y-133723927D01*
X90911258Y-133719000D01*
X91088742Y-133719000D01*
X91113512Y-133723927D01*
G37*
G36*
X104113512Y-133343927D02*
G01*
X104262812Y-133373624D01*
X104426784Y-133441544D01*
X104574354Y-133540147D01*
X104699853Y-133665646D01*
X104798456Y-133813216D01*
X104866376Y-133977188D01*
X104901000Y-134151259D01*
X104901000Y-134328741D01*
X104866376Y-134502812D01*
X104798456Y-134666784D01*
X104699853Y-134814354D01*
X104574354Y-134939853D01*
X104426784Y-135038456D01*
X104262812Y-135106376D01*
X104113512Y-135136073D01*
X104088742Y-135141000D01*
X103911258Y-135141000D01*
X103886488Y-135136073D01*
X103737188Y-135106376D01*
X103573216Y-135038456D01*
X103425646Y-134939853D01*
X103300147Y-134814354D01*
X103201544Y-134666784D01*
X103133624Y-134502812D01*
X103099000Y-134328741D01*
X103099000Y-134151259D01*
X103133624Y-133977188D01*
X103201544Y-133813216D01*
X103300147Y-133665646D01*
X103425646Y-133540147D01*
X103573216Y-133441544D01*
X103737188Y-133373624D01*
X103886488Y-133343927D01*
X103911258Y-133339000D01*
X104088742Y-133339000D01*
X104113512Y-133343927D01*
G37*
G36*
X126653512Y-133103927D02*
G01*
X126802812Y-133133624D01*
X126966784Y-133201544D01*
X127114354Y-133300147D01*
X127239853Y-133425646D01*
X127338456Y-133573216D01*
X127406376Y-133737188D01*
X127441000Y-133911259D01*
X127441000Y-134088741D01*
X127406376Y-134262812D01*
X127338456Y-134426784D01*
X127239853Y-134574354D01*
X127114354Y-134699853D01*
X126966784Y-134798456D01*
X126802812Y-134866376D01*
X126653512Y-134896073D01*
X126628742Y-134901000D01*
X126451258Y-134901000D01*
X126426488Y-134896073D01*
X126277188Y-134866376D01*
X126113216Y-134798456D01*
X125965646Y-134699853D01*
X125840147Y-134574354D01*
X125741544Y-134426784D01*
X125673624Y-134262812D01*
X125639000Y-134088741D01*
X125639000Y-133911259D01*
X125673624Y-133737188D01*
X125741544Y-133573216D01*
X125840147Y-133425646D01*
X125965646Y-133300147D01*
X126113216Y-133201544D01*
X126277188Y-133133624D01*
X126426488Y-133103927D01*
X126451258Y-133099000D01*
X126628742Y-133099000D01*
X126653512Y-133103927D01*
G37*
G36*
X124901000Y-134901000D02*
G01*
X123099000Y-134901000D01*
X123099000Y-133099000D01*
X124901000Y-133099000D01*
X124901000Y-134901000D01*
G37*
G36*
X98901000Y-134901000D02*
G01*
X97099000Y-134901000D01*
X97099000Y-133099000D01*
X98901000Y-133099000D01*
X98901000Y-134901000D01*
G37*
G36*
X86113512Y-133103927D02*
G01*
X86262812Y-133133624D01*
X86426784Y-133201544D01*
X86574354Y-133300147D01*
X86699853Y-133425646D01*
X86798456Y-133573216D01*
X86866376Y-133737188D01*
X86901000Y-133911259D01*
X86901000Y-134088741D01*
X86866376Y-134262812D01*
X86798456Y-134426784D01*
X86699853Y-134574354D01*
X86574354Y-134699853D01*
X86426784Y-134798456D01*
X86262812Y-134866376D01*
X86113512Y-134896073D01*
X86088742Y-134901000D01*
X85911258Y-134901000D01*
X85886488Y-134896073D01*
X85737188Y-134866376D01*
X85573216Y-134798456D01*
X85425646Y-134699853D01*
X85300147Y-134574354D01*
X85201544Y-134426784D01*
X85133624Y-134262812D01*
X85099000Y-134088741D01*
X85099000Y-133911259D01*
X85133624Y-133737188D01*
X85201544Y-133573216D01*
X85300147Y-133425646D01*
X85425646Y-133300147D01*
X85573216Y-133201544D01*
X85737188Y-133133624D01*
X85886488Y-133103927D01*
X85911258Y-133099000D01*
X86088742Y-133099000D01*
X86113512Y-133103927D01*
G37*
G36*
X78113512Y-131203927D02*
G01*
X78262812Y-131233624D01*
X78426784Y-131301544D01*
X78574354Y-131400147D01*
X78699853Y-131525646D01*
X78798456Y-131673216D01*
X78866376Y-131837188D01*
X78901000Y-132011259D01*
X78901000Y-132188741D01*
X78866376Y-132362812D01*
X78798456Y-132526784D01*
X78699853Y-132674354D01*
X78574354Y-132799853D01*
X78426784Y-132898456D01*
X78262812Y-132966376D01*
X78113512Y-132996073D01*
X78088742Y-133001000D01*
X77911258Y-133001000D01*
X77886488Y-132996073D01*
X77737188Y-132966376D01*
X77573216Y-132898456D01*
X77425646Y-132799853D01*
X77300147Y-132674354D01*
X77201544Y-132526784D01*
X77133624Y-132362812D01*
X77099000Y-132188741D01*
X77099000Y-132011259D01*
X77133624Y-131837188D01*
X77201544Y-131673216D01*
X77300147Y-131525646D01*
X77425646Y-131400147D01*
X77573216Y-131301544D01*
X77737188Y-131233624D01*
X77886488Y-131203927D01*
X77911258Y-131199000D01*
X78088742Y-131199000D01*
X78113512Y-131203927D01*
G37*
G36*
X91113512Y-131183927D02*
G01*
X91262812Y-131213624D01*
X91426784Y-131281544D01*
X91574354Y-131380147D01*
X91699853Y-131505646D01*
X91798456Y-131653216D01*
X91866376Y-131817188D01*
X91901000Y-131991259D01*
X91901000Y-132168741D01*
X91866376Y-132342812D01*
X91798456Y-132506784D01*
X91699853Y-132654354D01*
X91574354Y-132779853D01*
X91426784Y-132878456D01*
X91262812Y-132946376D01*
X91113512Y-132976073D01*
X91088742Y-132981000D01*
X90911258Y-132981000D01*
X90886488Y-132976073D01*
X90737188Y-132946376D01*
X90573216Y-132878456D01*
X90425646Y-132779853D01*
X90300147Y-132654354D01*
X90201544Y-132506784D01*
X90133624Y-132342812D01*
X90099000Y-132168741D01*
X90099000Y-131991259D01*
X90133624Y-131817188D01*
X90201544Y-131653216D01*
X90300147Y-131505646D01*
X90425646Y-131380147D01*
X90573216Y-131281544D01*
X90737188Y-131213624D01*
X90886488Y-131183927D01*
X90911258Y-131179000D01*
X91088742Y-131179000D01*
X91113512Y-131183927D01*
G37*
G36*
X104113512Y-130803927D02*
G01*
X104262812Y-130833624D01*
X104426784Y-130901544D01*
X104574354Y-131000147D01*
X104699853Y-131125646D01*
X104798456Y-131273216D01*
X104866376Y-131437188D01*
X104901000Y-131611259D01*
X104901000Y-131788741D01*
X104866376Y-131962812D01*
X104798456Y-132126784D01*
X104699853Y-132274354D01*
X104574354Y-132399853D01*
X104426784Y-132498456D01*
X104262812Y-132566376D01*
X104113512Y-132596073D01*
X104088742Y-132601000D01*
X103911258Y-132601000D01*
X103886488Y-132596073D01*
X103737188Y-132566376D01*
X103573216Y-132498456D01*
X103425646Y-132399853D01*
X103300147Y-132274354D01*
X103201544Y-132126784D01*
X103133624Y-131962812D01*
X103099000Y-131788741D01*
X103099000Y-131611259D01*
X103133624Y-131437188D01*
X103201544Y-131273216D01*
X103300147Y-131125646D01*
X103425646Y-131000147D01*
X103573216Y-130901544D01*
X103737188Y-130833624D01*
X103886488Y-130803927D01*
X103911258Y-130799000D01*
X104088742Y-130799000D01*
X104113512Y-130803927D01*
G37*
G36*
X98113512Y-130563927D02*
G01*
X98262812Y-130593624D01*
X98426784Y-130661544D01*
X98574354Y-130760147D01*
X98699853Y-130885646D01*
X98798456Y-131033216D01*
X98866376Y-131197188D01*
X98901000Y-131371259D01*
X98901000Y-131548741D01*
X98866376Y-131722812D01*
X98798456Y-131886784D01*
X98699853Y-132034354D01*
X98574354Y-132159853D01*
X98426784Y-132258456D01*
X98262812Y-132326376D01*
X98113512Y-132356073D01*
X98088742Y-132361000D01*
X97911258Y-132361000D01*
X97886488Y-132356073D01*
X97737188Y-132326376D01*
X97573216Y-132258456D01*
X97425646Y-132159853D01*
X97300147Y-132034354D01*
X97201544Y-131886784D01*
X97133624Y-131722812D01*
X97099000Y-131548741D01*
X97099000Y-131371259D01*
X97133624Y-131197188D01*
X97201544Y-131033216D01*
X97300147Y-130885646D01*
X97425646Y-130760147D01*
X97573216Y-130661544D01*
X97737188Y-130593624D01*
X97886488Y-130563927D01*
X97911258Y-130559000D01*
X98088742Y-130559000D01*
X98113512Y-130563927D01*
G37*
G36*
X86113512Y-130563927D02*
G01*
X86262812Y-130593624D01*
X86426784Y-130661544D01*
X86574354Y-130760147D01*
X86699853Y-130885646D01*
X86798456Y-131033216D01*
X86866376Y-131197188D01*
X86901000Y-131371259D01*
X86901000Y-131548741D01*
X86866376Y-131722812D01*
X86798456Y-131886784D01*
X86699853Y-132034354D01*
X86574354Y-132159853D01*
X86426784Y-132258456D01*
X86262812Y-132326376D01*
X86113512Y-132356073D01*
X86088742Y-132361000D01*
X85911258Y-132361000D01*
X85886488Y-132356073D01*
X85737188Y-132326376D01*
X85573216Y-132258456D01*
X85425646Y-132159853D01*
X85300147Y-132034354D01*
X85201544Y-131886784D01*
X85133624Y-131722812D01*
X85099000Y-131548741D01*
X85099000Y-131371259D01*
X85133624Y-131197188D01*
X85201544Y-131033216D01*
X85300147Y-130885646D01*
X85425646Y-130760147D01*
X85573216Y-130661544D01*
X85737188Y-130593624D01*
X85886488Y-130563927D01*
X85911258Y-130559000D01*
X86088742Y-130559000D01*
X86113512Y-130563927D01*
G37*
G36*
X78113512Y-128663927D02*
G01*
X78262812Y-128693624D01*
X78426784Y-128761544D01*
X78574354Y-128860147D01*
X78699853Y-128985646D01*
X78798456Y-129133216D01*
X78866376Y-129297188D01*
X78901000Y-129471259D01*
X78901000Y-129648741D01*
X78866376Y-129822812D01*
X78798456Y-129986784D01*
X78699853Y-130134354D01*
X78574354Y-130259853D01*
X78426784Y-130358456D01*
X78262812Y-130426376D01*
X78113512Y-130456073D01*
X78088742Y-130461000D01*
X77911258Y-130461000D01*
X77886488Y-130456073D01*
X77737188Y-130426376D01*
X77573216Y-130358456D01*
X77425646Y-130259853D01*
X77300147Y-130134354D01*
X77201544Y-129986784D01*
X77133624Y-129822812D01*
X77099000Y-129648741D01*
X77099000Y-129471259D01*
X77133624Y-129297188D01*
X77201544Y-129133216D01*
X77300147Y-128985646D01*
X77425646Y-128860147D01*
X77573216Y-128761544D01*
X77737188Y-128693624D01*
X77886488Y-128663927D01*
X77911258Y-128659000D01*
X78088742Y-128659000D01*
X78113512Y-128663927D01*
G37*
G36*
X91113512Y-128643927D02*
G01*
X91262812Y-128673624D01*
X91426784Y-128741544D01*
X91574354Y-128840147D01*
X91699853Y-128965646D01*
X91798456Y-129113216D01*
X91866376Y-129277188D01*
X91901000Y-129451259D01*
X91901000Y-129628741D01*
X91866376Y-129802812D01*
X91798456Y-129966784D01*
X91699853Y-130114354D01*
X91574354Y-130239853D01*
X91426784Y-130338456D01*
X91262812Y-130406376D01*
X91113512Y-130436073D01*
X91088742Y-130441000D01*
X90911258Y-130441000D01*
X90886488Y-130436073D01*
X90737188Y-130406376D01*
X90573216Y-130338456D01*
X90425646Y-130239853D01*
X90300147Y-130114354D01*
X90201544Y-129966784D01*
X90133624Y-129802812D01*
X90099000Y-129628741D01*
X90099000Y-129451259D01*
X90133624Y-129277188D01*
X90201544Y-129113216D01*
X90300147Y-128965646D01*
X90425646Y-128840147D01*
X90573216Y-128741544D01*
X90737188Y-128673624D01*
X90886488Y-128643927D01*
X90911258Y-128639000D01*
X91088742Y-128639000D01*
X91113512Y-128643927D01*
G37*
G36*
X104113512Y-128263927D02*
G01*
X104262812Y-128293624D01*
X104426784Y-128361544D01*
X104574354Y-128460147D01*
X104699853Y-128585646D01*
X104798456Y-128733216D01*
X104866376Y-128897188D01*
X104901000Y-129071259D01*
X104901000Y-129248741D01*
X104866376Y-129422812D01*
X104798456Y-129586784D01*
X104699853Y-129734354D01*
X104574354Y-129859853D01*
X104426784Y-129958456D01*
X104262812Y-130026376D01*
X104113512Y-130056073D01*
X104088742Y-130061000D01*
X103911258Y-130061000D01*
X103886488Y-130056073D01*
X103737188Y-130026376D01*
X103573216Y-129958456D01*
X103425646Y-129859853D01*
X103300147Y-129734354D01*
X103201544Y-129586784D01*
X103133624Y-129422812D01*
X103099000Y-129248741D01*
X103099000Y-129071259D01*
X103133624Y-128897188D01*
X103201544Y-128733216D01*
X103300147Y-128585646D01*
X103425646Y-128460147D01*
X103573216Y-128361544D01*
X103737188Y-128293624D01*
X103886488Y-128263927D01*
X103911258Y-128259000D01*
X104088742Y-128259000D01*
X104113512Y-128263927D01*
G37*
G36*
X86901000Y-129821000D02*
G01*
X85099000Y-129821000D01*
X85099000Y-128019000D01*
X86901000Y-128019000D01*
X86901000Y-129821000D01*
G37*
G36*
X98113512Y-128023927D02*
G01*
X98262812Y-128053624D01*
X98426784Y-128121544D01*
X98574354Y-128220147D01*
X98699853Y-128345646D01*
X98798456Y-128493216D01*
X98866376Y-128657188D01*
X98901000Y-128831259D01*
X98901000Y-129008741D01*
X98866376Y-129182812D01*
X98798456Y-129346784D01*
X98699853Y-129494354D01*
X98574354Y-129619853D01*
X98426784Y-129718456D01*
X98262812Y-129786376D01*
X98113512Y-129816073D01*
X98088742Y-129821000D01*
X97911258Y-129821000D01*
X97886488Y-129816073D01*
X97737188Y-129786376D01*
X97573216Y-129718456D01*
X97425646Y-129619853D01*
X97300147Y-129494354D01*
X97201544Y-129346784D01*
X97133624Y-129182812D01*
X97099000Y-129008741D01*
X97099000Y-128831259D01*
X97133624Y-128657188D01*
X97201544Y-128493216D01*
X97300147Y-128345646D01*
X97425646Y-128220147D01*
X97573216Y-128121544D01*
X97737188Y-128053624D01*
X97886488Y-128023927D01*
X97911258Y-128019000D01*
X98088742Y-128019000D01*
X98113512Y-128023927D01*
G37*
G36*
X78113512Y-126123927D02*
G01*
X78262812Y-126153624D01*
X78426784Y-126221544D01*
X78574354Y-126320147D01*
X78699853Y-126445646D01*
X78798456Y-126593216D01*
X78866376Y-126757188D01*
X78901000Y-126931259D01*
X78901000Y-127108741D01*
X78866376Y-127282812D01*
X78798456Y-127446784D01*
X78699853Y-127594354D01*
X78574354Y-127719853D01*
X78426784Y-127818456D01*
X78262812Y-127886376D01*
X78113512Y-127916073D01*
X78088742Y-127921000D01*
X77911258Y-127921000D01*
X77886488Y-127916073D01*
X77737188Y-127886376D01*
X77573216Y-127818456D01*
X77425646Y-127719853D01*
X77300147Y-127594354D01*
X77201544Y-127446784D01*
X77133624Y-127282812D01*
X77099000Y-127108741D01*
X77099000Y-126931259D01*
X77133624Y-126757188D01*
X77201544Y-126593216D01*
X77300147Y-126445646D01*
X77425646Y-126320147D01*
X77573216Y-126221544D01*
X77737188Y-126153624D01*
X77886488Y-126123927D01*
X77911258Y-126119000D01*
X78088742Y-126119000D01*
X78113512Y-126123927D01*
G37*
G36*
X91901000Y-127901000D02*
G01*
X90099000Y-127901000D01*
X90099000Y-126099000D01*
X91901000Y-126099000D01*
X91901000Y-127901000D01*
G37*
G36*
X104113512Y-125723927D02*
G01*
X104262812Y-125753624D01*
X104426784Y-125821544D01*
X104574354Y-125920147D01*
X104699853Y-126045646D01*
X104798456Y-126193216D01*
X104866376Y-126357188D01*
X104901000Y-126531259D01*
X104901000Y-126708741D01*
X104866376Y-126882812D01*
X104798456Y-127046784D01*
X104699853Y-127194354D01*
X104574354Y-127319853D01*
X104426784Y-127418456D01*
X104262812Y-127486376D01*
X104113512Y-127516073D01*
X104088742Y-127521000D01*
X103911258Y-127521000D01*
X103886488Y-127516073D01*
X103737188Y-127486376D01*
X103573216Y-127418456D01*
X103425646Y-127319853D01*
X103300147Y-127194354D01*
X103201544Y-127046784D01*
X103133624Y-126882812D01*
X103099000Y-126708741D01*
X103099000Y-126531259D01*
X103133624Y-126357188D01*
X103201544Y-126193216D01*
X103300147Y-126045646D01*
X103425646Y-125920147D01*
X103573216Y-125821544D01*
X103737188Y-125753624D01*
X103886488Y-125723927D01*
X103911258Y-125719000D01*
X104088742Y-125719000D01*
X104113512Y-125723927D01*
G37*
G36*
X98113512Y-125483927D02*
G01*
X98262812Y-125513624D01*
X98426784Y-125581544D01*
X98574354Y-125680147D01*
X98699853Y-125805646D01*
X98798456Y-125953216D01*
X98866376Y-126117188D01*
X98901000Y-126291259D01*
X98901000Y-126468741D01*
X98866376Y-126642812D01*
X98798456Y-126806784D01*
X98699853Y-126954354D01*
X98574354Y-127079853D01*
X98426784Y-127178456D01*
X98262812Y-127246376D01*
X98113512Y-127276073D01*
X98088742Y-127281000D01*
X97911258Y-127281000D01*
X97886488Y-127276073D01*
X97737188Y-127246376D01*
X97573216Y-127178456D01*
X97425646Y-127079853D01*
X97300147Y-126954354D01*
X97201544Y-126806784D01*
X97133624Y-126642812D01*
X97099000Y-126468741D01*
X97099000Y-126291259D01*
X97133624Y-126117188D01*
X97201544Y-125953216D01*
X97300147Y-125805646D01*
X97425646Y-125680147D01*
X97573216Y-125581544D01*
X97737188Y-125513624D01*
X97886488Y-125483927D01*
X97911258Y-125479000D01*
X98088742Y-125479000D01*
X98113512Y-125483927D01*
G37*
G36*
X78113512Y-123583927D02*
G01*
X78262812Y-123613624D01*
X78426784Y-123681544D01*
X78574354Y-123780147D01*
X78699853Y-123905646D01*
X78798456Y-124053216D01*
X78866376Y-124217188D01*
X78901000Y-124391259D01*
X78901000Y-124568741D01*
X78866376Y-124742812D01*
X78798456Y-124906784D01*
X78699853Y-125054354D01*
X78574354Y-125179853D01*
X78426784Y-125278456D01*
X78262812Y-125346376D01*
X78113512Y-125376073D01*
X78088742Y-125381000D01*
X77911258Y-125381000D01*
X77886488Y-125376073D01*
X77737188Y-125346376D01*
X77573216Y-125278456D01*
X77425646Y-125179853D01*
X77300147Y-125054354D01*
X77201544Y-124906784D01*
X77133624Y-124742812D01*
X77099000Y-124568741D01*
X77099000Y-124391259D01*
X77133624Y-124217188D01*
X77201544Y-124053216D01*
X77300147Y-123905646D01*
X77425646Y-123780147D01*
X77573216Y-123681544D01*
X77737188Y-123613624D01*
X77886488Y-123583927D01*
X77911258Y-123579000D01*
X78088742Y-123579000D01*
X78113512Y-123583927D01*
G37*
G36*
X104113512Y-123183927D02*
G01*
X104262812Y-123213624D01*
X104426784Y-123281544D01*
X104574354Y-123380147D01*
X104699853Y-123505646D01*
X104798456Y-123653216D01*
X104866376Y-123817188D01*
X104896073Y-123966488D01*
X104901000Y-123991258D01*
X104901000Y-124168742D01*
X104896073Y-124193512D01*
X104866376Y-124342812D01*
X104798456Y-124506784D01*
X104699853Y-124654354D01*
X104574354Y-124779853D01*
X104426784Y-124878456D01*
X104262812Y-124946376D01*
X104113512Y-124976073D01*
X104088742Y-124981000D01*
X103911258Y-124981000D01*
X103886488Y-124976073D01*
X103737188Y-124946376D01*
X103573216Y-124878456D01*
X103425646Y-124779853D01*
X103300147Y-124654354D01*
X103201544Y-124506784D01*
X103133624Y-124342812D01*
X103103927Y-124193512D01*
X103099000Y-124168742D01*
X103099000Y-123991258D01*
X103103927Y-123966488D01*
X103133624Y-123817188D01*
X103201544Y-123653216D01*
X103300147Y-123505646D01*
X103425646Y-123380147D01*
X103573216Y-123281544D01*
X103737188Y-123213624D01*
X103886488Y-123183927D01*
X103911258Y-123179000D01*
X104088742Y-123179000D01*
X104113512Y-123183927D01*
G37*
G36*
X132248228Y-123181703D02*
G01*
X132403100Y-123245853D01*
X132542481Y-123338985D01*
X132661015Y-123457519D01*
X132754147Y-123596900D01*
X132818297Y-123751772D01*
X132851000Y-123916184D01*
X132851000Y-124083816D01*
X132818297Y-124248228D01*
X132754147Y-124403100D01*
X132661015Y-124542481D01*
X132542481Y-124661015D01*
X132403100Y-124754147D01*
X132248228Y-124818297D01*
X132083816Y-124851000D01*
X131916184Y-124851000D01*
X131751772Y-124818297D01*
X131596900Y-124754147D01*
X131457519Y-124661015D01*
X131338985Y-124542481D01*
X131245853Y-124403100D01*
X131181703Y-124248228D01*
X131149000Y-124083816D01*
X131149000Y-123916184D01*
X131181703Y-123751772D01*
X131245853Y-123596900D01*
X131338985Y-123457519D01*
X131457519Y-123338985D01*
X131596900Y-123245853D01*
X131751772Y-123181703D01*
X131916184Y-123149000D01*
X132083816Y-123149000D01*
X132248228Y-123181703D01*
G37*
G36*
X122088228Y-123181703D02*
G01*
X122243100Y-123245853D01*
X122382481Y-123338985D01*
X122501015Y-123457519D01*
X122594147Y-123596900D01*
X122658297Y-123751772D01*
X122691000Y-123916184D01*
X122691000Y-124083816D01*
X122658297Y-124248228D01*
X122594147Y-124403100D01*
X122501015Y-124542481D01*
X122382481Y-124661015D01*
X122243100Y-124754147D01*
X122088228Y-124818297D01*
X121923816Y-124851000D01*
X121756184Y-124851000D01*
X121591772Y-124818297D01*
X121436900Y-124754147D01*
X121297519Y-124661015D01*
X121178985Y-124542481D01*
X121085853Y-124403100D01*
X121021703Y-124248228D01*
X120989000Y-124083816D01*
X120989000Y-123916184D01*
X121021703Y-123751772D01*
X121085853Y-123596900D01*
X121178985Y-123457519D01*
X121297519Y-123338985D01*
X121436900Y-123245853D01*
X121591772Y-123181703D01*
X121756184Y-123149000D01*
X121923816Y-123149000D01*
X122088228Y-123181703D01*
G37*
G36*
X98113512Y-122943927D02*
G01*
X98262812Y-122973624D01*
X98426784Y-123041544D01*
X98574354Y-123140147D01*
X98699853Y-123265646D01*
X98798456Y-123413216D01*
X98866376Y-123577188D01*
X98901000Y-123751259D01*
X98901000Y-123928741D01*
X98866376Y-124102812D01*
X98798456Y-124266784D01*
X98699853Y-124414354D01*
X98574354Y-124539853D01*
X98426784Y-124638456D01*
X98262812Y-124706376D01*
X98113512Y-124736073D01*
X98088742Y-124741000D01*
X97911258Y-124741000D01*
X97886488Y-124736073D01*
X97737188Y-124706376D01*
X97573216Y-124638456D01*
X97425646Y-124539853D01*
X97300147Y-124414354D01*
X97201544Y-124266784D01*
X97133624Y-124102812D01*
X97099000Y-123928741D01*
X97099000Y-123751259D01*
X97133624Y-123577188D01*
X97201544Y-123413216D01*
X97300147Y-123265646D01*
X97425646Y-123140147D01*
X97573216Y-123041544D01*
X97737188Y-122973624D01*
X97886488Y-122943927D01*
X97911258Y-122939000D01*
X98088742Y-122939000D01*
X98113512Y-122943927D01*
G37*
G36*
X112238205Y-121802461D02*
G01*
X112356153Y-121825922D01*
X112417319Y-121851258D01*
X112578359Y-121917963D01*
X112778342Y-122051587D01*
X112948413Y-122221658D01*
X113082037Y-122421641D01*
X113120440Y-122514354D01*
X113174078Y-122643847D01*
X113221000Y-122879742D01*
X113221000Y-123120258D01*
X113174078Y-123356153D01*
X113150441Y-123413218D01*
X113082037Y-123578359D01*
X112948413Y-123778342D01*
X112778342Y-123948413D01*
X112578359Y-124082037D01*
X112448194Y-124135953D01*
X112356153Y-124174078D01*
X112120259Y-124221000D01*
X111879741Y-124221000D01*
X111643847Y-124174078D01*
X111551806Y-124135953D01*
X111421641Y-124082037D01*
X111221658Y-123948413D01*
X111051587Y-123778342D01*
X110917963Y-123578359D01*
X110849559Y-123413218D01*
X110825922Y-123356153D01*
X110779000Y-123120258D01*
X110779000Y-122879742D01*
X110825922Y-122643847D01*
X110879560Y-122514354D01*
X110917963Y-122421641D01*
X111051587Y-122221658D01*
X111221658Y-122051587D01*
X111421641Y-121917963D01*
X111582681Y-121851258D01*
X111643847Y-121825922D01*
X111761795Y-121802461D01*
X111879741Y-121779000D01*
X112120259Y-121779000D01*
X112238205Y-121802461D01*
G37*
G36*
X78113512Y-121043927D02*
G01*
X78262812Y-121073624D01*
X78426784Y-121141544D01*
X78574354Y-121240147D01*
X78699853Y-121365646D01*
X78798456Y-121513216D01*
X78866376Y-121677188D01*
X78901000Y-121851259D01*
X78901000Y-122028741D01*
X78866376Y-122202812D01*
X78798456Y-122366784D01*
X78699853Y-122514354D01*
X78574354Y-122639853D01*
X78426784Y-122738456D01*
X78262812Y-122806376D01*
X78113512Y-122836073D01*
X78088742Y-122841000D01*
X77911258Y-122841000D01*
X77886488Y-122836073D01*
X77737188Y-122806376D01*
X77573216Y-122738456D01*
X77425646Y-122639853D01*
X77300147Y-122514354D01*
X77201544Y-122366784D01*
X77133624Y-122202812D01*
X77099000Y-122028741D01*
X77099000Y-121851259D01*
X77133624Y-121677188D01*
X77201544Y-121513216D01*
X77300147Y-121365646D01*
X77425646Y-121240147D01*
X77573216Y-121141544D01*
X77737188Y-121073624D01*
X77886488Y-121043927D01*
X77911258Y-121039000D01*
X78088742Y-121039000D01*
X78113512Y-121043927D01*
G37*
G36*
X104113512Y-120643927D02*
G01*
X104262812Y-120673624D01*
X104426784Y-120741544D01*
X104574354Y-120840147D01*
X104699853Y-120965646D01*
X104798456Y-121113216D01*
X104866376Y-121277188D01*
X104901000Y-121451259D01*
X104901000Y-121628741D01*
X104866376Y-121802812D01*
X104798456Y-121966784D01*
X104699853Y-122114354D01*
X104574354Y-122239853D01*
X104426784Y-122338456D01*
X104262812Y-122406376D01*
X104113512Y-122436073D01*
X104088742Y-122441000D01*
X103911258Y-122441000D01*
X103886488Y-122436073D01*
X103737188Y-122406376D01*
X103573216Y-122338456D01*
X103425646Y-122239853D01*
X103300147Y-122114354D01*
X103201544Y-121966784D01*
X103133624Y-121802812D01*
X103099000Y-121628741D01*
X103099000Y-121451259D01*
X103133624Y-121277188D01*
X103201544Y-121113216D01*
X103300147Y-120965646D01*
X103425646Y-120840147D01*
X103573216Y-120741544D01*
X103737188Y-120673624D01*
X103886488Y-120643927D01*
X103911258Y-120639000D01*
X104088742Y-120639000D01*
X104113512Y-120643927D01*
G37*
G36*
X98113512Y-120403927D02*
G01*
X98262812Y-120433624D01*
X98426784Y-120501544D01*
X98574354Y-120600147D01*
X98699853Y-120725646D01*
X98798456Y-120873216D01*
X98866376Y-121037188D01*
X98901000Y-121211259D01*
X98901000Y-121388741D01*
X98866376Y-121562812D01*
X98798456Y-121726784D01*
X98699853Y-121874354D01*
X98574354Y-121999853D01*
X98426784Y-122098456D01*
X98262812Y-122166376D01*
X98113512Y-122196073D01*
X98088742Y-122201000D01*
X97911258Y-122201000D01*
X97886488Y-122196073D01*
X97737188Y-122166376D01*
X97573216Y-122098456D01*
X97425646Y-121999853D01*
X97300147Y-121874354D01*
X97201544Y-121726784D01*
X97133624Y-121562812D01*
X97099000Y-121388741D01*
X97099000Y-121211259D01*
X97133624Y-121037188D01*
X97201544Y-120873216D01*
X97300147Y-120725646D01*
X97425646Y-120600147D01*
X97573216Y-120501544D01*
X97737188Y-120433624D01*
X97886488Y-120403927D01*
X97911258Y-120399000D01*
X98088742Y-120399000D01*
X98113512Y-120403927D01*
G37*
G36*
X116038205Y-119302461D02*
G01*
X116156153Y-119325922D01*
X116176509Y-119334354D01*
X116378359Y-119417963D01*
X116578342Y-119551587D01*
X116748413Y-119721658D01*
X116882037Y-119921641D01*
X116903871Y-119974353D01*
X116955855Y-120099852D01*
X116974078Y-120143848D01*
X117007327Y-120311000D01*
X117021000Y-120379742D01*
X117021000Y-120620258D01*
X116977262Y-120840148D01*
X116974078Y-120856152D01*
X116882037Y-121078359D01*
X116748413Y-121278342D01*
X116578342Y-121448413D01*
X116378359Y-121582037D01*
X116265605Y-121628741D01*
X116156153Y-121674078D01*
X115920259Y-121721000D01*
X115679741Y-121721000D01*
X115443847Y-121674078D01*
X115334395Y-121628741D01*
X115221641Y-121582037D01*
X115021658Y-121448413D01*
X114851587Y-121278342D01*
X114717963Y-121078359D01*
X114625922Y-120856152D01*
X114622739Y-120840148D01*
X114579000Y-120620258D01*
X114579000Y-120379742D01*
X114592674Y-120311000D01*
X114625922Y-120143848D01*
X114644146Y-120099852D01*
X114696129Y-119974353D01*
X114717963Y-119921641D01*
X114851587Y-119721658D01*
X115021658Y-119551587D01*
X115221641Y-119417963D01*
X115423491Y-119334354D01*
X115443847Y-119325922D01*
X115561795Y-119302461D01*
X115679741Y-119279000D01*
X115920259Y-119279000D01*
X116038205Y-119302461D01*
G37*
G36*
X124151000Y-120311000D02*
G01*
X121849000Y-120311000D01*
X121849000Y-118009000D01*
X124151000Y-118009000D01*
X124151000Y-120311000D01*
G37*
G36*
X132151000Y-120311000D02*
G01*
X129849000Y-120311000D01*
X129849000Y-118009000D01*
X132151000Y-118009000D01*
X132151000Y-120311000D01*
G37*
G36*
X78113512Y-118503927D02*
G01*
X78262812Y-118533624D01*
X78426784Y-118601544D01*
X78574354Y-118700147D01*
X78699853Y-118825646D01*
X78798456Y-118973216D01*
X78866376Y-119137188D01*
X78901000Y-119311259D01*
X78901000Y-119488741D01*
X78866376Y-119662812D01*
X78798456Y-119826784D01*
X78699853Y-119974354D01*
X78574354Y-120099853D01*
X78426784Y-120198456D01*
X78262812Y-120266376D01*
X78113512Y-120296073D01*
X78088742Y-120301000D01*
X77911258Y-120301000D01*
X77886488Y-120296073D01*
X77737188Y-120266376D01*
X77573216Y-120198456D01*
X77425646Y-120099853D01*
X77300147Y-119974354D01*
X77201544Y-119826784D01*
X77133624Y-119662812D01*
X77099000Y-119488741D01*
X77099000Y-119311259D01*
X77133624Y-119137188D01*
X77201544Y-118973216D01*
X77300147Y-118825646D01*
X77425646Y-118700147D01*
X77573216Y-118601544D01*
X77737188Y-118533624D01*
X77886488Y-118503927D01*
X77911258Y-118499000D01*
X78088742Y-118499000D01*
X78113512Y-118503927D01*
G37*
G36*
X104901000Y-119901000D02*
G01*
X103099000Y-119901000D01*
X103099000Y-118099000D01*
X104901000Y-118099000D01*
X104901000Y-119901000D01*
G37*
G36*
X98113512Y-117863927D02*
G01*
X98262812Y-117893624D01*
X98426784Y-117961544D01*
X98574354Y-118060147D01*
X98699853Y-118185646D01*
X98798456Y-118333216D01*
X98866376Y-118497188D01*
X98901000Y-118671259D01*
X98901000Y-118848741D01*
X98866376Y-119022812D01*
X98798456Y-119186784D01*
X98699853Y-119334354D01*
X98574354Y-119459853D01*
X98426784Y-119558456D01*
X98262812Y-119626376D01*
X98113512Y-119656073D01*
X98088742Y-119661000D01*
X97911258Y-119661000D01*
X97886488Y-119656073D01*
X97737188Y-119626376D01*
X97573216Y-119558456D01*
X97425646Y-119459853D01*
X97300147Y-119334354D01*
X97201544Y-119186784D01*
X97133624Y-119022812D01*
X97099000Y-118848741D01*
X97099000Y-118671259D01*
X97133624Y-118497188D01*
X97201544Y-118333216D01*
X97300147Y-118185646D01*
X97425646Y-118060147D01*
X97573216Y-117961544D01*
X97737188Y-117893624D01*
X97886488Y-117863927D01*
X97911258Y-117859000D01*
X98088742Y-117859000D01*
X98113512Y-117863927D01*
G37*
G36*
X112238205Y-116802461D02*
G01*
X112356153Y-116825922D01*
X112448194Y-116864047D01*
X112578359Y-116917963D01*
X112778342Y-117051587D01*
X112948413Y-117221658D01*
X113082037Y-117421641D01*
X113174078Y-117643848D01*
X113221000Y-117879741D01*
X113221000Y-118120259D01*
X113174078Y-118356152D01*
X113082037Y-118578359D01*
X112948413Y-118778342D01*
X112778342Y-118948413D01*
X112578359Y-119082037D01*
X112448194Y-119135953D01*
X112356153Y-119174078D01*
X112292285Y-119186782D01*
X112120259Y-119221000D01*
X111879741Y-119221000D01*
X111707715Y-119186782D01*
X111643847Y-119174078D01*
X111551806Y-119135953D01*
X111421641Y-119082037D01*
X111221658Y-118948413D01*
X111051587Y-118778342D01*
X110917963Y-118578359D01*
X110825922Y-118356152D01*
X110779000Y-118120259D01*
X110779000Y-117879741D01*
X110825922Y-117643848D01*
X110917963Y-117421641D01*
X111051587Y-117221658D01*
X111221658Y-117051587D01*
X111421641Y-116917963D01*
X111551806Y-116864047D01*
X111643847Y-116825922D01*
X111761795Y-116802461D01*
X111879741Y-116779000D01*
X112120259Y-116779000D01*
X112238205Y-116802461D01*
G37*
G36*
X78113512Y-115963927D02*
G01*
X78262812Y-115993624D01*
X78426784Y-116061544D01*
X78574354Y-116160147D01*
X78699853Y-116285646D01*
X78798456Y-116433216D01*
X78866376Y-116597188D01*
X78901000Y-116771259D01*
X78901000Y-116948741D01*
X78866376Y-117122812D01*
X78798456Y-117286784D01*
X78699853Y-117434354D01*
X78574354Y-117559853D01*
X78426784Y-117658456D01*
X78262812Y-117726376D01*
X78113512Y-117756073D01*
X78088742Y-117761000D01*
X77911258Y-117761000D01*
X77886488Y-117756073D01*
X77737188Y-117726376D01*
X77573216Y-117658456D01*
X77425646Y-117559853D01*
X77300147Y-117434354D01*
X77201544Y-117286784D01*
X77133624Y-117122812D01*
X77099000Y-116948741D01*
X77099000Y-116771259D01*
X77133624Y-116597188D01*
X77201544Y-116433216D01*
X77300147Y-116285646D01*
X77425646Y-116160147D01*
X77573216Y-116061544D01*
X77737188Y-115993624D01*
X77886488Y-115963927D01*
X77911258Y-115959000D01*
X78088742Y-115959000D01*
X78113512Y-115963927D01*
G37*
G36*
X89113512Y-113723927D02*
G01*
X89262812Y-113753624D01*
X89426784Y-113821544D01*
X89574354Y-113920147D01*
X89699853Y-114045646D01*
X89798456Y-114193216D01*
X89866376Y-114357188D01*
X89901000Y-114531259D01*
X89901000Y-114708741D01*
X89866376Y-114882812D01*
X89798456Y-115046784D01*
X89699853Y-115194354D01*
X89574354Y-115319853D01*
X89426784Y-115418456D01*
X89262812Y-115486376D01*
X89113512Y-115516073D01*
X89088742Y-115521000D01*
X88911258Y-115521000D01*
X88886488Y-115516073D01*
X88737188Y-115486376D01*
X88573216Y-115418456D01*
X88425646Y-115319853D01*
X88300147Y-115194354D01*
X88201544Y-115046784D01*
X88133624Y-114882812D01*
X88099000Y-114708741D01*
X88099000Y-114531259D01*
X88133624Y-114357188D01*
X88201544Y-114193216D01*
X88300147Y-114045646D01*
X88425646Y-113920147D01*
X88573216Y-113821544D01*
X88737188Y-113753624D01*
X88886488Y-113723927D01*
X88911258Y-113719000D01*
X89088742Y-113719000D01*
X89113512Y-113723927D01*
G37*
G36*
X78113512Y-113423927D02*
G01*
X78262812Y-113453624D01*
X78426784Y-113521544D01*
X78574354Y-113620147D01*
X78699853Y-113745646D01*
X78798456Y-113893216D01*
X78866376Y-114057188D01*
X78901000Y-114231259D01*
X78901000Y-114408741D01*
X78866376Y-114582812D01*
X78798456Y-114746784D01*
X78699853Y-114894354D01*
X78574354Y-115019853D01*
X78426784Y-115118456D01*
X78262812Y-115186376D01*
X78113512Y-115216073D01*
X78088742Y-115221000D01*
X77911258Y-115221000D01*
X77886488Y-115216073D01*
X77737188Y-115186376D01*
X77573216Y-115118456D01*
X77425646Y-115019853D01*
X77300147Y-114894354D01*
X77201544Y-114746784D01*
X77133624Y-114582812D01*
X77099000Y-114408741D01*
X77099000Y-114231259D01*
X77133624Y-114057188D01*
X77201544Y-113893216D01*
X77300147Y-113745646D01*
X77425646Y-113620147D01*
X77573216Y-113521544D01*
X77737188Y-113453624D01*
X77886488Y-113423927D01*
X77911258Y-113419000D01*
X78088742Y-113419000D01*
X78113512Y-113423927D01*
G37*
G36*
X89113512Y-111183927D02*
G01*
X89262812Y-111213624D01*
X89426784Y-111281544D01*
X89574354Y-111380147D01*
X89699853Y-111505646D01*
X89798456Y-111653216D01*
X89866376Y-111817188D01*
X89901000Y-111991259D01*
X89901000Y-112168741D01*
X89866376Y-112342812D01*
X89798456Y-112506784D01*
X89699853Y-112654354D01*
X89574354Y-112779853D01*
X89426784Y-112878456D01*
X89262812Y-112946376D01*
X89113512Y-112976073D01*
X89088742Y-112981000D01*
X88911258Y-112981000D01*
X88886488Y-112976073D01*
X88737188Y-112946376D01*
X88573216Y-112878456D01*
X88425646Y-112779853D01*
X88300147Y-112654354D01*
X88201544Y-112506784D01*
X88133624Y-112342812D01*
X88099000Y-112168741D01*
X88099000Y-111991259D01*
X88133624Y-111817188D01*
X88201544Y-111653216D01*
X88300147Y-111505646D01*
X88425646Y-111380147D01*
X88573216Y-111281544D01*
X88737188Y-111213624D01*
X88886488Y-111183927D01*
X88911258Y-111179000D01*
X89088742Y-111179000D01*
X89113512Y-111183927D01*
G37*
G36*
X78113512Y-110883927D02*
G01*
X78262812Y-110913624D01*
X78426784Y-110981544D01*
X78574354Y-111080147D01*
X78699853Y-111205646D01*
X78798456Y-111353216D01*
X78866376Y-111517188D01*
X78901000Y-111691259D01*
X78901000Y-111868741D01*
X78866376Y-112042812D01*
X78798456Y-112206784D01*
X78699853Y-112354354D01*
X78574354Y-112479853D01*
X78426784Y-112578456D01*
X78262812Y-112646376D01*
X78113512Y-112676073D01*
X78088742Y-112681000D01*
X77911258Y-112681000D01*
X77886488Y-112676073D01*
X77737188Y-112646376D01*
X77573216Y-112578456D01*
X77425646Y-112479853D01*
X77300147Y-112354354D01*
X77201544Y-112206784D01*
X77133624Y-112042812D01*
X77099000Y-111868741D01*
X77099000Y-111691259D01*
X77133624Y-111517188D01*
X77201544Y-111353216D01*
X77300147Y-111205646D01*
X77425646Y-111080147D01*
X77573216Y-110981544D01*
X77737188Y-110913624D01*
X77886488Y-110883927D01*
X77911258Y-110879000D01*
X78088742Y-110879000D01*
X78113512Y-110883927D01*
G37*
G36*
X89113512Y-108643927D02*
G01*
X89262812Y-108673624D01*
X89426784Y-108741544D01*
X89574354Y-108840147D01*
X89699853Y-108965646D01*
X89798456Y-109113216D01*
X89866376Y-109277188D01*
X89901000Y-109451259D01*
X89901000Y-109628741D01*
X89866376Y-109802812D01*
X89798456Y-109966784D01*
X89699853Y-110114354D01*
X89574354Y-110239853D01*
X89426784Y-110338456D01*
X89262812Y-110406376D01*
X89113512Y-110436073D01*
X89088742Y-110441000D01*
X88911258Y-110441000D01*
X88886488Y-110436073D01*
X88737188Y-110406376D01*
X88573216Y-110338456D01*
X88425646Y-110239853D01*
X88300147Y-110114354D01*
X88201544Y-109966784D01*
X88133624Y-109802812D01*
X88099000Y-109628741D01*
X88099000Y-109451259D01*
X88133624Y-109277188D01*
X88201544Y-109113216D01*
X88300147Y-108965646D01*
X88425646Y-108840147D01*
X88573216Y-108741544D01*
X88737188Y-108673624D01*
X88886488Y-108643927D01*
X88911258Y-108639000D01*
X89088742Y-108639000D01*
X89113512Y-108643927D01*
G37*
G36*
X123224549Y-107871116D02*
G01*
X123335734Y-107893232D01*
X123545203Y-107979997D01*
X123733720Y-108105960D01*
X123894040Y-108266280D01*
X124020003Y-108454797D01*
X124106768Y-108664266D01*
X124128884Y-108775451D01*
X124151000Y-108886635D01*
X124151000Y-109113365D01*
X124143462Y-109151259D01*
X124106768Y-109335734D01*
X124020003Y-109545203D01*
X123894040Y-109733720D01*
X123733720Y-109894040D01*
X123545203Y-110020003D01*
X123335734Y-110106768D01*
X123297596Y-110114354D01*
X123113365Y-110151000D01*
X122886635Y-110151000D01*
X122702404Y-110114354D01*
X122664266Y-110106768D01*
X122454797Y-110020003D01*
X122266280Y-109894040D01*
X122105960Y-109733720D01*
X121979997Y-109545203D01*
X121893232Y-109335734D01*
X121856538Y-109151259D01*
X121849000Y-109113365D01*
X121849000Y-108886635D01*
X121871116Y-108775451D01*
X121893232Y-108664266D01*
X121979997Y-108454797D01*
X122105960Y-108266280D01*
X122266280Y-108105960D01*
X122454797Y-107979997D01*
X122664266Y-107893232D01*
X122775451Y-107871116D01*
X122886635Y-107849000D01*
X123113365Y-107849000D01*
X123224549Y-107871116D01*
G37*
G36*
X131224549Y-107871116D02*
G01*
X131335734Y-107893232D01*
X131545203Y-107979997D01*
X131733720Y-108105960D01*
X131894040Y-108266280D01*
X132020003Y-108454797D01*
X132106768Y-108664266D01*
X132128884Y-108775451D01*
X132151000Y-108886635D01*
X132151000Y-109113365D01*
X132143462Y-109151259D01*
X132106768Y-109335734D01*
X132020003Y-109545203D01*
X131894040Y-109733720D01*
X131733720Y-109894040D01*
X131545203Y-110020003D01*
X131335734Y-110106768D01*
X131297596Y-110114354D01*
X131113365Y-110151000D01*
X130886635Y-110151000D01*
X130702404Y-110114354D01*
X130664266Y-110106768D01*
X130454797Y-110020003D01*
X130266280Y-109894040D01*
X130105960Y-109733720D01*
X129979997Y-109545203D01*
X129893232Y-109335734D01*
X129856538Y-109151259D01*
X129849000Y-109113365D01*
X129849000Y-108886635D01*
X129871116Y-108775451D01*
X129893232Y-108664266D01*
X129979997Y-108454797D01*
X130105960Y-108266280D01*
X130266280Y-108105960D01*
X130454797Y-107979997D01*
X130664266Y-107893232D01*
X130775451Y-107871116D01*
X130886635Y-107849000D01*
X131113365Y-107849000D01*
X131224549Y-107871116D01*
G37*
G36*
X78113512Y-108343927D02*
G01*
X78262812Y-108373624D01*
X78426784Y-108441544D01*
X78574354Y-108540147D01*
X78699853Y-108665646D01*
X78798456Y-108813216D01*
X78866376Y-108977188D01*
X78901000Y-109151259D01*
X78901000Y-109328741D01*
X78866376Y-109502812D01*
X78798456Y-109666784D01*
X78699853Y-109814354D01*
X78574354Y-109939853D01*
X78426784Y-110038456D01*
X78262812Y-110106376D01*
X78113512Y-110136073D01*
X78088742Y-110141000D01*
X77911258Y-110141000D01*
X77886488Y-110136073D01*
X77737188Y-110106376D01*
X77573216Y-110038456D01*
X77425646Y-109939853D01*
X77300147Y-109814354D01*
X77201544Y-109666784D01*
X77133624Y-109502812D01*
X77099000Y-109328741D01*
X77099000Y-109151259D01*
X77133624Y-108977188D01*
X77201544Y-108813216D01*
X77300147Y-108665646D01*
X77425646Y-108540147D01*
X77573216Y-108441544D01*
X77737188Y-108373624D01*
X77886488Y-108343927D01*
X77911258Y-108339000D01*
X78088742Y-108339000D01*
X78113512Y-108343927D01*
G37*
G36*
X89901000Y-107901000D02*
G01*
X88099000Y-107901000D01*
X88099000Y-106099000D01*
X89901000Y-106099000D01*
X89901000Y-107901000D01*
G37*
G36*
X112748228Y-106181703D02*
G01*
X112903100Y-106245853D01*
X113042481Y-106338985D01*
X113161015Y-106457519D01*
X113254147Y-106596900D01*
X113318297Y-106751772D01*
X113351000Y-106916184D01*
X113351000Y-107083816D01*
X113318297Y-107248228D01*
X113254147Y-107403100D01*
X113161015Y-107542481D01*
X113042481Y-107661015D01*
X112903100Y-107754147D01*
X112748228Y-107818297D01*
X112583816Y-107851000D01*
X112416184Y-107851000D01*
X112251772Y-107818297D01*
X112096900Y-107754147D01*
X111957519Y-107661015D01*
X111838985Y-107542481D01*
X111745853Y-107403100D01*
X111681703Y-107248228D01*
X111649000Y-107083816D01*
X111649000Y-106916184D01*
X111681703Y-106751772D01*
X111745853Y-106596900D01*
X111838985Y-106457519D01*
X111957519Y-106338985D01*
X112096900Y-106245853D01*
X112251772Y-106181703D01*
X112416184Y-106149000D01*
X112583816Y-106149000D01*
X112748228Y-106181703D01*
G37*
G36*
X115851000Y-107851000D02*
G01*
X114149000Y-107851000D01*
X114149000Y-106149000D01*
X115851000Y-106149000D01*
X115851000Y-107851000D01*
G37*
G36*
X78113512Y-105803927D02*
G01*
X78262812Y-105833624D01*
X78426784Y-105901544D01*
X78574354Y-106000147D01*
X78699853Y-106125646D01*
X78798456Y-106273216D01*
X78866376Y-106437188D01*
X78896073Y-106586488D01*
X78898145Y-106596903D01*
X78901000Y-106611259D01*
X78901000Y-106788741D01*
X78866376Y-106962812D01*
X78798456Y-107126784D01*
X78699853Y-107274354D01*
X78574354Y-107399853D01*
X78426784Y-107498456D01*
X78262812Y-107566376D01*
X78113512Y-107596073D01*
X78088742Y-107601000D01*
X77911258Y-107601000D01*
X77886488Y-107596073D01*
X77737188Y-107566376D01*
X77573216Y-107498456D01*
X77425646Y-107399853D01*
X77300147Y-107274354D01*
X77201544Y-107126784D01*
X77133624Y-106962812D01*
X77099000Y-106788741D01*
X77099000Y-106611259D01*
X77101856Y-106596903D01*
X77103927Y-106586488D01*
X77133624Y-106437188D01*
X77201544Y-106273216D01*
X77300147Y-106125646D01*
X77425646Y-106000147D01*
X77573216Y-105901544D01*
X77737188Y-105833624D01*
X77886488Y-105803927D01*
X77911258Y-105799000D01*
X78088742Y-105799000D01*
X78113512Y-105803927D01*
G37*
G36*
X124151000Y-105151000D02*
G01*
X121849000Y-105151000D01*
X121849000Y-102849000D01*
X124151000Y-102849000D01*
X124151000Y-105151000D01*
G37*
G36*
X132151000Y-105151000D02*
G01*
X129849000Y-105151000D01*
X129849000Y-102849000D01*
X132151000Y-102849000D01*
X132151000Y-105151000D01*
G37*
G36*
X78113512Y-103263927D02*
G01*
X78262812Y-103293624D01*
X78426784Y-103361544D01*
X78574354Y-103460147D01*
X78699853Y-103585646D01*
X78798456Y-103733216D01*
X78866376Y-103897188D01*
X78901000Y-104071259D01*
X78901000Y-104248741D01*
X78866376Y-104422812D01*
X78798456Y-104586784D01*
X78699853Y-104734354D01*
X78574354Y-104859853D01*
X78426784Y-104958456D01*
X78262812Y-105026376D01*
X78113512Y-105056073D01*
X78088742Y-105061000D01*
X77911258Y-105061000D01*
X77886488Y-105056073D01*
X77737188Y-105026376D01*
X77573216Y-104958456D01*
X77425646Y-104859853D01*
X77300147Y-104734354D01*
X77201544Y-104586784D01*
X77133624Y-104422812D01*
X77099000Y-104248741D01*
X77099000Y-104071259D01*
X77133624Y-103897188D01*
X77201544Y-103733216D01*
X77300147Y-103585646D01*
X77425646Y-103460147D01*
X77573216Y-103361544D01*
X77737188Y-103293624D01*
X77886488Y-103263927D01*
X77911258Y-103259000D01*
X78088742Y-103259000D01*
X78113512Y-103263927D01*
G37*
G36*
X78113512Y-100723927D02*
G01*
X78262812Y-100753624D01*
X78426784Y-100821544D01*
X78574354Y-100920147D01*
X78699853Y-101045646D01*
X78798456Y-101193216D01*
X78866376Y-101357188D01*
X78901000Y-101531259D01*
X78901000Y-101708741D01*
X78866376Y-101882812D01*
X78798456Y-102046784D01*
X78699853Y-102194354D01*
X78574354Y-102319853D01*
X78426784Y-102418456D01*
X78262812Y-102486376D01*
X78113512Y-102516073D01*
X78088742Y-102521000D01*
X77911258Y-102521000D01*
X77886488Y-102516073D01*
X77737188Y-102486376D01*
X77573216Y-102418456D01*
X77425646Y-102319853D01*
X77300147Y-102194354D01*
X77201544Y-102046784D01*
X77133624Y-101882812D01*
X77099000Y-101708741D01*
X77099000Y-101531259D01*
X77133624Y-101357188D01*
X77201544Y-101193216D01*
X77300147Y-101045646D01*
X77425646Y-100920147D01*
X77573216Y-100821544D01*
X77737188Y-100753624D01*
X77886488Y-100723927D01*
X77911258Y-100719000D01*
X78088742Y-100719000D01*
X78113512Y-100723927D01*
G37*
G36*
X89113512Y-99643927D02*
G01*
X89262812Y-99673624D01*
X89426784Y-99741544D01*
X89574354Y-99840147D01*
X89699853Y-99965646D01*
X89798456Y-100113216D01*
X89866376Y-100277188D01*
X89901000Y-100451259D01*
X89901000Y-100628741D01*
X89866376Y-100802812D01*
X89798456Y-100966784D01*
X89699853Y-101114354D01*
X89574354Y-101239853D01*
X89426784Y-101338456D01*
X89262812Y-101406376D01*
X89113512Y-101436073D01*
X89088742Y-101441000D01*
X88911258Y-101441000D01*
X88886488Y-101436073D01*
X88737188Y-101406376D01*
X88573216Y-101338456D01*
X88425646Y-101239853D01*
X88300147Y-101114354D01*
X88201544Y-100966784D01*
X88133624Y-100802812D01*
X88099000Y-100628741D01*
X88099000Y-100451259D01*
X88133624Y-100277188D01*
X88201544Y-100113216D01*
X88300147Y-99965646D01*
X88425646Y-99840147D01*
X88573216Y-99741544D01*
X88737188Y-99673624D01*
X88886488Y-99643927D01*
X88911258Y-99639000D01*
X89088742Y-99639000D01*
X89113512Y-99643927D01*
G37*
G36*
X78113512Y-98183927D02*
G01*
X78262812Y-98213624D01*
X78426784Y-98281544D01*
X78574354Y-98380147D01*
X78699853Y-98505646D01*
X78798456Y-98653216D01*
X78866376Y-98817188D01*
X78901000Y-98991259D01*
X78901000Y-99168741D01*
X78866376Y-99342812D01*
X78798456Y-99506784D01*
X78699853Y-99654354D01*
X78574354Y-99779853D01*
X78426784Y-99878456D01*
X78262812Y-99946376D01*
X78113512Y-99976073D01*
X78088742Y-99981000D01*
X77911258Y-99981000D01*
X77886488Y-99976073D01*
X77737188Y-99946376D01*
X77573216Y-99878456D01*
X77425646Y-99779853D01*
X77300147Y-99654354D01*
X77201544Y-99506784D01*
X77133624Y-99342812D01*
X77099000Y-99168741D01*
X77099000Y-98991259D01*
X77133624Y-98817188D01*
X77201544Y-98653216D01*
X77300147Y-98505646D01*
X77425646Y-98380147D01*
X77573216Y-98281544D01*
X77737188Y-98213624D01*
X77886488Y-98183927D01*
X77911258Y-98179000D01*
X78088742Y-98179000D01*
X78113512Y-98183927D01*
G37*
G36*
X89901000Y-98901000D02*
G01*
X88099000Y-98901000D01*
X88099000Y-97099000D01*
X89901000Y-97099000D01*
X89901000Y-98901000D01*
G37*
G36*
X78113512Y-95643927D02*
G01*
X78262812Y-95673624D01*
X78426784Y-95741544D01*
X78574354Y-95840147D01*
X78699853Y-95965646D01*
X78798456Y-96113216D01*
X78866376Y-96277188D01*
X78901000Y-96451259D01*
X78901000Y-96628741D01*
X78866376Y-96802812D01*
X78798456Y-96966784D01*
X78699853Y-97114354D01*
X78574354Y-97239853D01*
X78426784Y-97338456D01*
X78262812Y-97406376D01*
X78113512Y-97436073D01*
X78088742Y-97441000D01*
X77911258Y-97441000D01*
X77886488Y-97436073D01*
X77737188Y-97406376D01*
X77573216Y-97338456D01*
X77425646Y-97239853D01*
X77300147Y-97114354D01*
X77201544Y-96966784D01*
X77133624Y-96802812D01*
X77099000Y-96628741D01*
X77099000Y-96451259D01*
X77133624Y-96277188D01*
X77201544Y-96113216D01*
X77300147Y-95965646D01*
X77425646Y-95840147D01*
X77573216Y-95741544D01*
X77737188Y-95673624D01*
X77886488Y-95643927D01*
X77911258Y-95639000D01*
X78088742Y-95639000D01*
X78113512Y-95643927D01*
G37*
G36*
X110702585Y-92478802D02*
G01*
X110852410Y-92508604D01*
X111134674Y-92625521D01*
X111388705Y-92795259D01*
X111604741Y-93011295D01*
X111774479Y-93265326D01*
X111873451Y-93504267D01*
X111891396Y-93547591D01*
X111951000Y-93847239D01*
X111951000Y-94152761D01*
X111946430Y-94175734D01*
X111891396Y-94452410D01*
X111774479Y-94734674D01*
X111604741Y-94988705D01*
X111388705Y-95204741D01*
X111134674Y-95374479D01*
X110852410Y-95491396D01*
X110702585Y-95521198D01*
X110552761Y-95551000D01*
X110247239Y-95551000D01*
X110097415Y-95521198D01*
X109947590Y-95491396D01*
X109665326Y-95374479D01*
X109411295Y-95204741D01*
X109195259Y-94988705D01*
X109025521Y-94734674D01*
X108908604Y-94452410D01*
X108853570Y-94175734D01*
X108849000Y-94152761D01*
X108849000Y-93847239D01*
X108908604Y-93547591D01*
X108926549Y-93504267D01*
X109025521Y-93265326D01*
X109195259Y-93011295D01*
X109411295Y-92795259D01*
X109665326Y-92625521D01*
X109947590Y-92508604D01*
X110097415Y-92478802D01*
X110247239Y-92449000D01*
X110552761Y-92449000D01*
X110702585Y-92478802D01*
G37*
G36*
X99302585Y-92478802D02*
G01*
X99452410Y-92508604D01*
X99734674Y-92625521D01*
X99988705Y-92795259D01*
X100204741Y-93011295D01*
X100374479Y-93265326D01*
X100473451Y-93504267D01*
X100491396Y-93547591D01*
X100551000Y-93847239D01*
X100551000Y-94152761D01*
X100546430Y-94175734D01*
X100491396Y-94452410D01*
X100374479Y-94734674D01*
X100204741Y-94988705D01*
X99988705Y-95204741D01*
X99734674Y-95374479D01*
X99452410Y-95491396D01*
X99302585Y-95521198D01*
X99152761Y-95551000D01*
X98847239Y-95551000D01*
X98697415Y-95521198D01*
X98547590Y-95491396D01*
X98265326Y-95374479D01*
X98011295Y-95204741D01*
X97795259Y-94988705D01*
X97625521Y-94734674D01*
X97508604Y-94452410D01*
X97453570Y-94175734D01*
X97449000Y-94152761D01*
X97449000Y-93847239D01*
X97508604Y-93547591D01*
X97526549Y-93504267D01*
X97625521Y-93265326D01*
X97795259Y-93011295D01*
X98011295Y-92795259D01*
X98265326Y-92625521D01*
X98547590Y-92508604D01*
X98697415Y-92478802D01*
X98847239Y-92449000D01*
X99152761Y-92449000D01*
X99302585Y-92478802D01*
G37*
G36*
X131224549Y-92711116D02*
G01*
X131335734Y-92733232D01*
X131545203Y-92819997D01*
X131733720Y-92945960D01*
X131894040Y-93106280D01*
X132020003Y-93294797D01*
X132106768Y-93504266D01*
X132151000Y-93726636D01*
X132151000Y-93953364D01*
X132106768Y-94175734D01*
X132020003Y-94385203D01*
X131894040Y-94573720D01*
X131733720Y-94734040D01*
X131545203Y-94860003D01*
X131335734Y-94946768D01*
X131224549Y-94968884D01*
X131113365Y-94991000D01*
X130886635Y-94991000D01*
X130775451Y-94968884D01*
X130664266Y-94946768D01*
X130454797Y-94860003D01*
X130266280Y-94734040D01*
X130105960Y-94573720D01*
X129979997Y-94385203D01*
X129893232Y-94175734D01*
X129849000Y-93953364D01*
X129849000Y-93726636D01*
X129893232Y-93504266D01*
X129979997Y-93294797D01*
X130105960Y-93106280D01*
X130266280Y-92945960D01*
X130454797Y-92819997D01*
X130664266Y-92733232D01*
X130775451Y-92711116D01*
X130886635Y-92689000D01*
X131113365Y-92689000D01*
X131224549Y-92711116D01*
G37*
G36*
X123224549Y-92711116D02*
G01*
X123335734Y-92733232D01*
X123545203Y-92819997D01*
X123733720Y-92945960D01*
X123894040Y-93106280D01*
X124020003Y-93294797D01*
X124106768Y-93504266D01*
X124151000Y-93726636D01*
X124151000Y-93953364D01*
X124106768Y-94175734D01*
X124020003Y-94385203D01*
X123894040Y-94573720D01*
X123733720Y-94734040D01*
X123545203Y-94860003D01*
X123335734Y-94946768D01*
X123224549Y-94968884D01*
X123113365Y-94991000D01*
X122886635Y-94991000D01*
X122775451Y-94968884D01*
X122664266Y-94946768D01*
X122454797Y-94860003D01*
X122266280Y-94734040D01*
X122105960Y-94573720D01*
X121979997Y-94385203D01*
X121893232Y-94175734D01*
X121849000Y-93953364D01*
X121849000Y-93726636D01*
X121893232Y-93504266D01*
X121979997Y-93294797D01*
X122105960Y-93106280D01*
X122266280Y-92945960D01*
X122454797Y-92819997D01*
X122664266Y-92733232D01*
X122775451Y-92711116D01*
X122886635Y-92689000D01*
X123113365Y-92689000D01*
X123224549Y-92711116D01*
G37*
G36*
X78901000Y-94901000D02*
G01*
X77099000Y-94901000D01*
X77099000Y-93099000D01*
X78901000Y-93099000D01*
X78901000Y-94901000D01*
G37*
G36*
X138889943Y-84066248D02*
G01*
X139445189Y-84296238D01*
X139445190Y-84296239D01*
X139944899Y-84630134D01*
X140369866Y-85055101D01*
X140369867Y-85055103D01*
X140703762Y-85554811D01*
X140933752Y-86110057D01*
X141051000Y-86699501D01*
X141051000Y-87300499D01*
X140933752Y-87889943D01*
X140703762Y-88445189D01*
X140703761Y-88445190D01*
X140369866Y-88944899D01*
X139944899Y-89369866D01*
X139693347Y-89537948D01*
X139445189Y-89703762D01*
X138889943Y-89933752D01*
X138300499Y-90051000D01*
X137699501Y-90051000D01*
X137110057Y-89933752D01*
X136554811Y-89703762D01*
X136306653Y-89537948D01*
X136055101Y-89369866D01*
X135630134Y-88944899D01*
X135296239Y-88445190D01*
X135296238Y-88445189D01*
X135066248Y-87889943D01*
X134949000Y-87300499D01*
X134949000Y-86699501D01*
X135066248Y-86110057D01*
X135296238Y-85554811D01*
X135630133Y-85055103D01*
X135630134Y-85055101D01*
X136055101Y-84630134D01*
X136554810Y-84296239D01*
X136554811Y-84296238D01*
X137110057Y-84066248D01*
X137699501Y-83949000D01*
X138300499Y-83949000D01*
X138889943Y-84066248D01*
G37*
G36*
X71889943Y-84066248D02*
G01*
X72445189Y-84296238D01*
X72445190Y-84296239D01*
X72944899Y-84630134D01*
X73369866Y-85055101D01*
X73369867Y-85055103D01*
X73703762Y-85554811D01*
X73933752Y-86110057D01*
X74051000Y-86699501D01*
X74051000Y-87300499D01*
X73933752Y-87889943D01*
X73703762Y-88445189D01*
X73703761Y-88445190D01*
X73369866Y-88944899D01*
X72944899Y-89369866D01*
X72693347Y-89537948D01*
X72445189Y-89703762D01*
X71889943Y-89933752D01*
X71300499Y-90051000D01*
X70699501Y-90051000D01*
X70110057Y-89933752D01*
X69554811Y-89703762D01*
X69306653Y-89537948D01*
X69055101Y-89369866D01*
X68630134Y-88944899D01*
X68296239Y-88445190D01*
X68296238Y-88445189D01*
X68066248Y-87889943D01*
X67949000Y-87300499D01*
X67949000Y-86699501D01*
X68066248Y-86110057D01*
X68296238Y-85554811D01*
X68630133Y-85055103D01*
X68630134Y-85055101D01*
X69055101Y-84630134D01*
X69554810Y-84296239D01*
X69554811Y-84296238D01*
X70110057Y-84066248D01*
X70699501Y-83949000D01*
X71300499Y-83949000D01*
X71889943Y-84066248D01*
G37*
M02*
