G04 #@! TF.GenerationSoftware,KiCad,Pcbnew,(5.1.5)-3*
G04 #@! TF.CreationDate,2020-04-05T12:45:20+05:30*
G04 #@! TF.ProjectId,Con+fb(v+i),436f6e2b-6662-4287-962b-69292e6b6963,rev?*
G04 #@! TF.SameCoordinates,Original*
G04 #@! TF.FileFunction,OtherDrawing,Comment*
%FSLAX46Y46*%
G04 Gerber Fmt 4.6, Leading zero omitted, Abs format (unit mm)*
G04 Created by KiCad (PCBNEW (5.1.5)-3) date 2020-04-05 12:45:20*
%MOMM*%
%LPD*%
G04 APERTURE LIST*
%ADD10C,0.150000*%
G04 APERTURE END LIST*
D10*
X146752380Y-118166666D02*
X146752380Y-118357142D01*
X146800000Y-118452380D01*
X146847619Y-118500000D01*
X146990476Y-118595238D01*
X147180952Y-118642857D01*
X147561904Y-118642857D01*
X147657142Y-118595238D01*
X147704761Y-118547619D01*
X147752380Y-118452380D01*
X147752380Y-118261904D01*
X147704761Y-118166666D01*
X147657142Y-118119047D01*
X147561904Y-118071428D01*
X147323809Y-118071428D01*
X147228571Y-118119047D01*
X147180952Y-118166666D01*
X147133333Y-118261904D01*
X147133333Y-118452380D01*
X147180952Y-118547619D01*
X147228571Y-118595238D01*
X147323809Y-118642857D01*
X146752380Y-117166666D02*
X146752380Y-117642857D01*
X147228571Y-117690476D01*
X147180952Y-117642857D01*
X147133333Y-117547619D01*
X147133333Y-117309523D01*
X147180952Y-117214285D01*
X147228571Y-117166666D01*
X147323809Y-117119047D01*
X147561904Y-117119047D01*
X147657142Y-117166666D01*
X147704761Y-117214285D01*
X147752380Y-117309523D01*
X147752380Y-117547619D01*
X147704761Y-117642857D01*
X147657142Y-117690476D01*
X147657142Y-116690476D02*
X147704761Y-116642857D01*
X147752380Y-116690476D01*
X147704761Y-116738095D01*
X147657142Y-116690476D01*
X147752380Y-116690476D01*
X146752380Y-116023809D02*
X146752380Y-115928571D01*
X146800000Y-115833333D01*
X146847619Y-115785714D01*
X146942857Y-115738095D01*
X147133333Y-115690476D01*
X147371428Y-115690476D01*
X147561904Y-115738095D01*
X147657142Y-115785714D01*
X147704761Y-115833333D01*
X147752380Y-115928571D01*
X147752380Y-116023809D01*
X147704761Y-116119047D01*
X147657142Y-116166666D01*
X147561904Y-116214285D01*
X147371428Y-116261904D01*
X147133333Y-116261904D01*
X146942857Y-116214285D01*
X146847619Y-116166666D01*
X146800000Y-116119047D01*
X146752380Y-116023809D01*
X146752380Y-115071428D02*
X146752380Y-114976190D01*
X146800000Y-114880952D01*
X146847619Y-114833333D01*
X146942857Y-114785714D01*
X147133333Y-114738095D01*
X147371428Y-114738095D01*
X147561904Y-114785714D01*
X147657142Y-114833333D01*
X147704761Y-114880952D01*
X147752380Y-114976190D01*
X147752380Y-115071428D01*
X147704761Y-115166666D01*
X147657142Y-115214285D01*
X147561904Y-115261904D01*
X147371428Y-115309523D01*
X147133333Y-115309523D01*
X146942857Y-115261904D01*
X146847619Y-115214285D01*
X146800000Y-115166666D01*
X146752380Y-115071428D01*
X146752380Y-114119047D02*
X146752380Y-114023809D01*
X146800000Y-113928571D01*
X146847619Y-113880952D01*
X146942857Y-113833333D01*
X147133333Y-113785714D01*
X147371428Y-113785714D01*
X147561904Y-113833333D01*
X147657142Y-113880952D01*
X147704761Y-113928571D01*
X147752380Y-114023809D01*
X147752380Y-114119047D01*
X147704761Y-114214285D01*
X147657142Y-114261904D01*
X147561904Y-114309523D01*
X147371428Y-114357142D01*
X147133333Y-114357142D01*
X146942857Y-114309523D01*
X146847619Y-114261904D01*
X146800000Y-114214285D01*
X146752380Y-114119047D01*
X147752380Y-112595238D02*
X147085714Y-112595238D01*
X147180952Y-112595238D02*
X147133333Y-112547619D01*
X147085714Y-112452380D01*
X147085714Y-112309523D01*
X147133333Y-112214285D01*
X147228571Y-112166666D01*
X147752380Y-112166666D01*
X147228571Y-112166666D02*
X147133333Y-112119047D01*
X147085714Y-112023809D01*
X147085714Y-111880952D01*
X147133333Y-111785714D01*
X147228571Y-111738095D01*
X147752380Y-111738095D01*
X147752380Y-111261904D02*
X147085714Y-111261904D01*
X147180952Y-111261904D02*
X147133333Y-111214285D01*
X147085714Y-111119047D01*
X147085714Y-110976190D01*
X147133333Y-110880952D01*
X147228571Y-110833333D01*
X147752380Y-110833333D01*
X147228571Y-110833333D02*
X147133333Y-110785714D01*
X147085714Y-110690476D01*
X147085714Y-110547619D01*
X147133333Y-110452380D01*
X147228571Y-110404761D01*
X147752380Y-110404761D01*
X146000000Y-147000000D02*
X146000000Y-82000000D01*
X143000000Y-147000000D02*
X146586421Y-147000000D01*
X143000000Y-82000000D02*
X146586421Y-82000000D01*
X146000000Y-82000000D02*
X146586421Y-83126504D01*
X146000000Y-82000000D02*
X145413579Y-83126504D01*
X146000000Y-147000000D02*
X146586421Y-145873496D01*
X146000000Y-147000000D02*
X145413579Y-145873496D01*
X100309523Y-77152380D02*
X100976190Y-77152380D01*
X100547619Y-78152380D01*
X101261904Y-77152380D02*
X101928571Y-77152380D01*
X101500000Y-78152380D01*
X102309523Y-78057142D02*
X102357142Y-78104761D01*
X102309523Y-78152380D01*
X102261904Y-78104761D01*
X102309523Y-78057142D01*
X102309523Y-78152380D01*
X102976190Y-77152380D02*
X103071428Y-77152380D01*
X103166666Y-77200000D01*
X103214285Y-77247619D01*
X103261904Y-77342857D01*
X103309523Y-77533333D01*
X103309523Y-77771428D01*
X103261904Y-77961904D01*
X103214285Y-78057142D01*
X103166666Y-78104761D01*
X103071428Y-78152380D01*
X102976190Y-78152380D01*
X102880952Y-78104761D01*
X102833333Y-78057142D01*
X102785714Y-77961904D01*
X102738095Y-77771428D01*
X102738095Y-77533333D01*
X102785714Y-77342857D01*
X102833333Y-77247619D01*
X102880952Y-77200000D01*
X102976190Y-77152380D01*
X103928571Y-77152380D02*
X104023809Y-77152380D01*
X104119047Y-77200000D01*
X104166666Y-77247619D01*
X104214285Y-77342857D01*
X104261904Y-77533333D01*
X104261904Y-77771428D01*
X104214285Y-77961904D01*
X104166666Y-78057142D01*
X104119047Y-78104761D01*
X104023809Y-78152380D01*
X103928571Y-78152380D01*
X103833333Y-78104761D01*
X103785714Y-78057142D01*
X103738095Y-77961904D01*
X103690476Y-77771428D01*
X103690476Y-77533333D01*
X103738095Y-77342857D01*
X103785714Y-77247619D01*
X103833333Y-77200000D01*
X103928571Y-77152380D01*
X104880952Y-77152380D02*
X104976190Y-77152380D01*
X105071428Y-77200000D01*
X105119047Y-77247619D01*
X105166666Y-77342857D01*
X105214285Y-77533333D01*
X105214285Y-77771428D01*
X105166666Y-77961904D01*
X105119047Y-78057142D01*
X105071428Y-78104761D01*
X104976190Y-78152380D01*
X104880952Y-78152380D01*
X104785714Y-78104761D01*
X104738095Y-78057142D01*
X104690476Y-77961904D01*
X104642857Y-77771428D01*
X104642857Y-77533333D01*
X104690476Y-77342857D01*
X104738095Y-77247619D01*
X104785714Y-77200000D01*
X104880952Y-77152380D01*
X106404761Y-78152380D02*
X106404761Y-77485714D01*
X106404761Y-77580952D02*
X106452380Y-77533333D01*
X106547619Y-77485714D01*
X106690476Y-77485714D01*
X106785714Y-77533333D01*
X106833333Y-77628571D01*
X106833333Y-78152380D01*
X106833333Y-77628571D02*
X106880952Y-77533333D01*
X106976190Y-77485714D01*
X107119047Y-77485714D01*
X107214285Y-77533333D01*
X107261904Y-77628571D01*
X107261904Y-78152380D01*
X107738095Y-78152380D02*
X107738095Y-77485714D01*
X107738095Y-77580952D02*
X107785714Y-77533333D01*
X107880952Y-77485714D01*
X108023809Y-77485714D01*
X108119047Y-77533333D01*
X108166666Y-77628571D01*
X108166666Y-78152380D01*
X108166666Y-77628571D02*
X108214285Y-77533333D01*
X108309523Y-77485714D01*
X108452380Y-77485714D01*
X108547619Y-77533333D01*
X108595238Y-77628571D01*
X108595238Y-78152380D01*
X66000000Y-79000000D02*
X143000000Y-79000000D01*
X66000000Y-82000000D02*
X66000000Y-78413579D01*
X143000000Y-82000000D02*
X143000000Y-78413579D01*
X143000000Y-79000000D02*
X141873496Y-79586421D01*
X143000000Y-79000000D02*
X141873496Y-78413579D01*
X66000000Y-79000000D02*
X67126504Y-79586421D01*
X66000000Y-79000000D02*
X67126504Y-78413579D01*
M02*
