G04 #@! TF.GenerationSoftware,KiCad,Pcbnew,(5.1.5)-3*
G04 #@! TF.CreationDate,2020-04-05T12:45:20+05:30*
G04 #@! TF.ProjectId,Con+fb(v+i),436f6e2b-6662-4287-962b-69292e6b6963,rev?*
G04 #@! TF.SameCoordinates,Original*
G04 #@! TF.FileFunction,Legend,Bot*
G04 #@! TF.FilePolarity,Positive*
%FSLAX46Y46*%
G04 Gerber Fmt 4.6, Leading zero omitted, Abs format (unit mm)*
G04 Created by KiCad (PCBNEW (5.1.5)-3) date 2020-04-05 12:45:20*
%MOMM*%
%LPD*%
G04 APERTURE LIST*
%ADD10C,0.150000*%
%ADD11C,0.120000*%
G04 APERTURE END LIST*
D10*
X100309523Y-77182380D02*
X100976190Y-77182380D01*
X100547619Y-78182380D01*
X101261904Y-77182380D02*
X101928571Y-77182380D01*
X101500000Y-78182380D01*
X102309523Y-78087142D02*
X102357142Y-78134761D01*
X102309523Y-78182380D01*
X102261904Y-78134761D01*
X102309523Y-78087142D01*
X102309523Y-78182380D01*
X102976190Y-77182380D02*
X103071428Y-77182380D01*
X103166666Y-77230000D01*
X103214285Y-77277619D01*
X103261904Y-77372857D01*
X103309523Y-77563333D01*
X103309523Y-77801428D01*
X103261904Y-77991904D01*
X103214285Y-78087142D01*
X103166666Y-78134761D01*
X103071428Y-78182380D01*
X102976190Y-78182380D01*
X102880952Y-78134761D01*
X102833333Y-78087142D01*
X102785714Y-77991904D01*
X102738095Y-77801428D01*
X102738095Y-77563333D01*
X102785714Y-77372857D01*
X102833333Y-77277619D01*
X102880952Y-77230000D01*
X102976190Y-77182380D01*
X103928571Y-77182380D02*
X104023809Y-77182380D01*
X104119047Y-77230000D01*
X104166666Y-77277619D01*
X104214285Y-77372857D01*
X104261904Y-77563333D01*
X104261904Y-77801428D01*
X104214285Y-77991904D01*
X104166666Y-78087142D01*
X104119047Y-78134761D01*
X104023809Y-78182380D01*
X103928571Y-78182380D01*
X103833333Y-78134761D01*
X103785714Y-78087142D01*
X103738095Y-77991904D01*
X103690476Y-77801428D01*
X103690476Y-77563333D01*
X103738095Y-77372857D01*
X103785714Y-77277619D01*
X103833333Y-77230000D01*
X103928571Y-77182380D01*
X104880952Y-77182380D02*
X104976190Y-77182380D01*
X105071428Y-77230000D01*
X105119047Y-77277619D01*
X105166666Y-77372857D01*
X105214285Y-77563333D01*
X105214285Y-77801428D01*
X105166666Y-77991904D01*
X105119047Y-78087142D01*
X105071428Y-78134761D01*
X104976190Y-78182380D01*
X104880952Y-78182380D01*
X104785714Y-78134761D01*
X104738095Y-78087142D01*
X104690476Y-77991904D01*
X104642857Y-77801428D01*
X104642857Y-77563333D01*
X104690476Y-77372857D01*
X104738095Y-77277619D01*
X104785714Y-77230000D01*
X104880952Y-77182380D01*
X106404761Y-78182380D02*
X106404761Y-77515714D01*
X106404761Y-77610952D02*
X106452380Y-77563333D01*
X106547619Y-77515714D01*
X106690476Y-77515714D01*
X106785714Y-77563333D01*
X106833333Y-77658571D01*
X106833333Y-78182380D01*
X106833333Y-77658571D02*
X106880952Y-77563333D01*
X106976190Y-77515714D01*
X107119047Y-77515714D01*
X107214285Y-77563333D01*
X107261904Y-77658571D01*
X107261904Y-78182380D01*
X107738095Y-78182380D02*
X107738095Y-77515714D01*
X107738095Y-77610952D02*
X107785714Y-77563333D01*
X107880952Y-77515714D01*
X108023809Y-77515714D01*
X108119047Y-77563333D01*
X108166666Y-77658571D01*
X108166666Y-78182380D01*
X108166666Y-77658571D02*
X108214285Y-77563333D01*
X108309523Y-77515714D01*
X108452380Y-77515714D01*
X108547619Y-77563333D01*
X108595238Y-77658571D01*
X108595238Y-78182380D01*
D11*
X66000000Y-79000000D02*
X143000000Y-79000000D01*
X66000000Y-82000000D02*
X66000000Y-78413579D01*
X143000000Y-82000000D02*
X143000000Y-78413579D01*
X143000000Y-79000000D02*
X141873496Y-79586421D01*
X143000000Y-79000000D02*
X141873496Y-78413579D01*
X66000000Y-79000000D02*
X67126504Y-79586421D01*
X66000000Y-79000000D02*
X67126504Y-78413579D01*
D10*
X146722380Y-118166666D02*
X146722380Y-118357142D01*
X146770000Y-118452380D01*
X146817619Y-118500000D01*
X146960476Y-118595238D01*
X147150952Y-118642857D01*
X147531904Y-118642857D01*
X147627142Y-118595238D01*
X147674761Y-118547619D01*
X147722380Y-118452380D01*
X147722380Y-118261904D01*
X147674761Y-118166666D01*
X147627142Y-118119047D01*
X147531904Y-118071428D01*
X147293809Y-118071428D01*
X147198571Y-118119047D01*
X147150952Y-118166666D01*
X147103333Y-118261904D01*
X147103333Y-118452380D01*
X147150952Y-118547619D01*
X147198571Y-118595238D01*
X147293809Y-118642857D01*
X146722380Y-117166666D02*
X146722380Y-117642857D01*
X147198571Y-117690476D01*
X147150952Y-117642857D01*
X147103333Y-117547619D01*
X147103333Y-117309523D01*
X147150952Y-117214285D01*
X147198571Y-117166666D01*
X147293809Y-117119047D01*
X147531904Y-117119047D01*
X147627142Y-117166666D01*
X147674761Y-117214285D01*
X147722380Y-117309523D01*
X147722380Y-117547619D01*
X147674761Y-117642857D01*
X147627142Y-117690476D01*
X147627142Y-116690476D02*
X147674761Y-116642857D01*
X147722380Y-116690476D01*
X147674761Y-116738095D01*
X147627142Y-116690476D01*
X147722380Y-116690476D01*
X146722380Y-116023809D02*
X146722380Y-115928571D01*
X146770000Y-115833333D01*
X146817619Y-115785714D01*
X146912857Y-115738095D01*
X147103333Y-115690476D01*
X147341428Y-115690476D01*
X147531904Y-115738095D01*
X147627142Y-115785714D01*
X147674761Y-115833333D01*
X147722380Y-115928571D01*
X147722380Y-116023809D01*
X147674761Y-116119047D01*
X147627142Y-116166666D01*
X147531904Y-116214285D01*
X147341428Y-116261904D01*
X147103333Y-116261904D01*
X146912857Y-116214285D01*
X146817619Y-116166666D01*
X146770000Y-116119047D01*
X146722380Y-116023809D01*
X146722380Y-115071428D02*
X146722380Y-114976190D01*
X146770000Y-114880952D01*
X146817619Y-114833333D01*
X146912857Y-114785714D01*
X147103333Y-114738095D01*
X147341428Y-114738095D01*
X147531904Y-114785714D01*
X147627142Y-114833333D01*
X147674761Y-114880952D01*
X147722380Y-114976190D01*
X147722380Y-115071428D01*
X147674761Y-115166666D01*
X147627142Y-115214285D01*
X147531904Y-115261904D01*
X147341428Y-115309523D01*
X147103333Y-115309523D01*
X146912857Y-115261904D01*
X146817619Y-115214285D01*
X146770000Y-115166666D01*
X146722380Y-115071428D01*
X146722380Y-114119047D02*
X146722380Y-114023809D01*
X146770000Y-113928571D01*
X146817619Y-113880952D01*
X146912857Y-113833333D01*
X147103333Y-113785714D01*
X147341428Y-113785714D01*
X147531904Y-113833333D01*
X147627142Y-113880952D01*
X147674761Y-113928571D01*
X147722380Y-114023809D01*
X147722380Y-114119047D01*
X147674761Y-114214285D01*
X147627142Y-114261904D01*
X147531904Y-114309523D01*
X147341428Y-114357142D01*
X147103333Y-114357142D01*
X146912857Y-114309523D01*
X146817619Y-114261904D01*
X146770000Y-114214285D01*
X146722380Y-114119047D01*
X147722380Y-112595238D02*
X147055714Y-112595238D01*
X147150952Y-112595238D02*
X147103333Y-112547619D01*
X147055714Y-112452380D01*
X147055714Y-112309523D01*
X147103333Y-112214285D01*
X147198571Y-112166666D01*
X147722380Y-112166666D01*
X147198571Y-112166666D02*
X147103333Y-112119047D01*
X147055714Y-112023809D01*
X147055714Y-111880952D01*
X147103333Y-111785714D01*
X147198571Y-111738095D01*
X147722380Y-111738095D01*
X147722380Y-111261904D02*
X147055714Y-111261904D01*
X147150952Y-111261904D02*
X147103333Y-111214285D01*
X147055714Y-111119047D01*
X147055714Y-110976190D01*
X147103333Y-110880952D01*
X147198571Y-110833333D01*
X147722380Y-110833333D01*
X147198571Y-110833333D02*
X147103333Y-110785714D01*
X147055714Y-110690476D01*
X147055714Y-110547619D01*
X147103333Y-110452380D01*
X147198571Y-110404761D01*
X147722380Y-110404761D01*
D11*
X146000000Y-147000000D02*
X146000000Y-82000000D01*
X143000000Y-147000000D02*
X146586421Y-147000000D01*
X143000000Y-82000000D02*
X146586421Y-82000000D01*
X146000000Y-82000000D02*
X146586421Y-83126504D01*
X146000000Y-82000000D02*
X145413579Y-83126504D01*
X146000000Y-147000000D02*
X146586421Y-145873496D01*
X146000000Y-147000000D02*
X145413579Y-145873496D01*
M02*
