M48
; DRILL file {KiCad (5.1.5)-3} date 04/05/20 12:45:45
; FORMAT={3:3/ absolute / metric / keep zeros}
; #@! TF.CreationDate,2020-04-05T12:45:45+05:30
; #@! TF.GenerationSoftware,Kicad,Pcbnew,(5.1.5)-3
; #@! TF.FileFunction,Plated,1,2,PTH
FMAT,2
METRIC
T1C0.400
T2C0.800
T3C1.000
T4C1.100
T5C1.300
T6C1.500
T7C3.000
%
G90
G05
T1
X080800Y-100400
X082100Y-099200
X082300Y-104800
X082300Y-110700
X083500Y-098100
X083500Y-103100
X083700Y-104800
X083700Y-110700
X084900Y-102000
X085000Y-104800
X085000Y-110700
X086200Y-100800
X089200Y-120000
X091700Y-122400
T2
X112500Y-107000
X115000Y-107000
X121840Y-124000
X132000Y-124000
T3
X091000Y-127000
X091000Y-129540
X091000Y-132080
X091000Y-134620
X089000Y-098000
X089000Y-100540
X078000Y-094000
X078000Y-096540
X078000Y-099080
X078000Y-101620
X078000Y-104160
X078000Y-106700
X078000Y-109240
X078000Y-111780
X078000Y-114320
X078000Y-116860
X078000Y-119400
X078000Y-121940
X078000Y-124480
X078000Y-127020
X078000Y-129560
X078000Y-132100
X078000Y-134640
X104000Y-119000
X104000Y-121540
X104000Y-124080
X104000Y-126620
X104000Y-129160
X104000Y-131700
X104000Y-134240
X124000Y-134000
X126540Y-134000
X086000Y-128920
X086000Y-131460
X086000Y-134000
X089000Y-107000
X089000Y-109540
X089000Y-112080
X089000Y-114620
X098000Y-118760
X098000Y-121300
X098000Y-123840
X098000Y-126380
X098000Y-128920
X098000Y-131460
X098000Y-134000
T4
X123000Y-093840
X123000Y-104000
X131000Y-093840
X131000Y-104000
X131000Y-109000
X131000Y-119160
X123000Y-109000
X123000Y-119160
T5
X112000Y-118000
X112000Y-123000
X115800Y-120500
T6
X099000Y-094000
X110400Y-094000
T7
X071000Y-087000
X071000Y-142000
X138000Y-087000
X138000Y-142000
T0
M30
