G04 #@! TF.GenerationSoftware,KiCad,Pcbnew,(5.1.5)-3*
G04 #@! TF.CreationDate,2020-04-05T12:45:21+05:30*
G04 #@! TF.ProjectId,Con+fb(v+i),436f6e2b-6662-4287-962b-69292e6b6963,rev?*
G04 #@! TF.SameCoordinates,Original*
G04 #@! TF.FileFunction,Other,User*
%FSLAX46Y46*%
G04 Gerber Fmt 4.6, Leading zero omitted, Abs format (unit mm)*
G04 Created by KiCad (PCBNEW (5.1.5)-3) date 2020-04-05 12:45:21*
%MOMM*%
%LPD*%
G04 APERTURE LIST*
%ADD10C,0.050000*%
G04 APERTURE END LIST*
D10*
X116500000Y-107000000D02*
G75*
G03X116500000Y-107000000I-2750000J0D01*
G01*
X121400000Y-105350000D02*
X124600000Y-105350000D01*
X124600000Y-105350000D02*
X124600000Y-92490000D01*
X124600000Y-92490000D02*
X121400000Y-92490000D01*
X121400000Y-92490000D02*
X121400000Y-105350000D01*
X121400000Y-107650000D02*
X121400000Y-120510000D01*
X124600000Y-107650000D02*
X121400000Y-107650000D01*
X124600000Y-120510000D02*
X124600000Y-107650000D01*
X121400000Y-120510000D02*
X124600000Y-120510000D01*
X129400000Y-105350000D02*
X132600000Y-105350000D01*
X132600000Y-105350000D02*
X132600000Y-92490000D01*
X132600000Y-92490000D02*
X129400000Y-92490000D01*
X129400000Y-92490000D02*
X129400000Y-105350000D01*
X129400000Y-107650000D02*
X129400000Y-120510000D01*
X132600000Y-107650000D02*
X129400000Y-107650000D01*
X132600000Y-120510000D02*
X132600000Y-107650000D01*
X129400000Y-120510000D02*
X132600000Y-120510000D01*
X76200000Y-92200000D02*
X79750000Y-92200000D01*
X79750000Y-92200000D02*
X79750000Y-136400000D01*
X79750000Y-136400000D02*
X76200000Y-136400000D01*
X76200000Y-136400000D02*
X76200000Y-92200000D01*
X87200000Y-96200000D02*
X90750000Y-96200000D01*
X90750000Y-96200000D02*
X90750000Y-102300000D01*
X90750000Y-102300000D02*
X87200000Y-102300000D01*
X87200000Y-102300000D02*
X87200000Y-96200000D01*
X89200000Y-136400000D02*
X89200000Y-125200000D01*
X92750000Y-136400000D02*
X89200000Y-136400000D01*
X92750000Y-125200000D02*
X92750000Y-136400000D01*
X89200000Y-125200000D02*
X92750000Y-125200000D01*
X87200000Y-105200000D02*
X90750000Y-105200000D01*
X90750000Y-105200000D02*
X90750000Y-116400000D01*
X90750000Y-116400000D02*
X87200000Y-116400000D01*
X87200000Y-116400000D02*
X87200000Y-105200000D01*
X99800000Y-135800000D02*
X99800000Y-116950000D01*
X99800000Y-116950000D02*
X96200000Y-116950000D01*
X96200000Y-116950000D02*
X96200000Y-135800000D01*
X96200000Y-135800000D02*
X99800000Y-135800000D01*
X128300000Y-135800000D02*
X122200000Y-135800000D01*
X128300000Y-132250000D02*
X128300000Y-135800000D01*
X122200000Y-132250000D02*
X128300000Y-132250000D01*
X122200000Y-135800000D02*
X122200000Y-132250000D01*
X84200000Y-127120000D02*
X87750000Y-127120000D01*
X87750000Y-127120000D02*
X87750000Y-135770000D01*
X87750000Y-135770000D02*
X84200000Y-135770000D01*
X84200000Y-135770000D02*
X84200000Y-127120000D01*
X102200000Y-117200000D02*
X105750000Y-117200000D01*
X105750000Y-117200000D02*
X105750000Y-136000000D01*
X105750000Y-136000000D02*
X102200000Y-136000000D01*
X102200000Y-136000000D02*
X102200000Y-117200000D01*
X97250000Y-91350000D02*
X97250000Y-96650000D01*
X97250000Y-96650000D02*
X112150000Y-96650000D01*
X112150000Y-96650000D02*
X112150000Y-91350000D01*
X112150000Y-91350000D02*
X97250000Y-91350000D01*
X133050000Y-125500000D02*
X133050000Y-122500000D01*
X133050000Y-122500000D02*
X120790000Y-122500000D01*
X120790000Y-122500000D02*
X120790000Y-125500000D01*
X120790000Y-125500000D02*
X133050000Y-125500000D01*
X110550000Y-115300000D02*
X110550000Y-125650000D01*
X110550000Y-125650000D02*
X117250000Y-125650000D01*
X117250000Y-125650000D02*
X117250000Y-115300000D01*
X117250000Y-115300000D02*
X110550000Y-115300000D01*
X74250000Y-87000000D02*
G75*
G03X74250000Y-87000000I-3250000J0D01*
G01*
X141250000Y-87000000D02*
G75*
G03X141250000Y-87000000I-3250000J0D01*
G01*
X141250000Y-142000000D02*
G75*
G03X141250000Y-142000000I-3250000J0D01*
G01*
X74250000Y-142000000D02*
G75*
G03X74250000Y-142000000I-3250000J0D01*
G01*
M02*
